<svg width="875" height="602" viewBox="0 0 875 602" fill="none" xmlns="http://www.w3.org/2000/svg">
<g clip-path="url(#clip0_338_74246)">
<path d="M284.309 279.088C285.979 279.088 287.714 279.216 289.513 279.538C291.311 279.859 293.046 280.63 294.588 281.85C295.808 282.814 296.707 283.97 297.286 285.319C297.864 286.668 298.121 288.081 298.121 289.559C298.121 290.587 297.928 291.55 297.607 292.514C297.286 293.478 296.836 294.313 296.258 295.019C295.808 295.598 295.294 296.047 294.716 296.561C294.138 297.011 293.431 297.396 292.66 297.717C293.752 297.974 294.716 298.424 295.615 298.938C296.451 299.516 297.221 300.094 297.8 300.737C298.442 301.508 299.02 302.471 299.534 303.628C300.048 304.784 300.305 306.261 300.305 308.06C300.305 310.052 299.984 311.85 299.277 313.392C298.57 314.934 297.671 316.219 296.579 317.246C295.615 318.146 294.266 318.917 292.596 319.559C290.926 320.201 288.806 320.523 286.236 320.523H268.313V279.088H284.309ZM275.444 295.469H284.63C285.915 295.469 286.943 295.276 287.714 294.891C288.485 294.505 289.063 294.056 289.513 293.542C290.348 292.578 290.733 291.422 290.733 290.073C290.733 289.431 290.605 288.788 290.412 288.274C290.155 287.696 289.834 287.246 289.448 286.861C288.677 286.09 287.842 285.705 286.815 285.576C285.787 285.448 284.952 285.383 284.245 285.383H275.444V295.469ZM275.444 314.099H285.915C286.943 314.099 287.971 313.906 288.806 313.585C289.705 313.263 290.412 312.814 290.926 312.3C291.504 311.722 291.889 311.079 292.211 310.244C292.532 309.409 292.66 308.638 292.66 307.867C292.66 306.839 292.468 305.94 292.146 305.169C291.825 304.398 291.311 303.692 290.797 303.178C290.027 302.407 289.191 301.957 288.356 301.765C287.521 301.636 286.75 301.508 285.979 301.508H275.444V314.099Z" fill="#004E82"/>
<path d="M305.315 290.651H311.739V295.019C311.996 294.57 312.382 294.056 312.767 293.542C313.153 293.028 313.602 292.514 314.116 292.129C315.337 291.101 316.557 290.523 317.842 290.33C319.127 290.137 320.219 290.073 321.118 290.137V297.204C318.292 296.882 315.979 297.46 314.181 298.874C313.217 299.645 312.575 300.416 312.253 301.315C311.932 302.214 311.739 303.178 311.739 304.206V320.523H305.315V290.651Z" fill="#004E82"/>
<path d="M324.138 279.088H330.562V286.219H324.138V279.088ZM324.138 290.651H330.562V320.523H324.138V290.651Z" fill="#004E82"/>
<path d="M344.309 310.694C344.309 311.529 344.373 312.364 344.502 313.135C344.63 313.906 345.08 314.484 345.851 314.805C346.3 314.998 346.878 315.126 347.714 315.126C348.484 315.126 349.255 315.126 349.833 315.062V320.523C349.448 320.587 348.934 320.715 348.292 320.78C347.649 320.908 346.878 320.908 345.979 320.908C344.052 320.908 342.574 320.651 341.546 320.201C340.519 319.687 339.812 319.109 339.298 318.467C338.656 317.632 338.27 316.54 338.142 315.255C338.013 313.97 337.885 312.621 337.885 311.144V295.919H333.195V290.651H337.885V280.244H344.309V290.651H349.833V295.919H344.309V310.694Z" fill="#004E82"/>
<path d="M353.688 279.088H360.112V286.219H353.688V279.088ZM353.688 290.651H360.112V320.523H353.688V290.651Z" fill="#004E82"/>
<path d="M368.72 311.786C369.234 312.364 369.812 312.878 370.455 313.392C371.097 313.906 371.868 314.291 372.639 314.613C373.281 314.869 373.988 315.062 374.694 315.191C375.401 315.319 376.3 315.448 377.2 315.448C377.649 315.448 378.292 315.383 379.255 315.255C380.219 315.126 381.054 314.741 381.761 314.163C382.21 313.842 382.532 313.392 382.789 312.942C382.981 312.493 383.11 312.043 383.11 311.593C383.11 310.758 382.917 310.116 382.532 309.795C382.146 309.473 381.697 309.152 381.183 308.959C380.604 308.767 380.026 308.638 379.32 308.51C378.613 308.381 377.649 308.253 376.493 308.06L374.694 307.739C373.795 307.61 372.896 307.418 371.996 307.225C371.097 307.032 370.198 306.711 369.298 306.261C368.078 305.683 367.05 304.848 366.215 303.82C365.444 302.792 365.058 301.315 365.058 299.452C365.058 298.617 365.187 297.846 365.38 297.139C365.572 296.433 365.829 295.855 366.151 295.276C366.472 294.698 366.793 294.249 367.178 293.799C367.564 293.413 367.885 293.028 368.27 292.771C369.491 291.743 370.904 291.037 372.446 290.587C374.052 290.137 375.658 289.944 377.264 289.944C378.549 289.944 379.769 290.073 380.861 290.266C381.954 290.523 382.917 290.78 383.752 291.101C384.652 291.486 385.551 292 386.45 292.578C387.35 293.156 388.121 293.799 388.827 294.441L385.037 298.553C384.587 298.103 384.009 297.717 383.367 297.268C382.724 296.818 381.954 296.497 381.054 296.176C380.412 295.919 379.769 295.79 379.191 295.662C378.613 295.533 377.971 295.469 377.2 295.469C376.75 295.469 376.236 295.469 375.53 295.533C374.887 295.598 374.245 295.79 373.602 296.047C372.767 296.368 372.189 296.818 371.932 297.332C371.675 297.846 371.547 298.296 371.547 298.681C371.547 299.452 371.739 299.966 372.189 300.287C372.575 300.608 373.024 300.865 373.474 300.994C374.116 301.251 374.694 301.379 375.337 301.443C375.915 301.508 376.686 301.636 377.585 301.765L381.375 302.407C382.082 302.535 382.981 302.728 384.138 303.114C385.294 303.435 386.322 304.077 387.285 304.912C388.956 306.326 389.727 308.317 389.727 310.887C389.727 312.557 389.47 313.906 388.891 314.998C388.313 316.09 387.671 316.989 386.964 317.696C386.065 318.595 384.844 319.366 383.303 320.073C381.761 320.78 379.769 321.101 377.328 321.101C376.108 321.101 374.694 320.972 373.217 320.78C371.739 320.523 370.326 320.137 369.041 319.623C367.692 319.045 366.536 318.403 365.701 317.632C364.866 316.861 364.223 316.283 363.838 315.897L368.72 311.786Z" fill="#004E82"/>
<path d="M394.288 279.088H400.648V293.478C401.676 292.45 402.96 291.615 404.374 291.037C405.851 290.458 407.329 290.137 408.935 290.137C410.348 290.137 411.633 290.394 412.853 290.844C414.074 291.293 415.102 291.936 416.001 292.835C416.901 293.735 417.607 294.827 418.057 296.111C418.571 297.396 418.828 298.938 418.828 300.608V320.587H412.468V301.7C412.468 301.443 412.468 301.122 412.468 300.673C412.468 300.287 412.404 299.902 412.275 299.452C412.147 299.002 412.018 298.617 411.826 298.167C411.633 297.782 411.376 297.396 410.99 297.011C410.733 296.754 410.284 296.433 409.706 296.176C409.127 295.919 408.357 295.79 407.457 295.79C406.301 295.79 405.337 295.983 404.566 296.433C403.796 296.818 403.217 297.268 402.768 297.653C402.318 298.103 401.804 298.745 401.354 299.58C400.841 300.416 400.648 301.508 400.648 302.792V320.523H394.288V279.088Z" fill="#004E82"/>
<path d="M444.073 279.088H458.72C461.418 279.088 463.602 279.473 465.272 280.244C466.943 281.015 468.227 281.786 469.127 282.621C469.512 283.007 469.898 283.52 470.347 284.034C470.797 284.613 471.182 285.319 471.568 286.09C471.953 286.925 472.275 287.889 472.467 288.917C472.724 290.009 472.788 291.229 472.788 292.578C472.788 294.762 472.467 296.69 471.761 298.296C471.118 299.902 470.219 301.251 469.063 302.343C467.97 303.371 466.557 304.27 464.887 304.977C463.217 305.683 461.29 306.004 459.105 306.004H451.204V320.523H444.073V279.088ZM458.334 299.645C459.555 299.645 460.647 299.452 461.482 299.067C462.317 298.681 462.96 298.296 463.474 297.782C463.923 297.332 464.373 296.625 464.758 295.79C465.144 294.955 465.337 293.863 465.337 292.514C465.337 291.293 465.144 290.266 464.823 289.366C464.502 288.467 464.052 287.76 463.538 287.246C462.703 286.411 461.739 285.833 460.711 285.64C459.684 285.448 458.913 285.319 458.399 285.319H451.204V299.516H458.334V299.645Z" fill="#004E82"/>
<path d="M499.834 313.649C499.834 314.548 499.834 315.319 499.834 316.026C499.834 316.668 499.898 317.311 499.962 317.76C500.027 318.274 500.155 318.724 500.284 319.174C500.412 319.623 500.605 320.073 500.798 320.523H495.016C494.438 320.201 494.052 319.752 493.795 319.174C493.667 318.852 493.538 318.595 493.538 318.274C493.538 318.017 493.538 317.824 493.538 317.76C492.832 318.403 492.125 318.981 491.418 319.366C490.712 319.752 490.005 320.073 489.363 320.33C488.656 320.523 488.014 320.715 487.371 320.78C486.729 320.844 486.087 320.908 485.508 320.908C484.416 320.908 483.196 320.715 481.847 320.394C480.498 320.073 479.213 319.366 478.057 318.338C477.286 317.568 476.579 316.668 476.001 315.576C475.423 314.484 475.102 313.135 475.102 311.529C475.102 310.051 475.359 308.767 475.808 307.803C476.258 306.775 476.9 306.004 477.607 305.362C478.185 304.848 478.892 304.398 479.663 304.077C480.433 303.756 481.204 303.435 481.975 303.178C482.746 302.921 483.388 302.792 483.967 302.664C484.545 302.535 484.866 302.471 484.994 302.407L487.564 301.957C487.693 301.893 487.821 301.893 487.885 301.893C487.95 301.893 488.078 301.893 488.206 301.893C488.335 301.893 488.528 301.829 488.785 301.765C489.042 301.7 489.491 301.636 490.134 301.508C490.712 301.379 491.226 301.251 491.675 301.122C492.189 300.994 492.575 300.737 492.896 300.416C493.217 300.094 493.41 299.773 493.474 299.388C493.538 299.066 493.603 298.681 493.603 298.36C493.603 297.846 493.538 297.396 493.346 297.011C493.217 296.625 492.896 296.24 492.382 295.983C491.804 295.533 491.226 295.276 490.455 295.212C489.748 295.084 489.106 295.084 488.528 295.084C487.05 295.084 486.022 295.212 485.38 295.533C484.738 295.854 484.288 296.111 484.095 296.24C483.774 296.497 483.453 296.818 483.132 297.332C482.81 297.846 482.618 298.488 482.618 299.323H476.386C476.451 298.103 476.772 296.882 477.286 295.598C477.8 294.377 478.506 293.285 479.534 292.386C480.241 291.743 481.012 291.293 481.847 290.908C482.682 290.587 483.517 290.266 484.352 290.137C485.187 289.944 486.022 289.88 486.729 289.816C487.5 289.752 488.142 289.752 488.72 289.752C489.17 289.752 489.812 289.752 490.583 289.816C491.354 289.88 492.189 289.944 493.024 290.137C493.86 290.33 494.759 290.587 495.594 290.972C496.429 291.358 497.2 291.872 497.778 292.578C498.742 293.606 499.256 294.698 499.448 295.854C499.641 297.011 499.77 298.039 499.77 298.938V313.649H499.834ZM488.463 306.518C487.436 306.775 486.536 306.968 485.701 307.161C484.866 307.353 484.159 307.675 483.581 308.124C483.132 308.445 482.746 308.895 482.489 309.345C482.232 309.795 482.104 310.373 482.104 311.079C482.104 311.529 482.168 312.043 482.361 312.621C482.489 313.199 482.875 313.649 483.388 314.099C483.967 314.548 484.545 314.805 485.187 314.934C485.83 315.062 486.472 315.126 486.986 315.126C488.656 315.126 489.877 314.869 490.776 314.291C491.675 313.713 492.318 313.135 492.703 312.428C493.153 311.657 493.41 310.758 493.474 309.859C493.603 308.895 493.603 307.996 493.603 307.032V305.169C493.024 305.362 492.446 305.555 491.868 305.683C491.29 305.812 490.648 306.004 490.005 306.133L488.463 306.518Z" fill="#004E82"/>
<path d="M505.744 290.651H512.168V295.019C512.425 294.57 512.811 294.056 513.196 293.542C513.581 293.028 514.031 292.514 514.545 292.129C515.766 291.101 516.986 290.523 518.271 290.33C519.556 290.137 520.648 290.073 521.547 290.137V297.204C518.721 296.882 516.408 297.46 514.609 298.874C513.646 299.645 513.003 300.416 512.682 301.315C512.361 302.214 512.168 303.178 512.168 304.206V320.523H505.744V290.651Z" fill="#004E82"/>
<path d="M547.949 313.649C547.949 314.548 547.949 315.319 547.949 316.026C547.949 316.668 548.013 317.311 548.078 317.76C548.142 318.274 548.27 318.724 548.399 319.174C548.527 319.623 548.72 320.073 548.913 320.523H543.131C542.553 320.201 542.168 319.752 541.911 319.174C541.782 318.852 541.654 318.595 541.654 318.274C541.654 318.017 541.654 317.824 541.654 317.76C540.947 318.403 540.24 318.981 539.534 319.366C538.827 319.752 538.12 320.073 537.478 320.33C536.771 320.523 536.129 320.715 535.487 320.78C534.844 320.844 534.202 320.908 533.624 320.908C532.532 320.908 531.311 320.715 529.962 320.394C528.613 320.073 527.328 319.366 526.172 318.338C525.401 317.568 524.694 316.668 524.116 315.576C523.538 314.484 523.217 313.135 523.217 311.529C523.217 310.051 523.474 308.767 523.923 307.803C524.373 306.775 525.016 306.004 525.722 305.362C526.3 304.848 527.007 304.398 527.778 304.077C528.549 303.756 529.32 303.435 530.09 303.178C530.861 302.921 531.504 302.792 532.082 302.664C532.66 302.535 532.981 302.471 533.11 302.407L535.679 301.957C535.808 301.893 535.936 301.893 536.001 301.893C536.065 301.893 536.193 301.893 536.322 301.893C536.45 301.893 536.643 301.829 536.9 301.765C537.157 301.7 537.607 301.636 538.249 301.508C538.827 301.379 539.341 301.251 539.791 301.122C540.305 300.994 540.69 300.737 541.011 300.416C541.332 300.094 541.525 299.773 541.589 299.388C541.654 299.066 541.718 298.681 541.718 298.36C541.718 297.846 541.654 297.396 541.461 297.011C541.332 296.625 541.011 296.24 540.497 295.983C539.919 295.533 539.341 295.276 538.57 295.212C537.863 295.084 537.221 295.084 536.643 295.084C535.165 295.084 534.138 295.212 533.495 295.533C532.853 295.854 532.403 296.111 532.21 296.24C531.889 296.497 531.568 296.818 531.247 297.332C530.926 297.846 530.733 298.488 530.733 299.323H524.502C524.566 298.103 524.887 296.882 525.401 295.598C525.915 294.377 526.622 293.285 527.649 292.386C528.356 291.743 529.127 291.293 529.962 290.908C530.797 290.587 531.632 290.266 532.467 290.137C533.302 289.944 534.138 289.88 534.844 289.816C535.615 289.752 536.257 289.752 536.836 289.752C537.285 289.752 537.928 289.752 538.699 289.816C539.469 289.88 540.305 289.944 541.14 290.137C541.975 290.33 542.874 290.587 543.709 290.972C544.544 291.358 545.315 291.872 545.893 292.578C546.857 293.606 547.371 294.698 547.564 295.854C547.756 297.011 547.885 298.039 547.885 298.938V313.649H547.949ZM536.514 306.518C535.487 306.775 534.587 306.968 533.752 307.161C532.917 307.353 532.21 307.675 531.632 308.124C531.183 308.445 530.797 308.895 530.54 309.345C530.283 309.795 530.155 310.373 530.155 311.079C530.155 311.529 530.219 312.043 530.412 312.621C530.54 313.199 530.926 313.649 531.439 314.099C532.018 314.548 532.596 314.805 533.238 314.934C533.881 315.062 534.523 315.126 535.037 315.126C536.707 315.126 537.928 314.869 538.827 314.291C539.726 313.713 540.369 313.135 540.754 312.428C541.204 311.657 541.461 310.758 541.525 309.859C541.654 308.895 541.654 307.996 541.654 307.032V305.169C541.075 305.362 540.497 305.555 539.919 305.683C539.341 305.812 538.699 306.004 538.056 306.133L536.514 306.518Z" fill="#004E82"/>
<path d="M553.859 279.088H560.283V320.523H553.859V279.088Z" fill="#004E82"/>
<path d="M569.791 323.028C570.176 323.028 570.562 322.964 570.947 322.899C571.333 322.835 571.654 322.707 571.975 322.514C572.168 322.386 572.361 322.129 572.489 321.872C572.617 321.615 572.746 321.229 572.746 320.844C572.746 320.587 572.746 320.266 572.682 320.009C572.617 319.687 572.553 319.495 572.489 319.302L563.303 290.715H570.048L575.123 307.546C575.187 307.803 575.316 308.189 575.38 308.574C575.508 308.959 575.573 309.409 575.637 309.795C575.701 310.18 575.765 310.63 575.894 311.015C575.958 311.401 576.022 311.722 576.086 311.979C576.215 310.951 576.408 310.052 576.6 309.345C576.793 308.574 576.922 307.996 577.05 307.61L581.74 290.78H588.485L579.298 320.651C578.72 322.386 578.271 323.735 577.821 324.634C577.371 325.533 576.922 326.24 576.408 326.754C575.573 327.589 574.609 328.167 573.581 328.36C572.553 328.553 571.525 328.681 570.498 328.681H566.258V323.156H569.791V323.028Z" fill="#004E82"/>
<path d="M591.504 290.651H597.863V293.478C600.048 291.229 602.553 290.137 605.572 290.137C607.307 290.137 608.913 290.523 610.262 291.229C611.611 292 612.703 293.028 613.538 294.441C614.823 292.964 616.236 291.936 617.778 291.165C619.32 290.458 620.926 290.073 622.66 290.073C625.487 290.073 627.799 290.972 629.469 292.771C631.204 294.57 632.039 297.139 632.039 300.48V320.458H625.679V301.7C625.679 297.782 624.138 295.855 620.99 295.855C619.32 295.855 617.842 296.497 616.621 297.782C615.401 299.067 614.823 300.737 614.823 302.792V320.523H608.656V301.7C608.656 297.782 607.114 295.855 604.03 295.855C603.195 295.855 602.424 296.047 601.654 296.368C600.883 296.69 600.24 297.139 599.662 297.782C599.084 298.36 598.634 299.131 598.313 299.966C597.992 300.801 597.799 301.765 597.799 302.792V320.523H591.439V290.651H591.504Z" fill="#004E82"/>
<path d="M637.885 290.651H644.245V293.478C644.501 293.221 644.823 292.9 645.208 292.514C645.594 292.129 646.107 291.807 646.75 291.422C647.392 291.101 648.099 290.78 648.998 290.523C649.833 290.266 650.861 290.201 652.018 290.201C652.724 290.201 653.495 290.266 654.266 290.394C655.037 290.523 655.872 290.715 656.707 291.101C657.542 291.422 658.313 291.872 659.084 292.45C659.855 293.028 660.626 293.735 661.332 294.634C661.718 295.148 662.103 295.726 662.553 296.433C662.938 297.139 663.324 297.91 663.645 298.81C663.966 299.709 664.223 300.737 664.416 301.893C664.609 303.049 664.737 304.334 664.737 305.747C664.737 307.996 664.416 310.116 663.838 311.979C663.26 313.906 662.424 315.512 661.332 316.925C660.24 318.338 658.891 319.431 657.349 320.201C655.808 320.972 654.009 321.358 652.018 321.358C651.504 321.358 650.925 321.294 650.283 321.229C649.641 321.165 648.998 320.972 648.292 320.78C647.585 320.523 646.943 320.201 646.236 319.752C645.529 319.302 644.887 318.724 644.245 318.017V328.553H637.885V290.651ZM644.245 305.683C644.245 306.261 644.245 306.84 644.309 307.418C644.373 308.06 644.437 308.703 644.566 309.345C644.694 309.987 644.823 310.63 645.08 311.272C645.272 311.914 645.594 312.493 645.979 313.007C646.686 313.97 647.521 314.548 648.42 314.805C649.319 315.062 650.155 315.191 650.925 315.191C653.238 315.191 655.037 314.356 656.257 312.621C656.707 311.979 657.157 311.079 657.542 309.987C657.928 308.895 658.12 307.482 658.12 305.683C658.12 303.756 657.928 302.214 657.478 300.994C657.028 299.773 656.514 298.874 655.808 298.167C655.358 297.653 654.716 297.204 653.881 296.818C653.045 296.433 652.018 296.176 650.797 296.176C649.962 296.176 649.191 296.304 648.613 296.497C648.035 296.754 647.457 297.011 647.071 297.332C646.429 297.846 645.915 298.488 645.529 299.195C645.208 299.966 644.887 300.673 644.758 301.508C644.566 302.279 644.501 303.049 644.437 303.82C644.245 304.591 644.245 305.234 644.245 305.683Z" fill="#004E82"/>
<path d="M669.17 279.088H675.594V286.219H669.17V279.088ZM669.17 290.651H675.594V320.523H669.17V290.651Z" fill="#004E82"/>
<path d="M700.84 301.186C700.647 300.608 700.39 300.03 700.005 299.388C699.619 298.745 699.234 298.231 698.784 297.782C698.335 297.332 697.757 296.947 696.921 296.497C696.151 296.112 695.123 295.855 694.031 295.855C693.003 295.855 692.103 296.047 691.333 296.433C690.562 296.818 689.919 297.332 689.277 297.91C688.634 298.553 688.056 299.516 687.542 300.608C686.964 301.765 686.707 303.306 686.707 305.234C686.707 306.326 686.836 307.418 687.028 308.381C687.221 309.409 687.542 310.309 687.992 311.144C688.249 311.593 688.506 311.979 688.827 312.428C689.148 312.878 689.598 313.264 690.112 313.649C690.626 314.034 691.204 314.356 691.846 314.548C692.489 314.741 693.26 314.87 694.095 314.87C695.251 314.87 696.151 314.677 696.921 314.227C697.692 313.842 698.335 313.392 698.849 312.878C699.298 312.428 699.748 311.914 700.069 311.336C700.39 310.758 700.712 310.18 700.904 309.666L706.557 312.75C705.979 313.906 705.337 315.062 704.502 316.154C703.667 317.246 702.767 318.146 701.675 318.917C700.583 319.688 699.363 320.266 698.078 320.651C696.793 321.037 695.38 321.229 694.031 321.229C692.746 321.229 691.59 321.101 690.562 320.844C689.534 320.587 688.634 320.266 687.799 319.816C687.028 319.431 686.322 318.981 685.744 318.531C685.166 318.082 684.78 317.696 684.459 317.375C683.11 316.026 682.082 314.291 681.247 312.236C680.476 310.18 680.026 307.867 680.026 305.298C680.026 302.921 680.412 300.737 681.118 298.81C681.889 296.882 682.853 295.212 684.202 293.863C685.423 292.578 686.964 291.55 688.634 290.78C690.305 290.009 692.168 289.688 694.159 289.688C695.829 289.688 697.307 289.944 698.592 290.394C699.876 290.844 701.033 291.486 701.996 292.193C702.703 292.771 703.345 293.349 703.859 293.927C704.437 294.57 704.887 295.148 705.208 295.726C705.594 296.304 705.851 296.818 706.108 297.268C706.3 297.717 706.493 298.039 706.557 298.231L700.84 301.186Z" fill="#004E82"/>
<path d="M370.969 382.321L368.977 375.833H352.596L350.733 382.321H343.603L356.579 340.887H365.059L378.421 382.321H370.969ZM361.397 350.137C361.268 349.687 361.14 349.109 361.012 348.403C360.883 347.696 360.755 346.989 360.69 346.347C360.626 346.925 360.498 347.568 360.433 348.274C360.305 349.045 360.241 349.623 360.112 350.009L354.523 369.409H367.05L361.397 350.137Z" fill="#004E82"/>
<path d="M385.102 373.52C385.616 374.099 386.194 374.613 386.836 375.126C387.479 375.64 388.25 376.026 389.021 376.347C389.663 376.604 390.37 376.797 391.076 376.925C391.847 377.054 392.682 377.182 393.582 377.182C394.031 377.182 394.674 377.118 395.637 376.989C396.601 376.861 397.436 376.475 398.143 375.897C398.592 375.576 398.914 375.126 399.17 374.677C399.363 374.227 399.492 373.777 399.492 373.328C399.492 372.493 399.299 371.85 398.914 371.529C398.528 371.208 398.078 370.887 397.564 370.694C396.986 370.501 396.408 370.373 395.702 370.244C394.995 370.116 394.031 369.987 392.875 369.795L391.076 369.473C390.177 369.345 389.278 369.152 388.378 368.959C387.479 368.767 386.579 368.446 385.68 367.996C384.46 367.418 383.432 366.583 382.597 365.555C381.826 364.527 381.44 363.049 381.44 361.186C381.44 360.351 381.569 359.58 381.761 358.874C381.954 358.167 382.211 357.589 382.532 357.011C382.854 356.433 383.175 355.983 383.56 355.533C383.946 355.148 384.267 354.762 384.652 354.505C385.873 353.478 387.286 352.771 388.828 352.321C390.434 351.872 392.04 351.679 393.646 351.679C394.931 351.679 396.151 351.807 397.243 352C398.335 352.257 399.299 352.514 400.134 352.835C401.033 353.221 401.933 353.735 402.832 354.313C403.732 354.891 404.502 355.533 405.209 356.176L401.419 360.287C400.969 359.837 400.391 359.452 399.749 359.002C399.106 358.553 398.335 358.231 397.436 357.91C396.794 357.653 396.151 357.525 395.573 357.396C394.995 357.268 394.352 357.204 393.582 357.204C393.132 357.204 392.618 357.204 391.911 357.268C391.269 357.332 390.627 357.525 389.984 357.782C389.149 358.103 388.571 358.553 388.314 359.066C388.057 359.58 387.929 360.03 387.929 360.416C387.929 361.186 388.121 361.7 388.571 362.022C388.956 362.343 389.406 362.6 389.856 362.728C390.498 362.985 391.076 363.114 391.719 363.178C392.297 363.242 393.068 363.371 393.967 363.499L397.757 364.141C398.464 364.27 399.363 364.463 400.52 364.848C401.676 365.169 402.704 365.812 403.667 366.647C405.337 368.06 406.108 370.052 406.108 372.621C406.108 374.291 405.851 375.64 405.273 376.732C404.695 377.824 404.053 378.724 403.346 379.431C402.447 380.33 401.226 381.101 399.684 381.807C398.143 382.514 396.151 382.835 393.71 382.835C392.49 382.835 391.076 382.707 389.599 382.514C388.121 382.321 386.708 381.872 385.423 381.358C384.074 380.78 382.918 380.137 382.083 379.366C381.248 378.595 380.605 378.017 380.22 377.632L385.102 373.52Z" fill="#004E82"/>
<path d="M413.56 373.52C414.074 374.099 414.652 374.613 415.294 375.126C415.937 375.64 416.708 376.026 417.479 376.347C418.121 376.604 418.828 376.797 419.534 376.925C420.305 377.054 421.14 377.182 422.04 377.182C422.489 377.182 423.132 377.118 424.095 376.989C425.059 376.861 425.894 376.475 426.601 375.897C427.05 375.576 427.372 375.126 427.628 374.677C427.821 374.227 427.95 373.777 427.95 373.328C427.95 372.493 427.757 371.85 427.372 371.529C426.986 371.208 426.536 370.887 426.022 370.694C425.444 370.501 424.866 370.373 424.16 370.244C423.453 370.116 422.489 369.987 421.333 369.795L419.534 369.473C418.635 369.345 417.736 369.152 416.836 368.959C415.937 368.767 415.037 368.446 414.138 367.996C412.918 367.418 411.89 366.583 411.055 365.555C410.284 364.527 409.898 363.049 409.898 361.186C409.898 360.351 410.027 359.58 410.22 358.874C410.412 358.167 410.669 357.589 410.99 357.011C411.312 356.433 411.633 355.983 412.018 355.533C412.404 355.148 412.725 354.762 413.11 354.505C414.331 353.478 415.744 352.771 417.286 352.321C418.892 351.872 420.498 351.679 422.104 351.679C423.389 351.679 424.609 351.807 425.701 352C426.793 352.257 427.757 352.514 428.592 352.835C429.491 353.221 430.391 353.735 431.29 354.313C432.19 354.891 432.96 355.533 433.667 356.176L429.877 360.287C429.427 359.837 428.849 359.452 428.207 359.002C427.564 358.553 426.793 358.231 425.894 357.91C425.252 357.653 424.609 357.525 424.031 357.396C423.453 357.268 422.811 357.204 422.04 357.204C421.59 357.204 421.076 357.204 420.369 357.268C419.727 357.332 419.085 357.525 418.442 357.782C417.607 358.103 417.029 358.553 416.772 359.066C416.515 359.58 416.387 360.03 416.387 360.416C416.387 361.186 416.579 361.7 417.029 362.022C417.414 362.343 417.864 362.6 418.314 362.728C418.956 362.985 419.534 363.114 420.177 363.178C420.755 363.242 421.526 363.371 422.425 363.499L426.215 364.141C426.922 364.27 427.821 364.463 428.978 364.848C430.134 365.169 431.162 365.812 432.125 366.647C433.796 368.06 434.566 370.052 434.566 372.621C434.566 374.291 434.309 375.64 433.731 376.732C433.153 377.824 432.511 378.724 431.804 379.431C430.905 380.33 429.684 381.101 428.142 381.807C426.601 382.514 424.609 382.835 422.168 382.835C420.948 382.835 419.534 382.707 418.057 382.514C416.579 382.257 415.166 381.872 413.881 381.358C412.532 380.78 411.376 380.137 410.541 379.366C409.706 378.595 409.063 378.017 408.678 377.632L413.56 373.52Z" fill="#004E82"/>
<path d="M451.59 383.092C449.534 383.092 447.607 382.707 445.873 382C444.138 381.229 442.661 380.201 441.44 378.788C440.22 377.375 439.256 375.705 438.549 373.777C437.843 371.85 437.521 369.666 437.521 367.289C437.521 364.912 437.843 362.792 438.549 360.865C439.256 358.938 440.22 357.268 441.44 355.919C442.661 354.505 444.138 353.478 445.873 352.707C447.607 351.936 449.47 351.55 451.59 351.55C453.71 351.55 455.573 351.936 457.307 352.642C459.042 353.413 460.519 354.441 461.74 355.854C462.96 357.268 463.924 358.938 464.631 360.865C465.337 362.792 465.659 364.912 465.659 367.289C465.659 369.538 465.337 371.593 464.695 373.52C464.053 375.448 463.089 377.118 461.933 378.531C460.712 379.944 459.235 381.101 457.5 381.872C455.701 382.707 453.71 383.092 451.59 383.092ZM444.202 367.353C444.202 368.767 444.395 370.052 444.716 371.208C445.038 372.364 445.551 373.392 446.194 374.291C446.836 375.126 447.607 375.833 448.506 376.347C449.406 376.861 450.434 377.054 451.59 377.054C452.746 377.054 453.774 376.797 454.673 376.347C455.573 375.833 456.344 375.191 456.986 374.291C457.629 373.456 458.142 372.428 458.464 371.208C458.785 370.052 458.978 368.767 458.978 367.353C458.978 365.683 458.785 364.27 458.335 363.049C457.885 361.829 457.372 360.801 456.665 360.03C455.958 359.259 455.187 358.681 454.288 358.296C453.389 357.91 452.489 357.717 451.59 357.717C450.626 357.717 449.727 357.91 448.892 358.296C447.993 358.681 447.222 359.259 446.515 360.094C445.808 360.865 445.23 361.893 444.845 363.114C444.395 364.27 444.202 365.683 444.202 367.353Z" fill="#004E82"/>
<path d="M489.106 362.985C488.913 362.407 488.656 361.829 488.271 361.186C487.885 360.544 487.5 360.03 487.05 359.58C486.6 359.131 486.022 358.745 485.187 358.296C484.416 357.91 483.388 357.653 482.296 357.653C481.268 357.653 480.369 357.846 479.598 358.231C478.827 358.617 478.185 359.131 477.543 359.709C476.9 360.351 476.322 361.315 475.808 362.407C475.23 363.563 474.973 365.105 474.973 367.032C474.973 368.124 475.101 369.216 475.294 370.18C475.487 371.208 475.808 372.107 476.258 372.942C476.515 373.392 476.772 373.777 477.093 374.227C477.414 374.677 477.864 375.062 478.378 375.448C478.892 375.833 479.47 376.154 480.112 376.347C480.755 376.604 481.525 376.668 482.361 376.668C483.517 376.668 484.416 376.476 485.187 376.026C485.958 375.64 486.6 375.191 487.114 374.677C487.564 374.227 488.014 373.713 488.335 373.135C488.656 372.557 488.977 371.979 489.17 371.465L494.823 374.548C494.245 375.705 493.602 376.861 492.767 377.953C491.932 379.045 491.033 379.944 489.941 380.715C488.849 381.486 487.628 382.064 486.343 382.45C485.059 382.835 483.645 383.028 482.296 383.028C481.011 383.028 479.855 382.899 478.827 382.643C477.799 382.386 476.9 382.064 476.065 381.615C475.294 381.229 474.587 380.78 474.009 380.33C473.431 379.88 473.046 379.495 472.725 379.174C471.376 377.825 470.348 376.09 469.513 374.034C468.742 371.979 468.292 369.666 468.292 367.096C468.292 364.72 468.677 362.535 469.384 360.608C470.155 358.681 471.119 357.011 472.468 355.662C473.688 354.377 475.23 353.349 476.9 352.578C478.57 351.807 480.433 351.486 482.425 351.486C484.095 351.486 485.573 351.743 486.857 352.193C488.142 352.643 489.298 353.285 490.262 353.992C490.969 354.57 491.611 355.148 492.125 355.726C492.703 356.368 493.153 356.947 493.474 357.525C493.859 358.103 494.116 358.617 494.373 359.066C494.566 359.516 494.759 359.837 494.823 360.03L489.106 362.985Z" fill="#004E82"/>
<path d="M498.678 340.822H505.102V347.953H498.678V340.822ZM498.678 352.386H505.102V382.257H498.678V352.386Z" fill="#004E82"/>
<path d="M534.588 375.448C534.588 376.347 534.588 377.118 534.588 377.825C534.588 378.467 534.652 379.109 534.716 379.559C534.781 380.073 534.909 380.523 535.037 380.972C535.166 381.422 535.359 381.872 535.551 382.321H529.77C529.192 382 528.806 381.55 528.549 380.972C528.421 380.651 528.292 380.394 528.292 380.073C528.292 379.816 528.292 379.623 528.292 379.559C527.586 380.201 526.879 380.78 526.172 381.165C525.466 381.55 524.759 381.872 524.117 382.129C523.41 382.321 522.768 382.514 522.125 382.578C521.483 382.643 520.84 382.707 520.262 382.707C519.17 382.707 517.95 382.514 516.601 382.193C515.252 381.872 513.967 381.165 512.811 380.137C512.04 379.366 511.333 378.467 510.755 377.375C510.177 376.283 509.855 374.934 509.855 373.328C509.855 371.85 510.112 370.565 510.562 369.602C511.012 368.574 511.654 367.803 512.361 367.161C512.939 366.647 513.646 366.197 514.417 365.876C515.187 365.555 515.958 365.234 516.729 364.977C517.5 364.72 518.142 364.591 518.721 364.463C519.299 364.334 519.62 364.27 519.748 364.206L522.318 363.756C522.446 363.692 522.575 363.692 522.639 363.692C522.703 363.692 522.832 363.692 522.96 363.692C523.089 363.692 523.282 363.628 523.539 363.563C523.796 363.499 524.245 363.435 524.888 363.306C525.466 363.178 525.98 363.049 526.429 362.921C526.943 362.792 527.329 362.535 527.65 362.278C527.971 361.957 528.164 361.636 528.228 361.251C528.292 360.929 528.357 360.544 528.357 360.223C528.357 359.709 528.292 359.259 528.1 358.874C527.971 358.488 527.65 358.103 527.136 357.846C526.558 357.396 525.98 357.139 525.209 357.075C524.502 356.947 523.86 356.947 523.282 356.947C521.804 356.947 520.776 357.075 520.134 357.396C519.491 357.717 519.042 357.974 518.849 358.103C518.528 358.36 518.207 358.681 517.885 359.195C517.564 359.709 517.372 360.351 517.372 361.186H511.14C511.205 359.966 511.526 358.745 512.04 357.46C512.554 356.176 513.26 355.148 514.288 354.249C514.995 353.606 515.766 353.156 516.601 352.771C517.436 352.45 518.271 352.129 519.106 352C519.941 351.807 520.776 351.743 521.483 351.679C522.254 351.615 522.896 351.615 523.474 351.615C523.924 351.615 524.566 351.615 525.337 351.679C526.108 351.743 526.943 351.807 527.778 352C528.614 352.193 529.513 352.45 530.348 352.835C531.183 353.221 531.954 353.735 532.532 354.441C533.496 355.469 534.01 356.561 534.202 357.717C534.395 358.874 534.524 359.902 534.524 360.801V375.448H534.588ZM523.153 368.317C522.125 368.574 521.226 368.767 520.391 368.959C519.556 369.152 518.849 369.473 518.271 369.923C517.821 370.244 517.436 370.694 517.179 371.144C516.922 371.593 516.793 372.171 516.793 372.878C516.793 373.328 516.858 373.842 517.05 374.42C517.179 374.998 517.564 375.448 518.078 375.897C518.656 376.347 519.234 376.604 519.877 376.732C520.519 376.861 521.162 376.925 521.676 376.925C523.346 376.925 524.566 376.668 525.466 376.09C526.365 375.512 527.008 374.934 527.393 374.227C527.843 373.456 528.1 372.557 528.164 371.658C528.292 370.694 528.292 369.795 528.292 368.831V366.968C527.714 367.161 527.136 367.353 526.558 367.482C525.98 367.61 525.337 367.803 524.695 367.932L523.153 368.317Z" fill="#004E82"/>
<path d="M548.142 372.493C548.142 373.328 548.206 374.163 548.335 374.934C548.463 375.705 548.913 376.283 549.684 376.604C550.133 376.797 550.711 376.925 551.547 376.925C552.317 376.925 553.088 376.925 553.666 376.861V382.321C553.281 382.386 552.767 382.514 552.125 382.578C551.482 382.707 550.711 382.707 549.812 382.707C547.885 382.707 546.407 382.45 545.38 382C544.352 381.486 543.645 380.908 543.131 380.266C542.489 379.431 542.103 378.338 541.975 377.054C541.846 375.769 541.718 374.42 541.718 372.942V357.717H537.028V352.45H541.718V342.043H548.142V352.45H553.666V357.717H548.142V372.493Z" fill="#004E82"/>
<path d="M557.585 340.822H564.009V347.953H557.585V340.822ZM557.585 352.386H564.009V382.257H557.585V352.386Z" fill="#004E82"/>
<path d="M582.511 383.092C580.455 383.092 578.528 382.707 576.794 382C575.059 381.229 573.582 380.201 572.361 378.788C571.14 377.375 570.177 375.705 569.47 373.777C568.764 371.85 568.442 369.666 568.442 367.289C568.442 364.912 568.764 362.792 569.47 360.865C570.177 358.938 571.14 357.268 572.361 355.919C573.582 354.505 575.059 353.478 576.794 352.707C578.528 351.936 580.391 351.55 582.511 351.55C584.631 351.55 586.494 351.936 588.228 352.642C589.963 353.413 591.44 354.441 592.661 355.854C593.881 357.268 594.845 358.938 595.552 360.865C596.258 362.792 596.579 364.912 596.579 367.289C596.579 369.538 596.258 371.593 595.616 373.52C594.973 375.448 594.01 377.118 592.854 378.531C591.633 379.944 590.155 381.101 588.421 381.872C586.622 382.707 584.631 383.092 582.511 383.092ZM575.123 367.353C575.123 368.767 575.316 370.052 575.637 371.208C575.958 372.364 576.472 373.392 577.115 374.291C577.757 375.126 578.528 375.833 579.427 376.347C580.327 376.861 581.355 377.054 582.511 377.054C583.667 377.054 584.695 376.797 585.594 376.347C586.494 375.833 587.265 375.191 587.907 374.291C588.549 373.456 589.063 372.428 589.385 371.208C589.706 370.052 589.898 368.767 589.898 367.353C589.898 365.683 589.706 364.27 589.256 363.049C588.871 361.829 588.292 360.801 587.586 360.03C586.879 359.259 586.108 358.681 585.209 358.296C584.31 357.91 583.41 357.717 582.511 357.717C581.547 357.717 580.648 357.91 579.813 358.296C578.913 358.681 578.143 359.259 577.436 360.094C576.729 360.865 576.151 361.893 575.766 363.114C575.316 364.27 575.123 365.683 575.123 367.353Z" fill="#004E82"/>
<path d="M600.818 352.386H607.178V355.212C608.206 354.184 609.491 353.349 610.904 352.771C612.381 352.193 613.859 351.872 615.465 351.872C616.878 351.872 618.163 352.129 619.384 352.578C620.604 353.028 621.632 353.67 622.531 354.57C623.431 355.469 624.137 356.561 624.587 357.846C625.101 359.131 625.358 360.672 625.358 362.343V382.321H618.998V363.563C618.998 363.306 618.998 362.985 618.998 362.535C618.998 362.15 618.934 361.765 618.806 361.315C618.677 360.865 618.549 360.48 618.356 360.03C618.163 359.645 617.906 359.259 617.521 358.874C617.264 358.617 616.814 358.296 616.236 358.039C615.658 357.782 614.887 357.653 613.988 357.653C612.831 357.653 611.868 357.846 611.097 358.296C610.326 358.681 609.748 359.131 609.298 359.516C608.848 359.966 608.334 360.608 607.885 361.443C607.371 362.278 607.178 363.371 607.178 364.655V382.385H600.818V352.386Z" fill="#004E82"/>
<path d="M552.575 36.0044C568.313 25.983 569.534 21.9359 573.131 17.4391C537.093 44.998 447.671 13.392 467.007 110.137C473.945 113.927 484.223 119.58 487.564 121.443L509.148 109.816C503.367 55.983 536.772 47.1179 552.575 36.0044Z" fill="#DB0814"/>
<path d="M435.402 62.2142C419.92 75.8973 412.789 101.144 420.819 121.443C421.847 123.949 423.004 126.583 424.545 129.216L428.657 135.448C431.419 139.238 435.53 143.478 439.32 147.268L446.965 131.272C419.984 101.914 429.171 71.9787 435.402 62.2142Z" fill="#DB0814"/>
<path d="M430.199 166.09L435.659 154.527C425.188 144.698 417.993 134.934 414.139 124.848C412.276 119.966 411.248 115.79 411.312 110.009C407.008 130.116 408.935 148.681 418.7 168.403C427.95 187.161 442.661 202.193 453.196 211.572L453.004 193.52L430.199 166.09Z" fill="#004E82"/>
<path d="M436.751 90.9937C438.485 105.448 445.423 116.947 450.562 123.949L458.271 107.76C458.271 107.76 456.344 94.3984 455.894 88.0387C454.61 68.0601 461.483 52.3213 476.001 42.2999C462.768 45.7689 432.254 53.9273 436.751 90.9937Z" fill="#004E82"/>
<path d="M592.661 2.15002C565.359 60.7367 511.012 40.0515 516.665 106.925L524.181 122.6C529.77 107.118 529.577 99.0237 537.479 87.7817C555.402 62.2785 580.198 79.4948 592.661 2.15002Z" fill="#004E82"/>
<path d="M588.807 44.998C582.768 66.4541 564.653 75.7046 559.77 78.5312C538.25 91.1222 535.68 108.724 529.128 132.942L535.552 146.304C553.346 105.897 550.52 106.026 572.618 92.15C578.657 88.4883 588.999 77.4391 588.807 44.998Z" fill="#DB0814"/>
<path d="M539.791 155.426L544.738 165.64L522.318 193.456C522.254 196.154 522.318 204.184 522.254 211.893C547.05 190.116 557.65 180.351 563.432 148.103C564.909 139.944 568.185 105.255 577.115 98.7667C552.832 109.238 548.721 139.559 539.791 155.426Z" fill="#004E82"/>
<path d="M474.268 228.788V236.176L487.501 239.645L500.67 235.79V228.852L487.501 221.529L474.268 228.788Z" fill="#DB0814"/>
<path d="M512.747 116.176L487.501 129.987L462.254 116.176L439.128 164.548L460.52 190.694V219.216L470.22 224.805L482.426 217.418L474.203 207.589L500.67 207.525L492.511 217.418L504.717 224.741L514.417 219.152V190.63L535.809 164.484L512.747 116.176ZM473.175 201.229L472.854 169.559L462.447 166.668L455.059 155.683L478.378 162.621L473.175 201.229ZM512.683 166.668L502.276 169.559L501.954 201.229L496.623 162.685L519.942 155.747L512.683 166.668Z" fill="#DB0814"/>
<path d="M480.369 423.627C462.896 419.58 438.934 424.013 416.386 437.054C381.054 457.418 362.361 491.144 374.566 512.343C382.403 525.897 400.969 531.036 422.553 527.696C412.66 525.448 404.823 520.437 400.391 512.792C388.185 491.593 406.879 457.867 442.211 437.503C454.994 430.116 468.164 425.555 480.369 423.627Z" fill="#F0252D"/>
<path d="M480.69 507.268C485.958 524.42 501.761 542.921 524.309 555.961C559.641 576.326 598.185 575.683 610.455 554.484C618.292 540.929 613.474 522.3 599.727 505.276C602.682 514.977 602.296 524.227 597.928 531.872C585.723 553.071 547.114 553.713 511.782 533.349C498.999 525.961 488.399 516.904 480.69 507.268Z" fill="#00A651"/>
<path d="M456.729 465.64C444.459 478.81 436.365 501.679 436.365 527.76C436.365 568.553 456.215 601.636 480.691 601.636C496.301 601.636 510.048 588.146 517.95 567.717C511.012 575.105 502.789 579.473 493.988 579.473C469.513 579.473 449.663 546.39 449.663 505.598C449.663 490.887 452.297 477.204 456.729 465.64Z" fill="#0078D0"/>
</g>
<rect x="100.742" y="138.465" width="260.762" height="4" fill="#EAEDF7"/>
<rect x="100.742" y="326.23" width="122.922" height="4" fill="#EAEDF7"/>
<rect x="100.742" y="503.014" width="225.824" height="4" fill="#EAEDF7"/>
<rect x="14" y="95.6511" width="88" height="88" rx="44" fill="#EAEDF7"/>
<path d="M44.3914 150.651H51.2714L52.8714 145.891H63.1114L64.7114 150.651H71.5914L61.4714 123.931H54.5114L44.3914 150.651ZM57.9514 130.611L61.3914 140.771H54.5914L57.9514 130.611Z" fill="#193C66"/>
<rect x="14" y="282.715" width="88" height="88" rx="44" fill="#EAEDF7"/>
<path d="M46.8108 310.995V337.715H58.9308C65.4108 337.715 69.7308 335.475 69.7308 329.475C69.7308 326.235 67.9708 324.355 65.4908 323.515C67.4908 322.275 68.6508 320.395 68.6508 317.955C68.6508 312.355 64.2908 310.995 58.4908 310.995H46.8108ZM58.9708 326.435C61.6908 326.435 63.0508 327.555 63.0508 329.435C63.0508 331.315 61.6908 332.475 58.9708 332.475H53.1308V326.435H58.9708ZM58.6908 316.155C60.8108 316.155 62.0908 317.155 62.0908 318.835C62.0908 320.475 60.8108 321.555 58.6908 321.555H53.1308V316.155H58.6908Z" fill="#193C66"/>
<rect x="14" y="461.276" width="88" height="88" rx="44" fill="#EAEDF7"/>
<path d="M59.1467 516.756C64.1867 516.756 68.2667 514.396 70.4267 510.596L64.8667 508.556C63.6267 510.876 61.1867 511.556 59.1867 511.556C55.3867 511.556 52.4667 508.516 52.4667 502.916C52.4667 497.476 55.3867 494.276 59.1067 494.276C61.2667 494.276 63.4667 495.156 64.6667 497.316L70.2667 495.276C68.2267 491.516 64.3467 489.076 59.3067 489.076C51.0267 489.076 45.7867 494.476 45.7867 502.916C45.7867 511.436 50.8267 516.756 59.1467 516.756Z" fill="#193C66"/>
<defs>
<clipPath id="clip0_338_74246">
<rect width="438.758" height="600" fill="white" transform="translate(268.121 1.70032)"/>
</clipPath>
</defs>
</svg>
