<svg width="911" height="773" viewBox="0 0 911 773" fill="none" xmlns="http://www.w3.org/2000/svg">
<g clip-path="url(#clip0_338_75739)">
<path d="M254.059 354.603C255.729 354.603 257.464 354.731 259.263 355.052C261.061 355.374 262.796 356.144 264.338 357.365C265.558 358.329 266.457 359.485 267.036 360.834C267.614 362.183 267.871 363.596 267.871 365.074C267.871 366.102 267.678 367.065 267.357 368.029C267.036 368.992 266.586 369.827 266.008 370.534C265.558 371.112 265.044 371.562 264.466 372.076C263.888 372.526 263.181 372.911 262.41 373.232C263.502 373.489 264.466 373.939 265.365 374.453C266.201 375.031 266.971 375.609 267.55 376.251C268.192 377.022 268.77 377.986 269.284 379.142C269.798 380.299 270.055 381.776 270.055 383.575C270.055 385.566 269.734 387.365 269.027 388.907C268.32 390.449 267.421 391.733 266.329 392.761C265.365 393.66 264.016 394.431 262.346 395.074C260.676 395.716 258.556 396.037 255.986 396.037H238.063V354.603H254.059ZM245.194 370.984H254.38C255.665 370.984 256.693 370.791 257.464 370.406C258.235 370.02 258.813 369.571 259.263 369.057C260.098 368.093 260.483 366.937 260.483 365.588C260.483 364.945 260.355 364.303 260.162 363.789C259.905 363.211 259.584 362.761 259.198 362.376C258.427 361.605 257.592 361.219 256.565 361.091C255.537 360.962 254.702 360.898 253.995 360.898H245.194V370.984ZM245.194 389.613H255.665C256.693 389.613 257.721 389.421 258.556 389.099C259.455 388.778 260.162 388.329 260.676 387.815C261.254 387.237 261.639 386.594 261.961 385.759C262.282 384.924 262.41 384.153 262.41 383.382C262.41 382.354 262.218 381.455 261.896 380.684C261.575 379.913 261.061 379.207 260.547 378.693C259.777 377.922 258.941 377.472 258.106 377.279C257.271 377.151 256.5 377.022 255.729 377.022H245.194V389.613Z" fill="#004E82"/>
<path d="M275.065 366.166H281.489V370.534C281.746 370.084 282.132 369.571 282.517 369.057C282.903 368.543 283.352 368.029 283.866 367.643C285.087 366.615 286.307 366.037 287.592 365.845C288.877 365.652 289.969 365.588 290.868 365.652V372.718C288.042 372.397 285.729 372.975 283.931 374.388C282.967 375.159 282.325 375.93 282.003 376.83C281.682 377.729 281.489 378.693 281.489 379.72V396.037H275.065V366.166Z" fill="#004E82"/>
<path d="M293.888 354.603H300.312V361.733H293.888V354.603ZM293.888 366.166H300.312V396.037H293.888V366.166Z" fill="#004E82"/>
<path d="M314.059 386.209C314.059 387.044 314.123 387.879 314.252 388.65C314.38 389.421 314.83 389.999 315.601 390.32C316.05 390.513 316.628 390.641 317.464 390.641C318.234 390.641 319.005 390.641 319.583 390.577V396.037C319.198 396.102 318.684 396.23 318.042 396.294C317.399 396.423 316.628 396.423 315.729 396.423C313.802 396.423 312.324 396.166 311.296 395.716C310.269 395.202 309.562 394.624 309.048 393.982C308.406 393.147 308.02 392.054 307.892 390.77C307.763 389.485 307.635 388.136 307.635 386.658V371.434H302.945V366.166H307.635V355.759H314.059V366.166H319.583V371.434H314.059V386.209Z" fill="#004E82"/>
<path d="M323.438 354.603H329.862V361.733H323.438V354.603ZM323.438 366.166H329.862V396.037H323.438V366.166Z" fill="#004E82"/>
<path d="M338.47 387.301C338.984 387.879 339.562 388.393 340.205 388.907C340.847 389.421 341.618 389.806 342.389 390.127C343.031 390.384 343.738 390.577 344.444 390.705C345.151 390.834 346.05 390.962 346.95 390.962C347.399 390.962 348.042 390.898 349.005 390.77C349.969 390.641 350.804 390.256 351.511 389.678C351.96 389.356 352.282 388.907 352.539 388.457C352.731 388.007 352.86 387.558 352.86 387.108C352.86 386.273 352.667 385.631 352.282 385.309C351.896 384.988 351.447 384.667 350.933 384.474C350.354 384.281 349.776 384.153 349.07 384.025C348.363 383.896 347.399 383.768 346.243 383.575L344.444 383.254C343.545 383.125 342.646 382.932 341.746 382.74C340.847 382.547 339.948 382.226 339.048 381.776C337.828 381.198 336.8 380.363 335.965 379.335C335.194 378.307 334.808 376.83 334.808 374.967C334.808 374.132 334.937 373.361 335.13 372.654C335.322 371.947 335.579 371.369 335.901 370.791C336.222 370.213 336.543 369.763 336.928 369.314C337.314 368.928 337.635 368.543 338.02 368.286C339.241 367.258 340.654 366.551 342.196 366.102C343.802 365.652 345.408 365.459 347.014 365.459C348.299 365.459 349.519 365.588 350.611 365.78C351.704 366.037 352.667 366.294 353.502 366.616C354.402 367.001 355.301 367.515 356.2 368.093C357.1 368.671 357.871 369.314 358.577 369.956L354.787 374.067C354.337 373.618 353.759 373.232 353.117 372.783C352.474 372.333 351.704 372.012 350.804 371.69C350.162 371.434 349.519 371.305 348.941 371.177C348.363 371.048 347.721 370.984 346.95 370.984C346.5 370.984 345.986 370.984 345.28 371.048C344.637 371.112 343.995 371.305 343.352 371.562C342.517 371.883 341.939 372.333 341.682 372.847C341.425 373.361 341.297 373.81 341.297 374.196C341.297 374.967 341.489 375.481 341.939 375.802C342.325 376.123 342.774 376.38 343.224 376.508C343.866 376.765 344.444 376.894 345.087 376.958C345.665 377.022 346.436 377.151 347.335 377.279L351.125 377.922C351.832 378.05 352.731 378.243 353.888 378.628C355.044 378.95 356.072 379.592 357.035 380.427C358.706 381.84 359.477 383.832 359.477 386.401C359.477 388.072 359.22 389.421 358.641 390.513C358.063 391.605 357.421 392.504 356.714 393.211C355.815 394.11 354.594 394.881 353.053 395.588C351.511 396.294 349.519 396.616 347.078 396.616C345.858 396.616 344.444 396.487 342.967 396.294C341.489 396.037 340.076 395.652 338.791 395.138C337.442 394.56 336.286 393.917 335.451 393.147C334.616 392.376 333.973 391.798 333.588 391.412L338.47 387.301Z" fill="#004E82"/>
<path d="M364.038 354.603H370.398V368.992C371.426 367.965 372.71 367.129 374.124 366.551C375.601 365.973 377.079 365.652 378.685 365.652C380.098 365.652 381.383 365.909 382.603 366.359C383.824 366.808 384.852 367.451 385.751 368.35C386.651 369.249 387.357 370.341 387.807 371.626C388.321 372.911 388.578 374.453 388.578 376.123V396.102H382.218V377.215C382.218 376.958 382.218 376.637 382.218 376.187C382.218 375.802 382.154 375.416 382.025 374.967C381.897 374.517 381.768 374.132 381.576 373.682C381.383 373.296 381.126 372.911 380.74 372.526C380.483 372.269 380.034 371.947 379.456 371.69C378.877 371.434 378.107 371.305 377.207 371.305C376.051 371.305 375.087 371.498 374.316 371.947C373.546 372.333 372.967 372.783 372.518 373.168C372.068 373.618 371.554 374.26 371.104 375.095C370.591 375.93 370.398 377.022 370.398 378.307V396.037H364.038V354.603Z" fill="#004E82"/>
<path d="M413.823 354.603H428.47C431.168 354.603 433.352 354.988 435.022 355.759C436.693 356.53 437.977 357.301 438.877 358.136C439.262 358.521 439.648 359.035 440.097 359.549C440.547 360.127 440.932 360.834 441.318 361.605C441.703 362.44 442.025 363.404 442.217 364.431C442.474 365.523 442.538 366.744 442.538 368.093C442.538 370.277 442.217 372.204 441.511 373.81C440.868 375.416 439.969 376.765 438.813 377.857C437.72 378.885 436.307 379.785 434.637 380.491C432.967 381.198 431.04 381.519 428.855 381.519H420.954V396.037H413.823V354.603ZM428.084 375.159C429.305 375.159 430.397 374.967 431.232 374.581C432.067 374.196 432.71 373.81 433.224 373.296C433.673 372.847 434.123 372.14 434.508 371.305C434.894 370.47 435.087 369.378 435.087 368.029C435.087 366.808 434.894 365.78 434.573 364.881C434.252 363.982 433.802 363.275 433.288 362.761C432.453 361.926 431.489 361.348 430.461 361.155C429.434 360.962 428.663 360.834 428.149 360.834H420.954V375.031H428.084V375.159Z" fill="#004E82"/>
<path d="M469.584 389.164C469.584 390.063 469.584 390.834 469.584 391.541C469.584 392.183 469.648 392.825 469.712 393.275C469.777 393.789 469.905 394.239 470.034 394.688C470.162 395.138 470.355 395.588 470.548 396.037H464.766C464.188 395.716 463.802 395.266 463.545 394.688C463.417 394.367 463.288 394.11 463.288 393.789C463.288 393.532 463.288 393.339 463.288 393.275C462.582 393.917 461.875 394.496 461.168 394.881C460.462 395.266 459.755 395.588 459.113 395.845C458.406 396.037 457.764 396.23 457.121 396.294C456.479 396.359 455.837 396.423 455.258 396.423C454.166 396.423 452.946 396.23 451.597 395.909C450.248 395.588 448.963 394.881 447.807 393.853C447.036 393.082 446.329 392.183 445.751 391.091C445.173 389.999 444.852 388.65 444.852 387.044C444.852 385.566 445.109 384.281 445.558 383.318C446.008 382.29 446.65 381.519 447.357 380.877C447.935 380.363 448.642 379.913 449.413 379.592C450.183 379.271 450.954 378.95 451.725 378.693C452.496 378.436 453.138 378.307 453.717 378.179C454.295 378.05 454.616 377.986 454.744 377.922L457.314 377.472C457.443 377.408 457.571 377.408 457.635 377.408C457.7 377.408 457.828 377.408 457.956 377.408C458.085 377.408 458.278 377.344 458.535 377.279C458.792 377.215 459.241 377.151 459.884 377.022C460.462 376.894 460.976 376.765 461.425 376.637C461.939 376.508 462.325 376.251 462.646 375.93C462.967 375.609 463.16 375.288 463.224 374.902C463.288 374.581 463.353 374.196 463.353 373.875C463.353 373.361 463.288 372.911 463.096 372.526C462.967 372.14 462.646 371.755 462.132 371.498C461.554 371.048 460.976 370.791 460.205 370.727C459.498 370.598 458.856 370.598 458.278 370.598C456.8 370.598 455.772 370.727 455.13 371.048C454.488 371.369 454.038 371.626 453.845 371.755C453.524 372.012 453.203 372.333 452.882 372.847C452.56 373.361 452.368 374.003 452.368 374.838H446.136C446.201 373.618 446.522 372.397 447.036 371.112C447.55 369.892 448.256 368.8 449.284 367.9C449.991 367.258 450.762 366.808 451.597 366.423C452.432 366.102 453.267 365.78 454.102 365.652C454.937 365.459 455.772 365.395 456.479 365.331C457.25 365.266 457.892 365.266 458.47 365.266C458.92 365.266 459.562 365.266 460.333 365.331C461.104 365.395 461.939 365.459 462.774 365.652C463.61 365.845 464.509 366.102 465.344 366.487C466.179 366.872 466.95 367.386 467.528 368.093C468.492 369.121 469.006 370.213 469.198 371.369C469.391 372.526 469.52 373.553 469.52 374.453V389.164H469.584ZM458.213 382.033C457.186 382.29 456.286 382.483 455.451 382.675C454.616 382.868 453.909 383.189 453.331 383.639C452.882 383.96 452.496 384.41 452.239 384.86C451.982 385.309 451.854 385.887 451.854 386.594C451.854 387.044 451.918 387.558 452.111 388.136C452.239 388.714 452.625 389.164 453.138 389.613C453.717 390.063 454.295 390.32 454.937 390.448C455.58 390.577 456.222 390.641 456.736 390.641C458.406 390.641 459.627 390.384 460.526 389.806C461.425 389.228 462.068 388.65 462.453 387.943C462.903 387.172 463.16 386.273 463.224 385.374C463.353 384.41 463.353 383.511 463.353 382.547V380.684C462.774 380.877 462.196 381.069 461.618 381.198C461.04 381.326 460.398 381.519 459.755 381.648L458.213 382.033Z" fill="#004E82"/>
<path d="M475.494 366.166H481.918V370.534C482.175 370.084 482.561 369.571 482.946 369.057C483.331 368.543 483.781 368.029 484.295 367.643C485.516 366.615 486.736 366.037 488.021 365.845C489.306 365.652 490.398 365.588 491.297 365.652V372.718C488.471 372.397 486.158 372.975 484.359 374.388C483.396 375.159 482.753 375.93 482.432 376.83C482.111 377.729 481.918 378.693 481.918 379.72V396.037H475.494V366.166Z" fill="#004E82"/>
<path d="M517.699 389.164C517.699 390.063 517.699 390.834 517.699 391.541C517.699 392.183 517.763 392.825 517.828 393.275C517.892 393.789 518.02 394.239 518.149 394.688C518.277 395.138 518.47 395.588 518.663 396.037H512.881C512.303 395.716 511.918 395.266 511.661 394.688C511.532 394.367 511.404 394.11 511.404 393.789C511.404 393.532 511.404 393.339 511.404 393.275C510.697 393.917 509.99 394.496 509.284 394.881C508.577 395.266 507.87 395.588 507.228 395.845C506.521 396.037 505.879 396.23 505.237 396.294C504.594 396.359 503.952 396.423 503.374 396.423C502.282 396.423 501.061 396.23 499.712 395.909C498.363 395.588 497.078 394.881 495.922 393.853C495.151 393.082 494.444 392.183 493.866 391.091C493.288 389.999 492.967 388.65 492.967 387.044C492.967 385.566 493.224 384.281 493.673 383.318C494.123 382.29 494.766 381.519 495.472 380.877C496.05 380.363 496.757 379.913 497.528 379.592C498.299 379.271 499.07 378.95 499.84 378.693C500.611 378.436 501.254 378.307 501.832 378.179C502.41 378.05 502.731 377.986 502.86 377.922L505.429 377.472C505.558 377.408 505.686 377.408 505.751 377.408C505.815 377.408 505.943 377.408 506.072 377.408C506.2 377.408 506.393 377.344 506.65 377.279C506.907 377.215 507.357 377.151 507.999 377.022C508.577 376.894 509.091 376.765 509.541 376.637C510.055 376.508 510.44 376.251 510.761 375.93C511.082 375.609 511.275 375.288 511.339 374.902C511.404 374.581 511.468 374.196 511.468 373.875C511.468 373.361 511.404 372.911 511.211 372.526C511.082 372.14 510.761 371.755 510.247 371.498C509.669 371.048 509.091 370.791 508.32 370.727C507.613 370.598 506.971 370.598 506.393 370.598C504.915 370.598 503.888 370.727 503.245 371.048C502.603 371.369 502.153 371.626 501.96 371.755C501.639 372.012 501.318 372.333 500.997 372.847C500.676 373.361 500.483 374.003 500.483 374.838H494.252C494.316 373.618 494.637 372.397 495.151 371.112C495.665 369.892 496.372 368.8 497.399 367.9C498.106 367.258 498.877 366.808 499.712 366.423C500.547 366.102 501.382 365.78 502.217 365.652C503.052 365.459 503.888 365.395 504.594 365.331C505.365 365.266 506.007 365.266 506.586 365.266C507.035 365.266 507.678 365.266 508.449 365.331C509.219 365.395 510.055 365.459 510.89 365.652C511.725 365.845 512.624 366.102 513.459 366.487C514.294 366.872 515.065 367.386 515.643 368.093C516.607 369.121 517.121 370.213 517.314 371.369C517.506 372.526 517.635 373.553 517.635 374.453V389.164H517.699ZM506.264 382.033C505.237 382.29 504.337 382.483 503.502 382.675C502.667 382.868 501.96 383.189 501.382 383.639C500.933 383.96 500.547 384.41 500.29 384.86C500.033 385.309 499.905 385.887 499.905 386.594C499.905 387.044 499.969 387.558 500.162 388.136C500.29 388.714 500.676 389.164 501.189 389.613C501.768 390.063 502.346 390.32 502.988 390.448C503.631 390.577 504.273 390.641 504.787 390.641C506.457 390.641 507.678 390.384 508.577 389.806C509.476 389.228 510.119 388.65 510.504 387.943C510.954 387.172 511.211 386.273 511.275 385.374C511.404 384.41 511.404 383.511 511.404 382.547V380.684C510.825 380.877 510.247 381.069 509.669 381.198C509.091 381.326 508.449 381.519 507.806 381.648L506.264 382.033Z" fill="#004E82"/>
<path d="M523.609 354.603H530.033V396.037H523.609V354.603Z" fill="#004E82"/>
<path d="M539.541 398.543C539.926 398.543 540.312 398.478 540.697 398.414C541.083 398.35 541.404 398.222 541.725 398.029C541.918 397.9 542.111 397.643 542.239 397.386C542.367 397.129 542.496 396.744 542.496 396.359C542.496 396.102 542.496 395.78 542.432 395.523C542.367 395.202 542.303 395.01 542.239 394.817L533.053 366.23H539.798L544.873 383.061C544.937 383.318 545.066 383.703 545.13 384.089C545.258 384.474 545.323 384.924 545.387 385.309C545.451 385.695 545.515 386.144 545.644 386.53C545.708 386.915 545.772 387.236 545.836 387.493C545.965 386.466 546.158 385.566 546.35 384.86C546.543 384.089 546.672 383.511 546.8 383.125L551.49 366.294H558.235L549.048 396.166C548.47 397.9 548.021 399.249 547.571 400.149C547.121 401.048 546.672 401.755 546.158 402.269C545.323 403.104 544.359 403.682 543.331 403.875C542.303 404.067 541.275 404.196 540.248 404.196H536.008V398.671H539.541V398.543Z" fill="#004E82"/>
<path d="M561.254 366.166H567.613V368.992C569.798 366.744 572.303 365.652 575.322 365.652C577.057 365.652 578.663 366.037 580.012 366.744C581.361 367.515 582.453 368.543 583.288 369.956C584.573 368.478 585.986 367.451 587.528 366.68C589.07 365.973 590.676 365.588 592.41 365.588C595.237 365.588 597.549 366.487 599.219 368.286C600.954 370.084 601.789 372.654 601.789 375.995V395.973H595.429V377.215C595.429 373.296 593.888 371.369 590.74 371.369C589.07 371.369 587.592 372.012 586.371 373.296C585.151 374.581 584.573 376.252 584.573 378.307V396.037H578.406V377.215C578.406 373.296 576.864 371.369 573.78 371.369C572.945 371.369 572.174 371.562 571.404 371.883C570.633 372.204 569.99 372.654 569.412 373.296C568.834 373.875 568.384 374.645 568.063 375.481C567.742 376.316 567.549 377.279 567.549 378.307V396.037H561.189V366.166H561.254Z" fill="#004E82"/>
<path d="M607.635 366.166H613.995V368.992C614.251 368.735 614.573 368.414 614.958 368.029C615.344 367.643 615.857 367.322 616.5 366.937C617.142 366.616 617.849 366.294 618.748 366.037C619.583 365.78 620.611 365.716 621.768 365.716C622.474 365.716 623.245 365.78 624.016 365.909C624.787 366.037 625.622 366.23 626.457 366.616C627.292 366.937 628.063 367.386 628.834 367.965C629.605 368.543 630.376 369.249 631.082 370.149C631.468 370.663 631.853 371.241 632.303 371.947C632.688 372.654 633.074 373.425 633.395 374.324C633.716 375.224 633.973 376.252 634.166 377.408C634.359 378.564 634.487 379.849 634.487 381.262C634.487 383.511 634.166 385.631 633.588 387.493C633.01 389.421 632.174 391.027 631.082 392.44C629.99 393.853 628.641 394.945 627.099 395.716C625.558 396.487 623.759 396.872 621.768 396.872C621.254 396.872 620.675 396.808 620.033 396.744C619.391 396.68 618.748 396.487 618.042 396.294C617.335 396.037 616.693 395.716 615.986 395.266C615.279 394.817 614.637 394.239 613.995 393.532V404.067H607.635V366.166ZM613.995 381.198C613.995 381.776 613.995 382.354 614.059 382.932C614.123 383.575 614.187 384.217 614.316 384.86C614.444 385.502 614.573 386.144 614.83 386.787C615.022 387.429 615.344 388.007 615.729 388.521C616.436 389.485 617.271 390.063 618.17 390.32C619.069 390.577 619.905 390.705 620.675 390.705C622.988 390.705 624.787 389.87 626.007 388.136C626.457 387.493 626.907 386.594 627.292 385.502C627.678 384.41 627.87 382.997 627.87 381.198C627.87 379.271 627.678 377.729 627.228 376.509C626.778 375.288 626.264 374.389 625.558 373.682C625.108 373.168 624.466 372.718 623.631 372.333C622.795 371.947 621.768 371.691 620.547 371.691C619.712 371.691 618.941 371.819 618.363 372.012C617.785 372.269 617.207 372.526 616.821 372.847C616.179 373.361 615.665 374.003 615.279 374.71C614.958 375.481 614.637 376.187 614.508 377.022C614.316 377.793 614.251 378.564 614.187 379.335C613.995 380.106 613.995 380.748 613.995 381.198Z" fill="#004E82"/>
<path d="M638.92 354.603H645.344V361.733H638.92V354.603ZM638.92 366.166H645.344V396.037H638.92V366.166Z" fill="#004E82"/>
<path d="M670.591 376.701C670.398 376.123 670.141 375.545 669.756 374.903C669.37 374.26 668.985 373.746 668.535 373.297C668.086 372.847 667.508 372.461 666.672 372.012C665.902 371.626 664.874 371.369 663.782 371.369C662.754 371.369 661.854 371.562 661.084 371.947C660.313 372.333 659.67 372.847 659.028 373.425C658.385 374.067 657.807 375.031 657.293 376.123C656.715 377.279 656.458 378.821 656.458 380.748C656.458 381.84 656.587 382.932 656.779 383.896C656.972 384.924 657.293 385.823 657.743 386.658C658 387.108 658.257 387.494 658.578 387.943C658.899 388.393 659.349 388.778 659.863 389.164C660.377 389.549 660.955 389.87 661.597 390.063C662.24 390.256 663.011 390.384 663.846 390.384C665.002 390.384 665.902 390.192 666.672 389.742C667.443 389.356 668.086 388.907 668.6 388.393C669.049 387.943 669.499 387.429 669.82 386.851C670.141 386.273 670.463 385.695 670.655 385.181L676.308 388.264C675.73 389.421 675.088 390.577 674.253 391.669C673.418 392.761 672.518 393.661 671.426 394.431C670.334 395.202 669.114 395.78 667.829 396.166C666.544 396.551 665.131 396.744 663.782 396.744C662.497 396.744 661.34 396.616 660.313 396.359C659.285 396.102 658.385 395.78 657.55 395.331C656.779 394.945 656.073 394.496 655.495 394.046C654.917 393.596 654.531 393.211 654.21 392.89C652.861 391.541 651.833 389.806 650.998 387.75C650.227 385.695 649.777 383.382 649.777 380.813C649.777 378.436 650.163 376.252 650.869 374.324C651.64 372.397 652.604 370.727 653.953 369.378C655.173 368.093 656.715 367.065 658.385 366.294C660.056 365.523 661.919 365.202 663.91 365.202C665.58 365.202 667.058 365.459 668.343 365.909C669.627 366.359 670.784 367.001 671.747 367.708C672.454 368.286 673.096 368.864 673.61 369.442C674.188 370.085 674.638 370.663 674.959 371.241C675.345 371.819 675.602 372.333 675.859 372.783C676.051 373.232 676.244 373.553 676.308 373.746L670.591 376.701Z" fill="#004E82"/>
<path d="M340.719 457.836L338.727 451.348H322.346L320.483 457.836H313.353L326.329 416.401H334.809L348.171 457.836H340.719ZM331.147 425.652C331.018 425.202 330.89 424.624 330.762 423.917C330.633 423.211 330.505 422.504 330.44 421.862C330.376 422.44 330.248 423.082 330.183 423.789C330.055 424.56 329.991 425.138 329.862 425.523L324.273 444.924H336.8L331.147 425.652Z" fill="#004E82"/>
<path d="M354.852 449.035C355.366 449.613 355.944 450.127 356.586 450.641C357.229 451.155 358 451.541 358.771 451.862C359.413 452.119 360.12 452.311 360.826 452.44C361.597 452.568 362.432 452.697 363.332 452.697C363.781 452.697 364.424 452.633 365.387 452.504C366.351 452.376 367.186 451.99 367.893 451.412C368.342 451.091 368.664 450.641 368.92 450.192C369.113 449.742 369.242 449.292 369.242 448.842C369.242 448.007 369.049 447.365 368.664 447.044C368.278 446.723 367.828 446.401 367.314 446.209C366.736 446.016 366.158 445.887 365.452 445.759C364.745 445.631 363.781 445.502 362.625 445.309L360.826 444.988C359.927 444.86 359.028 444.667 358.128 444.474C357.229 444.281 356.329 443.96 355.43 443.511C354.21 442.932 353.182 442.097 352.347 441.069C351.576 440.042 351.19 438.564 351.19 436.701C351.19 435.866 351.319 435.095 351.511 434.389C351.704 433.682 351.961 433.104 352.282 432.526C352.604 431.947 352.925 431.498 353.31 431.048C353.696 430.663 354.017 430.277 354.402 430.02C355.623 428.992 357.036 428.286 358.578 427.836C360.184 427.386 361.79 427.194 363.396 427.194C364.681 427.194 365.901 427.322 366.993 427.515C368.085 427.772 369.049 428.029 369.884 428.35C370.783 428.735 371.683 429.249 372.582 429.828C373.482 430.406 374.252 431.048 374.959 431.69L371.169 435.802C370.719 435.352 370.141 434.967 369.499 434.517C368.856 434.067 368.085 433.746 367.186 433.425C366.544 433.168 365.901 433.04 365.323 432.911C364.745 432.783 364.102 432.718 363.332 432.718C362.882 432.718 362.368 432.718 361.661 432.783C361.019 432.847 360.377 433.039 359.734 433.296C358.899 433.618 358.321 434.067 358.064 434.581C357.807 435.095 357.679 435.545 357.679 435.93C357.679 436.701 357.871 437.215 358.321 437.536C358.706 437.857 359.156 438.114 359.606 438.243C360.248 438.5 360.826 438.628 361.469 438.693C362.047 438.757 362.818 438.885 363.717 439.014L367.507 439.656C368.214 439.785 369.113 439.977 370.27 440.363C371.426 440.684 372.454 441.326 373.417 442.162C375.087 443.575 375.858 445.566 375.858 448.136C375.858 449.806 375.601 451.155 375.023 452.247C374.445 453.339 373.803 454.239 373.096 454.945C372.197 455.845 370.976 456.616 369.434 457.322C367.893 458.029 365.901 458.35 363.46 458.35C362.24 458.35 360.826 458.221 359.349 458.029C357.871 457.836 356.458 457.386 355.173 456.872C353.824 456.294 352.668 455.652 351.833 454.881C350.998 454.11 350.355 453.532 349.97 453.147L354.852 449.035Z" fill="#004E82"/>
<path d="M383.31 449.035C383.824 449.613 384.402 450.127 385.044 450.641C385.687 451.155 386.458 451.541 387.229 451.862C387.871 452.119 388.578 452.311 389.284 452.44C390.055 452.568 390.89 452.697 391.79 452.697C392.239 452.697 392.882 452.633 393.845 452.504C394.809 452.376 395.644 451.99 396.351 451.412C396.8 451.091 397.122 450.641 397.378 450.192C397.571 449.742 397.7 449.292 397.7 448.842C397.7 448.007 397.507 447.365 397.122 447.044C396.736 446.723 396.286 446.401 395.772 446.209C395.194 446.016 394.616 445.887 393.91 445.759C393.203 445.631 392.239 445.502 391.083 445.309L389.284 444.988C388.385 444.86 387.486 444.667 386.586 444.474C385.687 444.281 384.787 443.96 383.888 443.511C382.668 442.932 381.64 442.097 380.805 441.069C380.034 440.042 379.648 438.564 379.648 436.701C379.648 435.866 379.777 435.095 379.97 434.389C380.162 433.682 380.419 433.104 380.74 432.526C381.062 431.947 381.383 431.498 381.768 431.048C382.154 430.663 382.475 430.277 382.86 430.02C384.081 428.992 385.494 428.286 387.036 427.836C388.642 427.386 390.248 427.194 391.854 427.194C393.139 427.194 394.359 427.322 395.451 427.515C396.543 427.772 397.507 428.029 398.342 428.35C399.241 428.735 400.141 429.249 401.04 429.828C401.94 430.406 402.71 431.048 403.417 431.69L399.627 435.802C399.177 435.352 398.599 434.967 397.957 434.517C397.314 434.067 396.543 433.746 395.644 433.425C395.002 433.168 394.359 433.04 393.781 432.911C393.203 432.783 392.561 432.718 391.79 432.718C391.34 432.718 390.826 432.718 390.119 432.783C389.477 432.847 388.835 433.039 388.192 433.296C387.357 433.618 386.779 434.067 386.522 434.581C386.265 435.095 386.137 435.545 386.137 435.93C386.137 436.701 386.329 437.215 386.779 437.536C387.164 437.857 387.614 438.114 388.064 438.243C388.706 438.5 389.284 438.628 389.927 438.693C390.505 438.757 391.276 438.885 392.175 439.014L395.965 439.656C396.672 439.785 397.571 439.977 398.728 440.363C399.884 440.684 400.912 441.326 401.875 442.162C403.546 443.575 404.316 445.566 404.316 448.136C404.316 449.806 404.059 451.155 403.481 452.247C402.903 453.339 402.261 454.239 401.554 454.945C400.655 455.845 399.434 456.616 397.892 457.322C396.351 458.029 394.359 458.35 391.918 458.35C390.698 458.35 389.284 458.221 387.807 458.029C386.329 457.772 384.916 457.386 383.631 456.872C382.282 456.294 381.126 455.652 380.291 454.881C379.456 454.11 378.813 453.532 378.428 453.147L383.31 449.035Z" fill="#004E82"/>
<path d="M421.34 458.607C419.284 458.607 417.357 458.222 415.623 457.515C413.888 456.744 412.411 455.716 411.19 454.303C409.97 452.89 409.006 451.219 408.299 449.292C407.593 447.365 407.271 445.181 407.271 442.804C407.271 440.427 407.593 438.307 408.299 436.38C409.006 434.453 409.97 432.783 411.19 431.434C412.411 430.02 413.888 428.992 415.623 428.222C417.357 427.451 419.22 427.065 421.34 427.065C423.46 427.065 425.323 427.451 427.057 428.157C428.792 428.928 430.269 429.956 431.49 431.369C432.71 432.783 433.674 434.453 434.381 436.38C435.087 438.307 435.409 440.427 435.409 442.804C435.409 445.052 435.087 447.108 434.445 449.035C433.803 450.962 432.839 452.633 431.683 454.046C430.462 455.459 428.985 456.616 427.25 457.386C425.451 458.222 423.46 458.607 421.34 458.607ZM413.952 442.868C413.952 444.281 414.145 445.566 414.466 446.723C414.788 447.879 415.301 448.907 415.944 449.806C416.586 450.641 417.357 451.348 418.256 451.862C419.156 452.376 420.184 452.568 421.34 452.568C422.496 452.568 423.524 452.311 424.423 451.862C425.323 451.348 426.094 450.705 426.736 449.806C427.379 448.971 427.892 447.943 428.214 446.723C428.535 445.566 428.728 444.281 428.728 442.868C428.728 441.198 428.535 439.785 428.085 438.564C427.635 437.344 427.122 436.316 426.415 435.545C425.708 434.774 424.937 434.196 424.038 433.81C423.139 433.425 422.239 433.232 421.34 433.232C420.376 433.232 419.477 433.425 418.642 433.81C417.743 434.196 416.972 434.774 416.265 435.609C415.558 436.38 414.98 437.408 414.595 438.628C414.145 439.785 413.952 441.198 413.952 442.868Z" fill="#004E82"/>
<path d="M458.856 438.5C458.663 437.922 458.406 437.344 458.021 436.701C457.635 436.059 457.25 435.545 456.8 435.095C456.35 434.646 455.772 434.26 454.937 433.81C454.166 433.425 453.138 433.168 452.046 433.168C451.018 433.168 450.119 433.361 449.348 433.746C448.577 434.132 447.935 434.646 447.293 435.224C446.65 435.866 446.072 436.83 445.558 437.922C444.98 439.078 444.723 440.62 444.723 442.547C444.723 443.639 444.851 444.731 445.044 445.695C445.237 446.723 445.558 447.622 446.008 448.457C446.265 448.907 446.522 449.292 446.843 449.742C447.164 450.192 447.614 450.577 448.128 450.962C448.642 451.348 449.22 451.669 449.862 451.862C450.505 452.119 451.275 452.183 452.111 452.183C453.267 452.183 454.166 451.99 454.937 451.541C455.708 451.155 456.35 450.705 456.864 450.192C457.314 449.742 457.764 449.228 458.085 448.65C458.406 448.072 458.727 447.493 458.92 446.98L464.573 450.063C463.995 451.219 463.352 452.376 462.517 453.468C461.682 454.56 460.783 455.459 459.691 456.23C458.599 457.001 457.378 457.579 456.093 457.965C454.809 458.35 453.395 458.543 452.046 458.543C450.761 458.543 449.605 458.414 448.577 458.157C447.549 457.9 446.65 457.579 445.815 457.129C445.044 456.744 444.337 456.294 443.759 455.845C443.181 455.395 442.796 455.01 442.475 454.688C441.126 453.339 440.098 451.605 439.263 449.549C438.492 447.493 438.042 445.181 438.042 442.611C438.042 440.234 438.427 438.05 439.134 436.123C439.905 434.196 440.869 432.526 442.218 431.177C443.438 429.892 444.98 428.864 446.65 428.093C448.32 427.322 450.183 427.001 452.175 427.001C453.845 427.001 455.323 427.258 456.607 427.708C457.892 428.157 459.048 428.8 460.012 429.506C460.719 430.085 461.361 430.663 461.875 431.241C462.453 431.883 462.903 432.461 463.224 433.04C463.609 433.618 463.866 434.132 464.123 434.581C464.316 435.031 464.509 435.352 464.573 435.545L458.856 438.5Z" fill="#004E82"/>
<path d="M468.428 416.337H474.852V423.468H468.428V416.337ZM468.428 427.9H474.852V457.772H468.428V427.9Z" fill="#004E82"/>
<path d="M504.338 450.962C504.338 451.862 504.338 452.633 504.338 453.339C504.338 453.982 504.402 454.624 504.466 455.074C504.531 455.588 504.659 456.037 504.787 456.487C504.916 456.937 505.109 457.386 505.301 457.836H499.52C498.942 457.515 498.556 457.065 498.299 456.487C498.171 456.166 498.042 455.909 498.042 455.588C498.042 455.331 498.042 455.138 498.042 455.074C497.336 455.716 496.629 456.294 495.922 456.68C495.216 457.065 494.509 457.386 493.867 457.643C493.16 457.836 492.518 458.029 491.875 458.093C491.233 458.157 490.59 458.221 490.012 458.221C488.92 458.221 487.7 458.029 486.351 457.708C485.002 457.386 483.717 456.68 482.561 455.652C481.79 454.881 481.083 453.982 480.505 452.89C479.927 451.798 479.605 450.448 479.605 448.843C479.605 447.365 479.862 446.08 480.312 445.117C480.762 444.089 481.404 443.318 482.111 442.675C482.689 442.162 483.396 441.712 484.167 441.391C484.937 441.07 485.708 440.748 486.479 440.491C487.25 440.234 487.892 440.106 488.471 439.977C489.049 439.849 489.37 439.785 489.498 439.72L492.068 439.271C492.196 439.207 492.325 439.207 492.389 439.207C492.453 439.207 492.582 439.207 492.71 439.207C492.839 439.207 493.032 439.142 493.289 439.078C493.546 439.014 493.995 438.95 494.638 438.821C495.216 438.693 495.73 438.564 496.179 438.436C496.693 438.307 497.079 438.05 497.4 437.793C497.721 437.472 497.914 437.151 497.978 436.765C498.042 436.444 498.107 436.059 498.107 435.738C498.107 435.224 498.042 434.774 497.85 434.389C497.721 434.003 497.4 433.618 496.886 433.361C496.308 432.911 495.73 432.654 494.959 432.59C494.252 432.461 493.61 432.461 493.032 432.461C491.554 432.461 490.526 432.59 489.884 432.911C489.241 433.232 488.792 433.489 488.599 433.618C488.278 433.875 487.957 434.196 487.635 434.71C487.314 435.224 487.122 435.866 487.122 436.701H480.89C480.955 435.481 481.276 434.26 481.79 432.975C482.304 431.69 483.01 430.663 484.038 429.763C484.745 429.121 485.516 428.671 486.351 428.286C487.186 427.965 488.021 427.643 488.856 427.515C489.691 427.322 490.526 427.258 491.233 427.194C492.004 427.129 492.646 427.129 493.224 427.129C493.674 427.129 494.316 427.129 495.087 427.194C495.858 427.258 496.693 427.322 497.528 427.515C498.364 427.708 499.263 427.965 500.098 428.35C500.933 428.735 501.704 429.249 502.282 429.956C503.246 430.984 503.76 432.076 503.952 433.232C504.145 434.389 504.274 435.416 504.274 436.316V450.962H504.338ZM492.903 443.832C491.875 444.089 490.976 444.281 490.141 444.474C489.306 444.667 488.599 444.988 488.021 445.438C487.571 445.759 487.186 446.209 486.929 446.658C486.672 447.108 486.543 447.686 486.543 448.393C486.543 448.842 486.608 449.356 486.8 449.935C486.929 450.513 487.314 450.962 487.828 451.412C488.406 451.862 488.984 452.119 489.627 452.247C490.269 452.376 490.912 452.44 491.426 452.44C493.096 452.44 494.316 452.183 495.216 451.605C496.115 451.027 496.758 450.449 497.143 449.742C497.593 448.971 497.85 448.072 497.914 447.172C498.042 446.209 498.042 445.309 498.042 444.346V442.483C497.464 442.675 496.886 442.868 496.308 442.997C495.73 443.125 495.087 443.318 494.445 443.446L492.903 443.832Z" fill="#004E82"/>
<path d="M517.892 448.007C517.892 448.843 517.956 449.678 518.085 450.448C518.213 451.219 518.663 451.798 519.434 452.119C519.883 452.311 520.461 452.44 521.297 452.44C522.067 452.44 522.838 452.44 523.416 452.376V457.836C523.031 457.9 522.517 458.029 521.875 458.093C521.232 458.222 520.461 458.221 519.562 458.221C517.635 458.221 516.157 457.965 515.13 457.515C514.102 457.001 513.395 456.423 512.881 455.78C512.239 454.945 511.853 453.853 511.725 452.568C511.596 451.284 511.468 449.935 511.468 448.457V433.232H506.778V427.965H511.468V417.558H517.892V427.965H523.416V433.232H517.892V448.007Z" fill="#004E82"/>
<path d="M527.335 416.337H533.759V423.468H527.335V416.337ZM527.335 427.9H533.759V457.772H527.335V427.9Z" fill="#004E82"/>
<path d="M552.261 458.607C550.205 458.607 548.278 458.222 546.544 457.515C544.809 456.744 543.332 455.716 542.111 454.303C540.89 452.89 539.927 451.219 539.22 449.292C538.514 447.365 538.192 445.181 538.192 442.804C538.192 440.427 538.514 438.307 539.22 436.38C539.927 434.453 540.89 432.783 542.111 431.434C543.332 430.02 544.809 428.992 546.544 428.222C548.278 427.451 550.141 427.065 552.261 427.065C554.381 427.065 556.244 427.451 557.978 428.157C559.713 428.928 561.19 429.956 562.411 431.369C563.631 432.783 564.595 434.453 565.302 436.38C566.008 438.307 566.329 440.427 566.329 442.804C566.329 445.052 566.008 447.108 565.366 449.035C564.723 450.962 563.76 452.633 562.604 454.046C561.383 455.459 559.905 456.616 558.171 457.386C556.372 458.222 554.381 458.607 552.261 458.607ZM544.873 442.868C544.873 444.281 545.066 445.566 545.387 446.723C545.708 447.879 546.222 448.907 546.865 449.806C547.507 450.641 548.278 451.348 549.177 451.862C550.077 452.376 551.105 452.568 552.261 452.568C553.417 452.568 554.445 452.311 555.344 451.862C556.244 451.348 557.015 450.705 557.657 449.806C558.299 448.971 558.813 447.943 559.135 446.723C559.456 445.566 559.648 444.281 559.648 442.868C559.648 441.198 559.456 439.785 559.006 438.564C558.621 437.344 558.042 436.316 557.336 435.545C556.629 434.774 555.858 434.196 554.959 433.81C554.06 433.425 553.16 433.232 552.261 433.232C551.297 433.232 550.398 433.425 549.563 433.81C548.663 434.196 547.893 434.774 547.186 435.609C546.479 436.38 545.901 437.408 545.516 438.628C545.066 439.785 544.873 441.198 544.873 442.868Z" fill="#004E82"/>
<path d="M570.568 427.9H576.928V430.727C577.956 429.699 579.241 428.864 580.654 428.286C582.131 427.708 583.609 427.386 585.215 427.386C586.628 427.386 587.913 427.643 589.134 428.093C590.354 428.543 591.382 429.185 592.281 430.084C593.181 430.984 593.887 432.076 594.337 433.361C594.851 434.645 595.108 436.187 595.108 437.857V457.836H588.748V439.078C588.748 438.821 588.748 438.5 588.748 438.05C588.748 437.665 588.684 437.279 588.556 436.83C588.427 436.38 588.299 435.994 588.106 435.545C587.913 435.159 587.656 434.774 587.271 434.389C587.014 434.132 586.564 433.81 585.986 433.553C585.408 433.296 584.637 433.168 583.738 433.168C582.581 433.168 581.618 433.361 580.847 433.81C580.076 434.196 579.498 434.645 579.048 435.031C578.598 435.481 578.084 436.123 577.635 436.958C577.121 437.793 576.928 438.885 576.928 440.17V457.9H570.568V427.9Z" fill="#004E82"/>
<path d="M522.325 111.519C538.063 101.498 539.284 97.4506 542.881 92.9539C506.843 120.513 417.421 88.9067 436.757 185.652C443.695 189.442 453.973 195.095 457.314 196.958L478.898 185.331C473.117 131.498 506.522 122.633 522.325 111.519Z" fill="#DB0814"/>
<path d="M405.152 137.729C389.67 151.412 382.539 176.658 390.569 196.958C391.597 199.463 392.754 202.097 394.295 204.731L398.407 210.962C401.169 214.753 405.28 218.992 409.07 222.783L416.715 206.787C389.734 177.429 398.921 147.493 405.152 137.729Z" fill="#DB0814"/>
<path d="M399.949 241.605L405.409 230.042C394.938 220.213 387.743 210.448 383.889 200.363C382.026 195.481 380.998 191.305 381.062 185.523C376.758 205.631 378.685 224.196 388.45 243.917C397.7 262.675 412.411 277.708 422.946 287.087L422.754 269.035L399.949 241.605Z" fill="#004E82"/>
<path d="M406.501 166.508C408.235 180.962 415.173 192.461 420.312 199.464L428.021 183.275C428.021 183.275 426.094 169.913 425.644 163.553C424.36 143.575 431.233 127.836 445.751 117.815C432.518 121.284 402.004 129.442 406.501 166.508Z" fill="#004E82"/>
<path d="M562.411 77.6648C535.109 136.252 480.762 115.566 486.415 182.44L493.931 198.114C499.52 182.633 499.327 174.538 507.229 163.296C525.152 137.793 549.948 155.01 562.411 77.6648Z" fill="#004E82"/>
<path d="M558.557 120.513C552.518 141.969 534.403 151.219 529.52 154.046C508 166.637 505.43 184.239 498.878 208.457L505.302 221.819C523.096 181.412 520.27 181.541 542.368 167.665C548.407 164.003 558.749 152.954 558.557 120.513Z" fill="#DB0814"/>
<path d="M509.541 230.941L514.488 241.155L492.068 268.971C492.004 271.669 492.068 279.699 492.004 287.408C516.8 265.631 527.4 255.866 533.182 223.618C534.659 215.459 537.935 180.77 546.865 174.281C522.582 184.753 518.471 215.074 509.541 230.941Z" fill="#004E82"/>
<path d="M444.018 304.303V311.69L457.251 315.159L470.42 311.305V304.367L457.251 297.044L444.018 304.303Z" fill="#DB0814"/>
<path d="M482.497 191.69L457.251 205.502L432.004 191.69L408.878 240.063L430.27 266.209V294.731L439.97 300.32L452.176 292.932L443.953 283.104L470.42 283.04L462.261 292.932L474.467 300.256L484.167 294.667V266.144L505.559 239.999L482.497 191.69ZM442.925 276.744L442.604 245.074L432.197 242.183L424.809 231.198L448.128 238.136L442.925 276.744ZM482.433 242.183L472.026 245.074L471.704 276.744L466.373 238.2L489.692 231.262L482.433 242.183Z" fill="#DB0814"/>
<path d="M450.119 499.142C432.646 495.095 408.684 499.528 386.136 512.568C350.804 532.932 332.111 566.658 344.316 587.857C352.153 601.412 370.719 606.551 392.303 603.211C382.41 600.962 374.573 595.952 370.141 588.307C357.935 567.108 376.629 533.382 411.961 513.018C424.744 505.63 437.914 501.069 450.119 499.142Z" fill="#F0252D"/>
<path d="M450.44 582.782C455.708 599.935 471.511 618.436 494.059 631.476C529.391 651.84 567.935 651.198 580.205 629.999C588.042 616.444 583.224 597.815 569.477 580.791C572.432 590.491 572.046 599.742 567.678 607.386C555.473 628.585 516.864 629.228 481.532 608.864C468.749 601.476 458.149 592.418 450.44 582.782Z" fill="#00A651"/>
<path d="M426.479 541.155C414.209 554.324 406.115 577.194 406.115 603.275C406.115 644.067 425.965 677.151 450.441 677.151C466.051 677.151 479.798 663.66 487.7 643.232C480.762 650.62 472.539 654.988 463.738 654.988C439.263 654.988 419.413 621.905 419.413 581.112C419.413 566.401 422.047 552.718 426.479 541.155Z" fill="#0078D0"/>
</g>
<rect x="144.313" y="2.02026" width="625.751" height="768.88" stroke="#CBD4EC" stroke-width="4" stroke-linejoin="round" stroke-dasharray="8 8"/>
<rect x="235.871" y="91.4502" width="442.758" height="587" stroke="#CBD4EC" stroke-width="4" stroke-linejoin="round" stroke-dasharray="8 8"/>
<path fill-rule="evenodd" clip-rule="evenodd" d="M646.033 366.23V365.23V364.23H654.096V365.23V366.23H646.033ZM662.159 366.23V365.23V364.23H670.221V365.23V366.23H662.159ZM678.284 366.23V365.23V364.23H686.347V365.23V366.23H678.284ZM694.41 366.23V365.23V364.23H702.473V365.23V366.23H694.41ZM710.535 366.23V365.23V364.23H718.598V365.23V366.23H710.535ZM726.661 366.23V365.23V364.23H734.724V365.23V366.23H726.661ZM742.786 366.23V365.23V364.23H750.849V365.23V366.23H742.786ZM758.912 366.23V365.23V364.23H766.975V365.23V366.23H758.912ZM775.038 366.23V365.23V364.23H783.1V365.23V366.23H775.038ZM791.163 366.23V365.23V364.23H799.226V365.23V366.23H791.163ZM807.289 366.23V365.23V364.23H815.352V365.23V366.23H807.289ZM823.414 366.23V365.23V364.23H831.477V365.23V366.23H823.414ZM839.54 366.23V365.23V364.23H847.603V365.23V366.23H839.54ZM855.666 366.23V365.23V364.23H859.697C860.801 364.23 861.697 365.126 861.697 366.23V370.044H860.697H859.697V368.23V367.23V366.23H858.697H857.697H855.666ZM855.665 457.772V458.772V459.772H859.697C860.801 459.772 861.697 458.876 861.697 457.772V453.958H860.697H859.697V455.772V456.772V457.772H858.697H857.697H855.665ZM847.602 457.772V458.772V459.772H839.54V458.772V457.772H847.602ZM831.477 457.772V458.772V459.772H823.414V458.772V457.772H831.477ZM815.351 457.772V458.772V459.772H807.288V458.772V457.772H815.351ZM799.226 457.772V458.772V459.772H791.163V458.772V457.772H799.226ZM783.1 457.772V458.772V459.772H775.037V458.772V457.772H783.1ZM766.975 457.772V458.772V459.772H758.912V458.772V457.772H766.975ZM750.849 457.772V458.772V459.772H742.786V458.772V457.772H750.849ZM734.723 457.772V458.772V459.772H726.661V458.772V457.772H734.723ZM718.598 457.772V458.772V459.772H710.535V458.772V457.772H718.598ZM702.472 457.772V458.772V459.772H694.41V458.772V457.772H702.472ZM686.347 457.772V458.772V459.772H678.284V458.772V457.772H686.347ZM670.221 457.772V458.772V459.772H662.158V458.772V457.772H670.221ZM654.096 457.772V458.772V459.772H646.033V458.772V457.772H654.096ZM637.97 457.772V458.772V459.772H629.907V458.772V457.772H637.97ZM621.845 457.772V458.772V459.772H613.782V458.772V457.772H621.845ZM605.719 457.772V458.772V459.772H597.656V458.772V457.772H605.719ZM859.697 446.329H860.697H861.697V438.701H860.697H859.697V446.329ZM859.697 431.072H860.697H861.697V423.444H860.697H859.697V431.072ZM859.697 415.815H860.697H861.697V408.187H860.697H859.697V415.815ZM859.697 400.558H860.697H861.697V392.93H860.697H859.697V400.558ZM859.697 385.301H860.697H861.697V377.673H860.697H859.697V385.301Z" fill="#8DA4D5"/>
<rect x="238.25" y="21.9652" width="4" height="55" fill="#111111"/>
<path d="M361.506 31.6872V32.8932H364.71V41.9652H366.222V29.9412H365.214C364.692 31.4172 363.234 31.6872 361.506 31.6872ZM368.964 39.2472C369.414 40.8672 370.674 42.1812 373.104 42.1812C375.336 42.1812 377.37 40.7592 377.37 38.0052C377.37 35.3592 375.534 33.8652 373.428 33.8652C372.438 33.8652 371.466 34.1532 370.836 34.7652L371.25 31.3992H376.92V29.9412H370.026L369.288 36.0612L370.764 36.4932C371.016 35.8992 371.844 35.1612 373.086 35.1612C374.382 35.1612 375.786 36.0252 375.786 38.0232C375.786 39.8772 374.544 40.9212 373.104 40.9212C371.538 40.9212 370.728 40.1292 370.44 38.8152L368.964 39.2472ZM380.16 41.9652H382.05L387.054 31.3992V29.9412H378.756V31.3992H385.38L380.16 41.9652ZM388.922 33.0372V44.8632H390.434V40.6152C390.974 41.5692 391.928 42.1812 393.332 42.1812C395.366 42.1812 397.166 40.4712 397.166 37.5372C397.166 34.5852 395.366 32.8932 393.332 32.8932C391.928 32.8932 390.974 33.5052 390.434 34.4412L390.02 33.0372H388.922ZM390.398 37.5372C390.398 35.4132 391.406 34.1892 392.936 34.1892C394.466 34.1892 395.474 35.4132 395.474 37.5372C395.474 39.6612 394.466 40.8852 392.936 40.8852C391.406 40.8852 390.398 39.6612 390.398 37.5372ZM397.857 41.9652H399.639L401.997 38.6352L404.373 41.9652H406.155L402.897 37.3752L405.993 33.0372H404.211L401.997 36.1332L399.801 33.0372H398.019L401.115 37.3752L397.857 41.9652ZM411.469 41.9652H413.035L417.715 29.9412H416.149L411.469 41.9652ZM432.299 41.9652V40.5792H425.675C429.041 38.1492 431.975 35.6652 431.975 32.8752C431.975 30.8592 430.373 29.7252 428.159 29.7252C426.035 29.7252 424.523 30.8232 424.091 32.5692L425.603 33.0012C425.891 31.5432 426.989 30.9852 428.123 30.9852C429.545 30.9852 430.373 31.8312 430.373 33.0732C430.373 35.1972 427.889 37.4832 423.641 40.6152V41.9652H432.299ZM433.88 39.2472C434.33 40.8672 435.59 42.1812 438.02 42.1812C440.252 42.1812 442.286 40.7592 442.286 38.0052C442.286 35.3592 440.45 33.8652 438.344 33.8652C437.354 33.8652 436.382 34.1532 435.752 34.7652L436.166 31.3992H441.836V29.9412H434.942L434.204 36.0612L435.68 36.4932C435.932 35.8992 436.76 35.1612 438.002 35.1612C439.298 35.1612 440.702 36.0252 440.702 38.0232C440.702 39.8772 439.46 40.9212 438.02 40.9212C436.454 40.9212 435.644 40.1292 435.356 38.8152L433.88 39.2472ZM444.662 33.0372V41.9652H446.174V37.1232C446.174 35.2152 447.038 34.1892 448.334 34.1892C449.972 34.1892 450.242 35.3952 450.242 36.7632V41.9652H451.754V37.1232C451.754 35.2152 452.6 34.1892 453.896 34.1892C455.552 34.1892 455.804 35.3952 455.804 36.7632V41.9652H457.316V36.3132C457.316 34.2792 456.506 32.8932 454.436 32.8932C453.194 32.8932 452.15 33.3612 451.43 34.4592C451.034 33.4872 450.224 32.8932 448.856 32.8932C447.524 32.8932 446.678 33.5412 446.174 34.3872L445.778 33.0372H444.662ZM459.797 33.0372V41.9652H461.309V37.1232C461.309 35.2152 462.173 34.1892 463.469 34.1892C465.107 34.1892 465.377 35.3952 465.377 36.7632V41.9652H466.889V37.1232C466.889 35.2152 467.735 34.1892 469.031 34.1892C470.687 34.1892 470.939 35.3952 470.939 36.7632V41.9652H472.451V36.3132C472.451 34.2792 471.641 32.8932 469.571 32.8932C468.329 32.8932 467.285 33.3612 466.565 34.4592C466.169 33.4872 465.359 32.8932 463.991 32.8932C462.659 32.8932 461.813 33.5412 461.309 34.3872L460.913 33.0372H459.797ZM480.085 29.9412V41.9652H481.777V31.7052L485.269 41.9652H486.943L490.417 31.7052V41.9652H492.109V29.9412H489.301L486.097 39.7692L482.893 29.9412H480.085ZM494.292 33.0372V34.2432H495.534V41.9652H497.046V33.0372H494.292ZM496.29 31.3452C496.92 31.3452 497.424 30.8412 497.424 30.2112C497.424 29.5992 496.92 29.0952 496.29 29.0952C495.678 29.0952 495.174 29.5992 495.174 30.2112C495.174 30.8412 495.678 31.3452 496.29 31.3452ZM499.752 33.0372V41.9652H501.264V37.1232C501.264 35.2152 502.164 34.1892 503.622 34.1892C505.35 34.1892 505.584 35.3952 505.584 36.7632V41.9652H507.096V36.3132C507.096 34.2792 506.304 32.8932 504.144 32.8932C502.632 32.8932 501.768 33.5412 501.264 34.3872L500.868 33.0372H499.752ZM509.128 33.0372V34.2432H510.37V41.9652H511.882V33.0372H509.128ZM511.126 31.3452C511.756 31.3452 512.26 30.8412 512.26 30.2112C512.26 29.5992 511.756 29.0952 511.126 29.0952C510.514 29.0952 510.01 29.5992 510.01 30.2112C510.01 30.8412 510.514 31.3452 511.126 31.3452ZM514.588 33.0372V41.9652H516.1V37.1232C516.1 35.2152 516.964 34.1892 518.26 34.1892C519.898 34.1892 520.168 35.3952 520.168 36.7632V41.9652H521.68V37.1232C521.68 35.2152 522.526 34.1892 523.822 34.1892C525.478 34.1892 525.73 35.3952 525.73 36.7632V41.9652H527.242V36.3132C527.242 34.2792 526.432 32.8932 524.362 32.8932C523.12 32.8932 522.076 33.3612 521.356 34.4592C520.96 33.4872 520.15 32.8932 518.782 32.8932C517.45 32.8932 516.604 33.5412 516.1 34.3872L515.704 33.0372H514.588ZM532.549 42.1812C534.025 42.1812 534.835 41.5332 535.339 40.6692L535.717 41.9652H536.851V33.0192H535.339V37.9332C535.339 39.8412 534.493 40.8492 533.071 40.8492C531.433 40.8492 531.199 39.6612 531.199 38.2752V33.0192H529.687V38.7252C529.687 40.7592 530.461 42.1812 532.549 42.1812ZM539.373 33.0372V41.9652H540.885V37.1232C540.885 35.2152 541.749 34.1892 543.045 34.1892C544.683 34.1892 544.953 35.3952 544.953 36.7632V41.9652H546.465V37.1232C546.465 35.2152 547.311 34.1892 548.607 34.1892C550.263 34.1892 550.515 35.3952 550.515 36.7632V41.9652H552.027V36.3132C552.027 34.2792 551.217 32.8932 549.147 32.8932C547.905 32.8932 546.861 33.3612 546.141 34.4592C545.745 33.4872 544.935 32.8932 543.567 32.8932C542.235 32.8932 541.389 33.5412 540.885 34.3872L540.489 33.0372H539.373Z" fill="#111111"/>
<rect x="242.25" y="49.9652" width="430" height="4" fill="#111111"/>
<rect x="672.25" y="21.9652" width="4" height="55" fill="#111111"/>
<rect width="91.67" height="91.6702" transform="translate(676.395 3.63013)" fill="white"/>
<rect x="676.395" y="3.63013" width="91.67" height="91.6702" fill="#EAEDF7"/>
<path d="M710.15 60.7003H714.67L722.19 50.1003L729.75 60.7003H734.27L724.47 46.9403L733.71 33.9803H729.19L722.19 43.7803L715.19 33.9803H710.71L719.95 46.9403L710.15 60.7003Z" fill="#0D034C"/>
<rect width="91.67" height="91.6702" transform="translate(768.064 366.23)" fill="white"/>
<rect x="768.064" y="366.23" width="91.67" height="91.6702" fill="#EAEDF7"/>
<path d="M801.82 423.3H806.34L813.86 412.7L821.42 423.3H825.94L816.14 409.54L825.38 396.58H820.86L813.86 406.38L806.86 396.58H802.38L811.62 409.54L801.82 423.3Z" fill="#0D034C"/>
<rect width="91.67" height="91.6702" transform="translate(146.313 677.23)" fill="white"/>
<rect x="146.313" y="677.23" width="91.67" height="91.6702" fill="#EAEDF7"/>
<path d="M180.069 734.3H184.589L192.109 723.7L199.669 734.3H204.189L194.389 720.54L203.629 707.58H199.109L192.109 717.38L185.109 707.58H180.629L189.869 720.54L180.069 734.3Z" fill="#0D034C"/>
<rect width="91.67" height="91.6702" transform="translate(676.25 677.23)" fill="white"/>
<rect x="676.25" y="677.23" width="91.67" height="91.6702" fill="#EAEDF7"/>
<path d="M710.005 734.3H714.525L722.045 723.7L729.605 734.3H734.125L724.325 720.54L733.565 707.58H729.045L722.045 717.38L715.045 707.58H710.565L719.805 720.54L710.005 734.3Z" fill="#0D034C"/>
<rect width="91.67" height="91.6702" transform="translate(146.201 4.02026)" fill="white"/>
<rect x="146.201" y="4.02026" width="91.67" height="91.6702" fill="#EAEDF7"/>
<path d="M179.957 61.0905H184.477L191.997 50.4905L199.557 61.0905H204.077L194.277 47.3305L203.517 34.3705H198.997L191.997 44.1705L184.997 34.3705H180.517L189.757 47.3305L179.957 61.0905Z" fill="#0D034C"/>
<defs>
<clipPath id="clip0_338_75739">
<rect width="438.758" height="600" fill="white" transform="translate(237.871 77.2151)"/>
</clipPath>
</defs>
</svg>
