<svg width="1211" height="753" viewBox="0 0 1211 753" fill="none" xmlns="http://www.w3.org/2000/svg">
<g clip-path="url(#clip0_343_78053)">
<path d="M324.763 121.375C343.523 109.451 345.042 104.591 349.295 99.1983C306.307 132.084 199.599 94.3375 222.687 209.856C230.966 214.413 243.269 221.097 247.219 223.3L272.966 209.477C265.978 145.224 305.852 134.591 324.763 121.375Z" fill="#DB0814"/>
<path d="M184.941 152.667C166.485 168.996 157.979 199.072 167.549 223.3C168.764 226.338 170.207 229.451 172.03 232.565L176.891 240.008C180.232 244.489 185.093 249.578 189.65 254.059L198.764 234.996C166.485 200.059 177.422 164.287 184.941 152.667Z" fill="#DB0814"/>
<path d="M178.713 276.616L185.245 262.793C172.789 251.021 164.131 239.401 159.574 227.325C157.371 221.477 156.156 216.54 156.156 209.629C150.992 233.553 153.346 255.73 164.966 279.274C176.055 301.679 193.599 319.603 206.131 330.768L205.903 309.198L178.713 276.616Z" fill="#004E82"/>
<path d="M186.459 186.996C188.51 204.236 196.789 217.983 202.94 226.338L212.13 207.046C212.13 207.046 209.776 191.097 209.32 183.578C207.801 159.73 216.004 140.97 233.32 129.046C217.523 132.996 181.143 142.717 186.459 186.996Z" fill="#004E82"/>
<path d="M372.536 80.9704C339.954 150.844 275.093 126.16 281.852 205.983L290.814 224.667C297.422 206.211 297.27 196.489 306.688 183.122C328.105 152.743 357.726 173.249 372.536 80.9704Z" fill="#004E82"/>
<path d="M367.903 132.16C360.688 157.755 339.042 168.768 333.27 172.186C307.599 187.224 304.561 208.262 296.738 237.122L304.409 253.072C325.599 204.844 322.257 204.996 348.688 188.439C355.827 184.034 368.207 170.819 367.903 132.16Z" fill="#DB0814"/>
<path d="M309.422 263.856L315.27 276.008L288.536 309.198C288.46 312.388 288.536 321.958 288.46 331.224C318.004 305.249 330.688 293.629 337.599 255.122C339.346 245.401 343.219 204.008 353.928 196.262C324.992 208.717 320.131 244.869 309.422 263.856Z" fill="#004E82"/>
<path d="M25.751 411.35H43.2193C46.4092 411.35 49.0674 411.806 51.0421 412.717C53.0168 413.629 54.5358 414.54 55.5991 415.527C56.0548 415.983 56.5864 416.591 57.0421 417.274C57.5738 417.958 58.0295 418.793 58.4852 419.781C58.9409 420.768 59.3206 421.907 59.5484 423.198C59.8522 424.489 60.0041 425.932 60.0041 427.603C60.0041 430.186 59.6244 432.464 58.789 434.363C58.0295 436.262 56.8902 437.856 55.5991 439.224C54.3079 440.515 52.6371 441.502 50.6624 442.337C48.6877 443.173 46.3333 443.553 43.8269 443.553H34.3333V460.869H25.751V411.35ZM42.7636 435.958C44.2826 435.958 45.4978 435.73 46.4852 435.274C47.4725 434.818 48.3079 434.363 48.8396 433.755C49.3712 433.224 49.9029 432.388 50.3586 431.401C50.8143 430.413 51.0421 429.122 51.0421 427.527C51.0421 426.084 50.8143 424.869 50.4345 423.806C50.0548 422.743 49.5231 421.907 48.9155 421.224C47.8522 420.16 46.789 419.553 45.5738 419.325C44.3586 419.097 43.4472 418.945 42.8396 418.945H34.1814V435.958H42.7636Z" fill="#004E82"/>
<path d="M92.2069 452.667C92.2069 453.73 92.2069 454.641 92.2069 455.477C92.2069 456.236 92.2828 456.996 92.3588 457.603C92.4347 458.211 92.5866 458.743 92.7385 459.274C92.8904 459.806 93.1183 460.337 93.3461 460.869H86.5107C85.8271 460.413 85.3714 459.882 85.0676 459.274C84.9157 458.894 84.7638 458.515 84.7638 458.211C84.7638 457.907 84.7638 457.679 84.7638 457.603C83.9284 458.363 83.0929 459.046 82.2575 459.502C81.422 459.958 80.5866 460.337 79.7512 460.641C78.9157 460.869 78.1562 461.097 77.3967 461.173C76.6372 461.249 75.8777 461.325 75.1942 461.325C73.9031 461.325 72.46 461.097 70.7891 460.717C69.1942 460.337 67.6752 459.502 66.3081 458.211C65.3967 457.3 64.5613 456.236 63.8777 454.945C63.1942 453.654 62.8145 452.059 62.8145 450.084C62.8145 448.337 63.1182 446.819 63.6499 445.603C64.1815 444.388 64.941 443.477 65.8524 442.717C66.536 442.11 67.3714 441.578 68.2828 441.198C69.1942 440.743 70.1056 440.439 71.017 440.135C71.9284 439.831 72.6879 439.679 73.3714 439.527C74.055 439.375 74.4347 439.3 74.5866 439.224L77.7005 438.692C77.8524 438.616 78.0043 438.616 78.1562 438.616C78.2322 438.616 78.3841 438.616 78.536 438.616C78.6879 438.616 78.9157 438.54 79.2195 438.464C79.5233 438.388 80.055 438.312 80.8145 438.16C81.498 438.008 82.1056 437.856 82.6372 437.705C83.2448 437.553 83.7005 437.249 84.0803 436.869C84.46 436.489 84.6879 436.11 84.7638 435.654C84.8398 435.198 84.9157 434.819 84.9157 434.439C84.9157 433.831 84.8398 433.3 84.6119 432.844C84.46 432.388 84.0803 431.932 83.4727 431.553C82.7891 431.021 82.0296 430.717 81.1942 430.641C80.3588 430.489 79.5993 430.489 78.9157 430.489C77.1689 430.489 75.9537 430.641 75.1182 431.021C74.3588 431.401 73.8271 431.705 73.5993 431.856C73.2195 432.16 72.8398 432.616 72.46 433.224C72.0803 433.831 71.8524 434.591 71.8524 435.578H64.4094C64.4853 434.135 64.8651 432.692 65.4727 431.173C66.0803 429.654 66.9917 428.363 68.1309 427.3C68.9664 426.54 69.8777 425.932 70.8651 425.553C71.8524 425.097 72.8398 424.793 73.8271 424.641C74.8145 424.413 75.8018 424.337 76.7132 424.262C77.6246 424.186 78.3841 424.186 79.0676 424.186C79.5993 424.186 80.3588 424.186 81.3461 424.262C82.2575 424.337 83.2448 424.413 84.3081 424.641C85.3714 424.869 86.3588 425.173 87.3461 425.629C88.3334 426.084 89.2448 426.692 90.0043 427.527C91.1436 428.743 91.8271 430.034 92.055 431.477C92.2828 432.844 92.4347 434.135 92.4347 435.198V452.667H92.2069ZM78.6119 444.16C77.3967 444.464 76.2575 444.692 75.2701 444.92C74.2828 445.148 73.4474 445.527 72.6879 446.059C72.1562 446.515 71.7005 446.97 71.3967 447.502C71.0929 448.034 70.941 448.793 70.941 449.629C70.941 450.16 71.017 450.768 71.2448 451.451C71.3967 452.135 71.8524 452.667 72.536 453.198C73.2195 453.73 73.9031 454.034 74.7385 454.186C75.498 454.338 76.2575 454.413 76.941 454.413C78.9157 454.413 80.4347 454.11 81.4221 453.426C82.4853 452.743 83.2448 451.983 83.7005 451.224C84.2322 450.312 84.536 449.249 84.6119 448.11C84.7638 446.97 84.7638 445.831 84.7638 444.768V442.489C84.0803 442.717 83.3967 442.945 82.7132 443.097C81.9537 443.249 81.2702 443.477 80.5107 443.629L78.6119 444.16Z" fill="#004E82"/>
<path d="M99.2695 425.173H106.94V430.338C107.244 429.806 107.7 429.198 108.156 428.515C108.611 427.907 109.143 427.3 109.751 426.768C111.194 425.553 112.713 424.869 114.232 424.565C115.751 424.338 117.042 424.262 118.181 424.338V432.844C114.763 432.464 112.029 433.148 109.902 434.819C108.763 435.73 108.004 436.717 107.624 437.781C107.168 438.844 107.016 439.983 107.016 441.198V460.641H99.3455V425.173H99.2695Z" fill="#004E82"/>
<path d="M149.625 452.667C149.625 453.73 149.625 454.641 149.625 455.477C149.625 456.236 149.701 456.996 149.776 457.603C149.852 458.211 150.004 458.743 150.156 459.274C150.308 459.806 150.536 460.337 150.764 460.869H143.852C143.169 460.413 142.713 459.882 142.409 459.274C142.258 458.894 142.106 458.515 142.106 458.211C142.106 457.907 142.106 457.679 142.106 457.603C141.27 458.363 140.435 459.046 139.599 459.502C138.764 459.958 137.928 460.337 137.093 460.641C136.258 460.869 135.498 461.097 134.739 461.173C133.979 461.249 133.22 461.325 132.536 461.325C131.245 461.325 129.802 461.097 128.131 460.717C126.536 460.337 125.017 459.502 123.65 458.211C122.739 457.3 121.903 456.236 121.22 454.945C120.536 453.654 120.156 452.059 120.156 450.084C120.156 448.337 120.46 446.819 120.992 445.603C121.523 444.388 122.283 443.477 123.194 442.717C123.878 442.11 124.713 441.578 125.625 441.198C126.536 440.743 127.447 440.439 128.359 440.135C129.27 439.831 130.03 439.679 130.713 439.527C131.397 439.375 131.776 439.3 131.928 439.224L135.042 438.692C135.194 438.616 135.346 438.616 135.498 438.616C135.574 438.616 135.726 438.616 135.878 438.616C136.03 438.616 136.258 438.54 136.561 438.464C136.865 438.388 137.397 438.312 138.156 438.16C138.84 438.008 139.447 437.856 139.979 437.705C140.587 437.553 141.042 437.249 141.422 436.869C141.802 436.489 142.03 436.11 142.106 435.654C142.182 435.198 142.258 434.819 142.258 434.439C142.258 433.831 142.182 433.3 141.954 432.844C141.802 432.388 141.422 431.932 140.814 431.553C140.131 431.021 139.371 430.717 138.536 430.641C137.701 430.489 136.941 430.489 136.258 430.489C134.511 430.489 133.295 430.641 132.46 431.021C131.701 431.401 131.169 431.705 130.941 431.856C130.561 432.16 130.182 432.616 129.802 433.224C129.422 433.831 129.194 434.591 129.194 435.578H121.751C121.827 434.135 122.207 432.692 122.814 431.173C123.422 429.654 124.333 428.363 125.473 427.3C126.308 426.54 127.22 425.932 128.207 425.553C129.194 425.097 130.182 424.793 131.169 424.641C132.156 424.413 133.144 424.337 134.055 424.262C134.966 424.186 135.726 424.186 136.409 424.186C136.941 424.186 137.701 424.186 138.688 424.262C139.599 424.337 140.587 424.413 141.65 424.641C142.713 424.869 143.701 425.173 144.688 425.629C145.675 426.084 146.587 426.692 147.346 427.527C148.485 428.743 149.169 430.034 149.397 431.477C149.625 432.844 149.776 434.135 149.776 435.198V452.667H149.625ZM136.03 444.16C134.814 444.464 133.675 444.692 132.688 444.92C131.701 445.148 130.865 445.527 130.106 446.059C129.574 446.515 129.118 446.97 128.814 447.502C128.511 448.034 128.359 448.793 128.359 449.629C128.359 450.16 128.435 450.768 128.663 451.451C128.814 452.135 129.27 452.667 129.954 453.198C130.637 453.73 131.321 454.034 132.156 454.186C132.916 454.338 133.675 454.413 134.359 454.413C136.333 454.413 137.852 454.11 138.84 453.426C139.903 452.743 140.663 451.983 141.118 451.224C141.65 450.312 141.954 449.249 142.03 448.11C142.182 446.97 142.182 445.831 142.182 444.768V442.489C141.498 442.717 140.814 442.945 140.131 443.097C139.371 443.249 138.688 443.477 137.928 443.629L136.03 444.16Z" fill="#004E82"/>
<path d="M156.611 411.35H164.206V460.793H156.611V411.35Z" fill="#004E82"/>
<path d="M175.675 463.831C176.131 463.831 176.587 463.755 177.042 463.679C177.498 463.603 177.878 463.451 178.258 463.224C178.485 463.072 178.713 462.768 178.865 462.464C179.017 462.16 179.169 461.705 179.169 461.173C179.169 460.869 179.169 460.489 179.093 460.186C179.017 459.806 178.941 459.578 178.865 459.274L167.853 425.173H175.903L181.979 445.3C182.055 445.603 182.207 446.059 182.283 446.515C182.435 446.97 182.511 447.502 182.587 447.958C182.663 448.413 182.739 448.945 182.891 449.401C182.966 449.857 183.042 450.236 183.118 450.54C183.27 449.325 183.498 448.262 183.726 447.426C183.954 446.515 184.106 445.831 184.258 445.3L189.878 425.173H197.928L186.916 460.793C186.232 462.92 185.701 464.515 185.093 465.578C184.561 466.641 183.954 467.477 183.346 468.084C182.283 469.148 181.22 469.755 179.928 469.983C178.713 470.211 177.498 470.363 176.283 470.363H171.27V463.755H175.675V463.831Z" fill="#004E82"/>
<path d="M201.649 425.173H209.244V428.515C211.827 425.856 214.865 424.489 218.434 424.489C220.561 424.489 222.384 424.945 224.054 425.856C225.725 426.768 227.016 428.059 228.004 429.73C229.523 427.983 231.27 426.692 233.092 425.856C234.915 425.021 236.89 424.565 238.941 424.565C242.358 424.565 245.092 425.629 247.067 427.831C249.118 430.034 250.105 433.072 250.105 437.021V460.869H242.51V438.464C242.51 433.831 240.611 431.477 236.89 431.477C234.915 431.477 233.168 432.236 231.725 433.755C230.282 435.274 229.523 437.249 229.523 439.755V460.869H222.156V438.464C222.156 433.831 220.333 431.477 216.611 431.477C215.624 431.477 214.713 431.705 213.801 432.084C212.89 432.464 212.13 433.072 211.447 433.755C210.763 434.515 210.232 435.35 209.852 436.413C209.472 437.477 209.244 438.54 209.244 439.755V460.869H201.649V425.173Z" fill="#004E82"/>
<path d="M256.941 425.173H264.536V428.515C264.84 428.211 265.219 427.831 265.675 427.375C266.131 426.92 266.814 426.464 267.498 426.084C268.257 425.629 269.169 425.325 270.156 425.021C271.219 424.717 272.359 424.565 273.726 424.565C274.561 424.565 275.473 424.641 276.46 424.793C277.447 424.945 278.359 425.173 279.346 425.629C280.333 426.008 281.321 426.54 282.232 427.224C283.144 427.907 284.055 428.743 284.89 429.882C285.346 430.489 285.802 431.173 286.333 432.008C286.789 432.844 287.245 433.755 287.625 434.894C288.004 435.958 288.308 437.249 288.536 438.616C288.764 439.983 288.916 441.502 288.916 443.173C288.916 445.907 288.536 448.337 287.852 450.616C287.169 452.894 286.181 454.869 284.814 456.464C283.523 458.135 281.928 459.426 280.03 460.337C278.131 461.249 276.004 461.705 273.65 461.705C273.042 461.705 272.359 461.629 271.599 461.553C270.84 461.477 270.08 461.249 269.245 461.021C268.409 460.717 267.574 460.337 266.738 459.806C265.903 459.274 265.068 458.591 264.384 457.679V470.287H256.789V425.173H256.941ZM264.536 443.173C264.536 443.856 264.536 444.54 264.612 445.299C264.688 446.059 264.764 446.818 264.916 447.578C265.068 448.337 265.219 449.173 265.523 449.856C265.751 450.616 266.131 451.299 266.587 451.907C267.422 453.046 268.409 453.73 269.473 454.034C270.536 454.337 271.523 454.489 272.435 454.489C275.169 454.489 277.295 453.426 278.814 451.375C279.346 450.616 279.878 449.553 280.333 448.262C280.789 446.97 281.017 445.224 281.017 443.173C281.017 440.894 280.789 438.996 280.257 437.553C279.726 436.11 279.118 434.97 278.283 434.211C277.751 433.603 276.916 433.072 276.004 432.54C275.017 432.084 273.802 431.78 272.283 431.78C271.219 431.78 270.384 431.932 269.625 432.236C268.865 432.54 268.257 432.844 267.802 433.224C267.042 433.831 266.435 434.591 265.979 435.502C265.523 436.413 265.219 437.325 265.068 438.236C264.84 439.148 264.764 440.059 264.688 440.97C264.536 441.806 264.536 442.565 264.536 443.173Z" fill="#004E82"/>
<path d="M294.308 411.35H301.903V419.856H294.308V411.35ZM294.308 425.173H301.903V460.793H294.308V425.173Z" fill="#004E82"/>
<path d="M332.054 437.781C331.827 437.097 331.447 436.413 331.067 435.654C330.611 434.894 330.156 434.211 329.624 433.755C329.092 433.224 328.409 432.768 327.421 432.236C326.434 431.781 325.295 431.477 323.928 431.477C322.713 431.477 321.649 431.705 320.738 432.16C319.827 432.616 318.991 433.224 318.308 433.983C317.548 434.743 316.865 435.882 316.181 437.249C315.497 438.616 315.194 440.439 315.194 442.717C315.194 444.008 315.346 445.3 315.573 446.515C315.801 447.73 316.181 448.793 316.713 449.781C317.016 450.312 317.32 450.844 317.7 451.3C318.08 451.831 318.611 452.287 319.219 452.743C319.827 453.198 320.51 453.578 321.27 453.806C322.029 454.034 322.94 454.262 324.004 454.262C325.371 454.262 326.51 454.034 327.421 453.502C328.333 453.046 329.092 452.515 329.7 451.907C330.232 451.375 330.763 450.768 331.143 450.084C331.599 449.401 331.903 448.717 332.13 448.034L338.89 451.679C338.206 453.046 337.447 454.413 336.459 455.705C335.472 456.996 334.333 458.135 333.118 458.97C331.827 459.882 330.384 460.565 328.789 461.021C327.194 461.477 325.599 461.705 323.928 461.705C322.409 461.705 320.966 461.553 319.751 461.249C318.535 460.945 317.396 460.489 316.485 460.034C315.497 459.578 314.738 459.046 314.054 458.515C313.371 457.983 312.915 457.527 312.535 457.148C310.94 455.477 309.649 453.502 308.738 450.996C307.751 448.565 307.295 445.755 307.295 442.717C307.295 439.907 307.751 437.325 308.662 434.97C309.573 432.692 310.789 430.717 312.308 429.046C313.827 427.527 315.573 426.312 317.624 425.401C319.675 424.489 321.877 424.034 324.232 424.034C326.206 424.034 327.953 424.338 329.548 424.869C331.143 425.401 332.51 426.16 333.649 427.072C334.485 427.755 335.244 428.439 335.928 429.198C336.611 429.958 337.143 430.641 337.599 431.401C338.054 432.084 338.358 432.692 338.662 433.224C338.89 433.755 339.118 434.135 339.194 434.363L332.054 437.781Z" fill="#004E82"/>
<path d="M347.017 450.388C347.624 451.072 348.308 451.679 349.143 452.287C349.903 452.894 350.814 453.35 351.725 453.73C352.485 454.034 353.32 454.262 354.232 454.413C355.143 454.565 356.13 454.717 357.194 454.717C357.725 454.717 358.561 454.641 359.624 454.489C360.763 454.338 361.751 453.882 362.662 453.198C363.194 452.743 363.649 452.287 363.877 451.755C364.105 451.224 364.257 450.692 364.257 450.16C364.257 449.097 364.029 448.413 363.573 447.958C363.118 447.502 362.586 447.198 361.979 446.97C361.295 446.743 360.611 446.515 359.7 446.439C358.865 446.287 357.725 446.135 356.358 445.907L354.156 445.527C353.092 445.375 352.029 445.148 350.89 444.92C349.827 444.692 348.763 444.312 347.7 443.781C346.181 443.097 344.966 442.11 344.054 440.894C343.143 439.679 342.687 437.932 342.687 435.654C342.687 434.591 342.839 433.679 343.067 432.92C343.295 432.084 343.675 431.325 343.979 430.641C344.358 429.958 344.738 429.35 345.194 428.894C345.649 428.439 346.105 427.983 346.485 427.679C347.928 426.464 349.599 425.629 351.498 425.097C353.396 424.565 355.295 424.338 357.27 424.338C358.789 424.338 360.232 424.489 361.523 424.793C362.814 425.097 363.953 425.401 364.941 425.781C366.004 426.236 367.067 426.844 368.13 427.527C369.194 428.211 370.105 428.97 370.941 429.806L366.384 434.743C365.852 434.211 365.168 433.679 364.409 433.224C363.649 432.692 362.738 432.236 361.675 431.856C360.915 431.553 360.156 431.401 359.396 431.249C358.713 431.097 357.877 431.021 357.042 431.021C356.51 431.021 355.903 431.021 355.067 431.097C354.308 431.173 353.472 431.401 352.789 431.705C351.725 432.16 351.118 432.616 350.814 433.224C350.51 433.831 350.358 434.363 350.358 434.894C350.358 435.806 350.586 436.413 351.118 436.793C351.573 437.173 352.105 437.477 352.637 437.705C353.396 438.008 354.156 438.16 354.839 438.236C355.599 438.312 356.434 438.464 357.573 438.692L362.13 439.451C362.966 439.603 364.105 439.907 365.396 440.287C366.763 440.743 367.979 441.426 369.194 442.489C371.168 444.16 372.156 446.515 372.156 449.629C372.156 451.603 371.852 453.198 371.168 454.489C370.485 455.781 369.725 456.844 368.89 457.679C367.827 458.743 366.384 459.73 364.485 460.565C362.662 461.401 360.308 461.857 357.346 461.857C355.827 461.857 354.232 461.705 352.409 461.401C350.662 461.097 348.991 460.641 347.472 460.034C345.801 459.35 344.51 458.515 343.523 457.679C342.536 456.768 341.776 456.084 341.32 455.553L347.017 450.388Z" fill="#004E82"/>
<path d="M412.257 456.084C410.282 458.211 408.004 459.73 405.573 460.641C404.206 461.173 402.839 461.553 401.548 461.705C400.181 461.932 398.89 462.008 397.523 462.008C394.105 462.008 391.143 461.401 388.637 460.262C386.13 459.122 383.928 457.527 382.105 455.553C381.346 454.717 380.586 453.73 379.827 452.591C379.067 451.451 378.459 450.084 377.852 448.565C377.244 447.046 376.789 445.3 376.485 443.325C376.105 441.426 375.953 439.224 375.953 436.869C375.953 432.768 376.561 429.046 377.7 425.705C378.839 422.363 380.434 419.553 382.561 417.274C384.687 414.996 387.194 413.249 390.232 411.958C393.194 410.743 396.611 410.135 400.333 410.135C405.118 410.135 409.295 411.198 412.94 413.249C416.586 415.299 419.472 418.262 421.599 422.135L412.105 427.299C411.573 426.388 410.89 425.477 410.13 424.641C409.371 423.806 408.611 423.122 407.852 422.591C407.168 422.135 406.333 421.755 405.194 421.3C404.054 420.844 402.687 420.616 401.016 420.616C398.738 420.616 396.839 420.996 395.32 421.679C393.725 422.363 392.434 423.35 391.447 424.565C390.687 425.477 390.08 426.388 389.624 427.375C389.168 428.363 388.789 429.35 388.561 430.413C388.333 431.401 388.181 432.388 388.105 433.451C388.029 434.439 387.953 435.35 387.953 436.186C387.953 439.3 388.333 441.806 389.092 443.705C389.852 445.603 390.687 447.046 391.599 448.11C392.966 449.629 394.561 450.616 396.156 451.072C397.827 451.527 399.27 451.755 400.561 451.755C403.675 451.755 406.257 450.92 408.156 449.325C410.13 447.73 411.194 445.527 411.497 442.869H400.789V433.3H421.902V460.869H412.865L412.257 456.084Z" fill="#004E82"/>
<path d="M429.346 411.35H450.459C456.687 411.35 461.396 412.337 464.434 414.236C467.472 416.135 468.991 419.249 468.991 423.578C468.991 427.148 468.004 429.882 466.029 431.856C464.054 433.831 461.244 434.97 457.523 435.198C462.156 435.654 465.497 436.793 467.548 438.616C469.599 440.515 470.662 443.325 470.662 447.122C470.662 449.856 470.054 452.211 468.763 454.262C467.472 456.312 465.725 457.831 463.447 458.818C461.168 459.806 458.814 460.337 456.459 460.565C454.105 460.717 451.523 460.793 448.864 460.793H429.27V411.35H429.346ZM441.042 451.907H448.409C450.232 451.907 451.827 451.831 453.118 451.679C454.409 451.527 455.548 451.224 456.383 450.768C457.295 450.312 457.902 449.705 458.358 448.945C458.814 448.186 458.966 447.122 458.966 445.831C458.966 444.54 458.738 443.477 458.282 442.717C457.827 441.958 457.219 441.274 456.308 440.894C455.472 440.439 454.333 440.135 453.042 439.983C451.675 439.831 450.156 439.755 448.409 439.755H441.042V451.907ZM441.346 430.793H448.029C451.295 430.793 453.725 430.489 455.244 429.806C456.839 429.122 457.599 427.755 457.599 425.553C457.599 423.274 456.839 421.907 455.244 421.224C453.649 420.616 451.219 420.312 448.029 420.312H441.346V430.793Z" fill="#004E82"/>
<path d="M232.409 351.35V360.236L248.283 364.337L263.928 359.705V351.426L248.283 342.692L232.409 351.35Z" fill="#DB0814"/>
<path d="M278.359 217.072L248.207 233.553L218.131 217.072L190.485 274.793L216.004 306.008V340.034L227.625 346.717L242.207 337.907L232.409 326.211L264.004 326.135L254.283 337.907L268.789 346.641L280.409 339.958V305.932L305.928 274.717L278.359 217.072ZM231.194 318.54L230.814 280.793L218.435 277.375L209.625 264.236L237.498 272.515L231.194 318.54ZM278.283 277.3L265.903 280.717L265.523 318.464L259.22 272.439L287.093 264.16L278.283 277.3Z" fill="#DB0814"/>
<path d="M243.65 502.337C226.182 498.312 202.334 502.717 179.777 515.78C144.536 536.135 125.777 569.78 138.004 590.97C145.827 604.489 164.359 609.654 185.929 606.312C176.055 604.034 168.232 599.097 163.827 591.426C151.599 570.236 170.283 536.591 205.599 516.236C218.283 508.869 231.498 504.236 243.65 502.337Z" fill="#F0252D"/>
<path d="M243.954 585.882C249.195 603.046 264.992 621.502 287.549 634.489C322.79 654.844 361.296 654.236 373.524 633.046C381.347 619.527 376.486 600.92 362.815 583.907C365.777 593.553 365.397 602.819 360.992 610.489C348.764 631.679 310.258 632.287 275.017 611.932C262.258 604.565 251.701 595.451 243.954 585.882Z" fill="#00A651"/>
<path d="M220.03 544.337C207.802 557.477 199.676 580.337 199.676 606.388C199.676 647.097 219.499 680.135 243.954 680.135C259.6 680.135 273.271 666.616 281.169 646.262C274.258 653.705 266.056 657.958 257.245 657.958C232.79 657.958 212.967 624.92 212.967 584.211C213.043 569.477 215.625 555.806 220.03 544.337Z" fill="#0078D0"/>
</g>
<rect x="23.3711" y="539.354" width="1112.63" height="142.396" stroke="#CBD4EC" stroke-width="4" stroke-linejoin="round" stroke-dasharray="8 8"/>
<rect x="23.3711" y="78.9704" width="1112.63" height="572.386" stroke="#CBD4EC" stroke-width="4" stroke-linejoin="round" stroke-dasharray="8 8"/>
<rect x="23.3711" y="78.9704" width="449.823" height="572.386" stroke="#CBD4EC" stroke-width="4" stroke-linejoin="round" stroke-dasharray="8 8"/>
<rect x="687.193" y="78.9704" width="448.807" height="602.779" stroke="#CBD4EC" stroke-width="4" stroke-linejoin="round" stroke-dasharray="8 8"/>
<rect x="153.5" y="0.749817" width="4" height="55" fill="#111111"/>
<path d="M261.27 16.0698V20.7498H264.096V16.0698L268.686 8.72582H265.356L262.674 13.3518L259.992 8.72582H256.68L261.27 16.0698Z" fill="#111111"/>
<rect x="157.5" y="28.7498" width="211" height="4" fill="#111111"/>
<rect x="368.5" y="0.749817" width="4" height="55" fill="#111111"/>
<rect width="445" height="216" transform="translate(689 325.75)" fill="#193C66"/>
<path d="M804.974 443.75V423.386H813.009C814.553 423.386 815.869 423.681 816.956 424.271C818.043 424.854 818.872 425.666 819.442 426.707C820.019 427.741 820.307 428.934 820.307 430.287C820.307 431.639 820.015 432.832 819.432 433.866C818.849 434.9 818.003 435.706 816.896 436.282C815.796 436.859 814.464 437.148 812.899 437.148H807.778V433.697H812.203C813.032 433.697 813.715 433.555 814.251 433.27C814.795 432.978 815.199 432.577 815.465 432.067C815.736 431.55 815.872 430.956 815.872 430.287C815.872 429.611 815.736 429.021 815.465 428.517C815.199 428.006 814.795 427.612 814.251 427.334C813.708 427.049 813.019 426.906 812.183 426.906H809.28V443.75H804.974ZM824.262 443.75H819.648L826.678 423.386H832.226L839.246 443.75H834.633L829.532 428.04H829.373L824.262 443.75ZM823.973 435.746H834.871V439.106H823.973V435.746ZM841.697 443.75V423.386H849.731C851.269 423.386 852.582 423.661 853.669 424.211C854.762 424.755 855.594 425.527 856.164 426.528C856.741 427.523 857.03 428.693 857.03 430.038C857.03 431.39 856.738 432.554 856.155 433.528C855.571 434.496 854.726 435.238 853.619 435.755C852.519 436.273 851.186 436.531 849.622 436.531H844.243V433.071H848.926C849.748 433.071 850.431 432.958 850.974 432.733C851.518 432.507 851.922 432.169 852.187 431.719C852.459 431.268 852.595 430.708 852.595 430.038C852.595 429.362 852.459 428.792 852.187 428.328C851.922 427.864 851.514 427.513 850.964 427.274C850.421 427.029 849.735 426.906 848.906 426.906H846.003V443.75H841.697ZM852.694 434.483L857.755 443.75H853.003L848.051 434.483H852.694ZM859.297 426.936V423.386H876.021V426.936H869.787V443.75H865.531V426.936H859.297ZM895.808 423.386V443.75H892.089L883.23 430.933H883.081V443.75H878.775V423.386H882.554L891.343 436.193H891.522V423.386H895.808ZM899.365 443.75V423.386H913.087V426.936H903.67V431.788H912.381V435.338H903.67V440.2H913.126V443.75H899.365ZM916.51 443.75V423.386H924.544C926.082 423.386 927.394 423.661 928.481 424.211C929.575 424.755 930.407 425.527 930.977 426.528C931.554 427.523 931.842 428.693 931.842 430.038C931.842 431.39 931.55 432.554 930.967 433.528C930.384 434.496 929.539 435.238 928.432 435.755C927.331 436.273 925.999 436.531 924.434 436.531H919.055V433.071H923.738C924.56 433.071 925.243 432.958 925.787 432.733C926.33 432.507 926.735 432.169 927 431.719C927.271 431.268 927.407 430.708 927.407 430.038C927.407 429.362 927.271 428.792 927 428.328C926.735 427.864 926.327 427.513 925.777 427.274C925.233 427.029 924.547 426.906 923.718 426.906H920.815V443.75H916.51ZM927.507 434.483L932.568 443.75H927.815L922.863 434.483H927.507ZM941.365 443.75V423.386H945.67V440.2H954.401V443.75H941.365ZM975.172 433.568C975.172 435.789 974.751 437.678 973.909 439.236C973.074 440.793 971.934 441.983 970.489 442.805C969.05 443.621 967.433 444.028 965.636 444.028C963.827 444.028 962.203 443.617 960.764 442.795C959.326 441.973 958.189 440.783 957.354 439.226C956.519 437.668 956.101 435.782 956.101 433.568C956.101 431.347 956.519 429.458 957.354 427.9C958.189 426.343 959.326 425.156 960.764 424.341C962.203 423.519 963.827 423.108 965.636 423.108C967.433 423.108 969.05 423.519 970.489 424.341C971.934 425.156 973.074 426.343 973.909 427.9C974.751 429.458 975.172 431.347 975.172 433.568ZM970.807 433.568C970.807 432.13 970.591 430.916 970.161 429.929C969.736 428.941 969.136 428.192 968.361 427.682C967.585 427.171 966.677 426.916 965.636 426.916C964.596 426.916 963.688 427.171 962.912 427.682C962.136 428.192 961.533 428.941 961.102 429.929C960.678 430.916 960.466 432.13 960.466 433.568C960.466 435.006 960.678 436.22 961.102 437.207C961.533 438.195 962.136 438.944 962.912 439.454C963.688 439.965 964.596 440.22 965.636 440.22C966.677 440.22 967.585 439.965 968.361 439.454C969.136 438.944 969.736 438.195 970.161 437.207C970.591 436.22 970.807 435.006 970.807 433.568ZM991.864 429.969C991.725 429.485 991.529 429.057 991.277 428.686C991.025 428.308 990.717 427.99 990.353 427.731C989.995 427.466 989.584 427.264 989.12 427.125C988.662 426.986 988.155 426.916 987.598 426.916C986.558 426.916 985.643 427.175 984.854 427.692C984.072 428.209 983.462 428.961 983.025 429.949C982.587 430.93 982.368 432.13 982.368 433.548C982.368 434.967 982.584 436.173 983.015 437.167C983.445 438.162 984.055 438.921 984.844 439.444C985.633 439.961 986.564 440.22 987.638 440.22C988.613 440.22 989.445 440.048 990.134 439.703C990.83 439.352 991.36 438.858 991.725 438.221C992.096 437.585 992.282 436.833 992.282 435.964L993.157 436.094H987.907V432.852H996.428V435.417C996.428 437.207 996.05 438.745 995.294 440.031C994.539 441.31 993.498 442.298 992.172 442.994C990.847 443.684 989.329 444.028 987.618 444.028C985.709 444.028 984.032 443.607 982.587 442.765C981.142 441.917 980.015 440.714 979.206 439.156C978.404 437.592 978.003 435.736 978.003 433.588C978.003 431.937 978.242 430.466 978.719 429.173C979.203 427.874 979.879 426.773 980.748 425.872C981.616 424.97 982.627 424.284 983.78 423.814C984.934 423.343 986.183 423.108 987.529 423.108C988.682 423.108 989.756 423.277 990.75 423.615C991.745 423.946 992.626 424.417 993.395 425.027C994.171 425.637 994.804 426.363 995.294 427.204C995.785 428.04 996.1 428.961 996.239 429.969H991.864ZM1018.38 433.568C1018.38 435.789 1017.95 437.678 1017.11 439.236C1016.28 440.793 1015.14 441.983 1013.69 442.805C1012.25 443.621 1010.64 444.028 1008.84 444.028C1007.03 444.028 1005.41 443.617 1003.97 442.795C1002.53 441.973 1001.39 440.783 1000.56 439.226C999.722 437.668 999.304 435.782 999.304 433.568C999.304 431.347 999.722 429.458 1000.56 427.9C1001.39 426.343 1002.53 425.156 1003.97 424.341C1005.41 423.519 1007.03 423.108 1008.84 423.108C1010.64 423.108 1012.25 423.519 1013.69 424.341C1015.14 425.156 1016.28 426.343 1017.11 427.9C1017.95 429.458 1018.38 431.347 1018.38 433.568ZM1014.01 433.568C1014.01 432.13 1013.79 430.916 1013.36 429.929C1012.94 428.941 1012.34 428.192 1011.56 427.682C1010.79 427.171 1009.88 426.916 1008.84 426.916C1007.8 426.916 1006.89 427.171 1006.12 427.682C1005.34 428.192 1004.74 428.941 1004.31 429.929C1003.88 430.916 1003.67 432.13 1003.67 433.568C1003.67 435.006 1003.88 436.22 1004.31 437.207C1004.74 438.195 1005.34 438.944 1006.12 439.454C1006.89 439.965 1007.8 440.22 1008.84 440.22C1009.88 440.22 1010.79 439.965 1011.56 439.454C1012.34 438.944 1012.94 438.195 1013.36 437.207C1013.79 436.22 1014.01 435.006 1014.01 433.568Z" fill="#F9FAFD"/>
<rect x="579.194" y="325.75" width="2" height="216" fill="#111111"/>
<rect width="108" height="108" transform="translate(471.194 541.357)" fill="#F9FAFD"/>
<path d="M493.274 602.645C496.73 602.645 499.754 600.725 499.754 597.053C499.754 593.333 496.994 591.461 494.138 591.461C493.01 591.461 491.69 591.773 490.946 592.301L491.306 589.301H499.01V586.325H488.282L487.274 594.533L490.514 595.733C491.066 594.725 491.978 594.173 493.154 594.173C494.642 594.173 495.986 595.085 495.986 597.053C495.986 598.925 494.762 599.933 493.082 599.933C491.906 599.933 490.802 599.429 490.346 597.869L487.178 599.021C488.186 601.397 490.49 602.645 493.274 602.645ZM501.97 594.317C501.97 599.429 504.346 602.645 508.834 602.645C513.346 602.645 515.722 599.429 515.722 594.317C515.722 589.181 513.346 586.037 508.834 586.037C504.346 586.037 501.97 589.181 501.97 594.317ZM505.906 592.013L510.778 599.021C510.274 599.645 509.602 599.933 508.834 599.933C506.986 599.933 505.714 598.181 505.714 594.317C505.714 593.429 505.786 592.685 505.906 592.013ZM508.834 588.749C510.706 588.749 511.954 590.453 511.954 594.341C511.954 595.109 511.906 595.829 511.81 596.453L506.986 589.541C507.49 589.013 508.114 588.749 508.834 588.749ZM534.69 602.645C537.306 602.645 539.418 600.509 539.418 597.893C539.418 595.277 537.306 593.189 534.69 593.189C532.074 593.189 529.962 595.277 529.962 597.893C529.962 600.509 532.074 602.645 534.69 602.645ZM521.85 595.493C524.442 595.493 526.578 593.405 526.578 590.789C526.578 588.173 524.442 586.037 521.85 586.037C519.234 586.037 517.122 588.173 517.122 590.789C517.122 593.405 519.234 595.493 521.85 595.493ZM524.178 602.357L535.41 586.325H532.362L521.154 602.357H524.178ZM534.69 596.021C535.722 596.021 536.586 596.861 536.586 597.893C536.586 598.949 535.722 599.789 534.69 599.789C533.658 599.789 532.794 598.949 532.794 597.893C532.794 596.861 533.658 596.021 534.69 596.021ZM519.978 590.789C519.978 589.733 520.818 588.893 521.85 588.893C522.906 588.893 523.746 589.733 523.746 590.789C523.746 591.821 522.906 592.661 521.85 592.661C520.818 592.661 519.978 591.821 519.978 590.789ZM554.031 596.117V602.357H557.799V596.117L563.919 586.325H559.479L555.903 592.493L552.327 586.325H547.911L554.031 596.117Z" fill="#0D034C"/>
<rect width="108" height="108" transform="translate(581.194 541.357)" fill="#F9FAFD"/>
<path d="M603.274 602.645C606.73 602.645 609.754 600.725 609.754 597.053C609.754 593.333 606.994 591.461 604.138 591.461C603.01 591.461 601.69 591.773 600.946 592.301L601.306 589.301H609.01V586.325H598.282L597.274 594.533L600.514 595.733C601.066 594.725 601.978 594.173 603.154 594.173C604.642 594.173 605.986 595.085 605.986 597.053C605.986 598.925 604.762 599.933 603.082 599.933C601.906 599.933 600.802 599.429 600.346 597.869L597.178 599.021C598.186 601.397 600.49 602.645 603.274 602.645ZM611.97 594.317C611.97 599.429 614.346 602.645 618.834 602.645C623.346 602.645 625.722 599.429 625.722 594.317C625.722 589.181 623.346 586.037 618.834 586.037C614.346 586.037 611.97 589.181 611.97 594.317ZM615.906 592.013L620.778 599.021C620.274 599.645 619.602 599.933 618.834 599.933C616.986 599.933 615.714 598.181 615.714 594.317C615.714 593.429 615.786 592.685 615.906 592.013ZM618.834 588.749C620.706 588.749 621.954 590.453 621.954 594.341C621.954 595.109 621.906 595.829 621.81 596.453L616.986 589.541C617.49 589.013 618.114 588.749 618.834 588.749ZM644.69 602.645C647.306 602.645 649.418 600.509 649.418 597.893C649.418 595.277 647.306 593.189 644.69 593.189C642.074 593.189 639.962 595.277 639.962 597.893C639.962 600.509 642.074 602.645 644.69 602.645ZM631.85 595.493C634.442 595.493 636.578 593.405 636.578 590.789C636.578 588.173 634.442 586.037 631.85 586.037C629.234 586.037 627.122 588.173 627.122 590.789C627.122 593.405 629.234 595.493 631.85 595.493ZM634.178 602.357L645.41 586.325H642.362L631.154 602.357H634.178ZM644.69 596.021C645.722 596.021 646.586 596.861 646.586 597.893C646.586 598.949 645.722 599.789 644.69 599.789C643.658 599.789 642.794 598.949 642.794 597.893C642.794 596.861 643.658 596.021 644.69 596.021ZM629.978 590.789C629.978 589.733 630.818 588.893 631.85 588.893C632.906 588.893 633.746 589.733 633.746 590.789C633.746 591.821 632.906 592.661 631.85 592.661C630.818 592.661 629.978 591.821 629.978 590.789ZM664.031 596.117V602.357H667.799V596.117L673.919 586.325H669.479L665.903 592.493L662.327 586.325H657.911L664.031 596.117Z" fill="#0D034C"/>
<rect x="689.194" y="697.15" width="4" height="55" fill="#111111"/>
<path d="M909.295 717.15L911.977 713.352L914.677 717.15H918.097L913.687 710.976L917.845 705.126H914.443L911.977 708.582L909.529 705.126H906.127L910.285 710.976L905.875 717.15H909.295Z" fill="#111111"/>
<rect x="693.194" y="725.15" width="438" height="4" fill="#111111"/>
<rect x="1131.2" y="697.15" width="4" height="55" fill="#111111"/>
<rect x="25" y="696.75" width="4" height="55" fill="#111111"/>
<path d="M245.1 716.75L247.782 712.952L250.482 716.75H253.902L249.492 710.576L253.65 704.726H250.248L247.782 708.182L245.334 704.726H241.932L246.09 710.576L241.68 716.75H245.1Z" fill="#111111"/>
<rect x="29" y="724.75" width="438" height="4" fill="#111111"/>
<rect x="467" y="696.75" width="4" height="55" fill="#111111"/>
<rect x="1211" y="325.75" width="4" height="54" transform="rotate(90 1211 325.75)" fill="#111111"/>
<path d="M1197.04 433.57V438.25H1199.86V433.57L1204.45 426.226H1201.12L1198.44 430.852L1195.76 426.226H1192.45L1197.04 433.57Z" fill="#111111"/>
<rect x="1186.5" y="329.75" width="208" height="4" transform="rotate(90 1186.5 329.75)" fill="#111111"/>
<rect x="1211" y="537.75" width="4" height="54" transform="rotate(90 1211 537.75)" fill="#111111"/>
<path d="M748.621 679.75V659.386H756.655C758.2 659.386 759.515 659.681 760.602 660.271C761.69 660.854 762.518 661.666 763.088 662.707C763.665 663.741 763.953 664.934 763.953 666.287C763.953 667.639 763.662 668.832 763.078 669.866C762.495 670.9 761.65 671.706 760.543 672.282C759.442 672.859 758.11 673.148 756.546 673.148H751.425V669.697H755.85C756.678 669.697 757.361 669.555 757.898 669.27C758.442 668.978 758.846 668.577 759.111 668.067C759.383 667.55 759.519 666.956 759.519 666.287C759.519 665.611 759.383 665.021 759.111 664.517C758.846 664.006 758.442 663.612 757.898 663.334C757.354 663.049 756.665 662.906 755.83 662.906H752.926V679.75H748.621ZM767.908 679.75H763.295L770.324 659.386H775.873L782.893 679.75H778.279L773.178 664.04H773.019L767.908 679.75ZM767.62 671.746H778.518V675.106H767.62V671.746ZM785.344 679.75V659.386H793.378C794.916 659.386 796.228 659.661 797.315 660.211C798.409 660.755 799.241 661.527 799.811 662.528C800.388 663.523 800.676 664.693 800.676 666.038C800.676 667.39 800.384 668.554 799.801 669.528C799.218 670.496 798.373 671.238 797.265 671.755C796.165 672.273 794.833 672.531 793.268 672.531H787.889V669.071H792.572C793.394 669.071 794.077 668.958 794.621 668.733C795.164 668.507 795.569 668.169 795.834 667.719C796.105 667.268 796.241 666.708 796.241 666.038C796.241 665.362 796.105 664.792 795.834 664.328C795.569 663.864 795.161 663.513 794.611 663.274C794.067 663.029 793.381 662.906 792.552 662.906H789.649V679.75H785.344ZM796.341 670.483L801.402 679.75H796.649L791.697 670.483H796.341ZM802.943 662.936V659.386H819.667V662.936H813.433V679.75H809.177V662.936H802.943ZM839.454 659.386V679.75H835.736L826.876 666.933H826.727V679.75H822.422V659.386H826.2L834.99 672.193H835.169V659.386H839.454ZM843.012 679.75V659.386H856.733V662.936H847.317V667.788H856.027V671.338H847.317V676.2H856.773V679.75H843.012ZM860.156 679.75V659.386H868.19C869.728 659.386 871.041 659.661 872.128 660.211C873.221 660.755 874.053 661.527 874.623 662.528C875.2 663.523 875.489 664.693 875.489 666.038C875.489 667.39 875.197 668.554 874.614 669.528C874.03 670.496 873.185 671.238 872.078 671.755C870.978 672.273 869.645 672.531 868.081 672.531H862.702V669.071H867.385C868.207 669.071 868.89 668.958 869.433 668.733C869.977 668.507 870.381 668.169 870.646 667.719C870.918 667.268 871.054 666.708 871.054 666.038C871.054 665.362 870.918 664.792 870.646 664.328C870.381 663.864 869.973 663.513 869.423 663.274C868.88 663.029 868.194 662.906 867.365 662.906H864.462V679.75H860.156ZM871.153 670.483L876.214 679.75H871.462L866.51 670.483H871.153ZM892.23 679.75H885.012V659.386H892.29C894.338 659.386 896.102 659.794 897.58 660.609C899.058 661.418 900.195 662.581 900.99 664.099C901.792 665.617 902.193 667.434 902.193 669.548C902.193 671.669 901.792 673.492 900.99 675.017C900.195 676.541 899.051 677.711 897.56 678.527C896.075 679.342 894.299 679.75 892.23 679.75ZM889.317 676.061H892.051C893.324 676.061 894.395 675.836 895.263 675.385C896.138 674.927 896.794 674.221 897.232 673.267C897.676 672.306 897.898 671.066 897.898 669.548C897.898 668.043 897.676 666.814 897.232 665.859C896.794 664.905 896.141 664.202 895.273 663.751C894.405 663.3 893.334 663.075 892.061 663.075H889.317V676.061ZM905.383 679.75V659.386H919.104V662.936H909.688V667.788H918.398V671.338H909.688V676.2H919.144V679.75H905.383ZM933.574 665.243C933.495 664.441 933.153 663.818 932.55 663.373C931.947 662.929 931.128 662.707 930.094 662.707C929.391 662.707 928.798 662.807 928.314 663.005C927.83 663.198 927.459 663.466 927.201 663.811C926.949 664.156 926.823 664.547 926.823 664.984C926.809 665.349 926.886 665.667 927.051 665.939C927.224 666.211 927.459 666.446 927.757 666.645C928.056 666.837 928.4 667.006 928.791 667.152C929.183 667.291 929.6 667.41 930.044 667.51L931.874 667.947C932.762 668.146 933.577 668.411 934.32 668.743C935.062 669.074 935.705 669.482 936.249 669.966C936.792 670.45 937.213 671.02 937.512 671.676C937.817 672.332 937.972 673.085 937.979 673.933C937.972 675.179 937.654 676.26 937.024 677.175C936.401 678.083 935.5 678.789 934.32 679.292C933.147 679.79 931.731 680.038 930.074 680.038C928.43 680.038 926.998 679.786 925.779 679.282C924.566 678.779 923.618 678.033 922.935 677.045C922.259 676.051 921.904 674.821 921.871 673.356H926.037C926.084 674.039 926.279 674.609 926.624 675.067C926.975 675.517 927.442 675.859 928.026 676.091C928.616 676.316 929.282 676.429 930.024 676.429C930.754 676.429 931.387 676.323 931.924 676.111C932.467 675.898 932.888 675.604 933.186 675.226C933.485 674.848 933.634 674.414 933.634 673.923C933.634 673.466 933.498 673.081 933.226 672.77C932.961 672.458 932.57 672.193 932.053 671.974C931.542 671.755 930.916 671.557 930.174 671.378L927.956 670.821C926.239 670.403 924.884 669.75 923.889 668.862C922.895 667.974 922.401 666.777 922.408 665.273C922.401 664.04 922.729 662.962 923.392 662.041C924.062 661.12 924.98 660.4 926.147 659.883C927.313 659.366 928.639 659.108 930.124 659.108C931.635 659.108 932.954 659.366 934.081 659.883C935.215 660.4 936.096 661.12 936.726 662.041C937.356 662.962 937.681 664.03 937.701 665.243H933.574ZM945.18 659.386V679.75H940.875V659.386H945.18ZM962.225 665.969C962.086 665.485 961.891 665.057 961.639 664.686C961.387 664.308 961.079 663.99 960.714 663.731C960.356 663.466 959.945 663.264 959.481 663.125C959.024 662.986 958.517 662.916 957.96 662.916C956.919 662.916 956.004 663.175 955.215 663.692C954.433 664.209 953.823 664.961 953.386 665.949C952.948 666.93 952.73 668.13 952.73 669.548C952.73 670.967 952.945 672.173 953.376 673.167C953.807 674.162 954.417 674.921 955.205 675.444C955.994 675.961 956.926 676.22 958 676.22C958.974 676.22 959.806 676.048 960.495 675.703C961.191 675.352 961.722 674.858 962.086 674.221C962.457 673.585 962.643 672.833 962.643 671.964L963.518 672.094H958.268V668.852H966.789V671.417C966.789 673.207 966.411 674.745 965.656 676.031C964.9 677.31 963.859 678.298 962.534 678.994C961.208 679.684 959.69 680.028 957.98 680.028C956.071 680.028 954.393 679.607 952.948 678.765C951.503 677.917 950.376 676.714 949.568 675.156C948.766 673.592 948.365 671.736 948.365 669.588C948.365 667.937 948.603 666.466 949.08 665.173C949.564 663.874 950.241 662.773 951.109 661.872C951.977 660.97 952.988 660.284 954.142 659.814C955.295 659.343 956.544 659.108 957.89 659.108C959.044 659.108 960.117 659.277 961.112 659.615C962.106 659.946 962.988 660.417 963.757 661.027C964.532 661.637 965.165 662.363 965.656 663.204C966.146 664.04 966.461 664.961 966.6 665.969H962.225ZM987.056 659.386V679.75H983.337L974.478 666.933H974.329V679.75H970.023V659.386H973.802L982.591 672.193H982.77V659.386H987.056ZM994.123 679.75H989.509L996.539 659.386H1002.09L1009.11 679.75H1004.49L999.393 664.04H999.234L994.123 679.75ZM993.835 671.746H1004.73V675.106H993.835V671.746ZM1008.29 662.936V659.386H1025.02V662.936H1018.78V679.75H1014.53V662.936H1008.29ZM1032.08 659.386V679.75H1027.77V659.386H1032.08ZM1054.33 669.568C1054.33 671.789 1053.91 673.678 1053.07 675.236C1052.24 676.793 1051.1 677.983 1049.65 678.805C1048.21 679.621 1046.59 680.028 1044.8 680.028C1042.99 680.028 1041.36 679.617 1039.93 678.795C1038.49 677.973 1037.35 676.783 1036.52 675.226C1035.68 673.668 1035.26 671.782 1035.26 669.568C1035.26 667.347 1035.68 665.458 1036.52 663.9C1037.35 662.343 1038.49 661.156 1039.93 660.341C1041.36 659.519 1042.99 659.108 1044.8 659.108C1046.59 659.108 1048.21 659.519 1049.65 660.341C1051.1 661.156 1052.24 662.343 1053.07 663.9C1053.91 665.458 1054.33 667.347 1054.33 669.568ZM1049.97 669.568C1049.97 668.13 1049.75 666.916 1049.32 665.929C1048.9 664.941 1048.3 664.192 1047.52 663.682C1046.75 663.171 1045.84 662.916 1044.8 662.916C1043.76 662.916 1042.85 663.171 1042.07 663.682C1041.3 664.192 1040.7 664.941 1040.26 665.929C1039.84 666.916 1039.63 668.13 1039.63 669.568C1039.63 671.006 1039.84 672.22 1040.26 673.207C1040.7 674.195 1041.3 674.944 1042.07 675.454C1042.85 675.965 1043.76 676.22 1044.8 676.22C1045.84 676.22 1046.75 675.965 1047.52 675.454C1048.3 674.944 1048.9 674.195 1049.32 673.207C1049.75 672.22 1049.97 671.006 1049.97 669.568ZM1074.56 659.386V679.75H1070.84L1061.98 666.933H1061.83V679.75H1057.52V659.386H1061.3L1070.09 672.193H1070.27V659.386H1074.56Z" fill="#005288"/>
<defs>
<clipPath id="clip0_343_78053">
<rect width="445.823" height="600" fill="white" transform="translate(25.3711 80.5147)"/>
</clipPath>
</defs>
</svg>
