<svg width="1028" height="753" viewBox="0 0 1028 753" fill="none" xmlns="http://www.w3.org/2000/svg">
<g clip-path="url(#clip0_343_77717)">
<path d="M324.763 121.375C343.523 109.451 345.042 104.591 349.295 99.1983C306.307 132.084 199.599 94.3375 222.687 209.856C230.966 214.413 243.269 221.097 247.219 223.3L272.966 209.477C265.978 145.224 305.852 134.591 324.763 121.375Z" fill="#DB0814"/>
<path d="M184.941 152.667C166.485 168.996 157.979 199.072 167.549 223.3C168.764 226.338 170.207 229.451 172.03 232.565L176.891 240.008C180.232 244.489 185.093 249.578 189.65 254.059L198.764 234.996C166.485 200.059 177.422 164.287 184.941 152.667Z" fill="#DB0814"/>
<path d="M178.713 276.616L185.245 262.793C172.789 251.021 164.131 239.401 159.574 227.325C157.371 221.477 156.156 216.54 156.156 209.629C150.992 233.553 153.346 255.73 164.966 279.274C176.055 301.679 193.599 319.603 206.131 330.768L205.903 309.198L178.713 276.616Z" fill="#004E82"/>
<path d="M186.459 186.996C188.51 204.236 196.789 217.983 202.94 226.338L212.13 207.046C212.13 207.046 209.776 191.097 209.32 183.578C207.801 159.73 216.004 140.97 233.32 129.046C217.523 132.996 181.143 142.717 186.459 186.996Z" fill="#004E82"/>
<path d="M372.536 80.9704C339.954 150.844 275.093 126.16 281.852 205.983L290.814 224.667C297.422 206.211 297.27 196.489 306.688 183.122C328.105 152.743 357.726 173.249 372.536 80.9704Z" fill="#004E82"/>
<path d="M367.903 132.16C360.688 157.755 339.042 168.768 333.27 172.186C307.599 187.224 304.561 208.262 296.738 237.122L304.409 253.072C325.599 204.844 322.257 204.996 348.688 188.439C355.827 184.034 368.207 170.819 367.903 132.16Z" fill="#DB0814"/>
<path d="M309.422 263.856L315.27 276.008L288.536 309.198C288.46 312.388 288.536 321.958 288.46 331.224C318.004 305.249 330.688 293.629 337.599 255.122C339.346 245.401 343.219 204.008 353.928 196.262C324.992 208.717 320.131 244.869 309.422 263.856Z" fill="#004E82"/>
<path d="M25.751 411.35H43.2193C46.4092 411.35 49.0674 411.806 51.0421 412.717C53.0168 413.629 54.5358 414.54 55.5991 415.527C56.0548 415.983 56.5864 416.591 57.0421 417.274C57.5738 417.958 58.0295 418.793 58.4852 419.781C58.9409 420.768 59.3206 421.907 59.5484 423.198C59.8522 424.489 60.0041 425.932 60.0041 427.603C60.0041 430.186 59.6244 432.464 58.789 434.363C58.0295 436.262 56.8902 437.856 55.5991 439.224C54.3079 440.515 52.6371 441.502 50.6624 442.337C48.6877 443.173 46.3333 443.553 43.8269 443.553H34.3333V460.869H25.751V411.35ZM42.7636 435.958C44.2826 435.958 45.4978 435.73 46.4852 435.274C47.4725 434.818 48.3079 434.363 48.8396 433.755C49.3712 433.224 49.9029 432.388 50.3586 431.401C50.8143 430.413 51.0421 429.122 51.0421 427.527C51.0421 426.084 50.8143 424.869 50.4345 423.806C50.0548 422.743 49.5231 421.907 48.9155 421.224C47.8522 420.16 46.789 419.553 45.5738 419.325C44.3586 419.097 43.4472 418.945 42.8396 418.945H34.1814V435.958H42.7636Z" fill="#004E82"/>
<path d="M92.2069 452.667C92.2069 453.73 92.2069 454.641 92.2069 455.477C92.2069 456.236 92.2828 456.996 92.3588 457.603C92.4347 458.211 92.5866 458.743 92.7385 459.274C92.8904 459.806 93.1183 460.337 93.3461 460.869H86.5107C85.8271 460.413 85.3714 459.882 85.0676 459.274C84.9157 458.894 84.7638 458.515 84.7638 458.211C84.7638 457.907 84.7638 457.679 84.7638 457.603C83.9284 458.363 83.0929 459.046 82.2575 459.502C81.422 459.958 80.5866 460.337 79.7512 460.641C78.9157 460.869 78.1562 461.097 77.3967 461.173C76.6372 461.249 75.8777 461.325 75.1942 461.325C73.9031 461.325 72.46 461.097 70.7891 460.717C69.1942 460.337 67.6752 459.502 66.3081 458.211C65.3967 457.3 64.5613 456.236 63.8777 454.945C63.1942 453.654 62.8145 452.059 62.8145 450.084C62.8145 448.337 63.1182 446.819 63.6499 445.603C64.1815 444.388 64.941 443.477 65.8524 442.717C66.536 442.11 67.3714 441.578 68.2828 441.198C69.1942 440.743 70.1056 440.439 71.017 440.135C71.9284 439.831 72.6879 439.679 73.3714 439.527C74.055 439.375 74.4347 439.3 74.5866 439.224L77.7005 438.692C77.8524 438.616 78.0043 438.616 78.1562 438.616C78.2322 438.616 78.3841 438.616 78.536 438.616C78.6879 438.616 78.9157 438.54 79.2195 438.464C79.5233 438.388 80.055 438.312 80.8145 438.16C81.498 438.008 82.1056 437.856 82.6372 437.705C83.2448 437.553 83.7005 437.249 84.0803 436.869C84.46 436.489 84.6879 436.11 84.7638 435.654C84.8398 435.198 84.9157 434.819 84.9157 434.439C84.9157 433.831 84.8398 433.3 84.6119 432.844C84.46 432.388 84.0803 431.932 83.4727 431.553C82.7891 431.021 82.0296 430.717 81.1942 430.641C80.3588 430.489 79.5993 430.489 78.9157 430.489C77.1689 430.489 75.9537 430.641 75.1182 431.021C74.3588 431.401 73.8271 431.705 73.5993 431.856C73.2195 432.16 72.8398 432.616 72.46 433.224C72.0803 433.831 71.8524 434.591 71.8524 435.578H64.4094C64.4853 434.135 64.8651 432.692 65.4727 431.173C66.0803 429.654 66.9917 428.363 68.1309 427.3C68.9664 426.54 69.8777 425.932 70.8651 425.553C71.8524 425.097 72.8398 424.793 73.8271 424.641C74.8145 424.413 75.8018 424.337 76.7132 424.262C77.6246 424.186 78.3841 424.186 79.0676 424.186C79.5993 424.186 80.3588 424.186 81.3461 424.262C82.2575 424.337 83.2448 424.413 84.3081 424.641C85.3714 424.869 86.3588 425.173 87.3461 425.629C88.3334 426.084 89.2448 426.692 90.0043 427.527C91.1436 428.743 91.8271 430.034 92.055 431.477C92.2828 432.844 92.4347 434.135 92.4347 435.198V452.667H92.2069ZM78.6119 444.16C77.3967 444.464 76.2575 444.692 75.2701 444.92C74.2828 445.148 73.4474 445.527 72.6879 446.059C72.1562 446.515 71.7005 446.97 71.3967 447.502C71.0929 448.034 70.941 448.793 70.941 449.629C70.941 450.16 71.017 450.768 71.2448 451.451C71.3967 452.135 71.8524 452.667 72.536 453.198C73.2195 453.73 73.9031 454.034 74.7385 454.186C75.498 454.338 76.2575 454.413 76.941 454.413C78.9157 454.413 80.4347 454.11 81.4221 453.426C82.4853 452.743 83.2448 451.983 83.7005 451.224C84.2322 450.312 84.536 449.249 84.6119 448.11C84.7638 446.97 84.7638 445.831 84.7638 444.768V442.489C84.0803 442.717 83.3967 442.945 82.7132 443.097C81.9537 443.249 81.2702 443.477 80.5107 443.629L78.6119 444.16Z" fill="#004E82"/>
<path d="M99.2695 425.173H106.94V430.338C107.244 429.806 107.7 429.198 108.156 428.515C108.611 427.907 109.143 427.3 109.751 426.768C111.194 425.553 112.713 424.869 114.232 424.565C115.751 424.338 117.042 424.262 118.181 424.338V432.844C114.763 432.464 112.029 433.148 109.902 434.819C108.763 435.73 108.004 436.717 107.624 437.781C107.168 438.844 107.016 439.983 107.016 441.198V460.641H99.3455V425.173H99.2695Z" fill="#004E82"/>
<path d="M149.625 452.667C149.625 453.73 149.625 454.641 149.625 455.477C149.625 456.236 149.701 456.996 149.776 457.603C149.852 458.211 150.004 458.743 150.156 459.274C150.308 459.806 150.536 460.337 150.764 460.869H143.852C143.169 460.413 142.713 459.882 142.409 459.274C142.258 458.894 142.106 458.515 142.106 458.211C142.106 457.907 142.106 457.679 142.106 457.603C141.27 458.363 140.435 459.046 139.599 459.502C138.764 459.958 137.928 460.337 137.093 460.641C136.258 460.869 135.498 461.097 134.739 461.173C133.979 461.249 133.22 461.325 132.536 461.325C131.245 461.325 129.802 461.097 128.131 460.717C126.536 460.337 125.017 459.502 123.65 458.211C122.739 457.3 121.903 456.236 121.22 454.945C120.536 453.654 120.156 452.059 120.156 450.084C120.156 448.337 120.46 446.819 120.992 445.603C121.523 444.388 122.283 443.477 123.194 442.717C123.878 442.11 124.713 441.578 125.625 441.198C126.536 440.743 127.447 440.439 128.359 440.135C129.27 439.831 130.03 439.679 130.713 439.527C131.397 439.375 131.776 439.3 131.928 439.224L135.042 438.692C135.194 438.616 135.346 438.616 135.498 438.616C135.574 438.616 135.726 438.616 135.878 438.616C136.03 438.616 136.258 438.54 136.561 438.464C136.865 438.388 137.397 438.312 138.156 438.16C138.84 438.008 139.447 437.856 139.979 437.705C140.587 437.553 141.042 437.249 141.422 436.869C141.802 436.489 142.03 436.11 142.106 435.654C142.182 435.198 142.258 434.819 142.258 434.439C142.258 433.831 142.182 433.3 141.954 432.844C141.802 432.388 141.422 431.932 140.814 431.553C140.131 431.021 139.371 430.717 138.536 430.641C137.701 430.489 136.941 430.489 136.258 430.489C134.511 430.489 133.295 430.641 132.46 431.021C131.701 431.401 131.169 431.705 130.941 431.856C130.561 432.16 130.182 432.616 129.802 433.224C129.422 433.831 129.194 434.591 129.194 435.578H121.751C121.827 434.135 122.207 432.692 122.814 431.173C123.422 429.654 124.333 428.363 125.473 427.3C126.308 426.54 127.22 425.932 128.207 425.553C129.194 425.097 130.182 424.793 131.169 424.641C132.156 424.413 133.144 424.337 134.055 424.262C134.966 424.186 135.726 424.186 136.409 424.186C136.941 424.186 137.701 424.186 138.688 424.262C139.599 424.337 140.587 424.413 141.65 424.641C142.713 424.869 143.701 425.173 144.688 425.629C145.675 426.084 146.587 426.692 147.346 427.527C148.485 428.743 149.169 430.034 149.397 431.477C149.625 432.844 149.776 434.135 149.776 435.198V452.667H149.625ZM136.03 444.16C134.814 444.464 133.675 444.692 132.688 444.92C131.701 445.148 130.865 445.527 130.106 446.059C129.574 446.515 129.118 446.97 128.814 447.502C128.511 448.034 128.359 448.793 128.359 449.629C128.359 450.16 128.435 450.768 128.663 451.451C128.814 452.135 129.27 452.667 129.954 453.198C130.637 453.73 131.321 454.034 132.156 454.186C132.916 454.338 133.675 454.413 134.359 454.413C136.333 454.413 137.852 454.11 138.84 453.426C139.903 452.743 140.663 451.983 141.118 451.224C141.65 450.312 141.954 449.249 142.03 448.11C142.182 446.97 142.182 445.831 142.182 444.768V442.489C141.498 442.717 140.814 442.945 140.131 443.097C139.371 443.249 138.688 443.477 137.928 443.629L136.03 444.16Z" fill="#004E82"/>
<path d="M156.611 411.35H164.206V460.793H156.611V411.35Z" fill="#004E82"/>
<path d="M175.675 463.831C176.131 463.831 176.587 463.755 177.042 463.679C177.498 463.603 177.878 463.451 178.258 463.224C178.485 463.072 178.713 462.768 178.865 462.464C179.017 462.16 179.169 461.705 179.169 461.173C179.169 460.869 179.169 460.489 179.093 460.186C179.017 459.806 178.941 459.578 178.865 459.274L167.853 425.173H175.903L181.979 445.3C182.055 445.603 182.207 446.059 182.283 446.515C182.435 446.97 182.511 447.502 182.587 447.958C182.663 448.413 182.739 448.945 182.891 449.401C182.966 449.857 183.042 450.236 183.118 450.54C183.27 449.325 183.498 448.262 183.726 447.426C183.954 446.515 184.106 445.831 184.258 445.3L189.878 425.173H197.928L186.916 460.793C186.232 462.92 185.701 464.515 185.093 465.578C184.561 466.641 183.954 467.477 183.346 468.084C182.283 469.148 181.22 469.755 179.928 469.983C178.713 470.211 177.498 470.363 176.283 470.363H171.27V463.755H175.675V463.831Z" fill="#004E82"/>
<path d="M201.649 425.173H209.244V428.515C211.827 425.856 214.865 424.489 218.434 424.489C220.561 424.489 222.384 424.945 224.054 425.856C225.725 426.768 227.016 428.059 228.004 429.73C229.523 427.983 231.27 426.692 233.092 425.856C234.915 425.021 236.89 424.565 238.941 424.565C242.358 424.565 245.092 425.629 247.067 427.831C249.118 430.034 250.105 433.072 250.105 437.021V460.869H242.51V438.464C242.51 433.831 240.611 431.477 236.89 431.477C234.915 431.477 233.168 432.236 231.725 433.755C230.282 435.274 229.523 437.249 229.523 439.755V460.869H222.156V438.464C222.156 433.831 220.333 431.477 216.611 431.477C215.624 431.477 214.713 431.705 213.801 432.084C212.89 432.464 212.13 433.072 211.447 433.755C210.763 434.515 210.232 435.35 209.852 436.413C209.472 437.477 209.244 438.54 209.244 439.755V460.869H201.649V425.173Z" fill="#004E82"/>
<path d="M256.941 425.173H264.536V428.515C264.84 428.211 265.219 427.831 265.675 427.375C266.131 426.92 266.814 426.464 267.498 426.084C268.257 425.629 269.169 425.325 270.156 425.021C271.219 424.717 272.359 424.565 273.726 424.565C274.561 424.565 275.473 424.641 276.46 424.793C277.447 424.945 278.359 425.173 279.346 425.629C280.333 426.008 281.321 426.54 282.232 427.224C283.144 427.907 284.055 428.743 284.89 429.882C285.346 430.489 285.802 431.173 286.333 432.008C286.789 432.844 287.245 433.755 287.625 434.894C288.004 435.958 288.308 437.249 288.536 438.616C288.764 439.983 288.916 441.502 288.916 443.173C288.916 445.907 288.536 448.337 287.852 450.616C287.169 452.894 286.181 454.869 284.814 456.464C283.523 458.135 281.928 459.426 280.03 460.337C278.131 461.249 276.004 461.705 273.65 461.705C273.042 461.705 272.359 461.629 271.599 461.553C270.84 461.477 270.08 461.249 269.245 461.021C268.409 460.717 267.574 460.337 266.738 459.806C265.903 459.274 265.068 458.591 264.384 457.679V470.287H256.789V425.173H256.941ZM264.536 443.173C264.536 443.856 264.536 444.54 264.612 445.299C264.688 446.059 264.764 446.818 264.916 447.578C265.068 448.337 265.219 449.173 265.523 449.856C265.751 450.616 266.131 451.299 266.587 451.907C267.422 453.046 268.409 453.73 269.473 454.034C270.536 454.337 271.523 454.489 272.435 454.489C275.169 454.489 277.295 453.426 278.814 451.375C279.346 450.616 279.878 449.553 280.333 448.262C280.789 446.97 281.017 445.224 281.017 443.173C281.017 440.894 280.789 438.996 280.257 437.553C279.726 436.11 279.118 434.97 278.283 434.211C277.751 433.603 276.916 433.072 276.004 432.54C275.017 432.084 273.802 431.78 272.283 431.78C271.219 431.78 270.384 431.932 269.625 432.236C268.865 432.54 268.257 432.844 267.802 433.224C267.042 433.831 266.435 434.591 265.979 435.502C265.523 436.413 265.219 437.325 265.068 438.236C264.84 439.148 264.764 440.059 264.688 440.97C264.536 441.806 264.536 442.565 264.536 443.173Z" fill="#004E82"/>
<path d="M294.308 411.35H301.903V419.856H294.308V411.35ZM294.308 425.173H301.903V460.793H294.308V425.173Z" fill="#004E82"/>
<path d="M332.054 437.781C331.827 437.097 331.447 436.413 331.067 435.654C330.611 434.894 330.156 434.211 329.624 433.755C329.092 433.224 328.409 432.768 327.421 432.236C326.434 431.781 325.295 431.477 323.928 431.477C322.713 431.477 321.649 431.705 320.738 432.16C319.827 432.616 318.991 433.224 318.308 433.983C317.548 434.743 316.865 435.882 316.181 437.249C315.497 438.616 315.194 440.439 315.194 442.717C315.194 444.008 315.346 445.3 315.573 446.515C315.801 447.73 316.181 448.793 316.713 449.781C317.016 450.312 317.32 450.844 317.7 451.3C318.08 451.831 318.611 452.287 319.219 452.743C319.827 453.198 320.51 453.578 321.27 453.806C322.029 454.034 322.94 454.262 324.004 454.262C325.371 454.262 326.51 454.034 327.421 453.502C328.333 453.046 329.092 452.515 329.7 451.907C330.232 451.375 330.763 450.768 331.143 450.084C331.599 449.401 331.903 448.717 332.13 448.034L338.89 451.679C338.206 453.046 337.447 454.413 336.459 455.705C335.472 456.996 334.333 458.135 333.118 458.97C331.827 459.882 330.384 460.565 328.789 461.021C327.194 461.477 325.599 461.705 323.928 461.705C322.409 461.705 320.966 461.553 319.751 461.249C318.535 460.945 317.396 460.489 316.485 460.034C315.497 459.578 314.738 459.046 314.054 458.515C313.371 457.983 312.915 457.527 312.535 457.148C310.94 455.477 309.649 453.502 308.738 450.996C307.751 448.565 307.295 445.755 307.295 442.717C307.295 439.907 307.751 437.325 308.662 434.97C309.573 432.692 310.789 430.717 312.308 429.046C313.827 427.527 315.573 426.312 317.624 425.401C319.675 424.489 321.877 424.034 324.232 424.034C326.206 424.034 327.953 424.338 329.548 424.869C331.143 425.401 332.51 426.16 333.649 427.072C334.485 427.755 335.244 428.439 335.928 429.198C336.611 429.958 337.143 430.641 337.599 431.401C338.054 432.084 338.358 432.692 338.662 433.224C338.89 433.755 339.118 434.135 339.194 434.363L332.054 437.781Z" fill="#004E82"/>
<path d="M347.017 450.388C347.624 451.072 348.308 451.679 349.143 452.287C349.903 452.894 350.814 453.35 351.725 453.73C352.485 454.034 353.32 454.262 354.232 454.413C355.143 454.565 356.13 454.717 357.194 454.717C357.725 454.717 358.561 454.641 359.624 454.489C360.763 454.338 361.751 453.882 362.662 453.198C363.194 452.743 363.649 452.287 363.877 451.755C364.105 451.224 364.257 450.692 364.257 450.16C364.257 449.097 364.029 448.413 363.573 447.958C363.118 447.502 362.586 447.198 361.979 446.97C361.295 446.743 360.611 446.515 359.7 446.439C358.865 446.287 357.725 446.135 356.358 445.907L354.156 445.527C353.092 445.375 352.029 445.148 350.89 444.92C349.827 444.692 348.763 444.312 347.7 443.781C346.181 443.097 344.966 442.11 344.054 440.894C343.143 439.679 342.687 437.932 342.687 435.654C342.687 434.591 342.839 433.679 343.067 432.92C343.295 432.084 343.675 431.325 343.979 430.641C344.358 429.958 344.738 429.35 345.194 428.894C345.649 428.439 346.105 427.983 346.485 427.679C347.928 426.464 349.599 425.629 351.498 425.097C353.396 424.565 355.295 424.338 357.27 424.338C358.789 424.338 360.232 424.489 361.523 424.793C362.814 425.097 363.953 425.401 364.941 425.781C366.004 426.236 367.067 426.844 368.13 427.527C369.194 428.211 370.105 428.97 370.941 429.806L366.384 434.743C365.852 434.211 365.168 433.679 364.409 433.224C363.649 432.692 362.738 432.236 361.675 431.856C360.915 431.553 360.156 431.401 359.396 431.249C358.713 431.097 357.877 431.021 357.042 431.021C356.51 431.021 355.903 431.021 355.067 431.097C354.308 431.173 353.472 431.401 352.789 431.705C351.725 432.16 351.118 432.616 350.814 433.224C350.51 433.831 350.358 434.363 350.358 434.894C350.358 435.806 350.586 436.413 351.118 436.793C351.573 437.173 352.105 437.477 352.637 437.705C353.396 438.008 354.156 438.16 354.839 438.236C355.599 438.312 356.434 438.464 357.573 438.692L362.13 439.451C362.966 439.603 364.105 439.907 365.396 440.287C366.763 440.743 367.979 441.426 369.194 442.489C371.168 444.16 372.156 446.515 372.156 449.629C372.156 451.603 371.852 453.198 371.168 454.489C370.485 455.781 369.725 456.844 368.89 457.679C367.827 458.743 366.384 459.73 364.485 460.565C362.662 461.401 360.308 461.857 357.346 461.857C355.827 461.857 354.232 461.705 352.409 461.401C350.662 461.097 348.991 460.641 347.472 460.034C345.801 459.35 344.51 458.515 343.523 457.679C342.536 456.768 341.776 456.084 341.32 455.553L347.017 450.388Z" fill="#004E82"/>
<path d="M412.257 456.084C410.282 458.211 408.004 459.73 405.573 460.641C404.206 461.173 402.839 461.553 401.548 461.705C400.181 461.932 398.89 462.008 397.523 462.008C394.105 462.008 391.143 461.401 388.637 460.262C386.13 459.122 383.928 457.527 382.105 455.553C381.346 454.717 380.586 453.73 379.827 452.591C379.067 451.451 378.459 450.084 377.852 448.565C377.244 447.046 376.789 445.3 376.485 443.325C376.105 441.426 375.953 439.224 375.953 436.869C375.953 432.768 376.561 429.046 377.7 425.705C378.839 422.363 380.434 419.553 382.561 417.274C384.687 414.996 387.194 413.249 390.232 411.958C393.194 410.743 396.611 410.135 400.333 410.135C405.118 410.135 409.295 411.198 412.94 413.249C416.586 415.299 419.472 418.262 421.599 422.135L412.105 427.299C411.573 426.388 410.89 425.477 410.13 424.641C409.371 423.806 408.611 423.122 407.852 422.591C407.168 422.135 406.333 421.755 405.194 421.3C404.054 420.844 402.687 420.616 401.016 420.616C398.738 420.616 396.839 420.996 395.32 421.679C393.725 422.363 392.434 423.35 391.447 424.565C390.687 425.477 390.08 426.388 389.624 427.375C389.168 428.363 388.789 429.35 388.561 430.413C388.333 431.401 388.181 432.388 388.105 433.451C388.029 434.439 387.953 435.35 387.953 436.186C387.953 439.3 388.333 441.806 389.092 443.705C389.852 445.603 390.687 447.046 391.599 448.11C392.966 449.629 394.561 450.616 396.156 451.072C397.827 451.527 399.27 451.755 400.561 451.755C403.675 451.755 406.257 450.92 408.156 449.325C410.13 447.73 411.194 445.527 411.497 442.869H400.789V433.3H421.902V460.869H412.865L412.257 456.084Z" fill="#004E82"/>
<path d="M429.346 411.35H450.459C456.687 411.35 461.396 412.337 464.434 414.236C467.472 416.135 468.991 419.249 468.991 423.578C468.991 427.148 468.004 429.882 466.029 431.856C464.054 433.831 461.244 434.97 457.523 435.198C462.156 435.654 465.497 436.793 467.548 438.616C469.599 440.515 470.662 443.325 470.662 447.122C470.662 449.856 470.054 452.211 468.763 454.262C467.472 456.312 465.725 457.831 463.447 458.818C461.168 459.806 458.814 460.337 456.459 460.565C454.105 460.717 451.523 460.793 448.864 460.793H429.27V411.35H429.346ZM441.042 451.907H448.409C450.232 451.907 451.827 451.831 453.118 451.679C454.409 451.527 455.548 451.224 456.383 450.768C457.295 450.312 457.902 449.705 458.358 448.945C458.814 448.186 458.966 447.122 458.966 445.831C458.966 444.54 458.738 443.477 458.282 442.717C457.827 441.958 457.219 441.274 456.308 440.894C455.472 440.439 454.333 440.135 453.042 439.983C451.675 439.831 450.156 439.755 448.409 439.755H441.042V451.907ZM441.346 430.793H448.029C451.295 430.793 453.725 430.489 455.244 429.806C456.839 429.122 457.599 427.755 457.599 425.553C457.599 423.274 456.839 421.907 455.244 421.224C453.649 420.616 451.219 420.312 448.029 420.312H441.346V430.793Z" fill="#004E82"/>
<path d="M232.409 351.35V360.236L248.283 364.337L263.928 359.705V351.426L248.283 342.692L232.409 351.35Z" fill="#DB0814"/>
<path d="M278.359 217.072L248.207 233.553L218.131 217.072L190.485 274.793L216.004 306.008V340.034L227.625 346.717L242.207 337.907L232.409 326.211L264.004 326.135L254.283 337.907L268.789 346.641L280.409 339.958V305.932L305.928 274.717L278.359 217.072ZM231.194 318.54L230.814 280.793L218.435 277.375L209.625 264.236L237.498 272.515L231.194 318.54ZM278.283 277.3L265.903 280.717L265.523 318.464L259.22 272.439L287.093 264.16L278.283 277.3Z" fill="#DB0814"/>
<path d="M243.65 502.337C226.182 498.312 202.334 502.717 179.777 515.78C144.536 536.135 125.777 569.78 138.004 590.97C145.827 604.489 164.359 609.654 185.929 606.312C176.055 604.034 168.232 599.097 163.827 591.426C151.599 570.236 170.283 536.591 205.599 516.236C218.283 508.869 231.498 504.236 243.65 502.337Z" fill="#F0252D"/>
<path d="M243.954 585.882C249.195 603.046 264.992 621.502 287.549 634.489C322.79 654.844 361.296 654.236 373.524 633.046C381.347 619.527 376.486 600.92 362.815 583.907C365.777 593.553 365.397 602.819 360.992 610.489C348.764 631.679 310.258 632.287 275.017 611.932C262.258 604.565 251.701 595.451 243.954 585.882Z" fill="#00A651"/>
<path d="M220.03 544.337C207.802 557.477 199.676 580.337 199.676 606.388C199.676 647.097 219.499 680.135 243.954 680.135C259.6 680.135 273.271 666.616 281.169 646.262C274.258 653.705 266.056 657.958 257.245 657.958C232.79 657.958 212.967 624.92 212.967 584.211C213.043 569.477 215.625 555.806 220.03 544.337Z" fill="#0078D0"/>
</g>
<rect x="23.3711" y="539.354" width="1001.82" height="142.396" stroke="#CBD4EC" stroke-width="4" stroke-linejoin="round" stroke-dasharray="8 8"/>
<rect x="23.3711" y="78.9704" width="1001.82" height="572.386" stroke="#CBD4EC" stroke-width="4" stroke-linejoin="round" stroke-dasharray="8 8"/>
<rect x="23.3711" y="78.9704" width="449.823" height="572.386" stroke="#CBD4EC" stroke-width="4" stroke-linejoin="round" stroke-dasharray="8 8"/>
<rect x="687.193" y="78.9704" width="338" height="602.779" stroke="#CBD4EC" stroke-width="4" stroke-linejoin="round" stroke-dasharray="8 8"/>
<rect x="25.5" y="697.15" width="4" height="55" fill="#111111"/>
<path d="M245.1 717.15L247.782 713.352L250.482 717.15H253.902L249.492 710.976L253.65 705.126H250.248L247.782 708.582L245.334 705.126H241.932L246.09 710.976L241.68 717.15H245.1Z" fill="#111111"/>
<rect x="29.5" y="725.15" width="437" height="4" fill="#111111"/>
<rect x="466.5" y="697.15" width="4" height="55" fill="#111111"/>
<rect x="153.5" y="0.749817" width="4" height="55" fill="#111111"/>
<path d="M261.27 16.0698V20.7498H264.096V16.0698L268.686 8.72582H265.356L262.674 13.3518L259.992 8.72582H256.68L261.27 16.0698Z" fill="#111111"/>
<rect x="157.5" y="28.7498" width="211" height="4" fill="#111111"/>
<rect x="368.5" y="0.749817" width="4" height="55" fill="#111111"/>
<rect width="333.999" height="334" transform="translate(689.193 207.357)" fill="#193C66"/>
<path d="M749.668 384.357V363.993H757.702C759.246 363.993 760.562 364.288 761.649 364.878C762.736 365.461 763.565 366.273 764.135 367.314C764.712 368.348 765 369.541 765 370.893C765 372.246 764.709 373.439 764.125 374.473C763.542 375.507 762.697 376.312 761.59 376.889C760.489 377.466 759.157 377.754 757.593 377.754H752.472V374.304H756.897C757.725 374.304 758.408 374.161 758.945 373.876C759.488 373.585 759.893 373.184 760.158 372.673C760.43 372.156 760.566 371.563 760.566 370.893C760.566 370.217 760.43 369.627 760.158 369.124C759.893 368.613 759.488 368.219 758.945 367.94C758.401 367.655 757.712 367.513 756.877 367.513H753.973V384.357H749.668ZM768.955 384.357H764.341L771.371 363.993H776.92L783.939 384.357H779.326L774.225 368.646H774.066L768.955 384.357ZM768.667 376.352H779.564V379.713H768.667V376.352ZM786.39 384.357V363.993H794.425C795.962 363.993 797.275 364.268 798.362 364.818C799.456 365.362 800.288 366.134 800.858 367.135C801.435 368.129 801.723 369.299 801.723 370.645C801.723 371.997 801.431 373.16 800.848 374.135C800.265 375.103 799.419 375.845 798.312 376.362C797.212 376.879 795.88 377.138 794.315 377.138H788.936V373.678H793.619C794.441 373.678 795.124 373.565 795.667 373.339C796.211 373.114 796.615 372.776 796.881 372.325C797.152 371.874 797.288 371.314 797.288 370.645C797.288 369.969 797.152 369.399 796.881 368.935C796.615 368.471 796.208 368.119 795.658 367.881C795.114 367.635 794.428 367.513 793.599 367.513H790.696V384.357H786.39ZM797.388 375.089L802.449 384.357H797.696L792.744 375.089H797.388ZM803.99 367.543V363.993H820.714V367.543H814.48V384.357H810.224V367.543H803.99ZM840.501 363.993V384.357H836.783L827.923 371.54H827.774V384.357H823.469V363.993H827.247L836.037 376.8H836.216V363.993H840.501ZM844.058 384.357V363.993H857.78V367.543H848.364V372.395H857.074V375.945H848.364V380.807H857.82V384.357H844.058ZM861.203 384.357V363.993H869.237C870.775 363.993 872.087 364.268 873.175 364.818C874.268 365.362 875.1 366.134 875.67 367.135C876.247 368.129 876.535 369.299 876.535 370.645C876.535 371.997 876.244 373.16 875.66 374.135C875.077 375.103 874.232 375.845 873.125 376.362C872.024 376.879 870.692 377.138 869.128 377.138H863.748V373.678H868.432C869.254 373.678 869.936 373.565 870.48 373.339C871.024 373.114 871.428 372.776 871.693 372.325C871.965 371.874 872.101 371.314 872.101 370.645C872.101 369.969 871.965 369.399 871.693 368.935C871.428 368.471 871.02 368.119 870.47 367.881C869.926 367.635 869.24 367.513 868.412 367.513H865.508V384.357H861.203ZM872.2 375.089L877.261 384.357H872.508L867.557 375.089H872.2ZM886.058 384.357V363.993H890.364V380.807H899.094V384.357H886.058ZM919.865 374.175C919.865 376.395 919.444 378.285 918.602 379.842C917.767 381.4 916.627 382.59 915.182 383.412C913.744 384.227 912.126 384.635 910.33 384.635C908.52 384.635 906.896 384.224 905.458 383.402C904.019 382.58 902.882 381.39 902.047 379.832C901.212 378.275 900.794 376.389 900.794 374.175C900.794 371.954 901.212 370.065 902.047 368.507C902.882 366.949 904.019 365.763 905.458 364.947C906.896 364.125 908.52 363.714 910.33 363.714C912.126 363.714 913.744 364.125 915.182 364.947C916.627 365.763 917.767 366.949 918.602 368.507C919.444 370.065 919.865 371.954 919.865 374.175ZM915.5 374.175C915.5 372.736 915.285 371.523 914.854 370.535C914.43 369.548 913.83 368.799 913.054 368.288C912.279 367.778 911.37 367.523 910.33 367.523C909.289 367.523 908.381 367.778 907.605 368.288C906.83 368.799 906.227 369.548 905.796 370.535C905.371 371.523 905.159 372.736 905.159 374.175C905.159 375.613 905.371 376.826 905.796 377.814C906.227 378.802 906.83 379.551 907.605 380.061C908.381 380.571 909.289 380.827 910.33 380.827C911.37 380.827 912.279 380.571 913.054 380.061C913.83 379.551 914.43 378.802 914.854 377.814C915.285 376.826 915.5 375.613 915.5 374.175ZM936.557 370.575C936.418 370.091 936.223 369.664 935.971 369.293C935.719 368.915 935.411 368.597 935.046 368.338C934.688 368.073 934.277 367.871 933.813 367.732C933.356 367.592 932.849 367.523 932.292 367.523C931.251 367.523 930.336 367.781 929.547 368.298C928.765 368.815 928.155 369.568 927.718 370.555C927.28 371.536 927.062 372.736 927.062 374.155C927.062 375.573 927.277 376.78 927.708 377.774C928.139 378.768 928.749 379.527 929.538 380.051C930.326 380.568 931.258 380.827 932.332 380.827C933.306 380.827 934.138 380.654 934.827 380.31C935.523 379.958 936.054 379.464 936.418 378.828C936.789 378.192 936.975 377.439 936.975 376.571L937.85 376.7H932.6V373.459H941.121V376.024C941.121 377.814 940.743 379.352 939.988 380.638C939.232 381.917 938.191 382.905 936.866 383.601C935.54 384.29 934.022 384.635 932.312 384.635C930.403 384.635 928.725 384.214 927.28 383.372C925.835 382.524 924.708 381.321 923.9 379.763C923.098 378.198 922.697 376.342 922.697 374.195C922.697 372.544 922.935 371.072 923.413 369.78C923.896 368.481 924.573 367.38 925.441 366.479C926.309 365.577 927.32 364.891 928.474 364.42C929.627 363.95 930.877 363.714 932.222 363.714C933.376 363.714 934.449 363.883 935.444 364.222C936.438 364.553 937.32 365.024 938.089 365.633C938.864 366.243 939.497 366.969 939.988 367.811C940.478 368.646 940.793 369.568 940.932 370.575H936.557ZM963.068 374.175C963.068 376.395 962.647 378.285 961.806 379.842C960.97 381.4 959.83 382.59 958.385 383.412C956.947 384.227 955.329 384.635 953.533 384.635C951.723 384.635 950.099 384.224 948.661 383.402C947.222 382.58 946.085 381.39 945.25 379.832C944.415 378.275 943.997 376.389 943.997 374.175C943.997 371.954 944.415 370.065 945.25 368.507C946.085 366.949 947.222 365.763 948.661 364.947C950.099 364.125 951.723 363.714 953.533 363.714C955.329 363.714 956.947 364.125 958.385 364.947C959.83 365.763 960.97 366.949 961.806 368.507C962.647 370.065 963.068 371.954 963.068 374.175ZM958.703 374.175C958.703 372.736 958.488 371.523 958.057 370.535C957.633 369.548 957.033 368.799 956.257 368.288C955.482 367.778 954.574 367.523 953.533 367.523C952.492 367.523 951.584 367.778 950.808 368.288C950.033 368.799 949.43 369.548 948.999 370.535C948.575 371.523 948.362 372.736 948.362 374.175C948.362 375.613 948.575 376.826 948.999 377.814C949.43 378.802 950.033 379.551 950.808 380.061C951.584 380.571 952.492 380.827 953.533 380.827C954.574 380.827 955.482 380.571 956.257 380.061C957.033 379.551 957.633 378.802 958.057 377.814C958.488 376.826 958.703 375.613 958.703 374.175Z" fill="#F9FAFD"/>
<rect x="579.194" y="80.9704" width="2" height="598.766" fill="#111111"/>
<rect width="108" height="108" transform="translate(471.194 541.357)" fill="#F9FAFD"/>
<path d="M493.274 602.645C496.73 602.645 499.754 600.725 499.754 597.053C499.754 593.333 496.994 591.461 494.138 591.461C493.01 591.461 491.69 591.773 490.946 592.301L491.306 589.301H499.01V586.325H488.282L487.274 594.533L490.514 595.733C491.066 594.725 491.978 594.173 493.154 594.173C494.642 594.173 495.986 595.085 495.986 597.053C495.986 598.925 494.762 599.933 493.082 599.933C491.906 599.933 490.802 599.429 490.346 597.869L487.178 599.021C488.186 601.397 490.49 602.645 493.274 602.645ZM501.97 594.317C501.97 599.429 504.346 602.645 508.834 602.645C513.346 602.645 515.722 599.429 515.722 594.317C515.722 589.181 513.346 586.037 508.834 586.037C504.346 586.037 501.97 589.181 501.97 594.317ZM505.906 592.013L510.778 599.021C510.274 599.645 509.602 599.933 508.834 599.933C506.986 599.933 505.714 598.181 505.714 594.317C505.714 593.429 505.786 592.685 505.906 592.013ZM508.834 588.749C510.706 588.749 511.954 590.453 511.954 594.341C511.954 595.109 511.906 595.829 511.81 596.453L506.986 589.541C507.49 589.013 508.114 588.749 508.834 588.749ZM534.69 602.645C537.306 602.645 539.418 600.509 539.418 597.893C539.418 595.277 537.306 593.189 534.69 593.189C532.074 593.189 529.962 595.277 529.962 597.893C529.962 600.509 532.074 602.645 534.69 602.645ZM521.85 595.493C524.442 595.493 526.578 593.405 526.578 590.789C526.578 588.173 524.442 586.037 521.85 586.037C519.234 586.037 517.122 588.173 517.122 590.789C517.122 593.405 519.234 595.493 521.85 595.493ZM524.178 602.357L535.41 586.325H532.362L521.154 602.357H524.178ZM534.69 596.021C535.722 596.021 536.586 596.861 536.586 597.893C536.586 598.949 535.722 599.789 534.69 599.789C533.658 599.789 532.794 598.949 532.794 597.893C532.794 596.861 533.658 596.021 534.69 596.021ZM519.978 590.789C519.978 589.733 520.818 588.893 521.85 588.893C522.906 588.893 523.746 589.733 523.746 590.789C523.746 591.821 522.906 592.661 521.85 592.661C520.818 592.661 519.978 591.821 519.978 590.789ZM554.031 596.117V602.357H557.799V596.117L563.919 586.325H559.479L555.903 592.493L552.327 586.325H547.911L554.031 596.117Z" fill="#0D034C"/>
<rect width="108" height="108" transform="translate(581.194 541.357)" fill="#F9FAFD"/>
<path d="M603.274 602.645C606.73 602.645 609.754 600.725 609.754 597.053C609.754 593.333 606.994 591.461 604.138 591.461C603.01 591.461 601.69 591.773 600.946 592.301L601.306 589.301H609.01V586.325H598.282L597.274 594.533L600.514 595.733C601.066 594.725 601.978 594.173 603.154 594.173C604.642 594.173 605.986 595.085 605.986 597.053C605.986 598.925 604.762 599.933 603.082 599.933C601.906 599.933 600.802 599.429 600.346 597.869L597.178 599.021C598.186 601.397 600.49 602.645 603.274 602.645ZM611.97 594.317C611.97 599.429 614.346 602.645 618.834 602.645C623.346 602.645 625.722 599.429 625.722 594.317C625.722 589.181 623.346 586.037 618.834 586.037C614.346 586.037 611.97 589.181 611.97 594.317ZM615.906 592.013L620.778 599.021C620.274 599.645 619.602 599.933 618.834 599.933C616.986 599.933 615.714 598.181 615.714 594.317C615.714 593.429 615.786 592.685 615.906 592.013ZM618.834 588.749C620.706 588.749 621.954 590.453 621.954 594.341C621.954 595.109 621.906 595.829 621.81 596.453L616.986 589.541C617.49 589.013 618.114 588.749 618.834 588.749ZM644.69 602.645C647.306 602.645 649.418 600.509 649.418 597.893C649.418 595.277 647.306 593.189 644.69 593.189C642.074 593.189 639.962 595.277 639.962 597.893C639.962 600.509 642.074 602.645 644.69 602.645ZM631.85 595.493C634.442 595.493 636.578 593.405 636.578 590.789C636.578 588.173 634.442 586.037 631.85 586.037C629.234 586.037 627.122 588.173 627.122 590.789C627.122 593.405 629.234 595.493 631.85 595.493ZM634.178 602.357L645.41 586.325H642.362L631.154 602.357H634.178ZM644.69 596.021C645.722 596.021 646.586 596.861 646.586 597.893C646.586 598.949 645.722 599.789 644.69 599.789C643.658 599.789 642.794 598.949 642.794 597.893C642.794 596.861 643.658 596.021 644.69 596.021ZM629.978 590.789C629.978 589.733 630.818 588.893 631.85 588.893C632.906 588.893 633.746 589.733 633.746 590.789C633.746 591.821 632.906 592.661 631.85 592.661C630.818 592.661 629.978 591.821 629.978 590.789ZM664.031 596.117V602.357H667.799V596.117L673.919 586.325H669.479L665.903 592.493L662.327 586.325H657.911L664.031 596.117Z" fill="#0D034C"/>
<defs>
<clipPath id="clip0_343_77717">
<rect width="445.823" height="600" fill="white" transform="translate(25.3711 80.5147)"/>
</clipPath>
</defs>
</svg>
