<svg width="1138" height="728" viewBox="0 0 1138 728" fill="none" xmlns="http://www.w3.org/2000/svg">
<g clip-path="url(#clip0_914_14361)">
<path d="M324.763 97.3755C343.523 85.4514 345.042 80.5907 349.295 75.1983C306.307 108.084 199.599 70.3375 222.687 185.856C230.966 190.413 243.269 197.097 247.219 199.3L272.966 185.477C265.978 121.224 305.852 110.591 324.763 97.3755Z" fill="#DB0814"/>
<path d="M184.94 128.667C166.484 144.996 157.978 175.072 167.548 199.3C168.763 202.338 170.206 205.451 172.029 208.565L176.89 216.008C180.231 220.489 185.092 225.578 189.649 230.059L198.763 210.996C166.484 176.059 177.421 140.287 184.94 128.667Z" fill="#DB0814"/>
<path d="M178.713 252.616L185.245 238.793C172.789 227.021 164.131 215.401 159.574 203.325C157.371 197.477 156.156 192.54 156.156 185.629C150.992 209.553 153.346 231.73 164.966 255.274C176.055 277.679 193.599 295.603 206.131 306.768L205.903 285.198L178.713 252.616Z" fill="#004E82"/>
<path d="M186.459 162.996C188.51 180.236 196.789 193.983 202.94 202.338L212.13 183.046C212.13 183.046 209.776 167.097 209.32 159.578C207.801 135.73 216.004 116.97 233.32 105.046C217.523 108.996 181.143 118.717 186.459 162.996Z" fill="#004E82"/>
<path d="M372.535 56.9704C339.953 126.844 275.092 102.16 281.851 181.983L290.813 200.667C297.421 182.211 297.269 172.489 306.687 159.122C328.104 128.743 357.725 149.249 372.535 56.9704Z" fill="#004E82"/>
<path d="M367.903 108.16C360.688 133.755 339.042 144.768 333.27 148.186C307.599 163.224 304.561 184.262 296.738 213.122L304.409 229.072C325.599 180.844 322.257 180.996 348.688 164.439C355.827 160.034 368.207 146.819 367.903 108.16Z" fill="#DB0814"/>
<path d="M309.421 239.856L315.269 252.008L288.535 285.198C288.459 288.388 288.535 297.958 288.459 307.224C318.003 281.249 330.687 269.629 337.598 231.122C339.345 221.401 343.218 180.008 353.927 172.262C324.991 184.717 320.13 220.869 309.421 239.856Z" fill="#004E82"/>
<path d="M25.75 387.35H43.2184C46.4082 387.35 49.0665 387.806 51.0411 388.717C53.0158 389.629 54.5348 390.54 55.5981 391.527C56.0538 391.983 56.5854 392.591 57.0411 393.274C57.5728 393.958 58.0285 394.793 58.4842 395.781C58.9399 396.768 59.3196 397.907 59.5475 399.198C59.8513 400.489 60.0032 401.932 60.0032 403.603C60.0032 406.186 59.6234 408.464 58.788 410.363C58.0285 412.262 56.8892 413.856 55.5981 415.224C54.307 416.515 52.6361 417.502 50.6614 418.337C48.6867 419.173 46.3323 419.553 43.826 419.553H34.3323V436.869H25.75V387.35ZM42.7627 411.958C44.2816 411.958 45.4968 411.73 46.4842 411.274C47.4715 410.818 48.307 410.363 48.8386 409.755C49.3702 409.224 49.9019 408.388 50.3576 407.401C50.8133 406.413 51.0411 405.122 51.0411 403.527C51.0411 402.084 50.8133 400.869 50.4335 399.806C50.0538 398.743 49.5222 397.907 48.9146 397.224C47.8513 396.16 46.788 395.553 45.5728 395.325C44.3576 395.097 43.4462 394.945 42.8386 394.945H34.1804V411.958H42.7627Z" fill="#004E82"/>
<path d="M92.2049 428.667C92.2049 429.73 92.2049 430.641 92.2049 431.477C92.2049 432.236 92.2809 432.996 92.3568 433.603C92.4328 434.211 92.5847 434.743 92.7365 435.274C92.8884 435.806 93.1163 436.337 93.3441 436.869H86.5087C85.8252 436.413 85.3695 435.882 85.0657 435.274C84.9138 434.894 84.7619 434.515 84.7619 434.211C84.7619 433.907 84.7619 433.679 84.7619 433.603C83.9264 434.363 83.091 435.046 82.2555 435.502C81.4201 435.958 80.5847 436.337 79.7492 436.641C78.9138 436.869 78.1543 437.097 77.3948 437.173C76.6353 437.249 75.8758 437.325 75.1923 437.325C73.9011 437.325 72.4581 437.097 70.7872 436.717C69.1922 436.337 67.6733 435.502 66.3062 434.211C65.3948 433.3 64.5593 432.236 63.8758 430.945C63.1922 429.654 62.8125 428.059 62.8125 426.084C62.8125 424.337 63.1163 422.819 63.6479 421.603C64.1796 420.388 64.9391 419.477 65.8505 418.717C66.534 418.11 67.3695 417.578 68.2809 417.198C69.1922 416.743 70.1036 416.439 71.015 416.135C71.9264 415.831 72.6859 415.679 73.3695 415.527C74.053 415.375 74.4328 415.3 74.5847 415.224L77.6986 414.692C77.8505 414.616 78.0024 414.616 78.1543 414.616C78.2302 414.616 78.3821 414.616 78.534 414.616C78.6859 414.616 78.9138 414.54 79.2176 414.464C79.5214 414.388 80.053 414.312 80.8125 414.16C81.496 414.008 82.1036 413.856 82.6353 413.705C83.2429 413.553 83.6986 413.249 84.0783 412.869C84.4581 412.489 84.6859 412.11 84.7619 411.654C84.8378 411.198 84.9138 410.819 84.9138 410.439C84.9138 409.831 84.8378 409.3 84.61 408.844C84.4581 408.388 84.0783 407.932 83.4707 407.553C82.7872 407.021 82.0277 406.717 81.1922 406.641C80.3568 406.489 79.5973 406.489 78.9138 406.489C77.1669 406.489 75.9517 406.641 75.1163 407.021C74.3568 407.401 73.8252 407.705 73.5973 407.856C73.2176 408.16 72.8378 408.616 72.4581 409.224C72.0783 409.831 71.8505 410.591 71.8505 411.578H64.4074C64.4834 410.135 64.8631 408.692 65.4707 407.173C66.0783 405.654 66.9897 404.363 68.129 403.3C68.9644 402.54 69.8758 401.932 70.8631 401.553C71.8505 401.097 72.8378 400.793 73.8252 400.641C74.8125 400.413 75.7998 400.337 76.7112 400.262C77.6226 400.186 78.3821 400.186 79.0657 400.186C79.5973 400.186 80.3568 400.186 81.3441 400.262C82.2555 400.337 83.2429 400.413 84.3062 400.641C85.3695 400.869 86.3568 401.173 87.3442 401.629C88.3315 402.084 89.2429 402.692 90.0024 403.527C91.1416 404.743 91.8252 406.034 92.053 407.477C92.2809 408.844 92.4328 410.135 92.4328 411.198V428.667H92.2049ZM78.61 420.16C77.3948 420.464 76.2555 420.692 75.2682 420.92C74.2809 421.148 73.4454 421.527 72.6859 422.059C72.1543 422.515 71.6986 422.97 71.3948 423.502C71.091 424.034 70.9391 424.793 70.9391 425.629C70.9391 426.16 71.015 426.768 71.2429 427.451C71.3948 428.135 71.8505 428.667 72.534 429.198C73.2176 429.73 73.9011 430.034 74.7365 430.186C75.496 430.338 76.2555 430.413 76.9391 430.413C78.9138 430.413 80.4328 430.11 81.4201 429.426C82.4834 428.743 83.2429 427.983 83.6986 427.224C84.2302 426.312 84.534 425.249 84.61 424.11C84.7619 422.97 84.7619 421.831 84.7619 420.768V418.489C84.0783 418.717 83.3948 418.945 82.7112 419.097C81.9517 419.249 81.2682 419.477 80.5087 419.629L78.61 420.16Z" fill="#004E82"/>
<path d="M99.2695 401.173H106.94V406.338C107.244 405.806 107.7 405.198 108.156 404.515C108.611 403.907 109.143 403.3 109.751 402.768C111.194 401.553 112.713 400.869 114.232 400.565C115.751 400.338 117.042 400.262 118.181 400.338V408.844C114.763 408.464 112.029 409.148 109.902 410.819C108.763 411.73 108.004 412.717 107.624 413.781C107.168 414.844 107.016 415.983 107.016 417.198V436.641H99.3455V401.173H99.2695Z" fill="#004E82"/>
<path d="M149.623 428.667C149.623 429.73 149.623 430.641 149.623 431.477C149.623 432.236 149.699 432.996 149.775 433.603C149.85 434.211 150.002 434.743 150.154 435.274C150.306 435.806 150.534 436.337 150.762 436.869H143.85C143.167 436.413 142.711 435.882 142.407 435.274C142.256 434.894 142.104 434.515 142.104 434.211C142.104 433.907 142.104 433.679 142.104 433.603C141.268 434.363 140.433 435.046 139.597 435.502C138.762 435.958 137.926 436.337 137.091 436.641C136.256 436.869 135.496 437.097 134.737 437.173C133.977 437.249 133.218 437.325 132.534 437.325C131.243 437.325 129.8 437.097 128.129 436.717C126.534 436.337 125.015 435.502 123.648 434.211C122.737 433.3 121.901 432.236 121.218 430.945C120.534 429.654 120.154 428.059 120.154 426.084C120.154 424.337 120.458 422.819 120.99 421.603C121.521 420.388 122.281 419.477 123.192 418.717C123.876 418.11 124.711 417.578 125.623 417.198C126.534 416.743 127.445 416.439 128.357 416.135C129.268 415.831 130.028 415.679 130.711 415.527C131.395 415.375 131.775 415.3 131.926 415.224L135.04 414.692C135.192 414.616 135.344 414.616 135.496 414.616C135.572 414.616 135.724 414.616 135.876 414.616C136.028 414.616 136.256 414.54 136.559 414.464C136.863 414.388 137.395 414.312 138.154 414.16C138.838 414.008 139.445 413.856 139.977 413.705C140.585 413.553 141.04 413.249 141.42 412.869C141.8 412.489 142.028 412.11 142.104 411.654C142.18 411.198 142.256 410.819 142.256 410.439C142.256 409.831 142.18 409.3 141.952 408.844C141.8 408.388 141.42 407.932 140.813 407.553C140.129 407.021 139.369 406.717 138.534 406.641C137.699 406.489 136.939 406.489 136.256 406.489C134.509 406.489 133.294 406.641 132.458 407.021C131.699 407.401 131.167 407.705 130.939 407.856C130.559 408.16 130.18 408.616 129.8 409.224C129.42 409.831 129.192 410.591 129.192 411.578H121.749C121.825 410.135 122.205 408.692 122.813 407.173C123.42 405.654 124.332 404.363 125.471 403.3C126.306 402.54 127.218 401.932 128.205 401.553C129.192 401.097 130.18 400.793 131.167 400.641C132.154 400.413 133.142 400.337 134.053 400.262C134.964 400.186 135.724 400.186 136.407 400.186C136.939 400.186 137.699 400.186 138.686 400.262C139.597 400.337 140.585 400.413 141.648 400.641C142.711 400.869 143.699 401.173 144.686 401.629C145.673 402.084 146.585 402.692 147.344 403.527C148.483 404.743 149.167 406.034 149.395 407.477C149.623 408.844 149.775 410.135 149.775 411.198V428.667H149.623ZM136.028 420.16C134.813 420.464 133.673 420.692 132.686 420.92C131.699 421.148 130.863 421.527 130.104 422.059C129.572 422.515 129.116 422.97 128.813 423.502C128.509 424.034 128.357 424.793 128.357 425.629C128.357 426.16 128.433 426.768 128.661 427.451C128.813 428.135 129.268 428.667 129.952 429.198C130.635 429.73 131.319 430.034 132.154 430.186C132.914 430.338 133.673 430.413 134.357 430.413C136.332 430.413 137.85 430.11 138.838 429.426C139.901 428.743 140.661 427.983 141.116 427.224C141.648 426.312 141.952 425.249 142.028 424.11C142.18 422.97 142.18 421.831 142.18 420.768V418.489C141.496 418.717 140.813 418.945 140.129 419.097C139.369 419.249 138.686 419.477 137.926 419.629L136.028 420.16Z" fill="#004E82"/>
<path d="M156.611 387.35H164.206V436.793H156.611V387.35Z" fill="#004E82"/>
<path d="M175.674 439.831C176.13 439.831 176.586 439.755 177.041 439.679C177.497 439.603 177.877 439.451 178.257 439.224C178.484 439.072 178.712 438.768 178.864 438.464C179.016 438.16 179.168 437.705 179.168 437.173C179.168 436.869 179.168 436.489 179.092 436.186C179.016 435.806 178.94 435.578 178.864 435.274L167.852 401.173H175.902L181.978 421.3C182.054 421.603 182.206 422.059 182.282 422.515C182.434 422.97 182.51 423.502 182.586 423.958C182.662 424.413 182.738 424.945 182.89 425.401C182.965 425.857 183.041 426.236 183.117 426.54C183.269 425.325 183.497 424.262 183.725 423.426C183.953 422.515 184.105 421.831 184.257 421.3L189.877 401.173H197.928L186.915 436.793C186.231 438.92 185.7 440.515 185.092 441.578C184.56 442.641 183.953 443.477 183.345 444.084C182.282 445.148 181.219 445.755 179.928 445.983C178.712 446.211 177.497 446.363 176.282 446.363H171.269V439.755H175.674V439.831Z" fill="#004E82"/>
<path d="M201.648 401.173H209.243V404.515C211.826 401.856 214.864 400.489 218.433 400.489C220.56 400.489 222.383 400.945 224.054 401.856C225.724 402.768 227.016 404.059 228.003 405.73C229.522 403.983 231.269 402.692 233.091 401.856C234.914 401.021 236.889 400.565 238.94 400.565C242.357 400.565 245.091 401.629 247.066 403.831C249.117 406.034 250.104 409.072 250.104 413.021V436.869H242.509V414.464C242.509 409.831 240.61 407.477 236.889 407.477C234.914 407.477 233.167 408.236 231.724 409.755C230.281 411.274 229.522 413.249 229.522 415.755V436.869H222.155V414.464C222.155 409.831 220.332 407.477 216.61 407.477C215.623 407.477 214.712 407.705 213.8 408.084C212.889 408.464 212.129 409.072 211.446 409.755C210.762 410.515 210.231 411.35 209.851 412.413C209.471 413.477 209.243 414.54 209.243 415.755V436.869H201.648V401.173Z" fill="#004E82"/>
<path d="M256.939 401.173H264.534V404.515C264.838 404.211 265.217 403.831 265.673 403.375C266.129 402.92 266.812 402.464 267.496 402.084C268.255 401.629 269.167 401.325 270.154 401.021C271.217 400.717 272.357 400.565 273.724 400.565C274.559 400.565 275.471 400.641 276.458 400.793C277.445 400.945 278.357 401.173 279.344 401.629C280.331 402.008 281.319 402.54 282.23 403.224C283.142 403.907 284.053 404.743 284.888 405.882C285.344 406.489 285.8 407.173 286.331 408.008C286.787 408.844 287.243 409.755 287.623 410.894C288.002 411.958 288.306 413.249 288.534 414.616C288.762 415.983 288.914 417.502 288.914 419.173C288.914 421.907 288.534 424.337 287.85 426.616C287.167 428.894 286.18 430.869 284.812 432.464C283.521 434.135 281.926 435.426 280.028 436.337C278.129 437.249 276.002 437.705 273.648 437.705C273.04 437.705 272.357 437.629 271.597 437.553C270.838 437.477 270.078 437.249 269.243 437.021C268.407 436.717 267.572 436.337 266.736 435.806C265.901 435.274 265.066 434.591 264.382 433.679V446.287H256.787V401.173H256.939ZM264.534 419.173C264.534 419.856 264.534 420.54 264.61 421.299C264.686 422.059 264.762 422.818 264.914 423.578C265.066 424.337 265.217 425.173 265.521 425.856C265.749 426.616 266.129 427.299 266.585 427.907C267.42 429.046 268.407 429.73 269.471 430.034C270.534 430.337 271.521 430.489 272.433 430.489C275.167 430.489 277.293 429.426 278.812 427.375C279.344 426.616 279.876 425.553 280.331 424.262C280.787 422.97 281.015 421.224 281.015 419.173C281.015 416.894 280.787 414.996 280.255 413.553C279.724 412.11 279.116 410.97 278.281 410.211C277.749 409.603 276.914 409.072 276.002 408.54C275.015 408.084 273.8 407.78 272.281 407.78C271.217 407.78 270.382 407.932 269.623 408.236C268.863 408.54 268.255 408.844 267.8 409.224C267.04 409.831 266.433 410.591 265.977 411.502C265.521 412.413 265.217 413.325 265.066 414.236C264.838 415.148 264.762 416.059 264.686 416.97C264.534 417.806 264.534 418.565 264.534 419.173Z" fill="#004E82"/>
<path d="M294.307 387.35H301.902V395.856H294.307V387.35ZM294.307 401.173H301.902V436.793H294.307V401.173Z" fill="#004E82"/>
<path d="M332.054 413.781C331.827 413.097 331.447 412.413 331.067 411.654C330.611 410.894 330.156 410.211 329.624 409.755C329.092 409.224 328.409 408.768 327.421 408.236C326.434 407.781 325.295 407.477 323.928 407.477C322.713 407.477 321.649 407.705 320.738 408.16C319.827 408.616 318.991 409.224 318.308 409.983C317.548 410.743 316.865 411.882 316.181 413.249C315.497 414.616 315.194 416.439 315.194 418.717C315.194 420.008 315.346 421.3 315.573 422.515C315.801 423.73 316.181 424.793 316.713 425.781C317.016 426.312 317.32 426.844 317.7 427.3C318.08 427.831 318.611 428.287 319.219 428.743C319.827 429.198 320.51 429.578 321.27 429.806C322.029 430.034 322.94 430.262 324.004 430.262C325.371 430.262 326.51 430.034 327.421 429.502C328.333 429.046 329.092 428.515 329.7 427.907C330.232 427.375 330.763 426.768 331.143 426.084C331.599 425.401 331.903 424.717 332.13 424.034L338.89 427.679C338.206 429.046 337.447 430.413 336.459 431.705C335.472 432.996 334.333 434.135 333.118 434.97C331.827 435.882 330.384 436.565 328.789 437.021C327.194 437.477 325.599 437.705 323.928 437.705C322.409 437.705 320.966 437.553 319.751 437.249C318.535 436.945 317.396 436.489 316.485 436.034C315.497 435.578 314.738 435.046 314.054 434.515C313.371 433.983 312.915 433.527 312.535 433.148C310.94 431.477 309.649 429.502 308.738 426.996C307.751 424.565 307.295 421.755 307.295 418.717C307.295 415.907 307.751 413.325 308.662 410.97C309.573 408.692 310.789 406.717 312.308 405.046C313.827 403.527 315.573 402.312 317.624 401.401C319.675 400.489 321.877 400.034 324.232 400.034C326.206 400.034 327.953 400.338 329.548 400.869C331.143 401.401 332.51 402.16 333.649 403.072C334.485 403.755 335.244 404.439 335.928 405.198C336.611 405.958 337.143 406.641 337.599 407.401C338.054 408.084 338.358 408.692 338.662 409.224C338.89 409.755 339.118 410.135 339.194 410.363L332.054 413.781Z" fill="#004E82"/>
<path d="M347.017 426.388C347.624 427.072 348.308 427.679 349.143 428.287C349.903 428.894 350.814 429.35 351.725 429.73C352.485 430.034 353.32 430.262 354.232 430.413C355.143 430.565 356.13 430.717 357.194 430.717C357.725 430.717 358.561 430.641 359.624 430.489C360.763 430.338 361.751 429.882 362.662 429.198C363.194 428.743 363.649 428.287 363.877 427.755C364.105 427.224 364.257 426.692 364.257 426.16C364.257 425.097 364.029 424.413 363.573 423.958C363.118 423.502 362.586 423.198 361.979 422.97C361.295 422.743 360.611 422.515 359.7 422.439C358.865 422.287 357.725 422.135 356.358 421.907L354.156 421.527C353.092 421.375 352.029 421.148 350.89 420.92C349.827 420.692 348.763 420.312 347.7 419.781C346.181 419.097 344.966 418.11 344.054 416.894C343.143 415.679 342.687 413.932 342.687 411.654C342.687 410.591 342.839 409.679 343.067 408.92C343.295 408.084 343.675 407.325 343.979 406.641C344.358 405.958 344.738 405.35 345.194 404.894C345.649 404.439 346.105 403.983 346.485 403.679C347.928 402.464 349.599 401.629 351.498 401.097C353.396 400.565 355.295 400.338 357.27 400.338C358.789 400.338 360.232 400.489 361.523 400.793C362.814 401.097 363.953 401.401 364.941 401.781C366.004 402.236 367.067 402.844 368.13 403.527C369.194 404.211 370.105 404.97 370.941 405.806L366.384 410.743C365.852 410.211 365.168 409.679 364.409 409.224C363.649 408.692 362.738 408.236 361.675 407.856C360.915 407.553 360.156 407.401 359.396 407.249C358.713 407.097 357.877 407.021 357.042 407.021C356.51 407.021 355.903 407.021 355.067 407.097C354.308 407.173 353.472 407.401 352.789 407.705C351.725 408.16 351.118 408.616 350.814 409.224C350.51 409.831 350.358 410.363 350.358 410.894C350.358 411.806 350.586 412.413 351.118 412.793C351.573 413.173 352.105 413.477 352.637 413.705C353.396 414.008 354.156 414.16 354.839 414.236C355.599 414.312 356.434 414.464 357.573 414.692L362.13 415.451C362.966 415.603 364.105 415.907 365.396 416.287C366.763 416.743 367.979 417.426 369.194 418.489C371.168 420.16 372.156 422.515 372.156 425.629C372.156 427.603 371.852 429.198 371.168 430.489C370.485 431.781 369.725 432.844 368.89 433.679C367.827 434.743 366.384 435.73 364.485 436.565C362.662 437.401 360.308 437.857 357.346 437.857C355.827 437.857 354.232 437.705 352.409 437.401C350.662 437.097 348.991 436.641 347.472 436.034C345.801 435.35 344.51 434.515 343.523 433.679C342.536 432.768 341.776 432.084 341.32 431.553L347.017 426.388Z" fill="#004E82"/>
<path d="M412.257 432.084C410.282 434.211 408.004 435.73 405.573 436.641C404.206 437.173 402.839 437.553 401.548 437.705C400.181 437.932 398.89 438.008 397.523 438.008C394.105 438.008 391.143 437.401 388.637 436.262C386.13 435.122 383.928 433.527 382.105 431.553C381.346 430.717 380.586 429.73 379.827 428.591C379.067 427.451 378.459 426.084 377.852 424.565C377.244 423.046 376.789 421.3 376.485 419.325C376.105 417.426 375.953 415.224 375.953 412.869C375.953 408.768 376.561 405.046 377.7 401.705C378.839 398.363 380.434 395.553 382.561 393.274C384.687 390.996 387.194 389.249 390.232 387.958C393.194 386.743 396.611 386.135 400.333 386.135C405.118 386.135 409.295 387.198 412.94 389.249C416.586 391.299 419.472 394.262 421.599 398.135L412.105 403.299C411.573 402.388 410.89 401.477 410.13 400.641C409.371 399.806 408.611 399.122 407.852 398.591C407.168 398.135 406.333 397.755 405.194 397.3C404.054 396.844 402.687 396.616 401.016 396.616C398.738 396.616 396.839 396.996 395.32 397.679C393.725 398.363 392.434 399.35 391.447 400.565C390.687 401.477 390.08 402.388 389.624 403.375C389.168 404.363 388.789 405.35 388.561 406.413C388.333 407.401 388.181 408.388 388.105 409.451C388.029 410.439 387.953 411.35 387.953 412.186C387.953 415.3 388.333 417.806 389.092 419.705C389.852 421.603 390.687 423.046 391.599 424.11C392.966 425.629 394.561 426.616 396.156 427.072C397.827 427.527 399.27 427.755 400.561 427.755C403.675 427.755 406.257 426.92 408.156 425.325C410.13 423.73 411.194 421.527 411.497 418.869H400.789V409.3H421.902V436.869H412.865L412.257 432.084Z" fill="#004E82"/>
<path d="M429.346 387.35H450.459C456.687 387.35 461.396 388.337 464.434 390.236C467.472 392.135 468.991 395.249 468.991 399.578C468.991 403.148 468.004 405.882 466.029 407.856C464.054 409.831 461.244 410.97 457.523 411.198C462.156 411.654 465.497 412.793 467.548 414.616C469.599 416.515 470.662 419.325 470.662 423.122C470.662 425.856 470.054 428.211 468.763 430.262C467.472 432.312 465.725 433.831 463.447 434.818C461.168 435.806 458.814 436.337 456.459 436.565C454.105 436.717 451.523 436.793 448.864 436.793H429.27V387.35H429.346ZM441.042 427.907H448.409C450.232 427.907 451.827 427.831 453.118 427.679C454.409 427.527 455.548 427.224 456.383 426.768C457.295 426.312 457.902 425.705 458.358 424.945C458.814 424.186 458.966 423.122 458.966 421.831C458.966 420.54 458.738 419.477 458.282 418.717C457.827 417.958 457.219 417.274 456.308 416.894C455.472 416.439 454.333 416.135 453.042 415.983C451.675 415.831 450.156 415.755 448.409 415.755H441.042V427.907ZM441.346 406.793H448.029C451.295 406.793 453.725 406.489 455.244 405.806C456.839 405.122 457.599 403.755 457.599 401.553C457.599 399.274 456.839 397.907 455.244 397.224C453.649 396.616 451.219 396.312 448.029 396.312H441.346V406.793Z" fill="#004E82"/>
<path d="M232.408 327.35V336.236L248.282 340.337L263.927 335.705V327.426L248.282 318.692L232.408 327.35Z" fill="#DB0814"/>
<path d="M278.358 193.072L248.206 209.553L218.13 193.072L190.484 250.793L216.003 282.008V316.034L227.624 322.717L242.206 313.907L232.408 302.211L264.003 302.135L254.282 313.907L268.788 322.641L280.408 315.958V281.932L305.927 250.717L278.358 193.072ZM231.193 294.54L230.813 256.793L218.434 253.375L209.624 240.236L237.497 248.515L231.193 294.54ZM278.282 253.3L265.902 256.717L265.522 294.464L259.219 248.439L287.092 240.16L278.282 253.3Z" fill="#DB0814"/>
<path d="M243.65 478.337C226.182 474.312 202.334 478.717 179.777 491.78C144.536 512.135 125.777 545.78 138.004 566.97C145.827 580.489 164.359 585.654 185.929 582.312C176.055 580.034 168.232 575.097 163.827 567.426C151.599 546.236 170.283 512.591 205.599 492.236C218.283 484.869 231.498 480.236 243.65 478.337Z" fill="#F0252D"/>
<path d="M243.953 561.882C249.194 579.046 264.991 597.502 287.548 610.489C322.789 630.844 361.295 630.236 373.523 609.046C381.346 595.527 376.485 576.92 362.814 559.907C365.776 569.553 365.396 578.819 360.991 586.489C348.763 607.679 310.257 608.287 275.016 587.932C262.257 580.565 251.7 571.451 243.953 561.882Z" fill="#00A651"/>
<path d="M220.03 520.337C207.802 533.477 199.676 556.337 199.676 582.388C199.676 623.097 219.499 656.135 243.954 656.135C259.6 656.135 273.271 642.616 281.169 622.262C274.258 629.705 266.056 633.958 257.245 633.958C232.79 633.958 212.967 600.92 212.967 560.211C213.043 545.477 215.625 531.806 220.03 520.337Z" fill="#0078D0"/>
</g>
<rect opacity="0.2" x="23.3711" y="515.354" width="1112.63" height="142.396" stroke="#CBD4EC" stroke-width="4" stroke-linejoin="round" stroke-dasharray="8 8"/>
<rect opacity="0.2" x="23.3711" y="54.9704" width="1112.63" height="572.386" stroke="#CBD4EC" stroke-width="4" stroke-linejoin="round" stroke-dasharray="8 8"/>
<rect opacity="0.2" x="23.3711" y="54.9704" width="449.823" height="572.386" stroke="#CBD4EC" stroke-width="4" stroke-linejoin="round" stroke-dasharray="8 8"/>
<rect opacity="0.2" x="687.193" y="54.9704" width="448.807" height="602.779" stroke="#CBD4EC" stroke-width="4" stroke-linejoin="round" stroke-dasharray="8 8"/>
<rect x="579.195" y="301.75" width="2" height="216" fill="#111111"/>
<path d="M799.765 645.568C799.765 647.789 799.344 649.678 798.502 651.236C797.667 652.793 796.527 653.983 795.081 654.805C793.643 655.621 792.026 656.028 790.229 656.028C788.42 656.028 786.795 655.617 785.357 654.795C783.919 653.973 782.782 652.783 781.947 651.226C781.111 649.668 780.694 647.782 780.694 645.568C780.694 643.347 781.111 641.458 781.947 639.9C782.782 638.343 783.919 637.156 785.357 636.341C786.795 635.519 788.42 635.108 790.229 635.108C792.026 635.108 793.643 635.519 795.081 636.341C796.527 637.156 797.667 638.343 798.502 639.9C799.344 641.458 799.765 643.347 799.765 645.568ZM795.4 645.568C795.4 644.13 795.184 642.916 794.753 641.929C794.329 640.941 793.729 640.192 792.954 639.682C792.178 639.171 791.27 638.916 790.229 638.916C789.188 638.916 788.28 639.171 787.505 639.682C786.729 640.192 786.126 640.941 785.695 641.929C785.271 642.916 785.059 644.13 785.059 645.568C785.059 647.006 785.271 648.22 785.695 649.207C786.126 650.195 786.729 650.944 787.505 651.454C788.28 651.965 789.188 652.22 790.229 652.22C791.27 652.22 792.178 651.965 792.954 651.454C793.729 650.944 794.329 650.195 794.753 649.207C795.184 648.22 795.4 647.006 795.4 645.568ZM802.954 655.75V635.386H816.437V638.936H807.259V643.788H815.542V647.338H807.259V655.75H802.954ZM819.333 655.75V635.386H832.816V638.936H823.638V643.788H831.921V647.338H823.638V655.75H819.333ZM840.017 635.386V655.75H835.712V635.386H840.017ZM861.527 642.515H857.172C857.092 641.952 856.93 641.452 856.684 641.014C856.439 640.57 856.124 640.192 855.74 639.88C855.355 639.569 854.911 639.33 854.407 639.165C853.91 638.999 853.37 638.916 852.787 638.916C851.733 638.916 850.815 639.178 850.032 639.702C849.25 640.219 848.644 640.974 848.213 641.969C847.782 642.956 847.567 644.156 847.567 645.568C847.567 647.02 847.782 648.239 848.213 649.227C848.65 650.215 849.26 650.961 850.042 651.464C850.825 651.968 851.729 652.22 852.757 652.22C853.334 652.22 853.867 652.144 854.358 651.991C854.855 651.839 855.296 651.617 855.68 651.325C856.065 651.027 856.383 650.666 856.635 650.241C856.893 649.817 857.072 649.333 857.172 648.79L861.527 648.809C861.414 649.744 861.132 650.646 860.682 651.514C860.237 652.376 859.638 653.148 858.882 653.831C858.133 654.507 857.238 655.044 856.197 655.442C855.163 655.833 853.993 656.028 852.687 656.028C850.871 656.028 849.247 655.617 847.815 654.795C846.39 653.973 845.263 652.783 844.434 651.226C843.612 649.668 843.201 647.782 843.201 645.568C843.201 643.347 843.619 641.458 844.454 639.9C845.29 638.343 846.423 637.156 847.855 636.341C849.287 635.519 850.898 635.108 852.687 635.108C853.867 635.108 854.961 635.273 855.969 635.605C856.983 635.936 857.881 636.42 858.663 637.057C859.445 637.686 860.082 638.459 860.572 639.373C861.069 640.288 861.388 641.336 861.527 642.515ZM868.92 635.386V655.75H864.614V635.386H868.92ZM875.972 655.75H871.358L878.388 635.386H883.936L890.956 655.75H886.342L881.242 640.04H881.083L875.972 655.75ZM875.683 647.746H886.581V651.106H875.683V647.746ZM893.407 655.75V635.386H897.712V652.2H906.443V655.75H893.407ZM915.774 655.75V635.386H923.808C925.353 635.386 926.669 635.681 927.756 636.271C928.843 636.854 929.672 637.666 930.242 638.707C930.818 639.741 931.107 640.934 931.107 642.287C931.107 643.639 930.815 644.832 930.232 645.866C929.648 646.9 928.803 647.706 927.696 648.282C926.596 648.859 925.263 649.148 923.699 649.148H918.578V645.697H923.003C923.832 645.697 924.514 645.555 925.051 645.27C925.595 644.978 925.999 644.577 926.264 644.067C926.536 643.55 926.672 642.956 926.672 642.287C926.672 641.611 926.536 641.021 926.264 640.517C925.999 640.006 925.595 639.612 925.051 639.334C924.508 639.049 923.818 638.906 922.983 638.906H920.08V655.75H915.774ZM935.062 655.75H930.448L937.478 635.386H943.026L950.046 655.75H945.432L940.331 640.04H940.172L935.062 655.75ZM934.773 647.746H945.671V651.106H934.773V647.746ZM952.497 655.75V635.386H960.531C962.069 635.386 963.381 635.661 964.469 636.211C965.562 636.755 966.394 637.527 966.964 638.528C967.541 639.523 967.829 640.693 967.829 642.038C967.829 643.39 967.538 644.554 966.954 645.528C966.371 646.496 965.526 647.238 964.419 647.755C963.318 648.273 961.986 648.531 960.422 648.531H955.042V645.071H959.726C960.548 645.071 961.23 644.958 961.774 644.733C962.317 644.507 962.722 644.169 962.987 643.719C963.259 643.268 963.395 642.708 963.395 642.038C963.395 641.362 963.259 640.792 962.987 640.328C962.722 639.864 962.314 639.513 961.764 639.274C961.22 639.029 960.534 638.906 959.706 638.906H956.802V655.75H952.497ZM963.494 646.483L968.555 655.75H963.802L958.851 646.483H963.494ZM970.096 638.936V635.386H986.821V638.936H980.586V655.75H976.331V638.936H970.096ZM1006.61 635.386V655.75H1002.89L994.03 642.933H993.88V655.75H989.575V635.386H993.353L1002.14 648.193H1002.32V635.386H1006.61ZM1010.16 655.75V635.386H1023.89V638.936H1014.47V643.788H1023.18V647.338H1014.47V652.2H1023.93V655.75H1010.16ZM1027.31 655.75V635.386H1035.34C1036.88 635.386 1038.19 635.661 1039.28 636.211C1040.37 636.755 1041.21 637.527 1041.78 638.528C1042.35 639.523 1042.64 640.693 1042.64 642.038C1042.64 643.39 1042.35 644.554 1041.77 645.528C1041.18 646.496 1040.34 647.238 1039.23 647.755C1038.13 648.273 1036.8 648.531 1035.23 648.531H1029.85V645.071H1034.54C1035.36 645.071 1036.04 644.958 1036.59 644.733C1037.13 644.507 1037.53 644.169 1037.8 643.719C1038.07 643.268 1038.21 642.708 1038.21 642.038C1038.21 641.362 1038.07 640.792 1037.8 640.328C1037.53 639.864 1037.13 639.513 1036.58 639.274C1036.03 639.029 1035.35 638.906 1034.52 638.906H1031.61V655.75H1027.31ZM1038.31 646.483L1043.37 655.75H1038.61L1033.66 646.483H1038.31Z" fill="#005288"/>
<g clip-path="url(#clip1_914_14361)">
<path fill-rule="evenodd" clip-rule="evenodd" d="M1058.3 451.067C1059.66 451.847 1061.02 452.189 1062.48 452.189H1062.53C1063.99 452.189 1065.36 451.847 1066.72 451.067C1068.05 450.366 1069.14 449.277 1069.84 447.943C1070.58 446.667 1070.96 445.219 1070.96 443.746C1070.96 442.233 1070.62 440.818 1069.84 439.45C1069.11 438.084 1068.04 437.06 1066.68 436.326C1065.31 435.595 1063.95 435.207 1062.53 435.207H1062.48C1061.04 435.25 1059.62 435.634 1058.34 436.326C1056.98 437.06 1055.96 438.084 1055.18 439.45C1054.43 440.757 1054.04 442.24 1054.06 443.746C1054.06 445.161 1054.4 446.577 1055.18 447.943C1055.87 449.278 1056.96 450.367 1058.3 451.067ZM1056.4 440.184C1057.01 439.077 1057.92 438.164 1059.03 437.547C1060.15 436.961 1061.32 436.621 1062.49 436.621H1062.53C1063.7 436.621 1064.87 436.961 1065.99 437.547C1067.1 438.165 1068.01 439.078 1068.62 440.184C1069.26 441.305 1069.55 442.477 1069.55 443.746C1069.56 444.978 1069.24 446.19 1068.62 447.258C1068.03 448.348 1067.13 449.245 1066.04 449.845C1064.97 450.458 1063.76 450.778 1062.53 450.772H1062.49C1061.26 450.777 1060.05 450.457 1058.98 449.845C1057.89 449.243 1057 448.347 1056.4 447.258C1055.77 446.137 1055.42 444.967 1055.42 443.746C1055.42 442.477 1055.76 441.307 1056.4 440.184Z" fill="black"/>
<path fill-rule="evenodd" clip-rule="evenodd" d="M1060.24 444.526H1061.12C1061.66 444.526 1062.04 444.625 1062.29 444.868C1062.39 444.916 1062.44 444.967 1062.48 445.013C1062.87 445.355 1063.31 446.04 1063.85 446.967L1064.68 448.43H1066.43L1065.36 446.626C1064.82 445.795 1064.34 445.161 1064 444.819C1063.77 444.608 1063.51 444.443 1063.22 444.332C1064 444.284 1064.63 443.991 1065.12 443.502C1065.6 443.013 1065.85 442.429 1065.85 441.744C1065.85 441.257 1065.7 440.816 1065.41 440.426C1065.14 440.003 1064.72 439.691 1064.24 439.547C1063.85 439.402 1063.27 439.303 1062.49 439.303C1062.34 439.303 1062.15 439.254 1061.95 439.254H1058.78V448.429H1060.24L1060.24 444.526ZM1060.24 440.523H1062.48C1062.92 440.574 1063.21 440.622 1063.41 440.671C1063.68 440.746 1063.9 440.921 1064.04 441.158C1064.19 441.352 1064.24 441.598 1064.24 441.891C1064.24 442.076 1064.21 442.26 1064.13 442.429C1064.05 442.598 1063.94 442.747 1063.8 442.865C1063.55 443.11 1063.11 443.207 1062.48 443.257H1060.24V440.523H1060.24ZM841.441 441.55H854.596L841.441 419.589L830.332 401.095L783.122 429.496L790.333 441.55H841.441ZM963.826 441.55H1028.09L988.087 374.791L943.852 301.102L925.629 312.082L896.689 329.503L925.629 377.768L963.826 441.55ZM941.368 463.559C936.835 460.633 931.524 458.924 925.774 458.924H925.629C909.748 459.021 896.836 472.002 896.836 487.911C896.836 503.822 909.748 516.801 925.629 516.9H925.774C931.524 516.9 936.835 515.192 941.368 512.264V515.289H954.667V441.551H941.368V463.559ZM941.368 490.938C939.956 498.259 933.474 503.869 925.774 503.869H925.629C916.908 503.771 909.845 496.646 909.845 487.911C909.845 479.177 916.908 472.052 925.629 472.002H925.774C933.474 472.002 939.954 477.567 941.368 484.886V490.938ZM1003.83 463.559C999.19 460.529 993.772 458.918 988.236 458.924H988.087C972.206 459.021 959.297 472.002 959.297 487.911C959.297 503.822 972.206 516.801 988.087 516.9H988.236C993.986 516.9 999.344 515.192 1003.83 512.264V515.289H1017.13V460.387H1003.83V463.559ZM1003.83 490.938C1002.41 498.259 995.933 503.869 988.236 503.869H988.087C979.37 503.771 972.305 496.646 972.305 487.911C972.305 479.177 979.37 472.052 988.087 472.002H988.236C995.933 472.002 1002.41 477.567 1003.83 484.886V490.938ZM1064.43 484.3C1063.95 484.054 1063.26 483.811 1062.48 483.518C1059.51 482.493 1054.69 481.224 1047.97 479.761C1042.07 478.442 1039.1 476.736 1039.1 474.588C1039.1 473.075 1039.63 471.854 1040.66 470.977C1042.02 469.805 1044.46 469.219 1047.97 469.219C1051.52 469.219 1054.1 470.001 1055.62 471.513C1056.54 472.44 1057.22 474.098 1057.66 476.442H1071.79C1071.79 469.512 1068.96 464.535 1063.41 461.51C1063.12 461.319 1062.81 461.156 1062.48 461.023C1058.63 459.217 1053.52 458.289 1047.14 458.289C1039.39 458.289 1033.54 460.34 1029.65 464.487C1026.53 467.805 1025.02 471.854 1025.02 476.637C1025.02 482.594 1027.94 486.886 1033.89 489.669C1036.13 490.742 1041.58 492.255 1050.26 494.11C1056.06 495.379 1058.98 497.186 1058.98 499.479C1058.98 500.847 1058.39 502.017 1057.13 503.09C1055.52 504.456 1053.08 505.141 1049.82 505.141C1045.48 505.141 1042.41 504.409 1040.61 502.995C1038.81 501.629 1037.88 499.628 1037.88 497.09H1023.07C1023.07 503.825 1025.9 508.851 1031.6 512.167C1036.13 514.754 1042.07 516.073 1049.43 516.073C1054.35 516.073 1058.73 515.243 1062.49 513.634C1063.27 513.292 1063.95 512.949 1064.68 512.559C1070.48 509.34 1073.4 504.215 1073.4 497.189C1073.4 491.425 1070.42 487.129 1064.43 484.3ZM794.133 463.559C789.476 460.535 784.045 458.925 778.495 458.924H778.347C762.515 459.021 749.604 472.002 749.604 487.911C749.604 503.822 762.515 516.801 778.347 516.9H778.495C784.244 516.9 789.602 515.192 794.133 512.264V515.289H807.434V460.387H794.133V463.559ZM794.133 490.938C792.721 498.259 786.24 503.869 778.495 503.869H778.347C769.676 503.771 762.612 496.646 762.612 487.911C762.612 479.177 769.676 472.052 778.347 472.002H778.495C786.241 472.002 792.721 477.567 794.133 484.886V490.938ZM877.153 454.581H891.623V441.843H877.153V454.581ZM877.153 515.288H891.623V458.924H877.153V515.288ZM857.227 463.559C852.569 460.534 847.137 458.924 841.586 458.924H841.441C825.558 459.021 812.647 472.002 812.647 487.911C812.647 503.822 825.556 516.801 841.441 516.9H841.586C847.137 516.9 852.57 515.29 857.227 512.264V515.289H870.528V441.551H857.227V463.559ZM857.227 490.938C855.815 498.259 849.333 503.869 841.586 503.869H841.441C832.72 503.771 825.655 496.646 825.655 487.911C825.655 479.177 832.72 472.052 841.441 472.002H841.586C849.333 472.002 855.813 477.567 857.227 484.886V490.938ZM941.316 441.55L925.629 415.296L887.092 351.074L841.441 378.598L839.882 379.524L841.441 382.11L877.103 441.55H941.316Z" fill="black"/>
</g>
<defs>
<clipPath id="clip0_914_14361">
<rect width="445.823" height="600" fill="white" transform="translate(25.3711 56.5147)"/>
</clipPath>
<clipPath id="clip1_914_14361">
<rect width="324" height="216" fill="white" transform="translate(749.5 301)"/>
</clipPath>
</defs>
</svg>
