<svg width="1183" height="467" viewBox="0 0 1183 467" fill="none" xmlns="http://www.w3.org/2000/svg">
<g clip-path="url(#clip0_914_14091)">
<g clip-path="url(#clip1_914_14091)">
<path d="M909.797 211.896C899.168 209.462 884.726 212.139 871.014 220.01C849.594 232.342 838.316 252.789 845.699 265.608C850.405 273.803 861.683 276.967 874.746 274.857C868.742 273.478 864.036 270.476 861.359 265.851C853.975 253.032 865.253 232.586 886.673 220.253C894.462 215.872 902.413 213.032 909.797 211.896Z" fill="#F0252D"/>
<path d="M909.959 262.525C913.123 272.91 922.697 284.107 936.409 291.977C957.829 304.31 981.196 303.904 988.58 291.085C993.286 282.89 990.365 271.612 982.089 261.308C983.874 267.15 983.63 272.829 980.953 277.454C973.57 290.273 950.202 290.679 928.783 278.346C921.075 273.884 914.665 268.367 909.959 262.525Z" fill="#00A651"/>
<path d="M895.436 237.373C888.053 245.324 883.104 259.198 883.104 275.02C883.104 299.685 895.112 319.726 909.959 319.726C919.452 319.726 927.728 311.531 932.515 299.198C928.296 303.661 923.347 306.338 917.992 306.338C903.144 306.338 891.136 286.298 891.136 261.632C891.217 252.626 892.759 244.35 895.436 237.373Z" fill="#0078D0"/>
<path d="M348.66 239.563H366.104C369.35 239.563 371.946 240.05 373.893 240.943C375.841 241.835 377.382 242.809 378.518 243.782C379.005 244.269 379.492 244.837 379.979 245.486C380.465 246.135 380.952 247.028 381.439 248.001C381.845 248.975 382.25 250.111 382.494 251.409C382.737 252.707 382.9 254.168 382.9 255.79C382.9 258.387 382.494 260.659 381.682 262.606C380.871 264.553 379.816 266.176 378.437 267.474C377.139 268.772 375.435 269.746 373.488 270.557C371.459 271.369 369.188 271.774 366.591 271.774H357.179V289.056H348.66V239.563ZM365.699 264.229C367.159 264.229 368.457 263.985 369.431 263.579C370.405 263.174 371.216 262.606 371.784 262.038C372.352 261.47 372.839 260.659 373.325 259.685C373.812 258.711 374.056 257.413 374.056 255.79C374.056 254.33 373.893 253.113 373.488 252.058C373.082 251.003 372.595 250.192 371.946 249.462C370.891 248.407 369.837 247.839 368.62 247.596C367.403 247.352 366.51 247.271 365.861 247.271H357.179V264.229H365.699Z" fill="#004E82"/>
<path d="M416.085 280.861C416.085 281.916 416.085 282.89 416.085 283.701C416.085 284.513 416.166 285.162 416.248 285.811C416.329 286.46 416.491 286.947 416.653 287.515C416.816 288.001 416.978 288.569 417.221 289.137H410.244C409.594 288.732 409.108 288.164 408.783 287.515C408.621 287.109 408.459 286.784 408.459 286.46C408.459 286.135 408.459 285.892 408.459 285.811C407.647 286.622 406.755 287.271 405.943 287.758C405.132 288.245 404.239 288.65 403.428 288.894C402.617 289.137 401.805 289.3 401.075 289.381C400.345 289.462 399.534 289.543 398.884 289.543C397.586 289.543 396.126 289.381 394.503 288.975C392.88 288.569 391.42 287.758 389.96 286.46C389.067 285.567 388.175 284.513 387.525 283.133C386.795 281.835 386.471 280.212 386.471 278.265C386.471 276.48 386.714 275.02 387.282 273.803C387.85 272.586 388.58 271.612 389.473 270.882C390.203 270.314 391.014 269.746 391.907 269.34C392.88 268.934 393.773 268.529 394.665 268.285C395.558 268.042 396.369 267.799 397.018 267.636C397.667 267.474 398.073 267.393 398.235 267.393L401.319 266.825C401.481 266.744 401.643 266.744 401.724 266.744C401.805 266.744 401.968 266.744 402.049 266.744C402.211 266.744 402.454 266.663 402.779 266.582C403.104 266.5 403.672 266.419 404.402 266.257C405.051 266.095 405.7 265.932 406.268 265.77C406.836 265.608 407.323 265.364 407.728 264.959C408.134 264.553 408.296 264.229 408.459 263.742C408.54 263.336 408.621 262.93 408.621 262.525C408.621 261.957 408.54 261.389 408.377 260.902C408.215 260.415 407.809 260.01 407.241 259.604C406.592 259.117 405.862 258.792 404.97 258.63C404.077 258.549 403.347 258.468 402.698 258.468C400.994 258.468 399.696 258.63 398.884 259.036C398.073 259.442 397.586 259.685 397.343 259.847C396.937 260.091 396.613 260.577 396.207 261.145C395.801 261.794 395.639 262.525 395.558 263.498H388.093C388.175 262.038 388.499 260.577 389.148 259.117C389.716 257.657 390.609 256.358 391.826 255.222C392.637 254.492 393.611 253.924 394.584 253.437C395.558 253.032 396.532 252.707 397.586 252.464C398.56 252.22 399.534 252.139 400.426 252.058C401.319 251.977 402.13 251.977 402.779 251.977C403.347 251.977 404.077 251.977 405.051 252.058C406.024 252.139 406.998 252.22 407.972 252.464C409.026 252.707 410 253.032 411.055 253.519C412.11 254.005 412.921 254.655 413.651 255.385C414.787 256.602 415.436 257.9 415.68 259.279C415.923 260.659 416.004 261.957 416.004 263.012V280.861H416.085ZM402.454 272.423C401.237 272.667 400.102 272.991 399.128 273.235C398.154 273.478 397.262 273.803 396.532 274.371C395.964 274.776 395.558 275.263 395.233 275.831C394.909 276.399 394.747 277.129 394.747 277.941C394.747 278.508 394.828 279.076 394.99 279.726C395.152 280.375 395.558 280.943 396.288 281.511C396.937 281.997 397.667 282.403 398.479 282.565C399.29 282.728 400.02 282.809 400.669 282.809C402.617 282.809 404.158 282.484 405.213 281.754C406.268 281.105 406.998 280.375 407.485 279.563C407.972 278.671 408.296 277.616 408.459 276.48C408.54 275.344 408.621 274.208 408.621 273.154V270.882C407.972 271.125 407.241 271.287 406.592 271.531C405.862 271.693 405.132 271.936 404.402 272.099L402.454 272.423Z" fill="#004E82"/>
<path d="M423.873 253.438H431.5V258.63C431.825 258.062 432.23 257.494 432.717 256.845C433.204 256.196 433.772 255.628 434.259 255.142C435.719 253.924 437.179 253.194 438.721 252.951C440.263 252.707 441.561 252.626 442.616 252.707V261.227C439.208 260.821 436.449 261.47 434.34 263.174C433.204 264.066 432.474 265.04 431.987 266.095C431.581 267.15 431.338 268.286 431.338 269.503V288.975H423.711V253.438H423.873Z" fill="#004E82"/>
<path d="M474.99 280.861C474.99 281.916 474.99 282.89 474.99 283.701C474.99 284.513 475.071 285.162 475.152 285.811C475.233 286.46 475.395 286.947 475.558 287.515C475.72 288.001 475.882 288.569 476.126 289.137H469.148C468.499 288.732 468.012 288.164 467.687 287.515C467.525 287.109 467.363 286.784 467.363 286.46C467.363 286.135 467.363 285.892 467.363 285.811C466.551 286.622 465.659 287.271 464.848 287.758C464.036 288.245 463.144 288.65 462.332 288.894C461.521 289.137 460.71 289.3 459.979 289.381C459.249 289.462 458.438 289.543 457.789 289.543C456.491 289.543 455.03 289.381 453.407 288.975C451.785 288.569 450.324 287.758 448.864 286.46C447.971 285.567 447.079 284.513 446.43 283.133C445.7 281.835 445.375 280.212 445.375 278.265C445.375 276.48 445.618 275.02 446.186 273.803C446.754 272.586 447.485 271.612 448.377 270.882C449.107 270.314 449.919 269.746 450.811 269.34C451.785 268.934 452.677 268.529 453.57 268.285C454.462 268.042 455.274 267.799 455.923 267.636C456.572 267.474 456.977 267.393 457.14 267.393L460.223 266.825C460.385 266.744 460.547 266.744 460.629 266.744C460.71 266.744 460.872 266.744 460.953 266.744C461.115 266.744 461.359 266.663 461.683 266.582C462.008 266.5 462.576 266.419 463.306 266.257C463.955 266.095 464.604 265.932 465.172 265.77C465.74 265.608 466.227 265.364 466.633 264.959C467.038 264.553 467.201 264.229 467.363 263.742C467.444 263.336 467.525 262.93 467.525 262.525C467.525 261.957 467.444 261.389 467.282 260.902C467.119 260.415 466.714 260.01 466.146 259.604C465.497 259.117 464.766 258.792 463.874 258.63C462.981 258.549 462.251 258.468 461.602 258.468C459.898 258.468 458.6 258.63 457.789 259.036C456.977 259.442 456.491 259.685 456.247 259.847C455.842 260.091 455.517 260.577 455.111 261.145C454.706 261.794 454.543 262.525 454.462 263.498H446.998C447.079 262.038 447.403 260.577 448.052 259.117C448.62 257.657 449.513 256.358 450.73 255.222C451.541 254.492 452.515 253.924 453.489 253.437C454.462 253.032 455.436 252.707 456.491 252.464C457.464 252.22 458.438 252.139 459.33 252.058C460.223 251.977 461.034 251.977 461.683 251.977C462.251 251.977 462.981 251.977 463.955 252.058C464.929 252.139 465.902 252.22 466.876 252.464C467.931 252.707 468.904 253.032 469.959 253.519C470.933 254.005 471.825 254.655 472.556 255.385C473.691 256.602 474.341 257.9 474.584 259.279C474.827 260.659 474.908 261.957 474.908 263.012V280.861H474.99ZM461.359 272.423C460.142 272.667 459.006 272.991 458.032 273.235C457.059 273.478 456.166 273.803 455.436 274.371C454.868 274.776 454.462 275.263 454.138 275.831C453.813 276.399 453.651 277.129 453.651 277.941C453.651 278.508 453.732 279.076 453.894 279.726C454.057 280.375 454.462 280.943 455.192 281.511C455.842 281.997 456.572 282.403 457.383 282.565C458.194 282.728 458.925 282.809 459.574 282.809C461.521 282.809 463.063 282.484 464.117 281.754C465.172 281.105 465.902 280.375 466.389 279.563C466.876 278.671 467.201 277.616 467.363 276.48C467.444 275.344 467.525 274.208 467.525 273.154V270.882C466.876 271.125 466.146 271.287 465.497 271.531C464.766 271.693 464.036 271.936 463.306 272.099L461.359 272.423Z" fill="#004E82"/>
<path d="M490.406 239.563H482.779V289.056H490.406V239.563Z" fill="#004E82"/>
<path d="M502.575 292.139C503.062 292.139 503.468 292.058 503.955 291.977C504.441 291.896 504.847 291.734 505.172 291.49C505.415 291.328 505.577 291.085 505.821 290.679C505.983 290.354 506.064 289.949 506.064 289.381C506.064 289.056 506.064 288.732 505.983 288.326C505.902 288.002 505.821 287.677 505.74 287.434L494.705 253.275H502.738L508.823 273.397C508.904 273.722 508.985 274.127 509.147 274.614C509.228 275.101 509.391 275.588 509.472 276.075C509.553 276.561 509.634 277.048 509.715 277.535C509.796 278.022 509.877 278.346 509.959 278.671C510.121 277.454 510.364 276.399 510.527 275.507C510.77 274.614 510.932 273.884 511.013 273.397L516.612 253.275H524.644L513.61 288.975C512.961 291.085 512.393 292.626 511.825 293.762C511.257 294.817 510.689 295.709 510.121 296.277C509.066 297.332 507.93 297.981 506.713 298.225C505.496 298.468 504.279 298.63 503.062 298.63H498.032V292.058H502.575V292.139Z" fill="#004E82"/>
<path d="M529.27 253.438H536.815V256.764C539.412 254.087 542.414 252.789 545.984 252.789C548.093 252.789 549.959 253.194 551.582 254.087C553.205 254.979 554.503 256.277 555.476 257.981C557.018 256.277 558.722 254.979 560.588 254.087C562.454 253.194 564.401 252.789 566.43 252.789C569.838 252.789 572.596 253.843 574.625 256.034C576.653 258.225 577.708 261.308 577.708 265.283V289.137H570.162V266.663C570.162 261.957 568.296 259.685 564.564 259.685C562.535 259.685 560.831 260.415 559.371 261.957C557.911 263.499 557.18 265.446 557.18 267.961V289.137H549.797V266.663C549.797 261.957 547.931 259.685 544.28 259.685C543.306 259.685 542.332 259.847 541.44 260.253C540.547 260.659 539.736 261.227 539.087 261.957C538.438 262.687 537.87 263.58 537.464 264.553C537.059 265.608 536.896 266.663 536.896 267.88V289.056H529.351V253.438H529.27Z" fill="#004E82"/>
<path d="M585.334 253.438H592.88V256.764C593.123 256.44 593.529 256.034 594.016 255.628C594.502 255.223 595.151 254.736 595.882 254.33C596.612 253.924 597.504 253.519 598.559 253.275C599.614 253.032 600.75 252.87 602.129 252.87C602.94 252.87 603.833 252.951 604.807 253.113C605.78 253.275 606.754 253.519 607.727 253.924C608.701 254.33 609.675 254.898 610.567 255.547C611.541 256.196 612.352 257.089 613.245 258.143C613.732 258.711 614.218 259.442 614.705 260.253C615.192 261.064 615.598 262.038 616.003 263.093C616.409 264.229 616.652 265.446 616.977 266.825C617.22 268.204 617.383 269.746 617.383 271.45C617.383 274.127 617.058 276.642 616.328 278.914C615.598 281.186 614.624 283.133 613.326 284.837C612.028 286.46 610.405 287.758 608.539 288.732C606.673 289.705 604.563 290.111 602.129 290.111C601.561 290.111 600.831 290.03 600.101 289.949C599.371 289.868 598.559 289.705 597.748 289.381C596.936 289.137 596.125 288.732 595.233 288.164C594.421 287.677 593.61 286.947 592.88 286.054V298.711H585.334V253.438ZM592.88 271.45C592.88 272.099 592.88 272.829 592.961 273.559C593.042 274.29 593.123 275.101 593.204 275.912C593.366 276.724 593.529 277.454 593.772 278.265C594.015 278.995 594.421 279.726 594.827 280.294C595.638 281.429 596.612 282.16 597.748 282.403C598.884 282.728 599.857 282.89 600.75 282.89C603.508 282.89 605.618 281.835 607.16 279.807C607.727 278.995 608.214 277.941 608.701 276.642C609.107 275.344 609.35 273.64 609.35 271.531C609.35 269.259 609.107 267.393 608.539 265.932C608.052 264.472 607.403 263.336 606.592 262.606C606.024 262.038 605.293 261.47 604.239 260.983C603.265 260.496 602.048 260.253 600.506 260.253C599.452 260.253 598.64 260.415 597.91 260.659C597.18 260.902 596.531 261.308 596.044 261.632C595.233 262.281 594.665 263.012 594.259 263.904C593.853 264.797 593.529 265.689 593.285 266.663C593.042 267.636 592.961 268.529 592.88 269.421C592.961 270.07 592.88 270.801 592.88 271.45Z" fill="#004E82"/>
<path d="M623.469 239.563H631.095V248.083H623.469V239.563ZM623.469 253.437H631.095V289.137H623.469V253.437Z" fill="#004E82"/>
<path d="M662.007 266.014C661.764 265.364 661.439 264.634 660.953 263.904C660.547 263.093 660.06 262.525 659.492 261.957C659.005 261.47 658.275 260.902 657.301 260.415C656.328 259.928 655.192 259.685 653.813 259.685C652.596 259.685 651.541 259.928 650.648 260.334C649.756 260.74 648.944 261.389 648.214 262.119C647.484 262.93 646.754 263.985 646.105 265.364C645.456 266.744 645.131 268.61 645.131 270.882C645.131 272.18 645.293 273.478 645.537 274.695C645.78 275.912 646.186 277.048 646.673 278.022C646.916 278.508 647.322 279.076 647.727 279.563C648.133 280.05 648.62 280.537 649.269 281.024C649.837 281.429 650.567 281.835 651.297 282.078C652.028 282.322 653.001 282.484 653.975 282.484C655.354 282.484 656.49 282.241 657.383 281.754C658.275 281.267 659.086 280.699 659.654 280.212C660.222 279.726 660.709 279.076 661.115 278.427C661.52 277.697 661.845 277.048 662.088 276.399L668.823 280.05C668.174 281.429 667.362 282.809 666.389 284.107C665.415 285.405 664.279 286.541 663.062 287.433C661.764 288.407 660.303 289.056 658.762 289.462C657.22 289.868 655.598 290.111 653.894 290.111C652.352 290.111 650.973 289.949 649.756 289.624C648.539 289.3 647.403 288.894 646.429 288.407C645.456 287.92 644.644 287.433 643.995 286.865C643.346 286.298 642.859 285.892 642.454 285.486C640.831 283.863 639.614 281.835 638.64 279.32C637.667 276.886 637.18 274.127 637.18 271.044C637.18 268.204 637.585 265.608 638.478 263.336C639.37 260.983 640.587 259.036 642.129 257.413C643.589 255.872 645.374 254.655 647.403 253.762C649.431 252.87 651.622 252.464 654.056 252.464C656.003 252.464 657.788 252.707 659.33 253.275C660.871 253.843 662.251 254.573 663.468 255.466C664.279 256.115 665.09 256.845 665.74 257.575C666.389 258.306 666.957 259.036 667.362 259.766C667.768 260.496 668.174 261.064 668.417 261.632C668.66 262.2 668.823 262.525 668.904 262.768L662.007 266.014Z" fill="#004E82"/>
<path d="M677.667 278.671C678.316 279.32 678.965 279.969 679.777 280.537C680.588 281.105 681.399 281.673 682.373 281.997C683.103 282.241 683.915 282.484 684.888 282.728C685.781 282.89 686.754 282.971 687.89 282.971C688.377 282.971 689.188 282.89 690.324 282.728C691.46 282.565 692.434 282.16 693.326 281.429C693.894 281.024 694.3 280.537 694.543 279.969C694.787 279.401 694.868 278.914 694.868 278.427C694.868 277.373 694.624 276.642 694.138 276.237C693.651 275.831 693.164 275.506 692.515 275.263C691.866 275.02 691.136 274.857 690.243 274.695C689.432 274.533 688.296 274.371 686.917 274.127L684.726 273.803C683.671 273.64 682.535 273.397 681.48 273.154C680.345 272.91 679.29 272.586 678.316 272.018C676.856 271.287 675.639 270.314 674.665 269.097C673.691 267.88 673.286 266.095 673.286 263.904C673.286 262.849 673.448 261.957 673.691 261.145C673.935 260.334 674.259 259.604 674.665 258.874C675.071 258.225 675.476 257.575 675.882 257.089C676.288 256.602 676.775 256.196 677.18 255.872C678.641 254.655 680.263 253.762 682.211 253.275C684.077 252.788 686.024 252.464 687.971 252.464C689.513 252.464 690.973 252.626 692.272 252.87C693.57 253.113 694.706 253.519 695.679 253.843C696.734 254.33 697.789 254.898 698.843 255.628C699.898 256.358 700.872 257.089 701.683 257.9L697.14 262.768C696.572 262.281 695.923 261.713 695.111 261.227C694.3 260.74 693.407 260.253 692.353 259.928C691.541 259.685 690.811 259.442 690.081 259.279C689.351 259.117 688.62 259.036 687.728 259.036C687.241 259.036 686.592 259.036 685.781 259.117C684.969 259.198 684.239 259.36 683.428 259.685C682.373 260.091 681.724 260.577 681.399 261.227C681.075 261.794 680.912 262.362 680.912 262.849C680.912 263.742 681.156 264.391 681.643 264.797C682.13 265.202 682.616 265.446 683.184 265.689C683.915 265.932 684.645 266.176 685.375 266.257C686.105 266.338 686.998 266.5 688.052 266.663L692.596 267.474C693.407 267.636 694.543 267.88 695.923 268.285C697.302 268.691 698.519 269.421 699.736 270.476C701.683 272.18 702.657 274.533 702.657 277.616C702.657 279.563 702.332 281.186 701.602 282.484C700.953 283.782 700.142 284.837 699.33 285.648C698.276 286.703 696.815 287.677 694.949 288.488C693.083 289.3 690.73 289.786 687.809 289.786C686.349 289.786 684.645 289.624 682.86 289.381C681.075 289.137 679.452 288.65 677.91 288.001C676.288 287.271 674.99 286.541 673.935 285.648C672.961 284.756 672.231 284.026 671.744 283.539L677.667 278.671Z" fill="#004E82"/>
<path d="M743.712 284.35C741.684 286.541 739.493 288.002 737.059 288.894C735.68 289.381 734.381 289.787 733.002 289.949C731.623 290.192 730.325 290.273 729.026 290.273C725.619 290.273 722.617 289.705 720.101 288.569C717.586 287.434 715.396 285.811 713.611 283.864C712.799 283.052 712.069 281.997 711.339 280.862C710.609 279.726 709.959 278.346 709.392 276.805C708.824 275.263 708.337 273.559 708.012 271.612C707.688 269.665 707.525 267.474 707.525 265.121C707.525 260.983 708.093 257.332 709.229 254.006C710.365 250.679 711.988 247.92 714.097 245.567C716.207 243.296 718.722 241.511 721.724 240.294C724.726 239.077 728.053 238.427 731.785 238.427C736.572 238.427 740.71 239.482 744.361 241.511C748.012 243.539 750.852 246.541 753.043 250.436L743.469 255.628C742.901 254.655 742.252 253.762 741.521 252.951C740.791 252.058 740.061 251.409 739.25 250.922C738.6 250.517 737.708 250.111 736.572 249.624C735.436 249.219 734.057 248.975 732.353 248.975C730.081 248.975 728.215 249.3 726.673 250.03C725.132 250.76 723.834 251.653 722.779 252.87C722.049 253.762 721.4 254.736 720.994 255.709C720.507 256.683 720.183 257.738 719.939 258.711C719.696 259.685 719.534 260.74 719.452 261.714C719.371 262.687 719.29 263.661 719.29 264.472C719.29 267.636 719.696 270.152 720.426 272.018C721.156 273.884 722.049 275.344 722.941 276.399C724.321 277.941 725.862 278.914 727.566 279.401C729.189 279.807 730.649 280.05 731.947 280.05C735.112 280.05 737.627 279.239 739.574 277.616C741.521 275.993 742.657 273.803 742.901 271.125H732.191V261.551H753.286V289.137H744.28L743.712 284.35Z" fill="#004E82"/>
<path d="M761.562 239.563H782.739C788.986 239.563 793.692 240.537 796.694 242.403C799.777 244.35 801.319 247.433 801.319 251.734C801.319 255.304 800.345 258.062 798.398 260.009C796.451 261.957 793.611 263.093 789.879 263.336C794.504 263.742 797.83 264.878 799.94 266.744C802.049 268.61 803.023 271.45 803.023 275.263C803.023 277.941 802.374 280.375 801.076 282.403C799.777 284.431 797.992 285.973 795.802 286.947C793.53 287.92 791.177 288.488 788.824 288.65C786.471 288.813 783.956 288.894 781.278 288.894H761.644V239.563H761.562ZM773.246 280.212H780.629C782.414 280.212 784.037 280.131 785.335 279.969C786.633 279.807 787.769 279.563 788.662 279.076C789.554 278.671 790.203 278.022 790.609 277.21C791.015 276.399 791.258 275.344 791.258 274.046C791.258 272.748 791.015 271.693 790.609 270.882C790.203 270.07 789.473 269.502 788.662 269.016C787.769 268.61 786.715 268.285 785.335 268.123C784.037 267.961 782.414 267.88 780.711 267.88H773.327V280.212H773.246ZM773.571 259.036H780.224C783.469 259.036 785.903 258.711 787.445 258.062C788.986 257.413 789.798 255.953 789.798 253.762C789.798 251.49 788.986 250.111 787.445 249.462C785.822 248.813 783.469 248.488 780.224 248.488H773.571V259.036Z" fill="#004E82"/>
<path d="M283.184 208.245C293.164 201.916 293.976 199.32 296.247 196.399C273.367 213.925 216.491 193.803 228.823 255.304C233.205 257.738 239.777 261.308 241.886 262.444L255.598 255.06C251.947 220.902 273.124 215.304 283.184 208.245Z" fill="#DB0814"/>
<path d="M208.783 224.878C198.965 233.559 194.422 249.624 199.533 262.525C200.182 264.147 200.913 265.77 201.886 267.474L204.483 271.45C206.268 273.884 208.864 276.561 211.298 278.914L216.166 268.772C198.965 250.111 204.807 231.044 208.783 224.878Z" fill="#DB0814"/>
<path d="M205.456 290.922L208.945 283.539C202.292 277.292 197.667 271.125 195.314 264.634C194.178 261.551 193.529 258.874 193.529 255.223C190.77 267.961 191.988 279.807 198.235 292.302C204.158 304.229 213.489 313.803 220.142 319.726L220.061 308.286L205.456 290.922Z" fill="#004E82"/>
<path d="M209.594 243.215C210.73 252.383 215.111 259.685 218.357 264.148L223.225 253.843C223.225 253.843 222.008 245.324 221.764 241.348C220.953 228.691 225.334 218.63 234.503 212.302C226.146 214.411 206.754 219.604 209.594 243.215Z" fill="#004E82"/>
<path d="M308.66 186.744C291.297 223.985 256.814 210.841 260.384 253.275L265.171 263.255C268.741 253.438 268.579 248.245 273.609 241.105C284.968 224.959 300.79 235.912 308.66 186.744Z" fill="#004E82"/>
<path d="M306.226 214.006C302.413 227.636 290.892 233.478 287.809 235.344C274.178 243.377 272.474 254.574 268.336 269.908L272.393 278.428C283.671 252.789 281.886 252.87 295.922 244.026C299.736 241.592 306.389 234.614 306.226 214.006Z" fill="#DB0814"/>
<path d="M275.071 284.107L278.235 290.598L263.955 308.285C263.955 309.989 263.955 315.101 263.955 319.969C279.695 306.095 286.43 299.928 290.081 279.401C290.973 274.208 293.083 252.139 298.762 248.083C283.347 254.736 280.75 274.046 275.071 284.107Z" fill="#004E82"/>
<path d="M233.609 330.679V335.385L241.966 337.575L250.323 335.141V330.76L241.966 326.054L233.609 330.679Z" fill="#DB0814"/>
<path d="M258.032 259.198L241.967 267.961L225.902 259.198L211.217 289.949L224.848 306.582V324.675L231.014 328.245L238.722 323.539L233.529 317.292L250.324 317.21L245.132 323.458L252.84 328.164L259.006 324.594V306.5L272.637 289.868L258.032 259.198ZM232.88 313.235L232.718 293.113L226.146 291.328L221.44 284.35L236.288 288.813L232.88 313.235ZM258.032 291.247L251.46 293.032L251.298 313.154L247.89 288.651L262.738 284.188L258.032 291.247Z" fill="#DB0814"/>
</g>
<rect width="94.71" height="94.7102" transform="translate(97 337.19)" fill="#EAEDF7"/>
<path d="M133.515 425.976C131.54 428.103 129.262 429.622 126.831 430.533C125.464 431.065 124.097 431.444 122.806 431.596C121.439 431.824 120.148 431.9 118.781 431.9C115.363 431.9 112.401 431.292 109.894 430.153C107.388 429.014 105.186 427.419 103.363 425.444C102.603 424.609 101.844 423.622 101.084 422.482C100.325 421.343 99.7173 419.976 99.1097 418.457C98.5021 416.938 98.0464 415.191 97.7426 413.216C97.3628 411.318 97.2109 409.115 97.2109 406.761C97.2109 402.66 97.8186 398.938 98.9578 395.596C100.097 392.254 101.692 389.444 103.819 387.166C105.945 384.887 108.451 383.141 111.489 381.849C114.451 380.634 117.869 380.027 121.591 380.027C126.376 380.027 130.553 381.09 134.198 383.141C137.844 385.191 140.73 388.153 142.857 392.027L133.363 397.191C132.831 396.28 132.148 395.368 131.388 394.533C130.629 393.697 129.869 393.014 129.11 392.482C128.426 392.027 127.591 391.647 126.451 391.191C125.312 390.735 123.945 390.508 122.274 390.508C119.996 390.508 118.097 390.887 116.578 391.571C114.983 392.254 113.692 393.242 112.705 394.457C111.945 395.368 111.338 396.28 110.882 397.267C110.426 398.254 110.046 399.242 109.819 400.305C109.591 401.292 109.439 402.28 109.363 403.343C109.287 404.33 109.211 405.242 109.211 406.077C109.211 409.191 109.591 411.698 110.35 413.596C111.11 415.495 111.945 416.938 112.857 418.001C114.224 419.52 115.819 420.508 117.413 420.963C119.084 421.419 120.527 421.647 121.819 421.647C124.932 421.647 127.515 420.811 129.413 419.216C131.388 417.622 132.451 415.419 132.755 412.761H122.046V403.191H143.16V430.761H134.122L133.515 425.976Z" fill="white"/>
<path d="M150.603 381.242H171.717C177.945 381.242 182.654 382.229 185.692 384.128C188.73 386.027 190.249 389.14 190.249 393.47C190.249 397.039 189.262 399.773 187.287 401.748C185.312 403.723 182.502 404.862 178.781 405.09C183.413 405.546 186.755 406.685 188.806 408.508C190.856 410.406 191.92 413.216 191.92 417.014C191.92 419.748 191.312 422.102 190.021 424.153C188.73 426.204 186.983 427.723 184.705 428.71C182.426 429.697 180.072 430.229 177.717 430.457C175.363 430.609 172.781 430.685 170.122 430.685H150.527V381.242H150.603ZM162.3 421.799H169.667C171.489 421.799 173.084 421.723 174.375 421.571C175.667 421.419 176.806 421.115 177.641 420.659C178.553 420.204 179.16 419.596 179.616 418.837C180.072 418.077 180.224 417.014 180.224 415.723C180.224 414.432 179.996 413.368 179.54 412.609C179.084 411.849 178.477 411.166 177.565 410.786C176.73 410.33 175.591 410.027 174.299 409.875C172.932 409.723 171.413 409.647 169.667 409.647H162.3V421.799ZM162.603 400.685H169.287C172.553 400.685 174.983 400.381 176.502 399.697C178.097 399.014 178.856 397.647 178.856 395.444C178.856 393.166 178.097 391.799 176.502 391.115C174.907 390.508 172.477 390.204 169.287 390.204H162.603V400.685Z" fill="white"/>
<path d="M132.111 395.545L141.911 381.785L132.671 368.825H137.151L144.151 378.625L151.151 368.825H155.671L146.431 381.785L156.231 395.545H151.711L144.151 384.945L136.631 395.545H132.111Z" fill="#0D034C"/>
<rect width="94.71" height="94.7102" transform="translate(991.5 336.9)" fill="#EAEDF7"/>
<path d="M1028.01 425.686C1026.04 427.813 1023.76 429.332 1021.33 430.243C1019.96 430.775 1018.6 431.155 1017.31 431.306C1015.94 431.534 1014.65 431.61 1013.28 431.61C1009.86 431.61 1006.9 431.003 1004.39 429.863C1001.89 428.724 999.686 427.129 997.863 425.155C997.103 424.319 996.344 423.332 995.584 422.193C994.825 421.053 994.217 419.686 993.61 418.167C993.002 416.648 992.546 414.901 992.243 412.927C991.863 411.028 991.711 408.825 991.711 406.471C991.711 402.37 992.319 398.648 993.458 395.306C994.597 391.965 996.192 389.155 998.319 386.876C1000.45 384.598 1002.95 382.851 1005.99 381.56C1008.95 380.344 1012.37 379.737 1016.09 379.737C1020.88 379.737 1025.05 380.8 1028.7 382.851C1032.34 384.901 1035.23 387.863 1037.36 391.737L1027.86 396.901C1027.33 395.99 1026.65 395.079 1025.89 394.243C1025.13 393.408 1024.37 392.724 1023.61 392.193C1022.93 391.737 1022.09 391.357 1020.95 390.901C1019.81 390.446 1018.45 390.218 1016.77 390.218C1014.5 390.218 1012.6 390.598 1011.08 391.281C1009.48 391.965 1008.19 392.952 1007.2 394.167C1006.45 395.079 1005.84 395.99 1005.38 396.977C1004.93 397.965 1004.55 398.952 1004.32 400.015C1004.09 401.003 1003.94 401.99 1003.86 403.053C1003.79 404.041 1003.71 404.952 1003.71 405.787C1003.71 408.901 1004.09 411.408 1004.85 413.306C1005.61 415.205 1006.45 416.648 1007.36 417.712C1008.72 419.23 1010.32 420.218 1011.91 420.674C1013.58 421.129 1015.03 421.357 1016.32 421.357C1019.43 421.357 1022.01 420.522 1023.91 418.927C1025.89 417.332 1026.95 415.129 1027.26 412.471H1016.55V402.901H1037.66V430.471H1028.62L1028.01 425.686Z" fill="white"/>
<path d="M1045.1 380.952H1066.22C1072.45 380.952 1077.15 381.94 1080.19 383.838C1083.23 385.737 1084.75 388.851 1084.75 393.18C1084.75 396.75 1083.76 399.484 1081.79 401.458C1079.81 403.433 1077 404.572 1073.28 404.8C1077.91 405.256 1081.26 406.395 1083.31 408.218C1085.36 410.117 1086.42 412.927 1086.42 416.724C1086.42 419.459 1085.81 421.813 1084.52 423.864C1083.23 425.914 1081.48 427.433 1079.2 428.421C1076.93 429.408 1074.57 429.94 1072.22 430.167C1069.86 430.319 1067.28 430.395 1064.62 430.395H1045.03V380.952H1045.1ZM1056.8 421.509H1064.17C1065.99 421.509 1067.58 421.433 1068.88 421.281C1070.17 421.129 1071.31 420.826 1072.14 420.37C1073.05 419.914 1073.66 419.307 1074.12 418.547C1074.57 417.788 1074.72 416.724 1074.72 415.433C1074.72 414.142 1074.5 413.079 1074.04 412.319C1073.58 411.56 1072.98 410.876 1072.07 410.496C1071.23 410.041 1070.09 409.737 1068.8 409.585C1067.43 409.433 1065.91 409.357 1064.17 409.357H1056.8V421.509ZM1057.1 400.395H1063.79C1067.05 400.395 1069.48 400.091 1071 399.408C1072.6 398.724 1073.36 397.357 1073.36 395.155C1073.36 392.876 1072.6 391.509 1071 390.826C1069.41 390.218 1066.98 389.914 1063.79 389.914H1057.1V400.395Z" fill="white"/>
<path d="M1026.61 395.255L1036.41 381.495L1027.17 368.535H1031.65L1038.65 378.335L1045.65 368.535H1050.17L1040.93 381.495L1050.73 395.255H1046.21L1038.65 384.655L1031.13 395.255H1026.61Z" fill="#0D034C"/>
<rect width="94.71" height="94.7102" transform="translate(991.5 102.05)" fill="#EAEDF7"/>
<path d="M1028.01 190.836C1026.04 192.963 1023.76 194.482 1021.33 195.393C1019.96 195.925 1018.6 196.304 1017.31 196.456C1015.94 196.684 1014.65 196.76 1013.28 196.76C1009.86 196.76 1006.9 196.153 1004.39 195.013C1001.89 193.874 999.686 192.279 997.863 190.304C997.103 189.469 996.344 188.482 995.584 187.342C994.825 186.203 994.217 184.836 993.61 183.317C993.002 181.798 992.546 180.051 992.243 178.077C991.863 176.178 991.711 173.975 991.711 171.621C991.711 167.52 992.319 163.798 993.458 160.456C994.597 157.115 996.192 154.304 998.319 152.026C1000.45 149.747 1002.95 148.001 1005.99 146.71C1008.95 145.494 1012.37 144.887 1016.09 144.887C1020.88 144.887 1025.05 145.95 1028.7 148.001C1032.34 150.051 1035.23 153.013 1037.36 156.887L1027.86 162.051C1027.33 161.14 1026.65 160.228 1025.89 159.393C1025.13 158.558 1024.37 157.874 1023.61 157.342C1022.93 156.887 1022.09 156.507 1020.95 156.051C1019.81 155.596 1018.45 155.368 1016.77 155.368C1014.5 155.368 1012.6 155.747 1011.08 156.431C1009.48 157.115 1008.19 158.102 1007.2 159.317C1006.45 160.228 1005.84 161.14 1005.38 162.127C1004.93 163.115 1004.55 164.102 1004.32 165.165C1004.09 166.153 1003.94 167.14 1003.86 168.203C1003.79 169.191 1003.71 170.102 1003.71 170.937C1003.71 174.051 1004.09 176.558 1004.85 178.456C1005.61 180.355 1006.45 181.798 1007.36 182.861C1008.72 184.38 1010.32 185.368 1011.91 185.823C1013.58 186.279 1015.03 186.507 1016.32 186.507C1019.43 186.507 1022.01 185.672 1023.91 184.077C1025.89 182.482 1026.95 180.279 1027.26 177.621H1016.55V168.051H1037.66V195.621H1028.62L1028.01 190.836Z" fill="white"/>
<path d="M1045.1 146.102H1066.22C1072.45 146.102 1077.15 147.089 1080.19 148.988C1083.23 150.887 1084.75 154.001 1084.75 158.33C1084.75 161.9 1083.76 164.634 1081.79 166.608C1079.81 168.583 1077 169.722 1073.28 169.95C1077.91 170.406 1081.26 171.545 1083.31 173.368C1085.36 175.267 1086.42 178.077 1086.42 181.874C1086.42 184.608 1085.81 186.963 1084.52 189.013C1083.23 191.064 1081.48 192.583 1079.2 193.57C1076.93 194.558 1074.57 195.089 1072.22 195.317C1069.86 195.469 1067.28 195.545 1064.62 195.545H1045.03V146.102H1045.1ZM1056.8 186.659H1064.17C1065.99 186.659 1067.58 186.583 1068.88 186.431C1070.17 186.279 1071.31 185.976 1072.14 185.52C1073.05 185.064 1073.66 184.456 1074.12 183.697C1074.57 182.938 1074.72 181.874 1074.72 180.583C1074.72 179.292 1074.5 178.229 1074.04 177.469C1073.58 176.71 1072.98 176.026 1072.07 175.646C1071.23 175.191 1070.09 174.887 1068.8 174.735C1067.43 174.583 1065.91 174.507 1064.17 174.507H1056.8V186.659ZM1057.1 165.545H1063.79C1067.05 165.545 1069.48 165.241 1071 164.558C1072.6 163.874 1073.36 162.507 1073.36 160.305C1073.36 158.026 1072.6 156.659 1071 155.975C1069.41 155.368 1066.98 155.064 1063.79 155.064H1057.1V165.545Z" fill="white"/>
<path d="M1026.61 160.405L1036.41 146.645L1027.17 133.685H1031.65L1038.65 143.485L1045.65 133.685H1050.17L1040.93 146.645L1050.73 160.405H1046.21L1038.65 149.805L1031.13 160.405H1026.61Z" fill="#0D034C"/>
<rect width="94.71" height="94.7102" transform="translate(97 101.9)" fill="#EAEDF7"/>
<path d="M133.515 190.686C131.54 192.813 129.262 194.332 126.831 195.243C125.464 195.775 124.097 196.155 122.806 196.306C121.439 196.534 120.148 196.61 118.781 196.61C115.363 196.61 112.401 196.003 109.894 194.863C107.388 193.724 105.186 192.129 103.363 190.155C102.603 189.319 101.844 188.332 101.084 187.193C100.325 186.053 99.7173 184.686 99.1097 183.167C98.5021 181.648 98.0464 179.901 97.7426 177.927C97.3628 176.028 97.2109 173.825 97.2109 171.471C97.2109 167.37 97.8186 163.648 98.9578 160.306C100.097 156.965 101.692 154.155 103.819 151.876C105.945 149.598 108.451 147.851 111.489 146.56C114.451 145.344 117.869 144.737 121.591 144.737C126.376 144.737 130.553 145.8 134.198 147.851C137.844 149.901 140.73 152.863 142.857 156.737L133.363 161.901C132.831 160.99 132.148 160.079 131.388 159.243C130.629 158.408 129.869 157.724 129.11 157.193C128.426 156.737 127.591 156.357 126.451 155.901C125.312 155.446 123.945 155.218 122.274 155.218C119.996 155.218 118.097 155.598 116.578 156.281C114.983 156.965 113.692 157.952 112.705 159.167C111.945 160.079 111.338 160.99 110.882 161.977C110.426 162.965 110.046 163.952 109.819 165.015C109.591 166.003 109.439 166.99 109.363 168.053C109.287 169.041 109.211 169.952 109.211 170.787C109.211 173.901 109.591 176.408 110.35 178.306C111.11 180.205 111.945 181.648 112.857 182.712C114.224 184.23 115.819 185.218 117.413 185.674C119.084 186.129 120.527 186.357 121.819 186.357C124.932 186.357 127.515 185.522 129.413 183.927C131.388 182.332 132.451 180.129 132.755 177.471H122.046V167.901H143.16V195.471H134.122L133.515 190.686Z" fill="white"/>
<path d="M150.603 145.952H171.717C177.945 145.952 182.654 146.94 185.692 148.838C188.73 150.737 190.249 153.851 190.249 158.18C190.249 161.75 189.262 164.484 187.287 166.458C185.312 168.433 182.502 169.572 178.781 169.8C183.413 170.256 186.755 171.395 188.806 173.218C190.856 175.117 191.92 177.927 191.92 181.724C191.92 184.459 191.312 186.813 190.021 188.864C188.73 190.914 186.983 192.433 184.705 193.421C182.426 194.408 180.072 194.94 177.717 195.167C175.363 195.319 172.781 195.395 170.122 195.395H150.527V145.952H150.603ZM162.3 186.509H169.667C171.489 186.509 173.084 186.433 174.375 186.281C175.667 186.129 176.806 185.826 177.641 185.37C178.553 184.914 179.16 184.307 179.616 183.547C180.072 182.788 180.224 181.724 180.224 180.433C180.224 179.142 179.996 178.079 179.54 177.319C179.084 176.56 178.477 175.876 177.565 175.496C176.73 175.041 175.591 174.737 174.299 174.585C172.932 174.433 171.413 174.357 169.667 174.357H162.3V186.509ZM162.603 165.395H169.287C172.553 165.395 174.983 165.091 176.502 164.408C178.097 163.724 178.856 162.357 178.856 160.155C178.856 157.876 178.097 156.509 176.502 155.826C174.907 155.218 172.477 154.914 169.287 154.914H162.603V165.395Z" fill="white"/>
<path d="M132.111 160.255L141.911 146.495L132.671 133.535H137.151L144.151 143.335L151.151 133.535H155.671L146.431 146.495L156.231 160.255H151.711L144.151 149.655L136.631 160.255H132.111Z" fill="#0D034C"/>
<rect x="95" y="99.9001" width="993" height="334" stroke="#CBD4EC" stroke-width="4" stroke-dasharray="8 8"/>
<rect x="189.5" y="194.802" width="804" height="143.982" stroke="#CBD4EC" stroke-width="4" stroke-linejoin="round" stroke-dasharray="8 8"/>
<rect x="192" y="28.75" width="4" height="55" fill="#111111"/>
<path d="M493.756 38.472C495.484 38.472 496.942 38.202 497.464 36.726H498.472V48.75H496.96V39.678H493.756V38.472ZM505.624 45.132C503.266 45.132 501.322 43.206 501.322 40.812C501.322 38.454 503.23 36.528 505.624 36.528C508.018 36.528 509.926 38.418 509.926 40.848C509.926 41.388 509.818 41.946 509.602 42.486C509.368 43.08 507.784 46.05 505.948 48.75H504.076C504.076 48.75 505.588 46.662 506.578 45.024C506.272 45.096 505.966 45.132 505.624 45.132ZM505.624 38.058C504.094 38.058 502.87 39.3 502.87 40.812C502.87 42.342 504.094 43.584 505.624 43.584C507.172 43.584 508.414 42.342 508.414 40.812C508.414 39.3 507.172 38.058 505.624 38.058ZM516.832 48.966C513.736 48.966 512.08 46.752 512.08 42.72C512.08 38.724 513.736 36.51 516.832 36.51C519.928 36.51 521.584 38.724 521.584 42.72C521.584 46.752 519.928 48.966 516.832 48.966ZM513.718 42.72C513.718 45.87 514.708 47.634 516.832 47.634C517.678 47.634 518.344 47.346 518.83 46.824L514.078 40.002C513.826 40.74 513.718 41.658 513.718 42.72ZM516.832 37.842C516.04 37.842 515.392 38.094 514.906 38.562L519.64 45.33C519.838 44.628 519.946 43.746 519.946 42.72C519.946 39.588 518.938 37.842 516.832 37.842ZM523.932 39.822H525.03L525.444 41.226C525.984 40.29 526.938 39.678 528.342 39.678C530.376 39.678 532.176 41.37 532.176 44.322C532.176 47.256 530.376 48.966 528.342 48.966C526.938 48.966 525.984 48.354 525.444 47.4V51.648H523.932V39.822ZM525.408 44.322C525.408 46.446 526.416 47.67 527.946 47.67C529.476 47.67 530.484 46.446 530.484 44.322C530.484 42.198 529.476 40.974 527.946 40.974C526.416 40.974 525.408 42.198 525.408 44.322ZM532.867 48.75L536.125 44.16L533.029 39.822H534.811L537.007 42.918L539.221 39.822H541.003L537.907 44.16L541.165 48.75H539.383L537.007 45.42L534.649 48.75H532.867ZM546.479 48.75L551.159 36.726H552.725L548.045 48.75H546.479ZM558.723 45.78V44.358L564.681 36.726H566.211V44.358H568.407V45.78H566.211V48.75H564.699V45.78H558.723ZM560.361 44.358H564.699V38.796L560.361 44.358ZM569.852 46.032L571.346 45.6C571.616 46.86 572.48 47.706 574.01 47.706C575.594 47.706 576.728 46.878 576.728 45.384C576.728 43.08 573.974 43.098 573.02 43.098V41.73C574.37 41.73 576.422 41.622 576.422 39.732C576.422 38.436 575.36 37.77 574.082 37.77C572.606 37.77 571.742 38.598 571.508 39.786L570.032 39.354C570.464 37.644 571.904 36.51 574.118 36.51C576.206 36.51 578.006 37.338 578.006 39.57C578.006 40.794 577.304 41.838 576.044 42.36C577.844 42.918 578.348 44.106 578.348 45.366C578.348 47.796 576.278 48.966 573.992 48.966C571.562 48.966 570.266 47.67 569.852 46.032ZM580.692 39.822H581.808L582.204 41.172C582.708 40.326 583.554 39.678 584.886 39.678C586.254 39.678 587.064 40.272 587.46 41.244C588.18 40.146 589.224 39.678 590.466 39.678C592.536 39.678 593.346 41.064 593.346 43.098V48.75H591.834V43.548C591.834 42.18 591.582 40.974 589.926 40.974C588.63 40.974 587.784 42 587.784 43.908V48.75H586.272V43.548C586.272 42.18 586.002 40.974 584.364 40.974C583.068 40.974 582.204 42 582.204 43.908V48.75H580.692V39.822ZM595.826 39.822H596.942L597.338 41.172C597.842 40.326 598.688 39.678 600.02 39.678C601.388 39.678 602.198 40.272 602.594 41.244C603.314 40.146 604.358 39.678 605.6 39.678C607.67 39.678 608.48 41.064 608.48 43.098V48.75H606.968V43.548C606.968 42.18 606.716 40.974 605.06 40.974C603.764 40.974 602.918 42 602.918 43.908V48.75H601.406V43.548C601.406 42.18 601.136 40.974 599.498 40.974C598.202 40.974 597.338 42 597.338 43.908V48.75H595.826V39.822ZM616.114 36.726H618.922L622.126 46.554L625.33 36.726H628.138V48.75H626.446V38.49L622.972 48.75H621.298L617.806 38.49V48.75H616.114V36.726ZM630.322 39.822H633.076V48.75H631.564V41.028H630.322V39.822ZM632.32 38.13C631.708 38.13 631.204 37.626 631.204 36.996C631.204 36.384 631.708 35.88 632.32 35.88C632.95 35.88 633.454 36.384 633.454 36.996C633.454 37.626 632.95 38.13 632.32 38.13ZM635.781 39.822H636.897L637.293 41.172C637.797 40.326 638.661 39.678 640.173 39.678C642.333 39.678 643.125 41.064 643.125 43.098V48.75H641.613V43.548C641.613 42.18 641.379 40.974 639.651 40.974C638.193 40.974 637.293 42 637.293 43.908V48.75H635.781V39.822ZM645.158 39.822H647.912V48.75H646.4V41.028H645.158V39.822ZM647.156 38.13C646.544 38.13 646.04 37.626 646.04 36.996C646.04 36.384 646.544 35.88 647.156 35.88C647.786 35.88 648.29 36.384 648.29 36.996C648.29 37.626 647.786 38.13 647.156 38.13ZM650.617 39.822H651.733L652.129 41.172C652.633 40.326 653.479 39.678 654.811 39.678C656.179 39.678 656.989 40.272 657.385 41.244C658.105 40.146 659.149 39.678 660.391 39.678C662.461 39.678 663.271 41.064 663.271 43.098V48.75H661.759V43.548C661.759 42.18 661.507 40.974 659.851 40.974C658.555 40.974 657.709 42 657.709 43.908V48.75H656.197V43.548C656.197 42.18 655.927 40.974 654.289 40.974C652.993 40.974 652.129 42 652.129 43.908V48.75H650.617V39.822ZM668.578 48.966C666.49 48.966 665.716 47.544 665.716 45.51V39.804H667.228V45.06C667.228 46.446 667.462 47.634 669.1 47.634C670.522 47.634 671.368 46.626 671.368 44.718V39.804H672.88V48.75H671.746L671.368 47.454C670.864 48.318 670.054 48.966 668.578 48.966ZM675.403 39.822H676.519L676.915 41.172C677.419 40.326 678.265 39.678 679.597 39.678C680.965 39.678 681.775 40.272 682.171 41.244C682.891 40.146 683.935 39.678 685.177 39.678C687.247 39.678 688.057 41.064 688.057 43.098V48.75H686.545V43.548C686.545 42.18 686.293 40.974 684.637 40.974C683.341 40.974 682.495 42 682.495 43.908V48.75H680.983V43.548C680.983 42.18 680.713 40.974 679.075 40.974C677.779 40.974 676.915 42 676.915 43.908V48.75H675.403V39.822Z" fill="#111111"/>
<rect x="196" y="56.75" width="791" height="4" fill="#111111"/>
<rect x="987" y="28.75" width="4" height="55" fill="#111111"/>
<rect width="94.71" height="94.71" transform="translate(1086 194.9)" fill="#EAEDF7"/>
<path d="M1122.51 283.686C1120.54 285.813 1118.26 287.332 1115.83 288.243C1114.46 288.775 1113.1 289.154 1111.81 289.306C1110.44 289.534 1109.15 289.61 1107.78 289.61C1104.36 289.61 1101.4 289.002 1098.89 287.863C1096.39 286.724 1094.19 285.129 1092.36 283.154C1091.6 282.319 1090.84 281.332 1090.08 280.192C1089.32 279.053 1088.72 277.686 1088.11 276.167C1087.5 274.648 1087.05 272.901 1086.74 270.926C1086.36 269.028 1086.21 266.825 1086.21 264.471C1086.21 260.369 1086.82 256.648 1087.96 253.306C1089.1 249.964 1090.69 247.154 1092.82 244.876C1094.95 242.597 1097.45 240.851 1100.49 239.559C1103.45 238.344 1106.87 237.737 1110.59 237.737C1115.38 237.737 1119.55 238.8 1123.2 240.85C1126.84 242.901 1129.73 245.863 1131.86 249.737L1122.36 254.901C1121.83 253.99 1121.15 253.078 1120.39 252.243C1119.63 251.407 1118.87 250.724 1118.11 250.192C1117.43 249.737 1116.59 249.357 1115.45 248.901C1114.31 248.445 1112.95 248.218 1111.27 248.218C1109 248.218 1107.1 248.597 1105.58 249.281C1103.98 249.964 1102.69 250.952 1101.7 252.167C1100.95 253.078 1100.34 253.99 1099.88 254.977C1099.43 255.964 1099.05 256.952 1098.82 258.015C1098.59 259.002 1098.44 259.99 1098.36 261.053C1098.29 262.04 1098.21 262.952 1098.21 263.787C1098.21 266.901 1098.59 269.407 1099.35 271.306C1100.11 273.205 1100.95 274.648 1101.86 275.711C1103.22 277.23 1104.82 278.218 1106.41 278.673C1108.08 279.129 1109.53 279.357 1110.82 279.357C1113.93 279.357 1116.51 278.521 1118.41 276.926C1120.39 275.331 1121.45 273.129 1121.76 270.471H1111.05V260.901H1132.16V288.471H1123.12L1122.51 283.686Z" fill="white"/>
<path d="M1139.6 238.952H1160.72C1166.95 238.952 1171.65 239.939 1174.69 241.838C1177.73 243.737 1179.25 246.85 1179.25 251.18C1179.25 254.749 1178.26 257.483 1176.29 259.458C1174.31 261.433 1171.5 262.572 1167.78 262.8C1172.41 263.255 1175.76 264.395 1177.81 266.218C1179.86 268.116 1180.92 270.926 1180.92 274.724C1180.92 277.458 1180.31 279.812 1179.02 281.863C1177.73 283.914 1175.98 285.433 1173.7 286.42C1171.43 287.407 1169.07 287.939 1166.72 288.167C1164.36 288.319 1161.78 288.395 1159.12 288.395H1139.53V238.952H1139.6ZM1151.3 279.509H1158.67C1160.49 279.509 1162.08 279.433 1163.38 279.281C1164.67 279.129 1165.81 278.825 1166.64 278.369C1167.55 277.914 1168.16 277.306 1168.62 276.547C1169.07 275.787 1169.22 274.724 1169.22 273.433C1169.22 272.142 1169 271.078 1168.54 270.319C1168.08 269.559 1167.48 268.876 1166.57 268.496C1165.73 268.04 1164.59 267.736 1163.3 267.585C1161.93 267.433 1160.41 267.357 1158.67 267.357H1151.3V279.509ZM1151.6 258.395H1158.29C1161.55 258.395 1163.98 258.091 1165.5 257.407C1167.1 256.724 1167.86 255.357 1167.86 253.154C1167.86 250.876 1167.1 249.509 1165.5 248.825C1163.91 248.217 1161.48 247.914 1158.29 247.914H1151.6V258.395Z" fill="white"/>
<path d="M1121.11 253.255L1130.91 239.495L1121.67 226.535H1126.15L1133.15 236.335L1140.15 226.535H1144.67L1135.43 239.495L1145.23 253.255H1140.71L1133.15 242.655L1125.63 253.255H1121.11Z" fill="#0D034C"/>
<path fill-rule="evenodd" clip-rule="evenodd" d="M731.688 291.596H739.019V290.596V289.596H731.688V291.596ZM731.688 238.861H739.019V237.861V236.861H731.688V238.861ZM746.981 238.861V237.861V236.861H754.943V237.861V238.861H746.981ZM762.905 238.861V237.861V236.861H770.868V237.861V238.861H762.905ZM778.83 238.861V237.861V236.861H786.792V237.861V238.861H778.83ZM794.754 238.861V237.861V236.861H802.716V237.861V238.861H794.754ZM810.679 238.861V237.861V236.861H818.641V237.861V238.861H810.679ZM826.603 238.861V237.861V236.861H834.565V237.861V238.861H826.603ZM842.527 238.861V237.861V236.861H850.489V237.861V238.861H842.527ZM858.452 238.861V237.861V236.861H866.414V237.861V238.861H858.452ZM874.376 238.861V237.861V236.861H882.338V237.861V238.861H874.376ZM890.3 238.861V237.861V236.861H898.263V237.861V238.861H890.3ZM906.225 238.861V237.861V236.861H914.187V237.861V238.861H906.225ZM922.149 238.861V237.861V236.861H930.111V237.861V238.861H922.149ZM938.074 238.861V237.861V236.861H946.036V237.861V238.861H938.074ZM953.998 238.861V237.861V236.861H961.96V237.861V238.861H953.998ZM969.922 238.861V237.861V236.861H977.885V237.861V238.861H969.922ZM985.847 238.861V237.861V236.861H993.809V237.861V238.861H985.847ZM1001.77 238.861V237.861V236.861H1009.73V237.861V238.861H1001.77ZM1017.7 238.861V237.861V236.861H1025.66V237.861V238.861H1017.7ZM1033.62 238.861V237.861V236.861H1041.58V237.861V238.861H1033.62ZM1049.54 238.861V237.861V236.861H1057.51V237.861V238.861H1049.54ZM1065.47 238.861V237.861V236.861H1073.43V237.861V238.861H1065.47ZM1081.39 238.861V237.861V236.861H1089.36V237.861V238.861H1081.39ZM1097.32 238.861V237.861V236.861H1105.28V237.861V238.861H1097.32ZM1113.24 238.861V237.861V236.861H1121.2V237.861V238.861H1113.24ZM1129.17 238.861V237.861V236.861H1137.13V237.861V238.861H1129.17ZM1145.09 238.861V237.861V236.861H1153.05V237.861V238.861H1145.09ZM1161.02 238.861V237.861V236.861H1168.98V237.861V238.861H1161.02ZM1176.94 238.861V237.861V236.861H1180.92C1182.03 236.861 1182.92 237.757 1182.92 238.861V243.089H1181.92H1180.92V240.861V239.861V238.861H1179.92H1178.92H1176.94ZM1176.94 289.596V290.596V291.596H1180.92C1182.03 291.596 1182.92 290.701 1182.92 289.596V285.368H1181.92H1180.92V287.596V288.596V289.596H1179.92H1178.92H1176.94ZM1168.98 289.596V290.596V291.596H1161.02V290.596V289.596H1168.98ZM1153.05 289.596V290.596V291.596H1145.09V290.596V289.596H1153.05ZM1137.13 289.596V290.596V291.596H1129.17V290.596V289.596H1137.13ZM1121.2 289.596V290.596V291.596H1113.24V290.596V289.596H1121.2ZM1105.28 289.596V290.596V291.596H1097.32V290.596V289.596H1105.28ZM1089.36 289.596V290.596V291.596H1081.39V290.596V289.596H1089.36ZM1073.43 289.596V290.596V291.596H1065.47V290.596V289.596H1073.43ZM1057.51 289.596V290.596V291.596H1049.54V290.596V289.596H1057.51ZM1041.58 289.596V290.596V291.596H1033.62V290.596V289.596H1041.58ZM1025.66 289.596V290.596V291.596H1017.7V290.596V289.596H1025.66ZM1009.73 289.596V290.596V291.596H1001.77V290.596V289.596H1009.73ZM993.809 289.596V290.596V291.596H985.847V290.596V289.596H993.809ZM977.885 289.596V290.596V291.596H969.922V290.596V289.596H977.885ZM961.96 289.596V290.596V291.596H953.998V290.596V289.596H961.96ZM946.036 289.596V290.596V291.596H938.074V290.596V289.596H946.036ZM930.112 289.596V290.596V291.596H922.149V290.596V289.596H930.112ZM914.187 289.596V290.596V291.596H906.225V290.596V289.596H914.187ZM898.263 289.596V290.596V291.596H890.301V290.596V289.596H898.263ZM882.338 289.596V290.596V291.596H874.376V290.596V289.596H882.338ZM866.414 289.596V290.596V291.596H858.452V290.596V289.596H866.414ZM850.49 289.596V290.596V291.596H842.527V290.596V289.596H850.49ZM834.565 289.596V290.596V291.596H826.603V290.596V289.596H834.565ZM818.641 289.596V290.596V291.596H810.679V290.596V289.596H818.641ZM802.716 289.596V290.596V291.596H794.754V290.596V289.596H802.716ZM786.792 289.596V290.596V291.596H778.83V290.596V289.596H786.792ZM770.868 289.596V290.596V291.596H762.905V290.596V289.596H770.868ZM754.943 289.596V290.596V291.596H746.981V290.596V289.596H754.943ZM1180.92 276.912H1181.92H1182.92V268.457H1181.92H1180.92V276.912ZM1180.92 260.001H1181.92H1182.92V251.545H1181.92H1180.92V260.001Z" fill="#8DA4D5"/>
</g>
<defs>
<clipPath id="clip0_914_14091">
<rect width="1183" height="467" fill="white"/>
</clipPath>
<clipPath id="clip1_914_14091">
<rect width="800" height="151.724" fill="white" transform="translate(191.5 186.582)"/>
</clipPath>
</defs>
</svg>
