<svg width="1200" height="444" viewBox="0 0 1200 444" fill="none" xmlns="http://www.w3.org/2000/svg">
<path d="M244.615 70.8354C255.558 63.8797 256.444 61.0443 258.925 57.8987C233.849 77.0822 171.603 55.0632 185.071 122.449C189.9 125.108 197.077 129.006 199.381 130.291L214.4 122.228C210.324 84.7468 233.584 78.5443 244.615 70.8354Z" fill="#DB0814"/>
<path d="M163.051 89.0886C152.285 98.6139 147.323 116.158 152.905 130.291C153.614 132.063 154.456 133.88 155.519 135.696L158.355 140.038C160.304 142.652 163.139 145.62 165.798 148.234L171.114 137.114C152.285 116.734 158.665 95.8671 163.051 89.0886Z" fill="#DB0814"/>
<path d="M159.417 161.392L163.227 153.329C155.962 146.462 150.911 139.683 148.253 132.639C146.968 129.228 146.259 126.348 146.259 122.316C143.246 136.272 144.62 149.209 151.398 162.943C157.867 176.013 168.101 186.468 175.411 192.981L175.278 180.399L159.417 161.392Z" fill="#004E82"/>
<path d="M163.938 109.114C165.134 119.171 169.963 127.19 173.552 132.063L178.912 120.81C178.912 120.81 177.539 111.506 177.273 107.12C176.387 93.2089 181.172 82.2659 191.273 75.3102C182.058 77.614 160.836 83.2849 163.938 109.114Z" fill="#004E82"/>
<path d="M272.481 47.2659C253.475 88.0254 215.64 73.6266 219.583 120.19L224.811 131.089C228.665 120.323 228.576 114.652 234.07 106.854C246.564 89.133 263.842 101.095 272.481 47.2659Z" fill="#004E82"/>
<path d="M269.778 77.1266C265.569 92.057 252.943 98.481 249.576 100.475C234.601 109.247 232.829 121.519 228.266 138.354L232.74 147.658C245.101 119.525 243.152 119.614 258.569 109.956C262.734 107.386 269.955 99.6772 269.778 77.1266Z" fill="#DB0814"/>
<path d="M235.665 153.949L239.077 161.038L223.482 180.399C223.438 182.26 223.482 187.842 223.438 193.247C240.672 178.095 248.07 171.317 252.102 148.854C253.121 143.184 255.381 119.038 261.627 114.519C244.748 121.785 241.912 142.873 235.665 153.949Z" fill="#004E82"/>
<path d="M70.1895 239.987H80.3793C82.2401 239.987 83.7907 240.253 84.9426 240.785C86.0945 241.316 86.9806 241.848 87.6008 242.424C87.8667 242.69 88.1768 243.044 88.4426 243.443C88.7527 243.842 89.0186 244.329 89.2844 244.905C89.5502 245.481 89.7717 246.146 89.9046 246.899C90.0819 247.652 90.1705 248.494 90.1705 249.468C90.1705 250.975 89.9489 252.304 89.4616 253.411C89.0186 254.519 88.354 255.449 87.6008 256.247C86.8477 257 85.873 257.576 84.7211 258.063C83.5692 258.551 82.1958 258.772 80.7338 258.772H75.1958V268.873H70.1895V239.987ZM80.1135 254.342C80.9996 254.342 81.7084 254.209 82.2844 253.943C82.8603 253.677 83.3477 253.411 83.6578 253.057C83.9679 252.747 84.2781 252.259 84.5439 251.684C84.8097 251.108 84.9426 250.354 84.9426 249.424C84.9426 248.582 84.8097 247.873 84.5882 247.253C84.3667 246.633 84.0565 246.146 83.7021 245.747C83.0819 245.127 82.4616 244.772 81.7527 244.639C81.0439 244.506 80.5122 244.418 80.1578 244.418H75.1072V254.342H80.1135Z" fill="#004E82"/>
<path d="M108.956 264.089C108.956 264.709 108.956 265.24 108.956 265.728C108.956 266.171 109 266.614 109.045 266.968C109.089 267.323 109.178 267.633 109.266 267.943C109.355 268.253 109.488 268.563 109.621 268.873H105.633C105.235 268.608 104.969 268.297 104.792 267.943C104.703 267.721 104.614 267.5 104.614 267.323C104.614 267.145 104.614 267.013 104.614 266.968C104.127 267.411 103.64 267.81 103.152 268.076C102.665 268.342 102.178 268.563 101.69 268.74C101.203 268.873 100.76 269.006 100.317 269.051C99.8738 269.095 99.4308 269.139 99.0321 269.139C98.2789 269.139 97.4371 269.006 96.4624 268.785C95.5321 268.563 94.646 268.076 93.8485 267.323C93.3169 266.791 92.8295 266.171 92.4308 265.418C92.0321 264.664 91.8105 263.734 91.8105 262.582C91.8105 261.563 91.9878 260.677 92.2979 259.968C92.608 259.259 93.0511 258.728 93.5827 258.285C93.9814 257.93 94.4688 257.62 95.0004 257.399C95.5321 257.133 96.0637 256.956 96.5954 256.778C97.127 256.601 97.57 256.513 97.9688 256.424C98.3675 256.335 98.589 256.291 98.6776 256.247L100.494 255.937C100.583 255.892 100.671 255.892 100.76 255.892C100.804 255.892 100.893 255.892 100.981 255.892C101.07 255.892 101.203 255.848 101.38 255.804C101.557 255.759 101.868 255.715 102.311 255.627C102.709 255.538 103.064 255.449 103.374 255.361C103.728 255.272 103.994 255.095 104.216 254.873C104.437 254.652 104.57 254.43 104.614 254.164C104.659 253.899 104.703 253.677 104.703 253.456C104.703 253.101 104.659 252.791 104.526 252.525C104.437 252.259 104.216 251.994 103.861 251.772C103.462 251.462 103.019 251.285 102.532 251.24C102.045 251.152 101.602 251.152 101.203 251.152C100.184 251.152 99.4751 251.24 98.9878 251.462C98.5447 251.683 98.2346 251.861 98.1017 251.949C97.8802 252.126 97.6586 252.392 97.4371 252.747C97.2156 253.101 97.0827 253.544 97.0827 254.12H92.7409C92.7852 253.278 93.0067 252.437 93.3612 251.551C93.7156 250.664 94.2473 249.911 94.9118 249.291C95.3992 248.848 95.9308 248.494 96.5067 248.272C97.0827 248.006 97.6586 247.829 98.2346 247.74C98.8105 247.608 99.3865 247.563 99.9181 247.519C100.45 247.475 100.893 247.475 101.292 247.475C101.602 247.475 102.045 247.475 102.621 247.519C103.152 247.563 103.728 247.608 104.349 247.74C104.969 247.873 105.545 248.051 106.121 248.316C106.697 248.582 107.228 248.937 107.671 249.424C108.336 250.133 108.735 250.886 108.868 251.728C109 252.525 109.089 253.278 109.089 253.899V264.089H108.956ZM101.026 259.127C100.317 259.304 99.6523 259.437 99.0764 259.57C98.5004 259.702 98.0131 259.924 97.57 260.234C97.2599 260.5 96.9941 260.766 96.8169 261.076C96.6397 261.386 96.5511 261.829 96.5511 262.316C96.5511 262.627 96.5954 262.981 96.7283 263.38C96.8169 263.778 97.0827 264.089 97.4814 264.399C97.8802 264.709 98.2789 264.886 98.7662 264.975C99.2093 265.063 99.6523 265.108 100.051 265.108C101.203 265.108 102.089 264.93 102.665 264.532C103.285 264.133 103.728 263.69 103.994 263.247C104.304 262.715 104.481 262.095 104.526 261.43C104.614 260.766 104.614 260.101 104.614 259.481V258.152C104.216 258.285 103.817 258.418 103.418 258.506C102.975 258.595 102.576 258.728 102.133 258.816L101.026 259.127Z" fill="#004E82"/>
<path d="M113.076 248.051H117.551V251.063C117.728 250.753 117.994 250.399 118.26 250C118.526 249.646 118.836 249.291 119.19 248.981C120.032 248.272 120.918 247.873 121.804 247.696C122.69 247.563 123.443 247.519 124.108 247.563V252.525C122.114 252.304 120.519 252.702 119.279 253.677C118.614 254.209 118.171 254.785 117.95 255.405C117.684 256.025 117.595 256.69 117.595 257.399V268.74H113.12V248.051H113.076Z" fill="#004E82"/>
<path d="M142.45 264.089C142.45 264.709 142.45 265.24 142.45 265.728C142.45 266.171 142.494 266.614 142.538 266.968C142.583 267.323 142.671 267.633 142.76 267.943C142.848 268.253 142.981 268.563 143.114 268.873H139.083C138.684 268.608 138.418 268.297 138.241 267.943C138.152 267.721 138.064 267.5 138.064 267.323C138.064 267.145 138.064 267.013 138.064 266.968C137.576 267.411 137.089 267.81 136.602 268.076C136.114 268.342 135.627 268.563 135.14 268.74C134.652 268.873 134.209 269.006 133.766 269.051C133.323 269.095 132.88 269.139 132.481 269.139C131.728 269.139 130.886 269.006 129.912 268.785C128.981 268.563 128.095 268.076 127.298 267.323C126.766 266.791 126.279 266.171 125.88 265.418C125.481 264.664 125.26 263.734 125.26 262.582C125.26 261.563 125.437 260.677 125.747 259.968C126.057 259.259 126.5 258.728 127.032 258.285C127.431 257.93 127.918 257.62 128.45 257.399C128.981 257.133 129.513 256.956 130.045 256.778C130.576 256.601 131.019 256.513 131.418 256.424C131.817 256.335 132.038 256.291 132.127 256.247L133.943 255.937C134.032 255.892 134.121 255.892 134.209 255.892C134.253 255.892 134.342 255.892 134.431 255.892C134.519 255.892 134.652 255.848 134.829 255.804C135.007 255.759 135.317 255.715 135.76 255.627C136.159 255.538 136.513 255.449 136.823 255.361C137.177 255.272 137.443 255.095 137.665 254.873C137.886 254.652 138.019 254.43 138.064 254.164C138.108 253.899 138.152 253.677 138.152 253.456C138.152 253.101 138.108 252.791 137.975 252.525C137.886 252.259 137.665 251.994 137.31 251.772C136.912 251.462 136.469 251.285 135.981 251.24C135.494 251.152 135.051 251.152 134.652 251.152C133.633 251.152 132.924 251.24 132.437 251.462C131.994 251.683 131.684 251.861 131.551 251.949C131.329 252.126 131.108 252.392 130.886 252.747C130.665 253.101 130.532 253.544 130.532 254.12H126.19C126.234 253.278 126.456 252.437 126.81 251.551C127.165 250.664 127.696 249.911 128.361 249.291C128.848 248.848 129.38 248.494 129.956 248.272C130.532 248.006 131.108 247.829 131.684 247.74C132.26 247.608 132.836 247.563 133.367 247.519C133.899 247.475 134.342 247.475 134.741 247.475C135.051 247.475 135.494 247.475 136.07 247.519C136.602 247.563 137.177 247.608 137.798 247.74C138.418 247.873 138.994 248.051 139.57 248.316C140.146 248.582 140.677 248.937 141.121 249.424C141.785 250.133 142.184 250.886 142.317 251.728C142.45 252.525 142.538 253.278 142.538 253.899V264.089H142.45ZM134.519 259.127C133.81 259.304 133.146 259.437 132.57 259.57C131.994 259.702 131.507 259.924 131.064 260.234C130.753 260.5 130.488 260.766 130.31 261.076C130.133 261.386 130.045 261.829 130.045 262.316C130.045 262.627 130.089 262.981 130.222 263.38C130.31 263.778 130.576 264.089 130.975 264.399C131.374 264.709 131.772 264.886 132.26 264.975C132.703 265.063 133.146 265.108 133.545 265.108C134.696 265.108 135.583 264.93 136.158 264.532C136.779 264.133 137.222 263.69 137.488 263.247C137.798 262.715 137.975 262.095 138.019 261.43C138.108 260.766 138.108 260.101 138.108 259.481V258.152C137.709 258.285 137.31 258.418 136.912 258.506C136.469 258.595 136.07 258.728 135.627 258.816L134.519 259.127Z" fill="#004E82"/>
<path d="M146.525 239.987H150.956V268.829H146.525V239.987Z" fill="#004E82"/>
<path d="M157.645 270.601C157.911 270.601 158.177 270.557 158.443 270.513C158.709 270.468 158.93 270.38 159.152 270.247C159.285 270.158 159.417 269.981 159.506 269.804C159.595 269.627 159.683 269.361 159.683 269.051C159.683 268.873 159.683 268.652 159.639 268.475C159.595 268.253 159.55 268.12 159.506 267.943L153.082 248.051H157.778L161.323 259.791C161.367 259.968 161.455 260.234 161.5 260.5C161.588 260.766 161.633 261.076 161.677 261.342C161.721 261.608 161.766 261.918 161.854 262.183C161.898 262.449 161.943 262.671 161.987 262.848C162.076 262.139 162.209 261.519 162.342 261.032C162.474 260.5 162.563 260.101 162.652 259.791L165.93 248.051H170.626L164.202 268.829C163.804 270.07 163.493 271 163.139 271.62C162.829 272.24 162.474 272.728 162.12 273.082C161.5 273.702 160.879 274.057 160.126 274.19C159.417 274.323 158.709 274.411 158 274.411H155.076V270.557H157.645V270.601Z" fill="#004E82"/>
<path d="M172.797 248.051H177.227V250C178.734 248.449 180.506 247.652 182.588 247.652C183.829 247.652 184.892 247.918 185.866 248.449C186.841 248.981 187.594 249.734 188.17 250.709C189.056 249.69 190.075 248.937 191.139 248.449C192.202 247.962 193.354 247.696 194.55 247.696C196.544 247.696 198.139 248.316 199.291 249.601C200.487 250.886 201.063 252.658 201.063 254.962V268.873H196.632V255.804C196.632 253.101 195.525 251.728 193.354 251.728C192.202 251.728 191.183 252.171 190.341 253.057C189.499 253.943 189.056 255.095 189.056 256.557V268.873H184.759V255.804C184.759 253.101 183.696 251.728 181.525 251.728C180.949 251.728 180.417 251.861 179.885 252.082C179.354 252.304 178.911 252.658 178.512 253.057C178.113 253.5 177.803 253.987 177.582 254.608C177.36 255.228 177.227 255.848 177.227 256.557V268.873H172.797V248.051Z" fill="#004E82"/>
<path d="M205.05 248.051H209.48V250C209.657 249.823 209.879 249.601 210.144 249.335C210.41 249.07 210.809 248.804 211.208 248.582C211.651 248.316 212.182 248.139 212.758 247.962C213.379 247.785 214.043 247.696 214.841 247.696C215.328 247.696 215.86 247.74 216.436 247.829C217.012 247.918 217.543 248.051 218.119 248.316C218.695 248.538 219.271 248.848 219.803 249.247C220.334 249.646 220.866 250.133 221.353 250.797C221.619 251.152 221.885 251.551 222.195 252.038C222.461 252.525 222.727 253.057 222.948 253.721C223.17 254.342 223.347 255.095 223.48 255.892C223.613 256.69 223.701 257.576 223.701 258.551C223.701 260.146 223.48 261.563 223.081 262.892C222.682 264.221 222.106 265.373 221.309 266.304C220.556 267.278 219.625 268.032 218.518 268.563C217.41 269.095 216.17 269.361 214.796 269.361C214.442 269.361 214.043 269.316 213.6 269.272C213.157 269.228 212.714 269.095 212.227 268.962C211.739 268.785 211.252 268.563 210.765 268.253C210.277 267.943 209.79 267.544 209.391 267.013V274.367H204.961V248.051H205.05ZM209.48 258.551C209.48 258.949 209.48 259.348 209.524 259.791C209.569 260.234 209.613 260.677 209.701 261.12C209.79 261.563 209.879 262.051 210.056 262.449C210.189 262.892 210.41 263.291 210.676 263.646C211.163 264.31 211.739 264.709 212.36 264.886C212.98 265.063 213.556 265.152 214.088 265.152C215.682 265.152 216.923 264.532 217.809 263.335C218.119 262.892 218.429 262.272 218.695 261.519C218.961 260.766 219.094 259.747 219.094 258.551C219.094 257.221 218.961 256.114 218.651 255.272C218.341 254.43 217.986 253.766 217.499 253.323C217.189 252.968 216.701 252.658 216.17 252.348C215.594 252.082 214.885 251.905 213.999 251.905C213.379 251.905 212.891 251.994 212.448 252.171C212.005 252.348 211.651 252.525 211.385 252.747C210.942 253.101 210.588 253.544 210.322 254.076C210.056 254.608 209.879 255.139 209.79 255.671C209.657 256.202 209.613 256.734 209.569 257.266C209.48 257.753 209.48 258.196 209.48 258.551Z" fill="#004E82"/>
<path d="M226.848 239.987H231.278V244.949H226.848V239.987ZM226.848 248.051H231.278V268.829H226.848V248.051Z" fill="#004E82"/>
<path d="M248.867 255.405C248.734 255.006 248.512 254.607 248.291 254.164C248.025 253.721 247.759 253.323 247.449 253.057C247.139 252.747 246.74 252.481 246.164 252.171C245.588 251.905 244.924 251.728 244.126 251.728C243.417 251.728 242.797 251.861 242.266 252.126C241.734 252.392 241.247 252.747 240.848 253.19C240.405 253.633 240.006 254.297 239.607 255.095C239.209 255.892 239.031 256.956 239.031 258.285C239.031 259.038 239.12 259.791 239.253 260.5C239.386 261.209 239.607 261.829 239.917 262.405C240.095 262.715 240.272 263.025 240.493 263.291C240.715 263.601 241.025 263.867 241.38 264.133C241.734 264.399 242.133 264.62 242.576 264.753C243.019 264.886 243.55 265.019 244.171 265.019C244.968 265.019 245.633 264.886 246.164 264.576C246.696 264.31 247.139 264 247.493 263.645C247.804 263.335 248.114 262.981 248.335 262.582C248.601 262.183 248.778 261.785 248.911 261.386L252.854 263.513C252.455 264.31 252.012 265.107 251.436 265.861C250.861 266.614 250.196 267.278 249.487 267.766C248.734 268.297 247.892 268.696 246.962 268.962C246.031 269.228 245.101 269.361 244.126 269.361C243.24 269.361 242.398 269.272 241.69 269.095C240.981 268.918 240.316 268.652 239.785 268.386C239.209 268.12 238.766 267.81 238.367 267.5C237.968 267.19 237.702 266.924 237.481 266.702C236.55 265.728 235.797 264.576 235.266 263.114C234.69 261.696 234.424 260.057 234.424 258.285C234.424 256.645 234.69 255.139 235.221 253.766C235.753 252.437 236.462 251.285 237.348 250.31C238.234 249.424 239.253 248.715 240.449 248.183C241.645 247.652 242.93 247.386 244.304 247.386C245.455 247.386 246.474 247.563 247.405 247.873C248.335 248.183 249.133 248.626 249.797 249.158C250.285 249.557 250.728 249.956 251.126 250.399C251.525 250.842 251.835 251.24 252.101 251.683C252.367 252.082 252.544 252.437 252.721 252.747C252.854 253.057 252.987 253.278 253.031 253.411L248.867 255.405Z" fill="#004E82"/>
<path d="M257.594 262.759C257.949 263.158 258.347 263.513 258.835 263.867C259.278 264.221 259.809 264.487 260.341 264.709C260.784 264.886 261.271 265.019 261.803 265.108C262.335 265.196 262.911 265.285 263.531 265.285C263.841 265.285 264.328 265.24 264.949 265.152C265.613 265.063 266.189 264.797 266.721 264.399C267.031 264.133 267.297 263.867 267.43 263.557C267.563 263.247 267.651 262.937 267.651 262.627C267.651 262.006 267.518 261.608 267.252 261.342C266.987 261.076 266.677 260.899 266.322 260.766C265.923 260.633 265.525 260.5 264.993 260.456C264.506 260.367 263.841 260.278 263.044 260.145L261.759 259.924C261.139 259.835 260.518 259.702 259.854 259.57C259.234 259.437 258.613 259.215 257.993 258.905C257.107 258.506 256.398 257.93 255.866 257.221C255.335 256.513 255.069 255.494 255.069 254.164C255.069 253.544 255.158 253.013 255.29 252.57C255.423 252.082 255.645 251.639 255.822 251.24C256.044 250.842 256.265 250.487 256.531 250.221C256.797 249.956 257.063 249.69 257.284 249.513C258.126 248.804 259.101 248.316 260.208 248.006C261.316 247.696 262.423 247.563 263.575 247.563C264.461 247.563 265.303 247.652 266.056 247.829C266.809 248.006 267.474 248.183 268.05 248.405C268.67 248.671 269.29 249.025 269.911 249.424C270.531 249.823 271.063 250.266 271.55 250.753L268.892 253.633C268.582 253.323 268.183 253.013 267.74 252.747C267.297 252.437 266.765 252.171 266.145 251.949C265.702 251.772 265.259 251.683 264.816 251.595C264.417 251.506 263.93 251.462 263.442 251.462C263.132 251.462 262.778 251.462 262.29 251.506C261.847 251.551 261.36 251.683 260.961 251.861C260.341 252.127 259.987 252.392 259.809 252.747C259.632 253.101 259.544 253.411 259.544 253.721C259.544 254.253 259.677 254.608 259.987 254.829C260.253 255.051 260.563 255.228 260.873 255.361C261.316 255.538 261.759 255.627 262.158 255.671C262.601 255.715 263.088 255.804 263.753 255.937L266.411 256.38C266.898 256.468 267.563 256.646 268.316 256.867C269.113 257.133 269.822 257.532 270.531 258.152C271.683 259.127 272.259 260.5 272.259 262.316C272.259 263.468 272.082 264.399 271.683 265.152C271.284 265.905 270.841 266.525 270.354 267.013C269.734 267.633 268.892 268.209 267.784 268.696C266.721 269.183 265.347 269.449 263.62 269.449C262.734 269.449 261.803 269.361 260.74 269.183C259.721 269.006 258.746 268.74 257.86 268.386C256.885 267.987 256.132 267.5 255.556 267.013C254.98 266.481 254.537 266.082 254.271 265.772L257.594 262.759Z" fill="#004E82"/>
<path d="M295.652 266.082C294.5 267.323 293.171 268.209 291.753 268.74C290.956 269.051 290.158 269.272 289.405 269.361C288.608 269.494 287.854 269.538 287.057 269.538C285.063 269.538 283.335 269.183 281.873 268.519C280.411 267.854 279.127 266.924 278.063 265.772C277.62 265.285 277.177 264.709 276.734 264.044C276.291 263.38 275.937 262.582 275.582 261.696C275.228 260.81 274.962 259.791 274.785 258.639C274.563 257.532 274.475 256.247 274.475 254.873C274.475 252.481 274.829 250.31 275.494 248.361C276.158 246.411 277.089 244.772 278.329 243.443C279.57 242.114 281.032 241.095 282.804 240.342C284.532 239.633 286.525 239.278 288.696 239.278C291.487 239.278 293.924 239.899 296.051 241.095C298.177 242.291 299.861 244.019 301.101 246.278L295.563 249.291C295.253 248.759 294.854 248.228 294.411 247.74C293.968 247.253 293.525 246.854 293.082 246.544C292.683 246.278 292.196 246.057 291.532 245.791C290.867 245.525 290.07 245.392 289.095 245.392C287.766 245.392 286.658 245.614 285.772 246.013C284.842 246.411 284.089 246.987 283.513 247.696C283.07 248.228 282.715 248.759 282.449 249.335C282.183 249.911 281.962 250.487 281.829 251.108C281.696 251.684 281.608 252.259 281.563 252.88C281.519 253.456 281.475 253.987 281.475 254.475C281.475 256.291 281.696 257.753 282.139 258.861C282.582 259.968 283.07 260.81 283.601 261.43C284.399 262.316 285.329 262.892 286.259 263.158C287.234 263.424 288.076 263.557 288.829 263.557C290.646 263.557 292.152 263.07 293.259 262.139C294.411 261.209 295.032 259.924 295.209 258.373H288.962V252.791H301.278V268.873H296.006L295.652 266.082Z" fill="#004E82"/>
<path d="M305.62 239.987H317.937C321.57 239.987 324.317 240.563 326.089 241.671C327.861 242.778 328.747 244.595 328.747 247.12C328.747 249.203 328.171 250.797 327.019 251.949C325.867 253.101 324.228 253.766 322.057 253.899C324.76 254.165 326.709 254.829 327.905 255.892C329.102 257 329.722 258.639 329.722 260.854C329.722 262.449 329.367 263.823 328.614 265.019C327.861 266.215 326.842 267.101 325.513 267.677C324.184 268.253 322.81 268.563 321.437 268.696C320.064 268.785 318.557 268.829 317.007 268.829H305.576V239.987H305.62ZM312.443 263.646H316.741C317.804 263.646 318.734 263.601 319.488 263.513C320.241 263.424 320.905 263.247 321.393 262.981C321.924 262.715 322.279 262.361 322.545 261.918C322.81 261.475 322.899 260.854 322.899 260.101C322.899 259.348 322.766 258.728 322.5 258.285C322.234 257.842 321.88 257.443 321.348 257.221C320.861 256.956 320.196 256.778 319.443 256.69C318.646 256.601 317.76 256.557 316.741 256.557H312.443V263.646ZM312.62 251.329H316.519C318.424 251.329 319.842 251.152 320.728 250.753C321.658 250.354 322.101 249.557 322.101 248.272C322.101 246.943 321.658 246.146 320.728 245.747C319.798 245.392 318.38 245.215 316.519 245.215H312.62V251.329Z" fill="#004E82"/>
<path d="M190.74 204.987V210.171L200 212.563L209.126 209.861V205.032L200 199.937L190.74 204.987Z" fill="#DB0814"/>
<path d="M217.545 126.658L199.956 136.272L182.412 126.658L166.285 160.329L181.171 178.538V198.386L187.95 202.285L196.456 197.146L190.741 190.323L209.171 190.278L203.5 197.146L211.962 202.24L218.741 198.342V178.494L233.627 160.285L217.545 126.658ZM190.032 185.848L189.81 163.829L182.589 161.835L177.45 154.171L193.709 159L190.032 185.848ZM217.5 161.791L210.279 163.785L210.057 185.804L206.38 158.956L222.64 154.127L217.5 161.791Z" fill="#DB0814"/>
<path d="M197.298 293.063C187.108 290.715 173.197 293.285 160.038 300.905C139.481 312.778 128.538 332.405 135.671 344.766C140.235 352.652 151.045 355.665 163.627 353.715C157.867 352.386 153.304 349.506 150.735 345.032C143.602 332.671 154.5 313.044 175.102 301.171C182.5 296.873 190.209 294.171 197.298 293.063Z" fill="#F0252D"/>
<path d="M197.475 341.798C200.532 351.81 209.747 362.576 222.905 370.152C243.462 382.025 265.924 381.671 273.057 369.31C277.62 361.424 274.785 350.57 266.81 340.646C268.538 346.272 268.316 351.677 265.747 356.152C258.614 368.513 236.152 368.867 215.595 356.994C208.152 352.696 201.994 347.38 197.475 341.798Z" fill="#00A651"/>
<path d="M183.52 317.563C176.387 325.228 171.646 338.563 171.646 353.76C171.646 377.506 183.21 396.779 197.476 396.779C206.602 396.779 214.577 388.892 219.184 377.019C215.153 381.361 210.368 383.842 205.229 383.842C190.963 383.842 179.4 364.57 179.4 340.823C179.444 332.228 180.95 324.253 183.52 317.563Z" fill="#0078D0"/>
<path d="M644.525 70.8354C655.468 63.8797 656.355 61.0443 658.836 57.8987C633.76 77.0822 571.513 55.0632 584.981 122.449C589.81 125.108 596.987 129.006 599.291 130.291L614.31 122.228C610.234 84.7468 633.494 78.5443 644.525 70.8354Z" fill="black"/>
<path d="M562.963 89.0886C552.197 98.6139 547.235 116.158 552.817 130.291C553.526 132.063 554.368 133.88 555.431 135.696L558.267 140.038C560.216 142.652 563.051 145.62 565.71 148.234L571.026 137.114C552.197 116.734 558.577 95.8671 562.963 89.0886Z" fill="black"/>
<path d="M559.329 161.392L563.14 153.329C555.874 146.462 550.823 139.683 548.165 132.639C546.88 129.228 546.171 126.348 546.171 122.316C543.159 136.272 544.532 149.209 551.31 162.943C557.779 176.013 568.013 186.468 575.323 192.981L575.19 180.399L559.329 161.392Z" fill="black"/>
<path d="M563.848 109.114C565.044 119.171 569.873 127.19 573.462 132.063L578.822 120.81C578.822 120.81 577.449 111.506 577.183 107.12C576.297 93.2089 581.082 82.2659 591.183 75.3102C581.968 77.614 560.746 83.2849 563.848 109.114Z" fill="black"/>
<path d="M672.394 47.2659C653.387 88.0254 615.552 73.6266 619.495 120.19L624.723 131.089C628.577 120.323 628.488 114.652 633.982 106.854C646.476 89.133 663.754 101.095 672.394 47.2659Z" fill="black"/>
<path d="M669.69 77.1266C665.482 92.057 652.855 98.481 649.488 100.475C634.513 109.247 632.741 121.519 628.178 138.354L632.652 147.658C645.013 119.525 643.064 119.614 658.482 109.956C662.646 107.386 669.868 99.6772 669.69 77.1266Z" fill="black"/>
<path d="M635.576 153.949L638.987 161.038L623.392 180.399C623.348 182.26 623.392 187.842 623.348 193.247C640.582 178.095 647.981 171.317 652.012 148.854C653.031 143.184 655.291 119.038 661.538 114.519C644.658 121.785 641.822 142.873 635.576 153.949Z" fill="black"/>
<path d="M470.102 239.987H480.291C482.152 239.987 483.703 240.253 484.855 240.785C486.007 241.316 486.893 241.848 487.513 242.424C487.779 242.69 488.089 243.044 488.355 243.443C488.665 243.842 488.931 244.329 489.197 244.905C489.462 245.481 489.684 246.146 489.817 246.899C489.994 247.652 490.083 248.494 490.083 249.468C490.083 250.975 489.861 252.304 489.374 253.411C488.931 254.519 488.266 255.449 487.513 256.247C486.76 257 485.785 257.576 484.633 258.063C483.481 258.551 482.108 258.772 480.646 258.772H475.108V268.873H470.102V239.987ZM480.026 254.342C480.912 254.342 481.621 254.209 482.197 253.943C482.772 253.677 483.26 253.411 483.57 253.057C483.88 252.747 484.19 252.259 484.456 251.684C484.722 251.108 484.855 250.354 484.855 249.424C484.855 248.582 484.722 247.873 484.5 247.253C484.279 246.633 483.969 246.146 483.614 245.747C482.994 245.127 482.374 244.772 481.665 244.639C480.956 244.506 480.424 244.418 480.07 244.418H475.019V254.342H480.026Z" fill="black"/>
<path d="M508.868 264.089C508.868 264.709 508.868 265.24 508.868 265.728C508.868 266.171 508.913 266.614 508.957 266.968C509.001 267.323 509.09 267.633 509.178 267.943C509.267 268.253 509.4 268.563 509.533 268.873H505.545C505.147 268.608 504.881 268.297 504.704 267.943C504.615 267.721 504.526 267.5 504.526 267.323C504.526 267.145 504.526 267.013 504.526 266.968C504.039 267.411 503.552 267.81 503.064 268.076C502.577 268.342 502.09 268.563 501.602 268.74C501.115 268.873 500.672 269.006 500.229 269.051C499.786 269.095 499.343 269.139 498.944 269.139C498.191 269.139 497.349 269.006 496.375 268.785C495.444 268.563 494.558 268.076 493.761 267.323C493.229 266.791 492.742 266.171 492.343 265.418C491.944 264.664 491.723 263.734 491.723 262.582C491.723 261.563 491.9 260.677 492.21 259.968C492.52 259.259 492.963 258.728 493.495 258.285C493.894 257.93 494.381 257.62 494.913 257.399C495.444 257.133 495.976 256.956 496.507 256.778C497.039 256.601 497.482 256.513 497.881 256.424C498.28 256.335 498.501 256.291 498.59 256.247L500.406 255.937C500.495 255.892 500.583 255.892 500.672 255.892C500.716 255.892 500.805 255.892 500.894 255.892C500.982 255.892 501.115 255.848 501.292 255.804C501.469 255.759 501.78 255.715 502.223 255.627C502.621 255.538 502.976 255.449 503.286 255.361C503.64 255.272 503.906 255.095 504.128 254.873C504.349 254.652 504.482 254.43 504.526 254.164C504.571 253.899 504.615 253.677 504.615 253.456C504.615 253.101 504.571 252.791 504.438 252.525C504.349 252.259 504.128 251.994 503.773 251.772C503.375 251.462 502.932 251.285 502.444 251.24C501.957 251.152 501.514 251.152 501.115 251.152C500.096 251.152 499.387 251.24 498.9 251.462C498.457 251.683 498.147 251.861 498.014 251.949C497.792 252.126 497.571 252.392 497.349 252.747C497.128 253.101 496.995 253.544 496.995 254.12H492.653C492.697 253.278 492.919 252.437 493.273 251.551C493.628 250.664 494.159 249.911 494.824 249.291C495.311 248.848 495.843 248.494 496.419 248.272C496.995 248.006 497.571 247.829 498.147 247.74C498.723 247.608 499.299 247.563 499.83 247.519C500.362 247.475 500.805 247.475 501.204 247.475C501.514 247.475 501.957 247.475 502.533 247.519C503.064 247.563 503.64 247.608 504.261 247.74C504.881 247.873 505.457 248.051 506.033 248.316C506.609 248.582 507.14 248.937 507.583 249.424C508.248 250.133 508.647 250.886 508.78 251.728C508.913 252.525 509.001 253.278 509.001 253.899V264.089H508.868ZM500.938 259.127C500.229 259.304 499.564 259.437 498.988 259.57C498.413 259.702 497.925 259.924 497.482 260.234C497.172 260.5 496.906 260.766 496.729 261.076C496.552 261.386 496.463 261.829 496.463 262.316C496.463 262.627 496.507 262.981 496.64 263.38C496.729 263.778 496.995 264.089 497.394 264.399C497.792 264.709 498.191 264.886 498.678 264.975C499.121 265.063 499.564 265.108 499.963 265.108C501.115 265.108 502.001 264.93 502.577 264.532C503.197 264.133 503.64 263.69 503.906 263.247C504.216 262.715 504.394 262.095 504.438 261.43C504.526 260.766 504.526 260.101 504.526 259.481V258.152C504.128 258.285 503.729 258.418 503.33 258.506C502.887 258.595 502.488 258.728 502.045 258.816L500.938 259.127Z" fill="black"/>
<path d="M512.988 248.051H517.463V251.063C517.64 250.753 517.906 250.399 518.172 250C518.438 249.646 518.748 249.291 519.102 248.981C519.944 248.272 520.83 247.873 521.716 247.696C522.602 247.563 523.355 247.519 524.02 247.563V252.525C522.026 252.304 520.431 252.702 519.191 253.677C518.526 254.209 518.083 254.785 517.862 255.405C517.596 256.025 517.507 256.69 517.507 257.399V268.74H513.033V248.051H512.988Z" fill="black"/>
<path d="M542.362 264.089C542.362 264.709 542.362 265.24 542.362 265.728C542.362 266.171 542.406 266.614 542.45 266.968C542.495 267.323 542.583 267.633 542.672 267.943C542.76 268.253 542.893 268.563 543.026 268.873H538.995C538.596 268.608 538.33 268.297 538.153 267.943C538.064 267.721 537.976 267.5 537.976 267.323C537.976 267.145 537.976 267.013 537.976 266.968C537.488 267.411 537.001 267.81 536.514 268.076C536.026 268.342 535.539 268.563 535.052 268.74C534.564 268.873 534.121 269.006 533.678 269.051C533.235 269.095 532.792 269.139 532.393 269.139C531.64 269.139 530.798 269.006 529.824 268.785C528.893 268.563 528.007 268.076 527.21 267.323C526.678 266.791 526.191 266.171 525.792 265.418C525.393 264.664 525.172 263.734 525.172 262.582C525.172 261.563 525.349 260.677 525.659 259.968C525.969 259.259 526.412 258.728 526.944 258.285C527.343 257.93 527.83 257.62 528.362 257.399C528.893 257.133 529.425 256.956 529.957 256.778C530.488 256.601 530.931 256.513 531.33 256.424C531.729 256.335 531.95 256.291 532.039 256.247L533.855 255.937C533.944 255.892 534.033 255.892 534.121 255.892C534.166 255.892 534.254 255.892 534.343 255.892C534.431 255.892 534.564 255.848 534.741 255.804C534.919 255.759 535.229 255.715 535.672 255.627C536.071 255.538 536.425 255.449 536.735 255.361C537.09 255.272 537.355 255.095 537.577 254.873C537.798 254.652 537.931 254.43 537.976 254.164C538.02 253.899 538.064 253.677 538.064 253.456C538.064 253.101 538.02 252.791 537.887 252.525C537.798 252.259 537.577 251.994 537.223 251.772C536.824 251.462 536.381 251.285 535.893 251.24C535.406 251.152 534.963 251.152 534.564 251.152C533.545 251.152 532.836 251.24 532.349 251.462C531.906 251.683 531.596 251.861 531.463 251.949C531.241 252.126 531.02 252.392 530.798 252.747C530.577 253.101 530.444 253.544 530.444 254.12H526.102C526.147 253.278 526.368 252.437 526.723 251.551C527.077 250.664 527.609 249.911 528.273 249.291C528.76 248.848 529.292 248.494 529.868 248.272C530.444 248.006 531.02 247.829 531.596 247.74C532.172 247.608 532.748 247.563 533.279 247.519C533.811 247.475 534.254 247.475 534.653 247.475C534.963 247.475 535.406 247.475 535.982 247.519C536.514 247.563 537.09 247.608 537.71 247.74C538.33 247.873 538.906 248.051 539.482 248.316C540.058 248.582 540.59 248.937 541.033 249.424C541.697 250.133 542.096 250.886 542.229 251.728C542.362 252.525 542.45 253.278 542.45 253.899V264.089H542.362ZM534.431 259.127C533.723 259.304 533.058 259.437 532.482 259.57C531.906 259.702 531.419 259.924 530.976 260.234C530.666 260.5 530.4 260.766 530.223 261.076C530.045 261.386 529.957 261.829 529.957 262.316C529.957 262.627 530.001 262.981 530.134 263.38C530.223 263.778 530.488 264.089 530.887 264.399C531.286 264.709 531.685 264.886 532.172 264.975C532.615 265.063 533.058 265.108 533.457 265.108C534.609 265.108 535.495 264.93 536.071 264.532C536.691 264.133 537.134 263.69 537.4 263.247C537.71 262.715 537.887 262.095 537.931 261.43C538.02 260.766 538.02 260.101 538.02 259.481V258.152C537.621 258.285 537.223 258.418 536.824 258.506C536.381 258.595 535.982 258.728 535.539 258.816L534.431 259.127Z" fill="black"/>
<path d="M546.438 239.987H550.868V268.829H546.438V239.987Z" fill="black"/>
<path d="M557.557 270.601C557.823 270.601 558.089 270.557 558.355 270.513C558.621 270.468 558.842 270.38 559.064 270.247C559.197 270.158 559.33 269.981 559.418 269.804C559.507 269.627 559.595 269.361 559.595 269.051C559.595 268.873 559.595 268.652 559.551 268.475C559.507 268.253 559.462 268.12 559.418 267.943L552.994 248.051H557.69L561.235 259.791C561.279 259.968 561.368 260.234 561.412 260.5C561.5 260.766 561.545 261.076 561.589 261.342C561.633 261.608 561.678 261.918 561.766 262.183C561.811 262.449 561.855 262.671 561.899 262.848C561.988 262.139 562.121 261.519 562.254 261.032C562.387 260.5 562.475 260.101 562.564 259.791L565.842 248.051H570.538L564.114 268.829C563.716 270.07 563.406 271 563.051 271.62C562.741 272.24 562.387 272.728 562.032 273.082C561.412 273.702 560.792 274.057 560.038 274.19C559.33 274.323 558.621 274.411 557.912 274.411H554.988V270.557H557.557V270.601Z" fill="black"/>
<path d="M572.709 248.051H577.139V250C578.646 248.449 580.418 247.652 582.5 247.652C583.741 247.652 584.804 247.918 585.779 248.449C586.753 248.981 587.506 249.734 588.082 250.709C588.968 249.69 589.987 248.937 591.051 248.449C592.114 247.962 593.266 247.696 594.462 247.696C596.456 247.696 598.051 248.316 599.203 249.601C600.399 250.886 600.975 252.658 600.975 254.962V268.873H596.544V255.804C596.544 253.101 595.437 251.728 593.266 251.728C592.114 251.728 591.095 252.171 590.253 253.057C589.412 253.943 588.968 255.095 588.968 256.557V268.873H584.671V255.804C584.671 253.101 583.608 251.728 581.437 251.728C580.861 251.728 580.329 251.861 579.798 252.082C579.266 252.304 578.823 252.658 578.424 253.057C578.025 253.5 577.715 253.987 577.494 254.608C577.272 255.228 577.139 255.848 577.139 256.557V268.873H572.709V248.051Z" fill="black"/>
<path d="M604.962 248.051H609.392V250C609.569 249.823 609.791 249.601 610.057 249.335C610.322 249.07 610.721 248.804 611.12 248.582C611.563 248.316 612.095 248.139 612.671 247.962C613.291 247.785 613.955 247.696 614.753 247.696C615.24 247.696 615.772 247.74 616.348 247.829C616.924 247.918 617.455 248.051 618.031 248.316C618.607 248.538 619.183 248.848 619.715 249.247C620.246 249.646 620.778 250.133 621.265 250.797C621.531 251.152 621.797 251.551 622.107 252.038C622.373 252.525 622.639 253.057 622.86 253.721C623.082 254.342 623.259 255.095 623.392 255.892C623.525 256.69 623.614 257.576 623.614 258.551C623.614 260.146 623.392 261.563 622.993 262.892C622.595 264.221 622.019 265.373 621.221 266.304C620.468 267.278 619.538 268.032 618.43 268.563C617.322 269.095 616.082 269.361 614.708 269.361C614.354 269.361 613.955 269.316 613.512 269.272C613.069 269.228 612.626 269.095 612.139 268.962C611.652 268.785 611.164 268.563 610.677 268.253C610.189 267.943 609.702 267.544 609.303 267.013V274.367H604.873V248.051H604.962ZM609.392 258.551C609.392 258.949 609.392 259.348 609.436 259.791C609.481 260.234 609.525 260.677 609.614 261.12C609.702 261.563 609.791 262.051 609.968 262.449C610.101 262.892 610.322 263.291 610.588 263.646C611.076 264.31 611.652 264.709 612.272 264.886C612.892 265.063 613.468 265.152 614 265.152C615.595 265.152 616.835 264.532 617.721 263.335C618.031 262.892 618.341 262.272 618.607 261.519C618.873 260.766 619.006 259.747 619.006 258.551C619.006 257.221 618.873 256.114 618.563 255.272C618.253 254.43 617.898 253.766 617.411 253.323C617.101 252.968 616.614 252.658 616.082 252.348C615.506 252.082 614.797 251.905 613.911 251.905C613.291 251.905 612.803 251.994 612.36 252.171C611.917 252.348 611.563 252.525 611.297 252.747C610.854 253.101 610.5 253.544 610.234 254.076C609.968 254.608 609.791 255.139 609.702 255.671C609.569 256.202 609.525 256.734 609.481 257.266C609.392 257.753 609.392 258.196 609.392 258.551Z" fill="black"/>
<path d="M626.76 239.987H631.19V244.949H626.76V239.987ZM626.76 248.051H631.19V268.829H626.76V248.051Z" fill="black"/>
<path d="M648.779 255.405C648.646 255.006 648.425 254.607 648.203 254.164C647.937 253.721 647.671 253.323 647.361 253.057C647.051 252.747 646.652 252.481 646.076 252.171C645.501 251.905 644.836 251.728 644.038 251.728C643.33 251.728 642.709 251.861 642.178 252.126C641.646 252.392 641.159 252.747 640.76 253.19C640.317 253.633 639.918 254.297 639.519 255.095C639.121 255.892 638.944 256.956 638.944 258.285C638.944 259.038 639.032 259.791 639.165 260.5C639.298 261.209 639.519 261.829 639.83 262.405C640.007 262.715 640.184 263.025 640.406 263.291C640.627 263.601 640.937 263.867 641.292 264.133C641.646 264.399 642.045 264.62 642.488 264.753C642.931 264.886 643.463 265.019 644.083 265.019C644.88 265.019 645.545 264.886 646.076 264.576C646.608 264.31 647.051 264 647.406 263.645C647.716 263.335 648.026 262.981 648.247 262.582C648.513 262.183 648.69 261.785 648.823 261.386L652.766 263.513C652.368 264.31 651.925 265.107 651.349 265.861C650.773 266.614 650.108 267.278 649.399 267.766C648.646 268.297 647.804 268.696 646.874 268.962C645.944 269.228 645.013 269.361 644.038 269.361C643.152 269.361 642.311 269.272 641.602 269.095C640.893 268.918 640.228 268.652 639.697 268.386C639.121 268.12 638.678 267.81 638.279 267.5C637.88 267.19 637.614 266.924 637.393 266.702C636.463 265.728 635.709 264.576 635.178 263.114C634.602 261.696 634.336 260.057 634.336 258.285C634.336 256.645 634.602 255.139 635.133 253.766C635.665 252.437 636.374 251.285 637.26 250.31C638.146 249.424 639.165 248.715 640.361 248.183C641.557 247.652 642.842 247.386 644.216 247.386C645.368 247.386 646.387 247.563 647.317 247.873C648.247 248.183 649.045 248.626 649.709 249.158C650.197 249.557 650.64 249.956 651.038 250.399C651.437 250.842 651.747 251.24 652.013 251.683C652.279 252.082 652.456 252.437 652.633 252.747C652.766 253.057 652.899 253.278 652.944 253.411L648.779 255.405Z" fill="black"/>
<path d="M657.506 262.759C657.861 263.158 658.26 263.513 658.747 263.867C659.19 264.221 659.722 264.487 660.253 264.709C660.696 264.886 661.184 265.019 661.715 265.108C662.247 265.196 662.823 265.285 663.443 265.285C663.753 265.285 664.241 265.24 664.861 265.152C665.525 265.063 666.101 264.797 666.633 264.399C666.943 264.133 667.209 263.867 667.342 263.557C667.475 263.247 667.563 262.937 667.563 262.627C667.563 262.006 667.43 261.608 667.165 261.342C666.899 261.076 666.589 260.899 666.234 260.766C665.836 260.633 665.437 260.5 664.905 260.456C664.418 260.367 663.753 260.278 662.956 260.145L661.671 259.924C661.051 259.835 660.43 259.702 659.766 259.57C659.146 259.437 658.525 259.215 657.905 258.905C657.019 258.506 656.31 257.93 655.779 257.221C655.247 256.513 654.981 255.494 654.981 254.164C654.981 253.544 655.07 253.013 655.203 252.57C655.335 252.082 655.557 251.639 655.734 251.24C655.956 250.842 656.177 250.487 656.443 250.221C656.709 249.956 656.975 249.69 657.196 249.513C658.038 248.804 659.013 248.316 660.12 248.006C661.228 247.696 662.335 247.563 663.487 247.563C664.373 247.563 665.215 247.652 665.968 247.829C666.722 248.006 667.386 248.183 667.962 248.405C668.582 248.671 669.203 249.025 669.823 249.424C670.443 249.823 670.975 250.266 671.462 250.753L668.804 253.633C668.494 253.323 668.095 253.013 667.652 252.747C667.209 252.437 666.677 252.171 666.057 251.949C665.614 251.772 665.171 251.683 664.728 251.595C664.329 251.506 663.842 251.462 663.354 251.462C663.044 251.462 662.69 251.462 662.203 251.506C661.76 251.551 661.272 251.683 660.873 251.861C660.253 252.127 659.899 252.392 659.722 252.747C659.544 253.101 659.456 253.411 659.456 253.721C659.456 254.253 659.589 254.608 659.899 254.829C660.165 255.051 660.475 255.228 660.785 255.361C661.228 255.538 661.671 255.627 662.07 255.671C662.513 255.715 663 255.804 663.665 255.937L666.323 256.38C666.81 256.468 667.475 256.646 668.228 256.867C669.025 257.133 669.734 257.532 670.443 258.152C671.595 259.127 672.171 260.5 672.171 262.316C672.171 263.468 671.994 264.399 671.595 265.152C671.196 265.905 670.753 266.525 670.266 267.013C669.646 267.633 668.804 268.209 667.696 268.696C666.633 269.183 665.26 269.449 663.532 269.449C662.646 269.449 661.715 269.361 660.652 269.183C659.633 269.006 658.658 268.74 657.772 268.386C656.798 267.987 656.044 267.5 655.468 267.013C654.892 266.481 654.449 266.082 654.184 265.772L657.506 262.759Z" fill="black"/>
<path d="M695.564 266.082C694.412 267.323 693.083 268.209 691.665 268.74C690.868 269.051 690.07 269.272 689.317 269.361C688.52 269.494 687.766 269.538 686.969 269.538C684.975 269.538 683.247 269.183 681.785 268.519C680.323 267.854 679.039 266.924 677.975 265.772C677.532 265.285 677.089 264.709 676.646 264.044C676.203 263.38 675.849 262.582 675.494 261.696C675.14 260.81 674.874 259.791 674.697 258.639C674.475 257.532 674.387 256.247 674.387 254.873C674.387 252.481 674.741 250.31 675.406 248.361C676.07 246.411 677.001 244.772 678.241 243.443C679.482 242.114 680.944 241.095 682.716 240.342C684.444 239.633 686.437 239.278 688.608 239.278C691.399 239.278 693.836 239.899 695.963 241.095C698.089 242.291 699.773 244.019 701.013 246.278L695.475 249.291C695.165 248.759 694.766 248.228 694.323 247.74C693.88 247.253 693.437 246.854 692.994 246.544C692.596 246.278 692.108 246.057 691.444 245.791C690.779 245.525 689.982 245.392 689.007 245.392C687.678 245.392 686.57 245.614 685.684 246.013C684.754 246.411 684.001 246.987 683.425 247.696C682.982 248.228 682.627 248.759 682.361 249.335C682.096 249.911 681.874 250.487 681.741 251.108C681.608 251.684 681.52 252.259 681.475 252.88C681.431 253.456 681.387 253.987 681.387 254.475C681.387 256.291 681.608 257.753 682.051 258.861C682.494 259.968 682.982 260.81 683.513 261.43C684.311 262.316 685.241 262.892 686.172 263.158C687.146 263.424 687.988 263.557 688.741 263.557C690.558 263.557 692.064 263.07 693.172 262.139C694.323 261.209 694.944 259.924 695.121 258.373H688.874V252.791H701.191V268.873H695.918L695.564 266.082Z" fill="black"/>
<path d="M705.533 239.987H717.849C721.482 239.987 724.229 240.563 726.001 241.671C727.773 242.778 728.659 244.595 728.659 247.12C728.659 249.203 728.083 250.797 726.931 251.949C725.779 253.101 724.14 253.766 721.969 253.899C724.672 254.165 726.621 254.829 727.817 255.892C729.014 257 729.634 258.639 729.634 260.854C729.634 262.449 729.279 263.823 728.526 265.019C727.773 266.215 726.754 267.101 725.425 267.677C724.096 268.253 722.722 268.563 721.349 268.696C719.976 268.785 718.469 268.829 716.919 268.829H705.488V239.987H705.533ZM712.355 263.646H716.653C717.716 263.646 718.647 263.601 719.4 263.513C720.153 263.424 720.817 263.247 721.305 262.981C721.836 262.715 722.191 262.361 722.457 261.918C722.722 261.475 722.811 260.854 722.811 260.101C722.811 259.348 722.678 258.728 722.412 258.285C722.147 257.842 721.792 257.443 721.26 257.221C720.773 256.956 720.109 256.778 719.355 256.69C718.558 256.601 717.672 256.557 716.653 256.557H712.355V263.646ZM712.533 251.329H716.431C718.336 251.329 719.754 251.152 720.64 250.753C721.571 250.354 722.014 249.557 722.014 248.272C722.014 246.943 721.571 246.146 720.64 245.747C719.71 245.392 718.292 245.215 716.431 245.215H712.533V251.329Z" fill="black"/>
<path d="M590.652 204.987V210.171L599.912 212.563L609.038 209.861V205.032L599.912 199.937L590.652 204.987Z" fill="black"/>
<path d="M617.457 126.658L599.868 136.272L582.324 126.658L566.197 160.329L581.083 178.538V198.386L587.862 202.285L596.368 197.146L590.653 190.323L609.083 190.278L603.412 197.146L611.874 202.24L618.653 198.342V178.494L633.539 160.285L617.457 126.658ZM589.944 185.848L589.723 163.829L582.501 161.835L577.362 154.171L593.621 159L589.944 185.848ZM617.412 161.791L610.191 163.785L609.969 185.804L606.292 158.956L622.552 154.127L617.412 161.791Z" fill="black"/>
<path d="M597.21 293.063C587.02 290.715 573.109 293.285 559.95 300.905C539.393 312.778 528.45 332.405 535.583 344.766C540.147 352.652 550.957 355.665 563.539 353.715C557.78 352.386 553.216 349.506 550.647 345.032C543.514 332.671 554.412 313.044 575.014 301.171C582.412 296.873 590.121 294.171 597.21 293.063Z" fill="black"/>
<path d="M597.387 341.798C600.444 351.81 609.659 362.576 622.817 370.152C643.374 382.025 665.836 381.671 672.969 369.31C677.532 361.424 674.697 350.57 666.722 340.646C668.45 346.272 668.228 351.677 665.659 356.152C658.526 368.513 636.064 368.867 615.507 356.994C608.064 352.696 601.906 347.38 597.387 341.798Z" fill="black"/>
<path d="M583.432 317.563C576.299 325.228 571.559 338.563 571.559 353.76C571.559 377.506 583.122 396.779 597.388 396.779C606.514 396.779 614.489 388.892 619.097 377.019C615.065 381.361 610.28 383.842 605.141 383.842C590.875 383.842 579.312 364.57 579.312 340.823C579.356 332.228 580.862 324.253 583.432 317.563Z" fill="black"/>
<rect width="400" height="444" transform="translate(800)" fill="#111111"/>
<path d="M1044.66 70.8354C1055.6 63.8797 1056.49 61.0443 1058.97 57.8987C1033.89 77.0822 971.646 55.0632 985.114 122.449C989.943 125.108 997.12 129.006 999.424 130.291L1014.44 122.228C1010.37 84.7468 1033.63 78.5443 1044.66 70.8354Z" fill="white"/>
<path d="M963.096 89.0886C952.33 98.6139 947.368 116.158 952.95 130.291C953.659 132.063 954.501 133.88 955.564 135.696L958.399 140.038C960.349 142.652 963.184 145.62 965.842 148.234L971.159 137.114C952.33 116.734 958.71 95.8671 963.096 89.0886Z" fill="white"/>
<path d="M959.462 161.392L963.272 153.329C956.007 146.462 950.956 139.683 948.298 132.639C947.013 129.228 946.304 126.348 946.304 122.316C943.291 136.272 944.665 149.209 951.443 162.943C957.912 176.013 968.146 186.468 975.456 192.981L975.323 180.399L959.462 161.392Z" fill="white"/>
<path d="M963.981 109.114C965.177 119.171 970.006 127.19 973.594 132.063L978.955 120.81C978.955 120.81 977.582 111.506 977.316 107.12C976.43 93.2089 981.215 82.2659 991.316 75.3102C982.101 77.614 960.879 83.2849 963.981 109.114Z" fill="white"/>
<path d="M1072.53 47.2659C1053.52 88.0254 1015.68 73.6266 1019.63 120.19L1024.86 131.089C1028.71 120.323 1028.62 114.652 1034.11 106.854C1046.61 89.133 1063.89 101.095 1072.53 47.2659Z" fill="white"/>
<path d="M1069.82 77.1266C1065.61 92.057 1052.99 98.481 1049.62 100.475C1034.65 109.247 1032.87 121.519 1028.31 138.354L1032.79 147.658C1045.15 119.525 1043.2 119.614 1058.61 109.956C1062.78 107.386 1070 99.6772 1069.82 77.1266Z" fill="white"/>
<path d="M1035.71 153.949L1039.12 161.038L1023.52 180.399C1023.48 182.26 1023.52 187.842 1023.48 193.247C1040.71 178.095 1048.11 171.317 1052.15 148.854C1053.16 143.184 1055.42 119.038 1061.67 114.519C1044.79 121.785 1041.96 142.873 1035.71 153.949Z" fill="white"/>
<path d="M870.234 239.987H880.424C882.285 239.987 883.836 240.253 884.988 240.785C886.139 241.316 887.026 241.848 887.646 242.424C887.912 242.69 888.222 243.044 888.488 243.443C888.798 243.842 889.063 244.329 889.329 244.905C889.595 245.481 889.817 246.146 889.95 246.899C890.127 247.652 890.215 248.494 890.215 249.468C890.215 250.975 889.994 252.304 889.507 253.411C889.063 254.519 888.399 255.449 887.646 256.247C886.893 257 885.918 257.576 884.766 258.063C883.614 258.551 882.241 258.772 880.779 258.772H875.241V268.873H870.234V239.987ZM880.158 254.342C881.044 254.342 881.753 254.209 882.329 253.943C882.905 253.677 883.393 253.411 883.703 253.057C884.013 252.747 884.323 252.259 884.589 251.684C884.855 251.108 884.988 250.354 884.988 249.424C884.988 248.582 884.855 247.873 884.633 247.253C884.412 246.633 884.101 246.146 883.747 245.747C883.127 245.127 882.507 244.772 881.798 244.639C881.089 244.506 880.557 244.418 880.203 244.418H875.152V254.342H880.158Z" fill="white"/>
<path d="M909.001 264.089C909.001 264.709 909.001 265.24 909.001 265.728C909.001 266.171 909.045 266.614 909.09 266.968C909.134 267.323 909.223 267.633 909.311 267.943C909.4 268.253 909.533 268.563 909.666 268.873H905.678C905.28 268.608 905.014 268.297 904.836 267.943C904.748 267.721 904.659 267.5 904.659 267.323C904.659 267.145 904.659 267.013 904.659 266.968C904.172 267.411 903.685 267.81 903.197 268.076C902.71 268.342 902.223 268.563 901.735 268.74C901.248 268.873 900.805 269.006 900.362 269.051C899.919 269.095 899.476 269.139 899.077 269.139C898.324 269.139 897.482 269.006 896.507 268.785C895.577 268.563 894.691 268.076 893.893 267.323C893.362 266.791 892.874 266.171 892.476 265.418C892.077 264.664 891.855 263.734 891.855 262.582C891.855 261.563 892.033 260.677 892.343 259.968C892.653 259.259 893.096 258.728 893.628 258.285C894.026 257.93 894.514 257.62 895.045 257.399C895.577 257.133 896.109 256.956 896.64 256.778C897.172 256.601 897.615 256.513 898.014 256.424C898.412 256.335 898.634 256.291 898.723 256.247L900.539 255.937C900.628 255.892 900.716 255.892 900.805 255.892C900.849 255.892 900.938 255.892 901.026 255.892C901.115 255.892 901.248 255.848 901.425 255.804C901.602 255.759 901.912 255.715 902.355 255.627C902.754 255.538 903.109 255.449 903.419 255.361C903.773 255.272 904.039 255.095 904.261 254.873C904.482 254.652 904.615 254.43 904.659 254.164C904.704 253.899 904.748 253.677 904.748 253.456C904.748 253.101 904.704 252.791 904.571 252.525C904.482 252.259 904.261 251.994 903.906 251.772C903.507 251.462 903.064 251.285 902.577 251.24C902.09 251.152 901.647 251.152 901.248 251.152C900.229 251.152 899.52 251.24 899.033 251.462C898.59 251.683 898.28 251.861 898.147 251.949C897.925 252.126 897.704 252.392 897.482 252.747C897.261 253.101 897.128 253.544 897.128 254.12H892.786C892.83 253.278 893.052 252.437 893.406 251.551C893.761 250.664 894.292 249.911 894.957 249.291C895.444 248.848 895.976 248.494 896.552 248.272C897.128 248.006 897.704 247.829 898.28 247.74C898.855 247.608 899.431 247.563 899.963 247.519C900.495 247.475 900.938 247.475 901.336 247.475C901.647 247.475 902.09 247.475 902.666 247.519C903.197 247.563 903.773 247.608 904.393 247.74C905.014 247.873 905.59 248.051 906.166 248.316C906.742 248.582 907.273 248.937 907.716 249.424C908.381 250.133 908.78 250.886 908.912 251.728C909.045 252.525 909.134 253.278 909.134 253.899V264.089H909.001ZM901.071 259.127C900.362 259.304 899.697 259.437 899.121 259.57C898.545 259.702 898.058 259.924 897.615 260.234C897.305 260.5 897.039 260.766 896.862 261.076C896.685 261.386 896.596 261.829 896.596 262.316C896.596 262.627 896.64 262.981 896.773 263.38C896.862 263.778 897.128 264.089 897.526 264.399C897.925 264.709 898.324 264.886 898.811 264.975C899.254 265.063 899.697 265.108 900.096 265.108C901.248 265.108 902.134 264.93 902.71 264.532C903.33 264.133 903.773 263.69 904.039 263.247C904.349 262.715 904.526 262.095 904.571 261.43C904.659 260.766 904.659 260.101 904.659 259.481V258.152C904.261 258.285 903.862 258.418 903.463 258.506C903.02 258.595 902.621 258.728 902.178 258.816L901.071 259.127Z" fill="white"/>
<path d="M913.121 248.051H917.596V251.063C917.773 250.753 918.039 250.399 918.305 250C918.57 249.646 918.881 249.291 919.235 248.981C920.077 248.272 920.963 247.873 921.849 247.696C922.735 247.563 923.488 247.519 924.153 247.563V252.525C922.159 252.304 920.564 252.702 919.324 253.677C918.659 254.209 918.216 254.785 917.995 255.405C917.729 256.025 917.64 256.69 917.64 257.399V268.74H913.165V248.051H913.121Z" fill="white"/>
<path d="M942.495 264.089C942.495 264.709 942.495 265.24 942.495 265.728C942.495 266.171 942.539 266.614 942.583 266.968C942.627 267.323 942.716 267.633 942.805 267.943C942.893 268.253 943.026 268.563 943.159 268.873H939.127C938.729 268.608 938.463 268.297 938.286 267.943C938.197 267.721 938.108 267.5 938.108 267.323C938.108 267.145 938.108 267.013 938.108 266.968C937.621 267.411 937.134 267.81 936.646 268.076C936.159 268.342 935.672 268.563 935.184 268.74C934.697 268.873 934.254 269.006 933.811 269.051C933.368 269.095 932.925 269.139 932.526 269.139C931.773 269.139 930.931 269.006 929.957 268.785C929.026 268.563 928.14 268.076 927.343 267.323C926.811 266.791 926.324 266.171 925.925 265.418C925.526 264.664 925.305 263.734 925.305 262.582C925.305 261.563 925.482 260.677 925.792 259.968C926.102 259.259 926.545 258.728 927.077 258.285C927.476 257.93 927.963 257.62 928.495 257.399C929.026 257.133 929.558 256.956 930.089 256.778C930.621 256.601 931.064 256.513 931.463 256.424C931.862 256.335 932.083 256.291 932.172 256.247L933.988 255.937C934.077 255.892 934.165 255.892 934.254 255.892C934.298 255.892 934.387 255.892 934.476 255.892C934.564 255.892 934.697 255.848 934.874 255.804C935.052 255.759 935.362 255.715 935.805 255.627C936.203 255.538 936.558 255.449 936.868 255.361C937.222 255.272 937.488 255.095 937.71 254.873C937.931 254.652 938.064 254.43 938.108 254.164C938.153 253.899 938.197 253.677 938.197 253.456C938.197 253.101 938.153 252.791 938.02 252.525C937.931 252.259 937.71 251.994 937.355 251.772C936.957 251.462 936.514 251.285 936.026 251.24C935.539 251.152 935.096 251.152 934.697 251.152C933.678 251.152 932.969 251.24 932.482 251.462C932.039 251.683 931.729 251.861 931.596 251.949C931.374 252.126 931.153 252.392 930.931 252.747C930.71 253.101 930.577 253.544 930.577 254.12H926.235C926.279 253.278 926.501 252.437 926.855 251.551C927.21 250.664 927.741 249.911 928.406 249.291C928.893 248.848 929.425 248.494 930.001 248.272C930.577 248.006 931.153 247.829 931.729 247.74C932.305 247.608 932.881 247.563 933.412 247.519C933.944 247.475 934.387 247.475 934.786 247.475C935.096 247.475 935.539 247.475 936.115 247.519C936.646 247.563 937.222 247.608 937.843 247.74C938.463 247.873 939.039 248.051 939.615 248.316C940.191 248.582 940.722 248.937 941.165 249.424C941.83 250.133 942.229 250.886 942.362 251.728C942.495 252.525 942.583 253.278 942.583 253.899V264.089H942.495ZM934.564 259.127C933.855 259.304 933.191 259.437 932.615 259.57C932.039 259.702 931.552 259.924 931.108 260.234C930.798 260.5 930.533 260.766 930.355 261.076C930.178 261.386 930.089 261.829 930.089 262.316C930.089 262.627 930.134 262.981 930.267 263.38C930.355 263.778 930.621 264.089 931.02 264.399C931.419 264.709 931.817 264.886 932.305 264.975C932.748 265.063 933.191 265.108 933.589 265.108C934.741 265.108 935.627 264.93 936.203 264.532C936.824 264.133 937.267 263.69 937.533 263.247C937.843 262.715 938.02 262.095 938.064 261.43C938.153 260.766 938.153 260.101 938.153 259.481V258.152C937.754 258.285 937.355 258.418 936.957 258.506C936.514 258.595 936.115 258.728 935.672 258.816L934.564 259.127Z" fill="white"/>
<path d="M946.57 239.987H951.001V268.829H946.57V239.987Z" fill="white"/>
<path d="M957.69 270.601C957.956 270.601 958.222 270.557 958.488 270.513C958.754 270.468 958.975 270.38 959.197 270.247C959.329 270.158 959.462 269.981 959.551 269.804C959.64 269.627 959.728 269.361 959.728 269.051C959.728 268.873 959.728 268.652 959.684 268.475C959.64 268.253 959.595 268.12 959.551 267.943L953.127 248.051H957.823L961.367 259.791C961.412 259.968 961.5 260.234 961.545 260.5C961.633 260.766 961.678 261.076 961.722 261.342C961.766 261.608 961.81 261.918 961.899 262.183C961.943 262.449 961.988 262.671 962.032 262.848C962.121 262.139 962.254 261.519 962.386 261.032C962.519 260.5 962.608 260.101 962.697 259.791L965.975 248.051H970.671L964.247 268.829C963.848 270.07 963.538 271 963.184 271.62C962.874 272.24 962.519 272.728 962.165 273.082C961.545 273.702 960.924 274.057 960.171 274.19C959.462 274.323 958.754 274.411 958.045 274.411H955.121V270.557H957.69V270.601Z" fill="white"/>
<path d="M972.842 248.051H977.272V250C978.779 248.449 980.551 247.652 982.633 247.652C983.873 247.652 984.937 247.918 985.911 248.449C986.886 248.981 987.639 249.734 988.215 250.709C989.101 249.69 990.12 248.937 991.184 248.449C992.247 247.962 993.399 247.696 994.595 247.696C996.589 247.696 998.184 248.316 999.335 249.601C1000.53 250.886 1001.11 252.658 1001.11 254.962V268.873H996.677V255.804C996.677 253.101 995.57 251.728 993.399 251.728C992.247 251.728 991.228 252.171 990.386 253.057C989.544 253.943 989.101 255.095 989.101 256.557V268.873H984.804V255.804C984.804 253.101 983.741 251.728 981.57 251.728C980.994 251.728 980.462 251.861 979.93 252.082C979.399 252.304 978.956 252.658 978.557 253.057C978.158 253.5 977.848 253.987 977.627 254.608C977.405 255.228 977.272 255.848 977.272 256.557V268.873H972.842V248.051Z" fill="white"/>
<path d="M1005.09 248.051H1009.52V250C1009.7 249.823 1009.92 249.601 1010.19 249.335C1010.46 249.07 1010.85 248.804 1011.25 248.582C1011.7 248.316 1012.23 248.139 1012.8 247.962C1013.42 247.785 1014.09 247.696 1014.89 247.696C1015.37 247.696 1015.9 247.74 1016.48 247.829C1017.06 247.918 1017.59 248.051 1018.16 248.316C1018.74 248.538 1019.32 248.848 1019.85 249.247C1020.38 249.646 1020.91 250.133 1021.4 250.797C1021.66 251.152 1021.93 251.551 1022.24 252.038C1022.51 252.525 1022.77 253.057 1022.99 253.721C1023.21 254.342 1023.39 255.095 1023.52 255.892C1023.66 256.69 1023.75 257.576 1023.75 258.551C1023.75 260.146 1023.52 261.563 1023.13 262.892C1022.73 264.221 1022.15 265.373 1021.35 266.304C1020.6 267.278 1019.67 268.032 1018.56 268.563C1017.46 269.095 1016.21 269.361 1014.84 269.361C1014.49 269.361 1014.09 269.316 1013.65 269.272C1013.2 269.228 1012.76 269.095 1012.27 268.962C1011.78 268.785 1011.3 268.563 1010.81 268.253C1010.32 267.943 1009.83 267.544 1009.44 267.013V274.367H1005.01V248.051H1005.09ZM1009.52 258.551C1009.52 258.949 1009.52 259.348 1009.57 259.791C1009.61 260.234 1009.66 260.677 1009.75 261.12C1009.83 261.563 1009.92 262.051 1010.1 262.449C1010.23 262.892 1010.46 263.291 1010.72 263.646C1011.21 264.31 1011.78 264.709 1012.4 264.886C1013.02 265.063 1013.6 265.152 1014.13 265.152C1015.73 265.152 1016.97 264.532 1017.85 263.335C1018.16 262.892 1018.47 262.272 1018.74 261.519C1019.01 260.766 1019.14 259.747 1019.14 258.551C1019.14 257.221 1019.01 256.114 1018.7 255.272C1018.39 254.43 1018.03 253.766 1017.54 253.323C1017.23 252.968 1016.75 252.658 1016.21 252.348C1015.64 252.082 1014.93 251.905 1014.04 251.905C1013.42 251.905 1012.94 251.994 1012.49 252.171C1012.05 252.348 1011.7 252.525 1011.43 252.747C1010.99 253.101 1010.63 253.544 1010.37 254.076C1010.1 254.608 1009.92 255.139 1009.83 255.671C1009.7 256.202 1009.66 256.734 1009.61 257.266C1009.52 257.753 1009.52 258.196 1009.52 258.551Z" fill="white"/>
<path d="M1026.89 239.987H1031.32V244.949H1026.89V239.987ZM1026.89 248.051H1031.32V268.829H1026.89V248.051Z" fill="white"/>
<path d="M1048.91 255.405C1048.78 255.006 1048.56 254.607 1048.34 254.164C1048.07 253.721 1047.8 253.323 1047.49 253.057C1047.18 252.747 1046.79 252.481 1046.21 252.171C1045.63 251.905 1044.97 251.728 1044.17 251.728C1043.46 251.728 1042.84 251.861 1042.31 252.126C1041.78 252.392 1041.29 252.747 1040.89 253.19C1040.45 253.633 1040.05 254.297 1039.65 255.095C1039.25 255.892 1039.08 256.956 1039.08 258.285C1039.08 259.038 1039.16 259.791 1039.3 260.5C1039.43 261.209 1039.65 261.829 1039.96 262.405C1040.14 262.715 1040.32 263.025 1040.54 263.291C1040.76 263.601 1041.07 263.867 1041.42 264.133C1041.78 264.399 1042.18 264.62 1042.62 264.753C1043.06 264.886 1043.6 265.019 1044.22 265.019C1045.01 265.019 1045.68 264.886 1046.21 264.576C1046.74 264.31 1047.18 264 1047.54 263.645C1047.85 263.335 1048.16 262.981 1048.38 262.582C1048.65 262.183 1048.82 261.785 1048.96 261.386L1052.9 263.513C1052.5 264.31 1052.06 265.107 1051.48 265.861C1050.91 266.614 1050.24 267.278 1049.53 267.766C1048.78 268.297 1047.94 268.696 1047.01 268.962C1046.08 269.228 1045.15 269.361 1044.17 269.361C1043.29 269.361 1042.44 269.272 1041.73 269.095C1041.03 268.918 1040.36 268.652 1039.83 268.386C1039.25 268.12 1038.81 267.81 1038.41 267.5C1038.01 267.19 1037.75 266.924 1037.53 266.702C1036.6 265.728 1035.84 264.576 1035.31 263.114C1034.73 261.696 1034.47 260.057 1034.47 258.285C1034.47 256.645 1034.73 255.139 1035.27 253.766C1035.8 252.437 1036.51 251.285 1037.39 250.31C1038.28 249.424 1039.3 248.715 1040.49 248.183C1041.69 247.652 1042.98 247.386 1044.35 247.386C1045.5 247.386 1046.52 247.563 1047.45 247.873C1048.38 248.183 1049.18 248.626 1049.84 249.158C1050.33 249.557 1050.77 249.956 1051.17 250.399C1051.57 250.842 1051.88 251.24 1052.15 251.683C1052.41 252.082 1052.59 252.437 1052.77 252.747C1052.9 253.057 1053.03 253.278 1053.08 253.411L1048.91 255.405Z" fill="white"/>
<path d="M1057.64 262.759C1057.99 263.158 1058.39 263.513 1058.88 263.867C1059.32 264.221 1059.85 264.487 1060.39 264.709C1060.83 264.886 1061.32 265.019 1061.85 265.108C1062.38 265.196 1062.96 265.285 1063.58 265.285C1063.89 265.285 1064.37 265.24 1064.99 265.152C1065.66 265.063 1066.23 264.797 1066.77 264.399C1067.08 264.133 1067.34 263.867 1067.47 263.557C1067.61 263.247 1067.7 262.937 1067.7 262.627C1067.7 262.006 1067.56 261.608 1067.3 261.342C1067.03 261.076 1066.72 260.899 1066.37 260.766C1065.97 260.633 1065.57 260.5 1065.04 260.456C1064.55 260.367 1063.89 260.278 1063.09 260.145L1061.8 259.924C1061.18 259.835 1060.56 259.702 1059.9 259.57C1059.28 259.437 1058.66 259.215 1058.04 258.905C1057.15 258.506 1056.44 257.93 1055.91 257.221C1055.38 256.513 1055.11 255.494 1055.11 254.164C1055.11 253.544 1055.2 253.013 1055.34 252.57C1055.47 252.082 1055.69 251.639 1055.87 251.24C1056.09 250.842 1056.31 250.487 1056.58 250.221C1056.84 249.956 1057.11 249.69 1057.33 249.513C1058.17 248.804 1059.15 248.316 1060.25 248.006C1061.36 247.696 1062.47 247.563 1063.62 247.563C1064.51 247.563 1065.35 247.652 1066.1 247.829C1066.85 248.006 1067.52 248.183 1068.09 248.405C1068.72 248.671 1069.34 249.025 1069.96 249.424C1070.58 249.823 1071.11 250.266 1071.59 250.753L1068.94 253.633C1068.63 253.323 1068.23 253.013 1067.78 252.747C1067.34 252.437 1066.81 252.171 1066.19 251.949C1065.75 251.772 1065.3 251.683 1064.86 251.595C1064.46 251.506 1063.97 251.462 1063.49 251.462C1063.18 251.462 1062.82 251.462 1062.34 251.506C1061.89 251.551 1061.41 251.683 1061.01 251.861C1060.39 252.127 1060.03 252.392 1059.85 252.747C1059.68 253.101 1059.59 253.411 1059.59 253.721C1059.59 254.253 1059.72 254.608 1060.03 254.829C1060.3 255.051 1060.61 255.228 1060.92 255.361C1061.36 255.538 1061.8 255.627 1062.2 255.671C1062.65 255.715 1063.13 255.804 1063.8 255.937L1066.46 256.38C1066.94 256.468 1067.61 256.646 1068.36 256.867C1069.16 257.133 1069.87 257.532 1070.58 258.152C1071.73 259.127 1072.3 260.5 1072.3 262.316C1072.3 263.468 1072.13 264.399 1071.73 265.152C1071.33 265.905 1070.89 266.525 1070.4 267.013C1069.78 267.633 1068.94 268.209 1067.83 268.696C1066.77 269.183 1065.39 269.449 1063.66 269.449C1062.78 269.449 1061.85 269.361 1060.78 269.183C1059.77 269.006 1058.79 268.74 1057.91 268.386C1056.93 267.987 1056.18 267.5 1055.6 267.013C1055.03 266.481 1054.58 266.082 1054.32 265.772L1057.64 262.759Z" fill="white"/>
<path d="M1095.7 266.082C1094.54 267.323 1093.22 268.209 1091.8 268.74C1091 269.051 1090.2 269.272 1089.45 269.361C1088.65 269.494 1087.9 269.538 1087.1 269.538C1085.11 269.538 1083.38 269.183 1081.92 268.519C1080.46 267.854 1079.17 266.924 1078.11 265.772C1077.67 265.285 1077.22 264.709 1076.78 264.044C1076.34 263.38 1075.98 262.582 1075.63 261.696C1075.27 260.81 1075.01 259.791 1074.83 258.639C1074.61 257.532 1074.52 256.247 1074.52 254.873C1074.52 252.481 1074.87 250.31 1075.54 248.361C1076.2 246.411 1077.13 244.772 1078.37 243.443C1079.61 242.114 1081.08 241.095 1082.85 240.342C1084.58 239.633 1086.57 239.278 1088.74 239.278C1091.53 239.278 1093.97 239.899 1096.1 241.095C1098.22 242.291 1099.91 244.019 1101.15 246.278L1095.61 249.291C1095.3 248.759 1094.9 248.228 1094.46 247.74C1094.01 247.253 1093.57 246.854 1093.13 246.544C1092.73 246.278 1092.24 246.057 1091.58 245.791C1090.91 245.525 1090.11 245.392 1089.14 245.392C1087.81 245.392 1086.7 245.614 1085.82 246.013C1084.89 246.411 1084.13 246.987 1083.56 247.696C1083.11 248.228 1082.76 248.759 1082.49 249.335C1082.23 249.911 1082.01 250.487 1081.87 251.108C1081.74 251.684 1081.65 252.259 1081.61 252.88C1081.56 253.456 1081.52 253.987 1081.52 254.475C1081.52 256.291 1081.74 257.753 1082.18 258.861C1082.63 259.968 1083.11 260.81 1083.65 261.43C1084.44 262.316 1085.37 262.892 1086.3 263.158C1087.28 263.424 1088.12 263.557 1088.87 263.557C1090.69 263.557 1092.2 263.07 1093.3 262.139C1094.46 261.209 1095.08 259.924 1095.25 258.373H1089.01V252.791H1101.32V268.873H1096.05L1095.7 266.082Z" fill="white"/>
<path d="M1105.67 239.987H1117.98C1121.61 239.987 1124.36 240.563 1126.13 241.671C1127.91 242.778 1128.79 244.595 1128.79 247.12C1128.79 249.203 1128.22 250.797 1127.06 251.949C1125.91 253.101 1124.27 253.766 1122.1 253.899C1124.8 254.165 1126.75 254.829 1127.95 255.892C1129.15 257 1129.77 258.639 1129.77 260.854C1129.77 262.449 1129.41 263.823 1128.66 265.019C1127.91 266.215 1126.89 267.101 1125.56 267.677C1124.23 268.253 1122.86 268.563 1121.48 268.696C1120.11 268.785 1118.6 268.829 1117.05 268.829H1105.62V239.987H1105.67ZM1112.49 263.646H1116.79C1117.85 263.646 1118.78 263.601 1119.53 263.513C1120.29 263.424 1120.95 263.247 1121.44 262.981C1121.97 262.715 1122.32 262.361 1122.59 261.918C1122.86 261.475 1122.94 260.854 1122.94 260.101C1122.94 259.348 1122.81 258.728 1122.55 258.285C1122.28 257.842 1121.92 257.443 1121.39 257.221C1120.91 256.956 1120.24 256.778 1119.49 256.69C1118.69 256.601 1117.8 256.557 1116.79 256.557H1112.49V263.646ZM1112.67 251.329H1116.56C1118.47 251.329 1119.89 251.152 1120.77 250.753C1121.7 250.354 1122.15 249.557 1122.15 248.272C1122.15 246.943 1121.7 246.146 1120.77 245.747C1119.84 245.392 1118.42 245.215 1116.56 245.215H1112.67V251.329Z" fill="white"/>
<path d="M990.785 204.987V210.171L1000.04 212.563L1009.17 209.861V205.032L1000.04 199.937L990.785 204.987Z" fill="white"/>
<path d="M1017.59 126.658L1000 136.272L982.457 126.658L966.33 160.329L981.216 178.538V198.386L987.995 202.285L996.501 197.146L990.786 190.323L1009.22 190.278L1003.55 197.146L1012.01 202.24L1018.79 198.342V178.494L1033.67 160.285L1017.59 126.658ZM990.077 185.848L989.855 163.829L982.634 161.835L977.495 154.171L993.754 159L990.077 185.848ZM1017.55 161.791L1010.32 163.785L1010.1 185.804L1006.43 158.956L1022.68 154.127L1017.55 161.791Z" fill="white"/>
<path d="M997.343 293.063C987.153 290.715 973.241 293.285 960.083 300.905C939.526 312.778 928.583 332.405 935.716 344.766C940.279 352.652 951.09 355.665 963.672 353.715C957.912 352.386 953.349 349.506 950.779 345.032C943.647 332.671 954.545 313.044 975.147 301.171C982.545 296.873 990.254 294.171 997.343 293.063Z" fill="white"/>
<path d="M997.52 341.798C1000.58 351.81 1009.79 362.576 1022.95 370.152C1043.51 382.025 1065.97 381.671 1073.1 369.31C1077.67 361.424 1074.83 350.57 1066.85 340.646C1068.58 346.272 1068.36 351.677 1065.79 356.152C1058.66 368.513 1036.2 368.867 1015.64 356.994C1008.2 352.696 1002.04 347.38 997.52 341.798Z" fill="white"/>
<path d="M983.565 317.563C976.432 325.228 971.691 338.563 971.691 353.76C971.691 377.506 983.255 396.779 997.521 396.779C1006.65 396.779 1014.62 388.892 1019.23 377.019C1015.2 381.361 1010.41 383.842 1005.27 383.842C991.008 383.842 979.445 364.57 979.445 340.823C979.489 332.228 980.995 324.253 983.565 317.563Z" fill="white"/>
</svg>
