<svg width="1146" height="449" viewBox="0 0 1146 449" fill="none" xmlns="http://www.w3.org/2000/svg">
<g clip-path="url(#clip0_339_76133)">
<path d="M968.299 42.45C955.199 39.45 937.399 42.75 920.499 52.45C894.099 67.65 880.199 92.8499 889.299 108.65C895.099 118.75 908.999 122.65 925.099 120.05C917.699 118.35 911.899 114.65 908.599 108.95C899.499 93.15 913.399 67.95 939.799 52.75C949.399 47.35 959.199 43.85 968.299 42.45Z" fill="#F0252D"/>
<path d="M968.5 104.85C972.4 117.65 984.2 131.45 1001.1 141.15C1027.5 156.35 1056.3 155.85 1065.4 140.05C1071.2 129.95 1067.6 116.05 1057.4 103.35C1059.6 110.55 1059.3 117.55 1056 123.25C1046.9 139.05 1018.1 139.55 991.7 124.35C982.2 118.85 974.3 112.05 968.5 104.85Z" fill="#00A651"/>
<path d="M950.6 73.8499C941.5 83.6499 935.4 100.75 935.4 120.25C935.4 150.65 950.2 175.35 968.5 175.35C980.2 175.35 990.4 165.25 996.3 150.05C991.1 155.55 985 158.85 978.4 158.85C960.1 158.85 945.3 134.15 945.3 103.75C945.4 92.6498 947.3 82.4499 950.6 73.8499Z" fill="#0078D0"/>
<path d="M276.699 76.5498H298.199C302.199 76.5498 305.399 77.1498 307.799 78.2498C310.199 79.3498 312.099 80.5498 313.499 81.7498C314.099 82.3498 314.699 83.0498 315.299 83.8498C315.899 84.6498 316.499 85.7498 317.099 86.9498C317.599 88.1498 318.099 89.5498 318.399 91.1498C318.699 92.7498 318.899 94.5498 318.899 96.5498C318.899 99.7498 318.399 102.55 317.399 104.95C316.399 107.35 315.099 109.35 313.399 110.95C311.799 112.55 309.699 113.75 307.299 114.75C304.799 115.75 301.999 116.25 298.799 116.25H287.199V137.55H276.699V76.5498ZM297.699 106.95C299.499 106.95 301.099 106.65 302.299 106.15C303.499 105.65 304.499 104.95 305.199 104.25C305.899 103.55 306.499 102.55 307.099 101.35C307.699 100.15 307.999 98.5498 307.999 96.5498C307.999 94.7498 307.799 93.2498 307.299 91.9498C306.799 90.6498 306.199 89.6498 305.399 88.7498C304.099 87.4498 302.799 86.7498 301.299 86.4498C299.799 86.1498 298.699 86.0498 297.899 86.0498H287.199V106.95H297.699Z" fill="#004E82"/>
<path d="M359.799 127.45C359.799 128.75 359.799 129.95 359.799 130.95C359.799 131.95 359.899 132.75 359.999 133.55C360.099 134.35 360.299 134.95 360.499 135.65C360.699 136.25 360.899 136.95 361.199 137.65H352.599C351.799 137.15 351.199 136.45 350.799 135.65C350.599 135.15 350.399 134.75 350.399 134.35C350.399 133.95 350.399 133.65 350.399 133.55C349.399 134.55 348.299 135.35 347.299 135.95C346.299 136.55 345.199 137.05 344.199 137.35C343.199 137.65 342.199 137.85 341.299 137.95C340.399 138.05 339.399 138.15 338.599 138.15C336.999 138.15 335.199 137.95 333.199 137.45C331.199 136.95 329.399 135.95 327.599 134.35C326.499 133.25 325.399 131.95 324.599 130.25C323.699 128.65 323.299 126.65 323.299 124.25C323.299 122.05 323.599 120.25 324.299 118.75C324.999 117.25 325.899 116.05 326.999 115.15C327.899 114.45 328.899 113.75 329.999 113.25C331.199 112.75 332.299 112.25 333.399 111.95C334.499 111.65 335.499 111.35 336.299 111.15C337.099 110.95 337.599 110.85 337.799 110.85L341.599 110.15C341.799 110.05 341.999 110.05 342.099 110.05C342.199 110.05 342.399 110.05 342.499 110.05C342.699 110.05 342.999 109.95 343.399 109.85C343.799 109.75 344.499 109.65 345.399 109.45C346.199 109.25 346.999 109.05 347.699 108.85C348.399 108.65 348.999 108.35 349.499 107.85C349.999 107.35 350.199 106.95 350.399 106.35C350.499 105.85 350.599 105.35 350.599 104.85C350.599 104.15 350.499 103.45 350.299 102.85C350.099 102.25 349.599 101.75 348.899 101.25C348.099 100.65 347.199 100.25 346.099 100.05C344.999 99.9498 344.099 99.8499 343.299 99.8499C341.199 99.8499 339.599 100.05 338.599 100.55C337.599 101.05 336.999 101.35 336.699 101.55C336.199 101.85 335.799 102.45 335.299 103.15C334.799 103.95 334.599 104.85 334.499 106.05H325.299C325.399 104.25 325.799 102.45 326.599 100.65C327.299 98.8498 328.399 97.2499 329.899 95.8499C330.899 94.9499 332.099 94.2498 333.299 93.6498C334.499 93.1498 335.699 92.7499 336.999 92.4499C338.199 92.1499 339.399 92.0499 340.499 91.9499C341.599 91.8499 342.599 91.8499 343.399 91.8499C344.099 91.8499 344.999 91.8499 346.199 91.9499C347.399 92.0499 348.599 92.1499 349.799 92.4499C351.099 92.7499 352.299 93.1498 353.599 93.7498C354.899 94.3498 355.899 95.1498 356.799 96.0498C358.199 97.5498 358.999 99.1499 359.299 100.85C359.599 102.55 359.699 104.15 359.699 105.45V127.45H359.799ZM342.999 117.05C341.499 117.35 340.099 117.75 338.899 118.05C337.699 118.35 336.599 118.75 335.699 119.45C334.999 119.95 334.499 120.55 334.099 121.25C333.699 121.95 333.499 122.85 333.499 123.85C333.499 124.55 333.599 125.25 333.799 126.05C333.999 126.85 334.499 127.55 335.399 128.25C336.199 128.85 337.099 129.35 338.099 129.55C339.099 129.75 339.999 129.85 340.799 129.85C343.199 129.85 345.099 129.45 346.399 128.55C347.699 127.75 348.599 126.85 349.199 125.85C349.799 124.75 350.199 123.45 350.399 122.05C350.499 120.65 350.599 119.25 350.599 117.95V115.15C349.799 115.45 348.899 115.65 348.099 115.95C347.199 116.15 346.299 116.45 345.399 116.65L342.999 117.05Z" fill="#004E82"/>
<path d="M369.399 93.6499H378.799V100.05C379.199 99.3499 379.699 98.6499 380.299 97.8499C380.899 97.0499 381.599 96.3499 382.199 95.7499C383.999 94.2499 385.799 93.3499 387.699 93.0499C389.599 92.7499 391.199 92.6499 392.499 92.7499V103.25C388.299 102.75 384.899 103.55 382.299 105.65C380.899 106.75 379.999 107.95 379.399 109.25C378.899 110.55 378.599 111.95 378.599 113.45V137.45H369.199V93.6499H369.399Z" fill="#004E82"/>
<path d="M432.4 127.45C432.4 128.75 432.4 129.95 432.4 130.95C432.4 131.95 432.5 132.75 432.6 133.55C432.7 134.35 432.9 134.95 433.1 135.65C433.3 136.25 433.5 136.95 433.8 137.65H425.2C424.4 137.15 423.8 136.45 423.4 135.65C423.2 135.15 423 134.75 423 134.35C423 133.95 423 133.65 423 133.55C422 134.55 420.9 135.35 419.9 135.95C418.9 136.55 417.8 137.05 416.8 137.35C415.8 137.65 414.8 137.85 413.9 137.95C413 138.05 412 138.15 411.2 138.15C409.6 138.15 407.8 137.95 405.8 137.45C403.8 136.95 402 135.95 400.2 134.35C399.1 133.25 398 131.95 397.2 130.25C396.3 128.65 395.9 126.65 395.9 124.25C395.9 122.05 396.2 120.25 396.9 118.75C397.6 117.25 398.5 116.05 399.6 115.15C400.5 114.45 401.5 113.75 402.6 113.25C403.8 112.75 404.9 112.25 406 111.95C407.1 111.65 408.1 111.35 408.9 111.15C409.7 110.95 410.2 110.85 410.4 110.85L414.2 110.15C414.4 110.05 414.6 110.05 414.7 110.05C414.8 110.05 415 110.05 415.1 110.05C415.3 110.05 415.6 109.95 416 109.85C416.4 109.75 417.1 109.65 418 109.45C418.8 109.25 419.6 109.05 420.3 108.85C421 108.65 421.6 108.35 422.1 107.85C422.6 107.35 422.8 106.95 423 106.35C423.1 105.85 423.2 105.35 423.2 104.85C423.2 104.15 423.1 103.45 422.9 102.85C422.7 102.25 422.2 101.75 421.5 101.25C420.7 100.65 419.8 100.25 418.7 100.05C417.6 99.9498 416.7 99.8499 415.9 99.8499C413.8 99.8499 412.2 100.05 411.2 100.55C410.2 101.05 409.6 101.35 409.3 101.55C408.8 101.85 408.4 102.45 407.9 103.15C407.4 103.95 407.2 104.85 407.1 106.05H397.9C398 104.25 398.4 102.45 399.2 100.65C399.9 98.8498 401 97.2499 402.5 95.8499C403.5 94.9499 404.7 94.2498 405.9 93.6498C407.1 93.1498 408.3 92.7499 409.6 92.4499C410.8 92.1499 412 92.0499 413.1 91.9499C414.2 91.8499 415.2 91.8499 416 91.8499C416.7 91.8499 417.6 91.8499 418.8 91.9499C420 92.0499 421.2 92.1499 422.4 92.4499C423.7 92.7499 424.9 93.1498 426.2 93.7498C427.4 94.3498 428.5 95.1498 429.4 96.0498C430.8 97.5498 431.6 99.1499 431.9 100.85C432.2 102.55 432.3 104.15 432.3 105.45V127.45H432.4ZM415.6 117.05C414.1 117.35 412.7 117.75 411.5 118.05C410.3 118.35 409.2 118.75 408.3 119.45C407.6 119.95 407.1 120.55 406.7 121.25C406.3 121.95 406.1 122.85 406.1 123.85C406.1 124.55 406.2 125.25 406.4 126.05C406.6 126.85 407.1 127.55 408 128.25C408.8 128.85 409.7 129.35 410.7 129.55C411.7 129.75 412.6 129.85 413.4 129.85C415.8 129.85 417.7 129.45 419 128.55C420.3 127.75 421.2 126.85 421.8 125.85C422.4 124.75 422.8 123.45 423 122.05C423.1 120.65 423.2 119.25 423.2 117.95V115.15C422.4 115.45 421.5 115.65 420.7 115.95C419.8 116.15 418.9 116.45 418 116.65L415.6 117.05Z" fill="#004E82"/>
<path d="M451.4 76.5498H442V137.55H451.4V76.5498Z" fill="#004E82"/>
<path d="M466.399 141.35C466.999 141.35 467.499 141.25 468.099 141.15C468.699 141.05 469.199 140.85 469.599 140.55C469.899 140.35 470.099 140.05 470.399 139.55C470.599 139.15 470.699 138.65 470.699 137.95C470.699 137.55 470.699 137.15 470.599 136.65C470.499 136.25 470.399 135.85 470.299 135.55L456.699 93.45H466.599L474.099 118.25C474.199 118.65 474.299 119.15 474.499 119.75C474.599 120.35 474.799 120.95 474.899 121.55C474.999 122.15 475.099 122.75 475.199 123.35C475.299 123.95 475.399 124.35 475.499 124.75C475.699 123.25 475.999 121.95 476.199 120.85C476.499 119.75 476.699 118.85 476.799 118.25L483.699 93.45H493.599L479.999 137.45C479.199 140.05 478.499 141.95 477.799 143.35C477.099 144.65 476.399 145.75 475.699 146.45C474.399 147.75 472.999 148.55 471.499 148.85C469.999 149.15 468.499 149.35 466.999 149.35H460.799V141.25H466.399V141.35Z" fill="#004E82"/>
<path d="M499.299 93.6498H508.599V97.7498C511.799 94.4498 515.499 92.8499 519.899 92.8499C522.499 92.8499 524.799 93.3499 526.799 94.4499C528.799 95.5499 530.399 97.1498 531.599 99.2498C533.499 97.1498 535.599 95.5499 537.899 94.4499C540.199 93.3499 542.599 92.8499 545.099 92.8499C549.299 92.8499 552.699 94.1499 555.199 96.8499C557.699 99.5499 558.999 103.35 558.999 108.25V137.65H549.699V109.95C549.699 104.15 547.399 101.35 542.799 101.35C540.299 101.35 538.199 102.25 536.399 104.15C534.599 106.05 533.699 108.45 533.699 111.55V137.65H524.599V109.95C524.599 104.15 522.299 101.35 517.799 101.35C516.599 101.35 515.399 101.55 514.299 102.05C513.199 102.55 512.199 103.25 511.399 104.15C510.599 105.05 509.899 106.15 509.399 107.35C508.899 108.65 508.699 109.95 508.699 111.45V137.55H499.399V93.6498H499.299Z" fill="#004E82"/>
<path d="M568.4 93.6499H577.7V97.7499C578 97.3499 578.5 96.8499 579.1 96.3499C579.7 95.8499 580.5 95.2499 581.4 94.7499C582.3 94.2499 583.4 93.75 584.7 93.45C586 93.15 587.4 92.95 589.1 92.95C590.1 92.95 591.2 93.0499 592.4 93.2499C593.6 93.4499 594.8 93.7499 596 94.2499C597.2 94.7499 598.4 95.4499 599.5 96.2499C600.7 97.0499 601.7 98.15 602.8 99.45C603.4 100.15 604 101.05 604.6 102.05C605.2 103.05 605.7 104.25 606.2 105.55C606.7 106.95 607 108.45 607.4 110.15C607.7 111.85 607.9 113.75 607.9 115.85C607.9 119.15 607.5 122.25 606.6 125.05C605.7 127.85 604.5 130.25 602.9 132.35C601.3 134.35 599.3 135.95 597 137.15C594.7 138.35 592.1 138.85 589.1 138.85C588.4 138.85 587.5 138.75 586.6 138.65C585.7 138.55 584.7 138.35 583.7 137.95C582.7 137.65 581.7 137.15 580.6 136.45C579.6 135.85 578.6 134.95 577.7 133.85V149.45H568.4V93.6499ZM577.7 115.85C577.7 116.65 577.7 117.55 577.8 118.45C577.9 119.35 578 120.35 578.1 121.35C578.3 122.35 578.5 123.25 578.8 124.25C579.1 125.15 579.6 126.05 580.1 126.75C581.1 128.15 582.3 129.05 583.7 129.35C585.1 129.75 586.3 129.95 587.4 129.95C590.8 129.95 593.4 128.65 595.3 126.15C596 125.15 596.6 123.85 597.2 122.25C597.7 120.65 598 118.55 598 115.95C598 113.15 597.7 110.85 597 109.05C596.4 107.25 595.6 105.85 594.6 104.95C593.9 104.25 593 103.55 591.7 102.95C590.5 102.35 589 102.05 587.1 102.05C585.8 102.05 584.8 102.25 583.9 102.55C583 102.85 582.2 103.35 581.6 103.75C580.6 104.55 579.9 105.45 579.4 106.55C578.9 107.65 578.5 108.75 578.2 109.95C577.9 111.15 577.8 112.25 577.7 113.35C577.8 114.15 577.7 115.05 577.7 115.85Z" fill="#004E82"/>
<path d="M615.4 76.5498H624.8V87.0498H615.4V76.5498ZM615.4 93.6498H624.8V137.65H615.4V93.6498Z" fill="#004E82"/>
<path d="M662.899 109.15C662.599 108.35 662.199 107.45 661.599 106.55C661.099 105.55 660.499 104.85 659.799 104.15C659.199 103.55 658.299 102.85 657.099 102.25C655.899 101.65 654.499 101.35 652.799 101.35C651.299 101.35 649.999 101.65 648.899 102.15C647.799 102.65 646.799 103.45 645.899 104.35C644.999 105.35 644.099 106.65 643.299 108.35C642.499 110.05 642.099 112.35 642.099 115.15C642.099 116.75 642.299 118.35 642.599 119.85C642.899 121.35 643.399 122.75 643.999 123.95C644.299 124.55 644.799 125.25 645.299 125.85C645.799 126.45 646.399 127.05 647.199 127.65C647.899 128.15 648.799 128.65 649.699 128.95C650.599 129.25 651.799 129.45 652.999 129.45C654.699 129.45 656.099 129.15 657.199 128.55C658.299 127.95 659.299 127.25 659.999 126.65C660.699 126.05 661.299 125.25 661.799 124.45C662.299 123.55 662.699 122.75 662.999 121.95L671.299 126.45C670.499 128.15 669.499 129.85 668.299 131.45C667.099 133.05 665.699 134.45 664.199 135.55C662.599 136.75 660.799 137.55 658.899 138.05C656.999 138.55 654.999 138.85 652.899 138.85C650.999 138.85 649.299 138.65 647.799 138.25C646.299 137.85 644.899 137.35 643.699 136.75C642.499 136.15 641.499 135.55 640.699 134.85C639.899 134.15 639.299 133.65 638.799 133.15C636.799 131.15 635.299 128.65 634.099 125.55C632.899 122.55 632.299 119.15 632.299 115.35C632.299 111.85 632.799 108.65 633.899 105.85C634.999 102.95 636.499 100.55 638.399 98.5499C640.199 96.6499 642.399 95.1499 644.899 94.0499C647.399 92.9499 650.099 92.45 653.099 92.45C655.499 92.45 657.699 92.75 659.599 93.45C661.499 94.15 663.199 95.0499 664.699 96.1499C665.699 96.9499 666.699 97.8499 667.499 98.7499C668.299 99.6499 668.999 100.55 669.499 101.45C669.999 102.35 670.499 103.05 670.799 103.75C671.099 104.45 671.299 104.85 671.399 105.15L662.899 109.15Z" fill="#004E82"/>
<path d="M682.2 124.75C683 125.55 683.8 126.35 684.8 127.05C685.8 127.75 686.8 128.45 688 128.85C688.9 129.15 689.9 129.45 691.1 129.75C692.2 129.95 693.4 130.05 694.8 130.05C695.4 130.05 696.4 129.95 697.8 129.75C699.2 129.55 700.4 129.05 701.5 128.15C702.2 127.65 702.7 127.05 703 126.35C703.3 125.65 703.4 125.05 703.4 124.45C703.4 123.15 703.1 122.25 702.5 121.75C701.9 121.25 701.3 120.85 700.5 120.55C699.7 120.25 698.8 120.05 697.7 119.85C696.7 119.65 695.3 119.45 693.6 119.15L690.9 118.75C689.6 118.55 688.2 118.25 686.9 117.95C685.5 117.65 684.2 117.25 683 116.55C681.2 115.65 679.7 114.45 678.5 112.95C677.3 111.45 676.8 109.25 676.8 106.55C676.8 105.25 677 104.15 677.3 103.15C677.6 102.15 678 101.25 678.5 100.35C679 99.5499 679.5 98.7499 680 98.1499C680.5 97.5499 681.1 97.0499 681.6 96.6499C683.4 95.1499 685.4 94.05 687.8 93.45C690.1 92.85 692.5 92.45 694.9 92.45C696.8 92.45 698.6 92.65 700.2 92.95C701.8 93.25 703.2 93.7499 704.4 94.1499C705.7 94.7499 707 95.4499 708.3 96.3499C709.6 97.2499 710.8 98.1499 711.8 99.1499L706.2 105.15C705.5 104.55 704.7 103.85 703.7 103.25C702.7 102.65 701.6 102.05 700.3 101.65C699.3 101.35 698.4 101.05 697.5 100.85C696.6 100.65 695.7 100.55 694.6 100.55C694 100.55 693.2 100.55 692.2 100.65C691.2 100.75 690.3 100.95 689.3 101.35C688 101.85 687.2 102.45 686.8 103.25C686.4 103.95 686.2 104.65 686.2 105.25C686.2 106.35 686.5 107.15 687.1 107.65C687.7 108.15 688.3 108.45 689 108.75C689.9 109.05 690.8 109.35 691.7 109.45C692.6 109.55 693.7 109.75 695 109.95L700.6 110.95C701.6 111.15 703 111.45 704.7 111.95C706.4 112.45 707.9 113.35 709.4 114.65C711.8 116.75 713 119.65 713 123.45C713 125.85 712.6 127.85 711.7 129.45C710.9 131.05 709.9 132.35 708.9 133.35C707.6 134.65 705.8 135.85 703.5 136.85C701.2 137.85 698.3 138.45 694.7 138.45C692.9 138.45 690.8 138.25 688.6 137.95C686.4 137.65 684.4 137.05 682.5 136.25C680.5 135.35 678.9 134.45 677.6 133.35C676.4 132.25 675.5 131.35 674.9 130.75L682.2 124.75Z" fill="#004E82"/>
<path d="M763.6 131.75C761.1 134.45 758.4 136.25 755.4 137.35C753.7 137.95 752.1 138.45 750.4 138.65C748.7 138.95 747.1 139.05 745.5 139.05C741.3 139.05 737.6 138.35 734.5 136.95C731.4 135.55 728.7 133.55 726.5 131.15C725.5 130.15 724.6 128.85 723.7 127.45C722.8 126.05 722 124.35 721.3 122.45C720.6 120.55 720 118.45 719.6 116.05C719.2 113.65 719 110.95 719 108.05C719 102.95 719.7 98.4499 721.1 94.3499C722.5 90.2499 724.5 86.8499 727.1 83.9499C729.7 81.1499 732.8 78.9499 736.5 77.4499C740.2 75.9499 744.3 75.1499 748.9 75.1499C754.8 75.1499 759.9 76.4499 764.4 78.9499C768.9 81.4499 772.4 85.1499 775.1 89.9499L763.3 96.3499C762.6 95.1499 761.8 94.0499 760.9 93.0499C760 91.9499 759.1 91.1499 758.1 90.5499C757.3 90.0499 756.2 89.5499 754.8 88.9499C753.4 88.4499 751.7 88.1499 749.6 88.1499C746.8 88.1499 744.5 88.5499 742.6 89.4499C740.7 90.3499 739.1 91.4499 737.8 92.9499C736.9 94.0499 736.1 95.2499 735.6 96.4499C735 97.6499 734.6 98.9499 734.3 100.15C734 101.35 733.8 102.65 733.7 103.85C733.6 105.05 733.5 106.25 733.5 107.25C733.5 111.15 734 114.25 734.9 116.55C735.8 118.85 736.9 120.65 738 121.95C739.7 123.85 741.6 125.05 743.7 125.65C745.7 126.15 747.5 126.45 749.1 126.45C753 126.45 756.1 125.45 758.5 123.45C760.9 121.45 762.3 118.75 762.6 115.45H749.4V103.65H775.4V137.65H764.3L763.6 131.75Z" fill="#004E82"/>
<path d="M785.6 76.5498H811.7C819.4 76.5498 825.2 77.7498 828.9 80.0498C832.7 82.4498 834.6 86.2498 834.6 91.5498C834.6 95.9498 833.4 99.3498 831 101.75C828.6 104.15 825.1 105.55 820.5 105.85C826.2 106.35 830.3 107.75 832.9 110.05C835.5 112.35 836.7 115.85 836.7 120.55C836.7 123.85 835.9 126.85 834.3 129.35C832.7 131.85 830.5 133.75 827.8 134.95C825 136.15 822.1 136.85 819.2 137.05C816.3 137.25 813.2 137.35 809.9 137.35H785.7V76.5498H785.6ZM800 126.65H809.1C811.3 126.65 813.3 126.55 814.9 126.35C816.5 126.15 817.9 125.85 819 125.25C820.1 124.75 820.9 123.95 821.4 122.95C821.9 121.95 822.2 120.65 822.2 119.05C822.2 117.45 821.9 116.15 821.4 115.15C820.9 114.15 820 113.45 819 112.85C817.9 112.35 816.6 111.95 814.9 111.75C813.3 111.55 811.3 111.45 809.2 111.45H800.1V126.65H800ZM800.4 100.55H808.6C812.6 100.55 815.6 100.15 817.5 99.3498C819.4 98.5498 820.4 96.7498 820.4 94.0498C820.4 91.2498 819.4 89.5498 817.5 88.7498C815.5 87.9498 812.6 87.5498 808.6 87.5498H800.4V100.55Z" fill="#004E82"/>
<path d="M195.999 37.9499C208.299 30.1499 209.299 26.9499 212.099 23.3499C183.899 44.9499 113.799 20.1499 128.999 95.9499C134.399 98.9499 142.499 103.35 145.099 104.75L161.999 95.6498C157.499 53.5498 183.599 46.6499 195.999 37.9499Z" fill="#DB0814"/>
<path d="M104.299 58.45C92.199 69.15 86.599 88.9499 92.899 104.85C93.699 106.85 94.599 108.85 95.799 110.95L98.999 115.85C101.199 118.85 104.399 122.15 107.399 125.05L113.399 112.55C92.199 89.5499 99.399 66.05 104.299 58.45Z" fill="#DB0814"/>
<path d="M100.2 139.85L104.5 130.75C96.2998 123.05 90.5998 115.45 87.6998 107.45C86.2998 103.65 85.4998 100.35 85.4998 95.8499C82.0998 111.55 83.5998 126.15 91.2998 141.55C98.5998 156.25 110.1 168.05 118.3 175.35L118.2 161.25L100.2 139.85Z" fill="#004E82"/>
<path d="M105.3 81.0499C106.7 92.3499 112.1 101.35 116.1 106.85L122.1 94.1499C122.1 94.1499 120.6 83.6499 120.3 78.7499C119.3 63.1499 124.7 50.75 136 42.95C125.7 45.55 101.8 51.9499 105.3 81.0499Z" fill="#004E82"/>
<path d="M227.399 11.45C205.999 57.35 163.499 41.15 167.899 93.45L173.799 105.75C178.199 93.6499 177.999 87.25 184.199 78.45C198.199 58.5499 217.699 72.0499 227.399 11.45Z" fill="#004E82"/>
<path d="M224.399 45.0498C219.699 61.8498 205.499 69.0498 201.699 71.3498C184.899 81.2498 182.799 95.0498 177.699 113.95L182.699 124.45C196.599 92.8498 194.399 92.9498 211.699 82.0498C216.399 79.0498 224.599 70.4498 224.399 45.0498Z" fill="#DB0814"/>
<path d="M185.999 131.45L189.899 139.45L172.299 161.25C172.299 163.35 172.299 169.65 172.299 175.65C191.699 158.55 199.999 150.95 204.499 125.65C205.599 119.25 208.199 92.0498 215.199 87.0498C196.199 95.2498 192.999 119.05 185.999 131.45Z" fill="#004E82"/>
<path d="M134.9 188.85V194.65L145.2 197.35L155.5 194.35V188.95L145.2 183.15L134.9 188.85Z" fill="#DB0814"/>
<path d="M164.999 100.75L145.199 111.55L125.399 100.75L107.299 138.65L124.099 159.15V181.45L131.699 185.85L141.199 180.05L134.799 172.35L155.499 172.25L149.099 179.95L158.599 185.75L166.199 181.35V159.05L182.999 138.55L164.999 100.75ZM133.999 167.35L133.799 142.55L125.699 140.35L119.899 131.75L138.199 137.25L133.999 167.35ZM164.999 140.25L156.899 142.45L156.699 167.25L152.499 137.05L170.799 131.55L164.999 140.25Z" fill="#DB0814"/>
</g>
<rect x="136.383" y="349.05" width="106.704" height="4" transform="rotate(-90 136.383 349.05)" fill="#EAEDF7"/>
<rect x="536.301" y="349.05" width="134.151" height="4" transform="rotate(-90 536.301 349.05)" fill="#EAEDF7"/>
<rect x="974.674" y="349.05" width="128.662" height="3.30287" transform="rotate(-90 974.674 349.05)" fill="#EAEDF7"/>
<rect x="93.5684" y="347.792" width="88" height="88" rx="44" fill="#EAEDF7"/>
<path d="M123.96 402.792H130.84L132.44 398.032H142.68L144.28 402.792H151.16L141.04 376.072H134.08L123.96 402.792ZM137.52 382.752L140.96 392.912H134.16L137.52 382.752Z" fill="#193C66"/>
<rect x="493.184" y="347.792" width="88" height="88" rx="44" fill="#EAEDF7"/>
<path d="M525.994 376.072V402.792H538.114C544.594 402.792 548.914 400.552 548.914 394.552C548.914 391.312 547.154 389.432 544.674 388.592C546.674 387.352 547.834 385.472 547.834 383.032C547.834 377.432 543.474 376.072 537.674 376.072H525.994ZM538.154 391.512C540.874 391.512 542.234 392.632 542.234 394.512C542.234 396.392 540.874 397.552 538.154 397.552H532.314V391.512H538.154ZM537.874 381.232C539.994 381.232 541.274 382.232 541.274 383.912C541.274 385.552 539.994 386.632 537.874 386.632H532.314V381.232H537.874Z" fill="#193C66"/>
<rect x="932.588" y="347.792" width="88" height="88" rx="44" fill="#EAEDF7"/>
<path d="M977.735 403.272C982.775 403.272 986.855 400.912 989.015 397.112L983.455 395.072C982.215 397.392 979.775 398.072 977.775 398.072C973.975 398.072 971.055 395.032 971.055 389.432C971.055 383.992 973.975 380.792 977.695 380.792C979.855 380.792 982.055 381.672 983.255 383.832L988.855 381.792C986.815 378.032 982.935 375.592 977.895 375.592C969.615 375.592 964.375 380.992 964.375 389.432C964.375 397.952 969.415 403.272 977.735 403.272Z" fill="#193C66"/>
<defs>
<clipPath id="clip0_339_76133">
<rect width="986" height="187" fill="white" transform="translate(83 11.25)"/>
</clipPath>
</defs>
</svg>
