<svg width="911" height="779" viewBox="0 0 911 779" fill="none" xmlns="http://www.w3.org/2000/svg">
<g clip-path="url(#clip0_914_14090)">
<path d="M537.263 121.126C556.023 109.202 557.542 104.341 561.795 98.9485C518.807 131.835 412.099 94.0877 435.187 209.607C443.466 214.164 455.769 220.847 459.719 223.05L485.466 209.227C478.478 144.974 518.352 134.341 537.263 121.126Z" fill="#DB0814"/>
<path d="M397.441 152.417C378.985 168.746 370.479 198.822 380.049 223.05C381.264 226.088 382.707 229.202 384.53 232.315L389.391 239.759C392.732 244.24 397.593 249.328 402.15 253.809L411.264 234.746C378.985 199.809 389.922 164.037 397.441 152.417Z" fill="#DB0814"/>
<path d="M391.213 276.366L397.745 262.543C385.289 250.771 376.631 239.151 372.074 227.075C369.871 221.227 368.656 216.29 368.656 209.379C363.492 233.303 365.846 255.48 377.466 279.024C388.555 301.43 406.099 319.354 418.631 330.518L418.403 308.949L391.213 276.366Z" fill="#004E82"/>
<path d="M398.959 186.746C401.01 203.987 409.289 217.733 415.44 226.088L424.63 206.797C424.63 206.797 422.276 190.847 421.82 183.328C420.301 159.48 428.504 140.721 445.82 128.797C430.023 132.746 393.643 142.468 398.959 186.746Z" fill="#004E82"/>
<path d="M585.036 80.7207C552.454 150.594 487.593 125.911 494.352 205.733L503.314 224.417C509.922 205.961 509.77 196.24 519.188 182.873C540.605 152.493 570.226 172.999 585.036 80.7207Z" fill="#004E82"/>
<path d="M580.403 131.91C573.188 157.505 551.542 168.518 545.77 171.936C520.099 186.974 517.061 208.012 509.238 236.872L516.909 252.822C538.099 204.594 534.757 204.746 561.188 188.189C568.327 183.784 580.707 170.569 580.403 131.91Z" fill="#DB0814"/>
<path d="M521.922 263.607L527.77 275.759L501.036 308.948C500.96 312.138 501.036 321.708 500.96 330.974C530.504 304.999 543.188 293.379 550.099 254.872C551.846 245.151 555.719 203.759 566.428 196.012C537.492 208.467 532.631 244.619 521.922 263.607Z" fill="#004E82"/>
<path d="M238.251 411.1H255.719C258.909 411.1 261.567 411.556 263.542 412.467C265.517 413.379 267.036 414.29 268.099 415.278C268.555 415.733 269.086 416.341 269.542 417.024C270.074 417.708 270.529 418.543 270.985 419.531C271.441 420.518 271.821 421.657 272.048 422.948C272.352 424.24 272.504 425.683 272.504 427.354C272.504 429.936 272.124 432.214 271.289 434.113C270.529 436.012 269.39 437.607 268.099 438.974C266.808 440.265 265.137 441.252 263.162 442.088C261.188 442.923 258.833 443.303 256.327 443.303H246.833V460.619H238.251V411.1ZM255.264 435.708C256.783 435.708 257.998 435.48 258.985 435.024C259.972 434.569 260.808 434.113 261.34 433.505C261.871 432.974 262.403 432.138 262.859 431.151C263.314 430.164 263.542 428.873 263.542 427.278C263.542 425.835 263.314 424.619 262.935 423.556C262.555 422.493 262.023 421.657 261.416 420.974C260.352 419.91 259.289 419.303 258.074 419.075C256.859 418.847 255.947 418.695 255.34 418.695H246.681V435.708H255.264Z" fill="#004E82"/>
<path d="M304.707 452.417C304.707 453.48 304.707 454.392 304.707 455.227C304.707 455.987 304.783 456.746 304.859 457.354C304.935 457.961 305.087 458.493 305.239 459.025C305.39 459.556 305.618 460.088 305.846 460.62H299.011C298.327 460.164 297.871 459.632 297.568 459.025C297.416 458.645 297.264 458.265 297.264 457.961C297.264 457.658 297.264 457.43 297.264 457.354C296.428 458.113 295.593 458.797 294.757 459.252C293.922 459.708 293.087 460.088 292.251 460.392C291.416 460.62 290.656 460.847 289.897 460.923C289.137 460.999 288.378 461.075 287.694 461.075C286.403 461.075 284.96 460.847 283.289 460.468C281.694 460.088 280.175 459.252 278.808 457.961C277.897 457.05 277.061 455.987 276.378 454.696C275.694 453.404 275.314 451.809 275.314 449.835C275.314 448.088 275.618 446.569 276.15 445.354C276.682 444.139 277.441 443.227 278.352 442.468C279.036 441.86 279.871 441.328 280.783 440.949C281.694 440.493 282.606 440.189 283.517 439.885C284.428 439.582 285.188 439.43 285.871 439.278C286.555 439.126 286.935 439.05 287.087 438.974L290.201 438.442C290.352 438.366 290.504 438.366 290.656 438.366C290.732 438.366 290.884 438.366 291.036 438.366C291.188 438.366 291.416 438.29 291.72 438.215C292.023 438.139 292.555 438.063 293.314 437.911C293.998 437.759 294.606 437.607 295.137 437.455C295.745 437.303 296.201 436.999 296.58 436.62C296.96 436.24 297.188 435.86 297.264 435.404C297.34 434.949 297.416 434.569 297.416 434.189C297.416 433.582 297.34 433.05 297.112 432.594C296.96 432.139 296.58 431.683 295.973 431.303C295.289 430.771 294.53 430.468 293.694 430.392C292.859 430.24 292.099 430.24 291.416 430.24C289.669 430.24 288.454 430.392 287.618 430.771C286.859 431.151 286.327 431.455 286.099 431.607C285.72 431.911 285.34 432.366 284.96 432.974C284.58 433.582 284.352 434.341 284.352 435.328H276.909C276.985 433.885 277.365 432.442 277.973 430.923C278.58 429.404 279.492 428.113 280.631 427.05C281.466 426.29 282.378 425.683 283.365 425.303C284.352 424.847 285.34 424.544 286.327 424.392C287.314 424.164 288.302 424.088 289.213 424.012C290.125 423.936 290.884 423.936 291.568 423.936C292.099 423.936 292.859 423.936 293.846 424.012C294.757 424.088 295.745 424.164 296.808 424.392C297.871 424.62 298.859 424.923 299.846 425.379C300.833 425.835 301.745 426.442 302.504 427.278C303.644 428.493 304.327 429.784 304.555 431.227C304.783 432.594 304.935 433.885 304.935 434.949V452.417H304.707ZM291.112 443.911C289.897 444.215 288.757 444.442 287.77 444.67C286.783 444.898 285.947 445.278 285.188 445.809C284.656 446.265 284.201 446.721 283.897 447.252C283.593 447.784 283.441 448.544 283.441 449.379C283.441 449.911 283.517 450.518 283.745 451.202C283.897 451.885 284.352 452.417 285.036 452.949C285.72 453.48 286.403 453.784 287.239 453.936C287.998 454.088 288.757 454.164 289.441 454.164C291.416 454.164 292.935 453.86 293.922 453.177C294.985 452.493 295.745 451.733 296.201 450.974C296.732 450.063 297.036 448.999 297.112 447.86C297.264 446.721 297.264 445.582 297.264 444.518V442.24C296.58 442.468 295.897 442.696 295.213 442.847C294.454 442.999 293.77 443.227 293.011 443.379L291.112 443.911Z" fill="#004E82"/>
<path d="M311.77 424.923H319.44V430.088C319.744 429.556 320.2 428.949 320.656 428.265C321.111 427.657 321.643 427.05 322.251 426.518C323.694 425.303 325.213 424.619 326.732 424.316C328.251 424.088 329.542 424.012 330.681 424.088V432.594C327.263 432.214 324.529 432.898 322.402 434.569C321.263 435.48 320.504 436.468 320.124 437.531C319.668 438.594 319.516 439.733 319.516 440.949V460.392H311.845V424.923H311.77Z" fill="#004E82"/>
<path d="M362.125 452.417C362.125 453.48 362.125 454.392 362.125 455.227C362.125 455.987 362.201 456.746 362.276 457.354C362.352 457.961 362.504 458.493 362.656 459.025C362.808 459.556 363.036 460.088 363.264 460.62H356.352C355.669 460.164 355.213 459.632 354.909 459.025C354.758 458.645 354.606 458.265 354.606 457.961C354.606 457.658 354.606 457.43 354.606 457.354C353.77 458.113 352.935 458.797 352.099 459.252C351.264 459.708 350.428 460.088 349.593 460.392C348.758 460.62 347.998 460.847 347.239 460.923C346.479 460.999 345.72 461.075 345.036 461.075C343.745 461.075 342.302 460.847 340.631 460.468C339.036 460.088 337.517 459.252 336.15 457.961C335.239 457.05 334.403 455.987 333.72 454.696C333.036 453.404 332.656 451.809 332.656 449.835C332.656 448.088 332.96 446.569 333.492 445.354C334.023 444.139 334.783 443.227 335.694 442.468C336.378 441.86 337.213 441.328 338.125 440.949C339.036 440.493 339.947 440.189 340.859 439.885C341.77 439.582 342.53 439.43 343.213 439.278C343.897 439.126 344.276 439.05 344.428 438.974L347.542 438.442C347.694 438.366 347.846 438.366 347.998 438.366C348.074 438.366 348.226 438.366 348.378 438.366C348.53 438.366 348.758 438.29 349.061 438.215C349.365 438.139 349.897 438.063 350.656 437.911C351.34 437.759 351.947 437.607 352.479 437.455C353.087 437.303 353.542 436.999 353.922 436.62C354.302 436.24 354.53 435.86 354.606 435.404C354.682 434.949 354.758 434.569 354.758 434.189C354.758 433.582 354.682 433.05 354.454 432.594C354.302 432.139 353.922 431.683 353.314 431.303C352.631 430.771 351.871 430.468 351.036 430.392C350.201 430.24 349.441 430.24 348.758 430.24C347.011 430.24 345.795 430.392 344.96 430.771C344.201 431.151 343.669 431.455 343.441 431.607C343.061 431.911 342.682 432.366 342.302 432.974C341.922 433.582 341.694 434.341 341.694 435.328H334.251C334.327 433.885 334.707 432.442 335.314 430.923C335.922 429.404 336.833 428.113 337.973 427.05C338.808 426.29 339.72 425.683 340.707 425.303C341.694 424.847 342.682 424.544 343.669 424.392C344.656 424.164 345.644 424.088 346.555 424.012C347.466 423.936 348.226 423.936 348.909 423.936C349.441 423.936 350.201 423.936 351.188 424.012C352.099 424.088 353.087 424.164 354.15 424.392C355.213 424.62 356.201 424.923 357.188 425.379C358.175 425.835 359.087 426.442 359.846 427.278C360.985 428.493 361.669 429.784 361.897 431.227C362.125 432.594 362.276 433.885 362.276 434.949V452.417H362.125ZM348.53 443.911C347.314 444.215 346.175 444.442 345.188 444.67C344.201 444.898 343.365 445.278 342.606 445.809C342.074 446.265 341.618 446.721 341.314 447.252C341.011 447.784 340.859 448.544 340.859 449.379C340.859 449.911 340.935 450.518 341.163 451.202C341.314 451.885 341.77 452.417 342.454 452.949C343.137 453.48 343.821 453.784 344.656 453.936C345.416 454.088 346.175 454.164 346.859 454.164C348.833 454.164 350.352 453.86 351.34 453.177C352.403 452.493 353.163 451.733 353.618 450.974C354.15 450.063 354.454 448.999 354.53 447.86C354.682 446.721 354.682 445.582 354.682 444.518V442.24C353.998 442.468 353.314 442.696 352.631 442.847C351.871 442.999 351.188 443.227 350.428 443.379L348.53 443.911Z" fill="#004E82"/>
<path d="M369.111 411.1H376.706V460.543H369.111V411.1Z" fill="#004E82"/>
<path d="M388.175 463.582C388.631 463.582 389.087 463.506 389.542 463.43C389.998 463.354 390.378 463.202 390.758 462.974C390.985 462.822 391.213 462.518 391.365 462.214C391.517 461.911 391.669 461.455 391.669 460.923C391.669 460.62 391.669 460.24 391.593 459.936C391.517 459.556 391.441 459.328 391.365 459.025L380.353 424.923H388.403L394.479 445.05C394.555 445.354 394.707 445.809 394.783 446.265C394.935 446.721 395.011 447.252 395.087 447.708C395.163 448.164 395.239 448.695 395.391 449.151C395.466 449.607 395.542 449.987 395.618 450.29C395.77 449.075 395.998 448.012 396.226 447.176C396.454 446.265 396.606 445.582 396.758 445.05L402.378 424.923H410.428L399.416 460.544C398.732 462.67 398.201 464.265 397.593 465.328C397.061 466.392 396.454 467.227 395.846 467.835C394.783 468.898 393.72 469.506 392.428 469.733C391.213 469.961 389.998 470.113 388.783 470.113H383.77V463.506H388.175V463.582Z" fill="#004E82"/>
<path d="M414.149 424.923H421.744V428.265C424.327 425.607 427.365 424.24 430.934 424.24C433.061 424.24 434.884 424.695 436.554 425.607C438.225 426.518 439.516 427.809 440.504 429.48C442.023 427.733 443.77 426.442 445.592 425.607C447.415 424.771 449.39 424.316 451.441 424.316C454.858 424.316 457.592 425.379 459.567 427.581C461.618 429.784 462.605 432.822 462.605 436.771V460.619H455.01V438.214C455.01 433.581 453.111 431.227 449.39 431.227C447.415 431.227 445.668 431.987 444.225 433.506C442.782 435.025 442.023 436.999 442.023 439.506V460.619H434.656V438.214C434.656 433.581 432.833 431.227 429.111 431.227C428.124 431.227 427.213 431.455 426.301 431.835C425.39 432.214 424.63 432.822 423.947 433.506C423.263 434.265 422.732 435.1 422.352 436.164C421.972 437.227 421.744 438.29 421.744 439.506V460.619H414.149V424.923Z" fill="#004E82"/>
<path d="M469.441 424.923H477.036V428.265C477.34 427.961 477.719 427.582 478.175 427.126C478.631 426.67 479.314 426.214 479.998 425.835C480.757 425.379 481.669 425.075 482.656 424.771C483.719 424.468 484.859 424.316 486.226 424.316C487.061 424.316 487.973 424.392 488.96 424.544C489.947 424.695 490.859 424.923 491.846 425.379C492.833 425.759 493.821 426.29 494.732 426.974C495.644 427.657 496.555 428.493 497.39 429.632C497.846 430.24 498.302 430.923 498.833 431.759C499.289 432.594 499.745 433.506 500.125 434.645C500.504 435.708 500.808 436.999 501.036 438.366C501.264 439.733 501.416 441.252 501.416 442.923C501.416 445.657 501.036 448.088 500.352 450.366C499.669 452.645 498.681 454.619 497.314 456.214C496.023 457.885 494.428 459.176 492.53 460.088C490.631 460.999 488.504 461.455 486.15 461.455C485.542 461.455 484.859 461.379 484.099 461.303C483.34 461.227 482.58 460.999 481.745 460.771C480.909 460.468 480.074 460.088 479.238 459.556C478.403 459.025 477.568 458.341 476.884 457.43V470.037H469.289V424.923H469.441ZM477.036 442.923C477.036 443.607 477.036 444.29 477.112 445.05C477.188 445.809 477.264 446.569 477.416 447.328C477.568 448.088 477.719 448.923 478.023 449.607C478.251 450.366 478.631 451.05 479.087 451.657C479.922 452.797 480.909 453.48 481.973 453.784C483.036 454.088 484.023 454.24 484.935 454.24C487.669 454.24 489.795 453.176 491.314 451.126C491.846 450.366 492.378 449.303 492.833 448.012C493.289 446.721 493.517 444.974 493.517 442.923C493.517 440.645 493.289 438.746 492.757 437.303C492.226 435.86 491.618 434.721 490.783 433.961C490.251 433.354 489.416 432.822 488.504 432.29C487.517 431.835 486.302 431.531 484.783 431.531C483.719 431.531 482.884 431.683 482.125 431.987C481.365 432.29 480.757 432.594 480.302 432.974C479.542 433.582 478.935 434.341 478.479 435.252C478.023 436.164 477.719 437.075 477.568 437.987C477.34 438.898 477.264 439.809 477.188 440.721C477.036 441.556 477.036 442.316 477.036 442.923Z" fill="#004E82"/>
<path d="M506.808 411.1H514.403V419.607H506.808V411.1ZM506.808 424.923H514.403V460.543H506.808V424.923Z" fill="#004E82"/>
<path d="M544.554 437.531C544.327 436.847 543.947 436.164 543.567 435.404C543.111 434.645 542.656 433.961 542.124 433.505C541.592 432.974 540.909 432.518 539.921 431.986C538.934 431.531 537.795 431.227 536.428 431.227C535.213 431.227 534.149 431.455 533.238 431.911C532.327 432.366 531.491 432.974 530.808 433.733C530.048 434.493 529.365 435.632 528.681 436.999C527.997 438.366 527.694 440.189 527.694 442.467C527.694 443.759 527.846 445.05 528.073 446.265C528.301 447.48 528.681 448.543 529.213 449.531C529.516 450.062 529.82 450.594 530.2 451.05C530.58 451.581 531.111 452.037 531.719 452.493C532.327 452.948 533.01 453.328 533.77 453.556C534.529 453.784 535.44 454.012 536.504 454.012C537.871 454.012 539.01 453.784 539.921 453.252C540.833 452.797 541.592 452.265 542.2 451.657C542.732 451.126 543.263 450.518 543.643 449.835C544.099 449.151 544.403 448.467 544.63 447.784L551.39 451.43C550.706 452.797 549.947 454.164 548.959 455.455C547.972 456.746 546.833 457.885 545.618 458.721C544.327 459.632 542.884 460.316 541.289 460.771C539.694 461.227 538.099 461.455 536.428 461.455C534.909 461.455 533.466 461.303 532.251 460.999C531.035 460.695 529.896 460.24 528.985 459.784C527.997 459.328 527.238 458.797 526.554 458.265C525.871 457.733 525.415 457.278 525.035 456.898C523.44 455.227 522.149 453.252 521.238 450.746C520.251 448.316 519.795 445.505 519.795 442.467C519.795 439.657 520.251 437.075 521.162 434.721C522.073 432.442 523.289 430.468 524.808 428.797C526.327 427.278 528.073 426.062 530.124 425.151C532.175 424.24 534.377 423.784 536.732 423.784C538.706 423.784 540.453 424.088 542.048 424.619C543.643 425.151 545.01 425.911 546.149 426.822C546.985 427.505 547.744 428.189 548.428 428.948C549.111 429.708 549.643 430.392 550.099 431.151C550.554 431.835 550.858 432.442 551.162 432.974C551.39 433.505 551.618 433.885 551.694 434.113L544.554 437.531Z" fill="#004E82"/>
<path d="M559.517 450.139C560.124 450.822 560.808 451.43 561.643 452.037C562.403 452.645 563.314 453.101 564.225 453.48C564.985 453.784 565.82 454.012 566.732 454.164C567.643 454.316 568.63 454.468 569.694 454.468C570.225 454.468 571.061 454.392 572.124 454.24C573.263 454.088 574.251 453.632 575.162 452.949C575.694 452.493 576.149 452.037 576.377 451.506C576.605 450.974 576.757 450.442 576.757 449.911C576.757 448.847 576.529 448.164 576.073 447.708C575.618 447.252 575.086 446.949 574.479 446.721C573.795 446.493 573.111 446.265 572.2 446.189C571.365 446.037 570.225 445.885 568.858 445.657L566.656 445.278C565.592 445.126 564.529 444.898 563.39 444.67C562.327 444.442 561.263 444.063 560.2 443.531C558.681 442.847 557.466 441.86 556.554 440.645C555.643 439.43 555.187 437.683 555.187 435.404C555.187 434.341 555.339 433.43 555.567 432.67C555.795 431.835 556.175 431.075 556.479 430.392C556.858 429.708 557.238 429.101 557.694 428.645C558.149 428.189 558.605 427.733 558.985 427.43C560.428 426.214 562.099 425.379 563.998 424.847C565.896 424.316 567.795 424.088 569.77 424.088C571.289 424.088 572.732 424.24 574.023 424.544C575.314 424.847 576.453 425.151 577.441 425.531C578.504 425.987 579.567 426.594 580.63 427.278C581.694 427.961 582.605 428.721 583.441 429.556L578.884 434.493C578.352 433.961 577.668 433.43 576.909 432.974C576.149 432.442 575.238 431.987 574.175 431.607C573.415 431.303 572.656 431.151 571.896 430.999C571.213 430.847 570.377 430.771 569.542 430.771C569.01 430.771 568.403 430.771 567.567 430.847C566.808 430.923 565.972 431.151 565.289 431.455C564.225 431.911 563.618 432.366 563.314 432.974C563.01 433.582 562.858 434.113 562.858 434.645C562.858 435.556 563.086 436.164 563.618 436.544C564.073 436.923 564.605 437.227 565.137 437.455C565.896 437.759 566.656 437.911 567.339 437.987C568.099 438.063 568.934 438.214 570.073 438.442L574.63 439.202C575.466 439.354 576.605 439.658 577.896 440.037C579.263 440.493 580.479 441.176 581.694 442.24C583.668 443.911 584.656 446.265 584.656 449.379C584.656 451.354 584.352 452.949 583.668 454.24C582.985 455.531 582.225 456.594 581.39 457.43C580.327 458.493 578.884 459.48 576.985 460.316C575.162 461.151 572.808 461.607 569.846 461.607C568.327 461.607 566.732 461.455 564.909 461.151C563.162 460.847 561.491 460.392 559.972 459.784C558.301 459.101 557.01 458.265 556.023 457.43C555.036 456.518 554.276 455.835 553.82 455.303L559.517 450.139Z" fill="#004E82"/>
<path d="M624.757 455.835C622.782 457.961 620.504 459.48 618.073 460.392C616.706 460.923 615.339 461.303 614.048 461.455C612.681 461.683 611.39 461.759 610.023 461.759C606.605 461.759 603.643 461.151 601.137 460.012C598.63 458.873 596.428 457.278 594.605 455.303C593.846 454.468 593.086 453.48 592.327 452.341C591.567 451.202 590.959 449.835 590.352 448.316C589.744 446.797 589.289 445.05 588.985 443.075C588.605 441.176 588.453 438.974 588.453 436.619C588.453 432.518 589.061 428.797 590.2 425.455C591.339 422.113 592.934 419.303 595.061 417.025C597.187 414.746 599.694 412.999 602.732 411.708C605.694 410.493 609.111 409.885 612.833 409.885C617.618 409.885 621.795 410.949 625.44 412.999C629.086 415.05 631.972 418.012 634.099 421.885L624.605 427.05C624.073 426.138 623.39 425.227 622.63 424.392C621.871 423.556 621.111 422.873 620.352 422.341C619.668 421.885 618.833 421.506 617.694 421.05C616.554 420.594 615.187 420.366 613.516 420.366C611.238 420.366 609.339 420.746 607.82 421.43C606.225 422.113 604.934 423.1 603.947 424.316C603.187 425.227 602.58 426.138 602.124 427.126C601.668 428.113 601.289 429.1 601.061 430.164C600.833 431.151 600.681 432.138 600.605 433.202C600.529 434.189 600.453 435.1 600.453 435.936C600.453 439.05 600.833 441.556 601.592 443.455C602.352 445.354 603.187 446.797 604.099 447.86C605.466 449.379 607.061 450.366 608.656 450.822C610.327 451.278 611.77 451.506 613.061 451.506C616.175 451.506 618.757 450.67 620.656 449.075C622.63 447.48 623.694 445.278 623.997 442.619H613.289V433.05H634.402V460.619H625.365L624.757 455.835Z" fill="#004E82"/>
<path d="M641.846 411.1H662.959C669.187 411.1 673.896 412.088 676.934 413.986C679.972 415.885 681.491 418.999 681.491 423.328C681.491 426.898 680.504 429.632 678.529 431.607C676.554 433.581 673.744 434.721 670.023 434.948C674.656 435.404 677.997 436.543 680.048 438.366C682.099 440.265 683.162 443.075 683.162 446.873C683.162 449.607 682.554 451.961 681.263 454.012C679.972 456.062 678.225 457.581 675.947 458.569C673.668 459.556 671.314 460.088 668.959 460.316C666.605 460.467 664.023 460.543 661.364 460.543H641.77V411.1H641.846ZM653.542 451.657H660.909C662.732 451.657 664.327 451.581 665.618 451.429C666.909 451.278 668.048 450.974 668.883 450.518C669.795 450.062 670.402 449.455 670.858 448.695C671.314 447.936 671.466 446.873 671.466 445.581C671.466 444.29 671.238 443.227 670.782 442.467C670.327 441.708 669.719 441.024 668.808 440.645C667.972 440.189 666.833 439.885 665.542 439.733C664.175 439.581 662.656 439.505 660.909 439.505H653.542V451.657ZM653.846 430.543H660.529C663.795 430.543 666.225 430.24 667.744 429.556C669.339 428.873 670.099 427.505 670.099 425.303C670.099 423.024 669.339 421.657 667.744 420.974C666.149 420.366 663.719 420.062 660.529 420.062H653.846V430.543Z" fill="#004E82"/>
<path d="M444.909 351.1V359.986L460.783 364.088L476.428 359.455V351.176L460.783 342.442L444.909 351.1Z" fill="#DB0814"/>
<path d="M490.859 216.822L460.707 233.303L430.631 216.822L402.985 274.543L428.504 305.759V339.784L440.125 346.467L454.707 337.657L444.909 325.961L476.504 325.885L466.783 337.657L481.289 346.391L492.909 339.708V305.683L518.428 274.467L490.859 216.822ZM443.694 318.29L443.314 280.543L430.935 277.126L422.125 263.986L449.998 272.265L443.694 318.29ZM490.783 277.05L478.403 280.467L478.023 318.214L471.72 272.189L499.593 263.91L490.783 277.05Z" fill="#DB0814"/>
<path d="M456.15 502.088C438.682 498.062 414.834 502.467 392.277 515.531C357.036 535.885 338.277 569.531 350.504 590.72C358.327 604.239 376.859 609.404 398.429 606.062C388.555 603.784 380.732 598.847 376.327 591.176C364.099 569.986 382.783 536.341 418.099 515.986C430.783 508.619 443.998 503.986 456.15 502.088Z" fill="#F0252D"/>
<path d="M456.454 585.632C461.695 602.797 477.492 621.252 500.049 634.24C535.29 654.594 573.796 653.986 586.024 632.796C593.847 619.277 588.986 600.67 575.315 583.657C578.277 593.303 577.897 602.569 573.492 610.24C561.264 631.429 522.758 632.037 487.517 611.683C474.758 604.315 464.201 595.202 456.454 585.632Z" fill="#00A651"/>
<path d="M432.53 544.088C420.302 557.227 412.176 580.088 412.176 606.138C412.176 646.847 431.999 679.885 456.454 679.885C472.1 679.885 485.771 666.366 493.669 646.012C486.758 653.455 478.556 657.708 469.745 657.708C445.29 657.708 425.467 624.67 425.467 583.961C425.543 569.227 428.125 555.556 432.53 544.088Z" fill="#0078D0"/>
</g>
<rect x="141.371" y="2.3999" width="638.697" height="773.81" stroke="#CBD4EC" stroke-width="4" stroke-linejoin="round" stroke-dasharray="8 8"/>
<rect x="235.871" y="97.1401" width="449.291" height="584.36" stroke="#CBD4EC" stroke-width="4" stroke-linejoin="round" stroke-dasharray="8 8"/>
<rect width="94.71" height="94.71" transform="translate(777.541 367.049)" fill="#EAEDF7"/>
<path d="M814.056 455.835C812.081 457.961 809.803 459.48 807.372 460.392C806.005 460.923 804.638 461.303 803.347 461.455C801.98 461.683 800.689 461.759 799.322 461.759C795.904 461.759 792.942 461.151 790.436 460.012C787.929 458.873 785.727 457.278 783.904 455.303C783.144 454.468 782.385 453.48 781.625 452.341C780.866 451.202 780.258 449.835 779.651 448.316C779.043 446.797 778.587 445.05 778.284 443.075C777.904 441.176 777.752 438.974 777.752 436.619C777.752 432.518 778.36 428.797 779.499 425.455C780.638 422.113 782.233 419.303 784.36 417.025C786.486 414.746 788.992 412.999 792.03 411.708C794.992 410.493 798.41 409.885 802.132 409.885C806.917 409.885 811.094 410.949 814.739 412.999C818.385 415.05 821.271 418.012 823.398 421.885L813.904 427.05C813.372 426.138 812.689 425.227 811.929 424.392C811.17 423.556 810.41 422.873 809.651 422.341C808.967 421.885 808.132 421.506 806.992 421.05C805.853 420.594 804.486 420.366 802.815 420.366C800.537 420.366 798.638 420.746 797.119 421.43C795.524 422.113 794.233 423.1 793.246 424.316C792.486 425.227 791.879 426.138 791.423 427.126C790.967 428.113 790.587 429.1 790.36 430.164C790.132 431.151 789.98 432.138 789.904 433.202C789.828 434.189 789.752 435.1 789.752 435.936C789.752 439.05 790.132 441.556 790.891 443.455C791.651 445.354 792.486 446.797 793.398 447.86C794.765 449.379 796.36 450.366 797.955 450.822C799.625 451.278 801.068 451.506 802.36 451.506C805.473 451.506 808.056 450.67 809.955 449.075C811.929 447.48 812.993 445.278 813.296 442.619H802.587V433.05H823.701V460.619H814.663L814.056 455.835Z" fill="white"/>
<path d="M831.144 411.101H852.258C858.486 411.101 863.195 412.088 866.233 413.987C869.271 415.885 870.79 418.999 870.79 423.328C870.79 426.898 869.803 429.632 867.828 431.607C865.853 433.582 863.043 434.721 859.322 434.949C863.954 435.404 867.296 436.544 869.347 438.366C871.398 440.265 872.461 443.075 872.461 446.873C872.461 449.607 871.853 451.961 870.562 454.012C869.271 456.063 867.524 457.582 865.246 458.569C862.967 459.556 860.613 460.088 858.258 460.316C855.904 460.468 853.322 460.544 850.663 460.544H831.068V411.101H831.144ZM842.841 451.658H850.208C852.03 451.658 853.625 451.582 854.916 451.43C856.208 451.278 857.347 450.974 858.182 450.518C859.094 450.063 859.701 449.455 860.157 448.696C860.613 447.936 860.765 446.873 860.765 445.582C860.765 444.29 860.537 443.227 860.081 442.468C859.625 441.708 859.018 441.025 858.106 440.645C857.271 440.189 856.132 439.885 854.841 439.734C853.473 439.582 851.954 439.506 850.208 439.506H842.841V451.658ZM843.144 430.544H849.828C853.094 430.544 855.524 430.24 857.043 429.556C858.638 428.873 859.397 427.506 859.397 425.303C859.397 423.025 858.638 421.658 857.043 420.974C855.448 420.366 853.018 420.063 849.828 420.063H843.144V430.544Z" fill="white"/>
<path d="M812.652 425.404H817.172L824.692 414.804L832.252 425.404H836.772L826.972 411.644L836.212 398.684H831.692L824.692 408.484L817.692 398.684H813.212L822.452 411.644L812.652 425.404Z" fill="#0D034C"/>
<path fill-rule="evenodd" clip-rule="evenodd" d="M873.107 415.221H872.107V413.1V412.1V411.1H871.107H870.107H868.016V410.1V409.1H872.107C873.212 409.1 874.107 409.996 874.107 411.1V415.221H873.107ZM873.107 423.461H872.107V431.702H873.107H874.107V423.461H873.107ZM873.107 439.942H872.107V448.183H873.107H874.107V439.942H873.107ZM873.107 456.423H872.107V458.543V459.543V460.543H871.107H870.107H868.016V461.543V462.543H872.107C873.212 462.543 874.107 461.648 874.107 460.543V456.423H873.107ZM606.174 461.543V460.543H614.356V461.543V462.543H606.174V461.543ZM622.539 461.543V460.543H630.722V461.543V462.543H622.539V461.543ZM638.904 461.543V460.543H647.087V461.543V462.543H638.904V461.543ZM655.269 461.543V460.543H663.452V461.543V462.543H655.269V461.543ZM671.634 461.543V460.543H679.817V461.543V462.543H671.634V461.543ZM688 461.543V460.543H696.182V461.543V462.543H688V461.543ZM704.365 461.543V460.543H712.547V461.543V462.543H704.365V461.543ZM720.73 461.543V460.543H728.912V461.543V462.543H720.73V461.543ZM737.095 461.543V460.543H745.278V461.543V462.543H737.095V461.543ZM753.46 461.543V460.543H761.643V461.543V462.543H753.46V461.543ZM769.825 461.543V460.543H778.008V461.543V462.543H769.825V461.543ZM786.19 461.543V460.543H794.373V461.543V462.543H786.19V461.543ZM802.556 461.543V460.543H810.738V461.543V462.543H802.556V461.543ZM818.921 461.543V460.543H827.103V461.543V462.543H818.921V461.543ZM835.286 461.543V460.543H843.468V461.543V462.543H835.286V461.543ZM851.651 461.543V460.543H859.833V461.543V462.543H851.651V461.543ZM859.833 410.1V411.1H851.651V410.1V409.1H859.833V410.1ZM843.468 410.1V411.1H835.286V410.1V409.1H843.468V410.1ZM827.103 410.1V411.1H818.921V410.1V409.1H827.103V410.1ZM810.738 410.1V411.1H802.555V410.1V409.1H810.738V410.1ZM794.373 410.1V411.1H786.19V410.1V409.1H794.373V410.1ZM778.008 410.1V411.1H769.825V410.1V409.1H778.008V410.1ZM761.643 410.1V411.1H753.46V410.1V409.1H761.643V410.1ZM745.278 410.1V411.1H737.095V410.1V409.1H745.278V410.1ZM728.912 410.1V411.1H720.73V410.1V409.1H728.912V410.1ZM712.547 410.1V411.1H704.365V410.1V409.1H712.547V410.1ZM696.182 410.1V411.1H688V410.1V409.1H696.182V410.1ZM679.817 410.1V411.1H671.634V410.1V409.1H679.817V410.1ZM663.452 410.1V411.1H655.269V410.1V409.1H663.452V410.1ZM647.087 410.1V411.1H638.904V410.1V409.1H647.087V410.1ZM630.722 410.1V411.1H622.539V410.1V409.1H630.722V410.1ZM614.356 410.1V411.1H606.174V410.1V409.1H614.356V410.1Z" fill="#8DA4D5"/>
<rect x="238" y="24.9001" width="4" height="55" fill="#111111"/>
<path d="M364.756 34.6221C366.484 34.6221 367.942 34.3521 368.464 32.8761H369.472V44.9001H367.96V35.8281H364.756V34.6221ZM372.214 42.1821L373.69 41.7501C373.978 43.0641 374.788 43.8561 376.354 43.8561C377.794 43.8561 379.036 42.8121 379.036 40.9581C379.036 38.9601 377.632 38.0961 376.336 38.0961C375.094 38.0961 374.266 38.8341 374.014 39.4281L372.538 38.9961L373.276 32.8761H380.17V34.3341H374.5L374.086 37.7001C374.716 37.0881 375.688 36.8001 376.678 36.8001C378.784 36.8001 380.62 38.2941 380.62 40.9401C380.62 43.6941 378.586 45.1161 376.354 45.1161C373.924 45.1161 372.664 43.8021 372.214 42.1821ZM383.41 44.9001L388.63 34.3341H382.006V32.8761H390.304V34.3341L385.3 44.9001H383.41ZM392.172 35.9721H393.27L393.684 37.3761C394.224 36.4401 395.178 35.8281 396.582 35.8281C398.616 35.8281 400.416 37.5201 400.416 40.4721C400.416 43.4061 398.616 45.1161 396.582 45.1161C395.178 45.1161 394.224 44.5041 393.684 43.5501V47.7981H392.172V35.9721ZM393.648 40.4721C393.648 42.5961 394.656 43.8201 396.186 43.8201C397.716 43.8201 398.724 42.5961 398.724 40.4721C398.724 38.3481 397.716 37.1241 396.186 37.1241C394.656 37.1241 393.648 38.3481 393.648 40.4721ZM401.107 44.9001L404.365 40.3101L401.269 35.9721H403.051L405.247 39.0681L407.461 35.9721H409.243L406.147 40.3101L409.405 44.9001H407.623L405.247 41.5701L402.889 44.9001H401.107ZM414.719 44.9001L419.399 32.8761H420.965L416.285 44.9001H414.719ZM435.549 44.9001H426.891V43.5501C431.139 40.4181 433.623 38.1321 433.623 36.0081C433.623 34.7661 432.795 33.9201 431.373 33.9201C430.239 33.9201 429.141 34.4781 428.853 35.9361L427.341 35.5041C427.773 33.7581 429.285 32.6601 431.409 32.6601C433.623 32.6601 435.225 33.7941 435.225 35.8101C435.225 38.6001 432.291 41.0841 428.925 43.5141H435.549V44.9001ZM437.13 42.1821L438.606 41.7501C438.894 43.0641 439.704 43.8561 441.27 43.8561C442.71 43.8561 443.952 42.8121 443.952 40.9581C443.952 38.9601 442.548 38.0961 441.252 38.0961C440.01 38.0961 439.182 38.8341 438.93 39.4281L437.454 38.9961L438.192 32.8761H445.086V34.3341H439.416L439.002 37.7001C439.632 37.0881 440.604 36.8001 441.594 36.8001C443.7 36.8001 445.536 38.2941 445.536 40.9401C445.536 43.6941 443.502 45.1161 441.27 45.1161C438.84 45.1161 437.58 43.8021 437.13 42.1821ZM447.912 35.9721H449.028L449.424 37.3221C449.928 36.4761 450.774 35.8281 452.106 35.8281C453.474 35.8281 454.284 36.4221 454.68 37.3941C455.4 36.2961 456.444 35.8281 457.686 35.8281C459.756 35.8281 460.566 37.2141 460.566 39.2481V44.9001H459.054V39.6981C459.054 38.3301 458.802 37.1241 457.146 37.1241C455.85 37.1241 455.004 38.1501 455.004 40.0581V44.9001H453.492V39.6981C453.492 38.3301 453.222 37.1241 451.584 37.1241C450.288 37.1241 449.424 38.1501 449.424 40.0581V44.9001H447.912V35.9721ZM463.047 35.9721H464.163L464.559 37.3221C465.063 36.4761 465.909 35.8281 467.241 35.8281C468.609 35.8281 469.419 36.4221 469.815 37.3941C470.535 36.2961 471.579 35.8281 472.821 35.8281C474.891 35.8281 475.701 37.2141 475.701 39.2481V44.9001H474.189V39.6981C474.189 38.3301 473.937 37.1241 472.281 37.1241C470.985 37.1241 470.139 38.1501 470.139 40.0581V44.9001H468.627V39.6981C468.627 38.3301 468.357 37.1241 466.719 37.1241C465.423 37.1241 464.559 38.1501 464.559 40.0581V44.9001H463.047V35.9721ZM483.335 32.8761H486.143L489.347 42.7041L492.551 32.8761H495.359V44.9001H493.667V34.6401L490.193 44.9001H488.519L485.027 34.6401V44.9001H483.335V32.8761ZM497.542 35.9721H500.296V44.9001H498.784V37.1781H497.542V35.9721ZM499.54 34.2801C498.928 34.2801 498.424 33.7761 498.424 33.1461C498.424 32.5341 498.928 32.0301 499.54 32.0301C500.17 32.0301 500.674 32.5341 500.674 33.1461C500.674 33.7761 500.17 34.2801 499.54 34.2801ZM503.002 35.9721H504.118L504.514 37.3221C505.018 36.4761 505.882 35.8281 507.394 35.8281C509.554 35.8281 510.346 37.2141 510.346 39.2481V44.9001H508.834V39.6981C508.834 38.3301 508.6 37.1241 506.872 37.1241C505.414 37.1241 504.514 38.1501 504.514 40.0581V44.9001H503.002V35.9721ZM512.378 35.9721H515.132V44.9001H513.62V37.1781H512.378V35.9721ZM514.376 34.2801C513.764 34.2801 513.26 33.7761 513.26 33.1461C513.26 32.5341 513.764 32.0301 514.376 32.0301C515.006 32.0301 515.51 32.5341 515.51 33.1461C515.51 33.7761 515.006 34.2801 514.376 34.2801ZM517.838 35.9721H518.954L519.35 37.3221C519.854 36.4761 520.7 35.8281 522.032 35.8281C523.4 35.8281 524.21 36.4221 524.606 37.3941C525.326 36.2961 526.37 35.8281 527.612 35.8281C529.682 35.8281 530.492 37.2141 530.492 39.2481V44.9001H528.98V39.6981C528.98 38.3301 528.728 37.1241 527.072 37.1241C525.776 37.1241 524.93 38.1501 524.93 40.0581V44.9001H523.418V39.6981C523.418 38.3301 523.148 37.1241 521.51 37.1241C520.214 37.1241 519.35 38.1501 519.35 40.0581V44.9001H517.838V35.9721ZM535.799 45.1161C533.711 45.1161 532.937 43.6941 532.937 41.6601V35.9541H534.449V41.2101C534.449 42.5961 534.683 43.7841 536.321 43.7841C537.743 43.7841 538.589 42.7761 538.589 40.8681V35.9541H540.101V44.9001H538.967L538.589 43.6041C538.085 44.4681 537.275 45.1161 535.799 45.1161ZM542.623 35.9721H543.739L544.135 37.3221C544.639 36.4761 545.485 35.8281 546.817 35.8281C548.185 35.8281 548.995 36.4221 549.391 37.3941C550.111 36.2961 551.155 35.8281 552.397 35.8281C554.467 35.8281 555.277 37.2141 555.277 39.2481V44.9001H553.765V39.6981C553.765 38.3301 553.513 37.1241 551.857 37.1241C550.561 37.1241 549.715 38.1501 549.715 40.0581V44.9001H548.203V39.6981C548.203 38.3301 547.933 37.1241 546.295 37.1241C544.999 37.1241 544.135 38.1501 544.135 40.0581V44.9001H542.623V35.9721Z" fill="#111111"/>
<rect x="242" y="52.9001" width="437" height="4" fill="#111111"/>
<rect x="679" y="24.9001" width="4" height="55" fill="#111111"/>
<rect width="94.71" height="94.71" transform="translate(683.148 4.3999)" fill="#EAEDF7"/>
<path d="M719.663 93.1859C717.689 95.3125 715.41 96.8315 712.98 97.7429C711.613 98.2746 710.245 98.6543 708.954 98.8062C707.587 99.0341 706.296 99.11 704.929 99.11C701.511 99.11 698.549 98.5024 696.043 97.3632C693.537 96.2239 691.334 94.629 689.511 92.6543C688.752 91.8188 687.992 90.8315 687.233 89.6923C686.473 88.5531 685.866 87.1859 685.258 85.6669C684.651 84.1479 684.195 82.4011 683.891 80.4265C683.511 78.5277 683.359 76.3252 683.359 73.9708C683.359 69.8695 683.967 66.148 685.106 62.8062C686.245 59.4644 687.84 56.6543 689.967 54.3758C692.094 52.0974 694.6 50.3505 697.638 49.0594C700.6 47.8442 704.018 47.2366 707.739 47.2366C712.524 47.2366 716.701 48.2998 720.347 50.3505C723.992 52.4011 726.878 55.3631 729.005 59.2366L719.511 64.4011C718.98 63.4897 718.296 62.5783 717.537 61.7429C716.777 60.9074 716.018 60.2239 715.258 59.6923C714.575 59.2366 713.739 58.8568 712.6 58.4011C711.461 57.9454 710.094 57.7176 708.423 57.7176C706.144 57.7176 704.245 58.0973 702.726 58.7809C701.132 59.4644 699.84 60.4518 698.853 61.667C698.094 62.5783 697.486 63.4897 697.03 64.4771C696.575 65.4644 696.195 66.4518 695.967 67.5151C695.739 68.5024 695.587 69.4897 695.511 70.553C695.435 71.5404 695.359 72.4518 695.359 73.2872C695.359 76.4011 695.739 78.9075 696.499 80.8062C697.258 82.7049 698.094 84.148 699.005 85.2113C700.372 86.7302 701.967 87.7176 703.562 88.1733C705.233 88.629 706.676 88.8568 707.967 88.8568C711.081 88.8568 713.663 88.0214 715.562 86.4264C717.537 84.8315 718.6 82.629 718.904 79.9707H708.195V70.4011H729.309V97.9707H720.271L719.663 93.1859Z" fill="white"/>
<path d="M736.752 48.4517H757.866C764.094 48.4517 768.802 49.439 771.84 51.3378C774.878 53.2365 776.397 56.3504 776.397 60.6795C776.397 64.2492 775.41 66.9833 773.435 68.958C771.461 70.9327 768.65 72.0719 764.929 72.2998C769.562 72.7555 772.904 73.8947 774.954 75.7175C777.005 77.6162 778.068 80.4264 778.068 84.2239C778.068 86.958 777.461 89.3124 776.169 91.3631C774.878 93.4137 773.131 94.9327 770.853 95.92C768.575 96.9074 766.22 97.4391 763.866 97.6669C761.511 97.8188 758.929 97.8947 756.271 97.8947H736.676V48.4517H736.752ZM748.448 89.0087H755.815C757.638 89.0087 759.233 88.9327 760.524 88.7808C761.815 88.6289 762.954 88.3251 763.79 87.8694C764.701 87.4137 765.309 86.8061 765.764 86.0466C766.22 85.2871 766.372 84.2238 766.372 82.9327C766.372 81.6416 766.144 80.5783 765.688 79.8188C765.233 79.0593 764.625 78.3757 763.714 77.996C762.878 77.5403 761.739 77.2365 760.448 77.0846C759.081 76.9327 757.562 76.8568 755.815 76.8568H748.448V89.0087ZM748.752 67.8947H755.435C758.701 67.8947 761.132 67.5909 762.65 66.9074C764.245 66.2239 765.005 64.8567 765.005 62.6542C765.005 60.3757 764.245 59.0086 762.65 58.3251C761.056 57.7175 758.625 57.4137 755.435 57.4137H748.752V67.8947Z" fill="white"/>
<path d="M718.259 62.7549L728.059 48.9949L718.819 36.0349H723.299L730.299 45.8349L737.299 36.0349H741.819L732.579 48.9949L742.379 62.7549H737.859L730.299 52.1549L722.779 62.7549H718.259Z" fill="#0D034C"/>
<rect width="94.71" height="94.71" transform="translate(143.16 679.5)" fill="#EAEDF7"/>
<path d="M179.675 768.286C177.7 770.413 175.422 771.932 172.991 772.843C171.624 773.375 170.257 773.754 168.966 773.906C167.599 774.134 166.308 774.21 164.941 774.21C161.523 774.21 158.561 773.603 156.055 772.463C153.548 771.324 151.346 769.729 149.523 767.754C148.764 766.919 148.004 765.932 147.245 764.792C146.485 763.653 145.877 762.286 145.27 760.767C144.662 759.248 144.207 757.501 143.903 755.527C143.523 753.628 143.371 751.425 143.371 749.071C143.371 744.97 143.979 741.248 145.118 737.906C146.257 734.565 147.852 731.754 149.979 729.476C152.105 727.197 154.612 725.451 157.65 724.159C160.612 722.944 164.029 722.337 167.751 722.337C172.536 722.337 176.713 723.4 180.358 725.451C184.004 727.501 186.89 730.463 189.017 734.337L179.523 739.501C178.991 738.59 178.308 737.678 177.548 736.843C176.789 736.008 176.029 735.324 175.27 734.792C174.586 734.337 173.751 733.957 172.612 733.501C171.472 733.046 170.105 732.818 168.434 732.818C166.156 732.818 164.257 733.197 162.738 733.881C161.143 734.565 159.852 735.552 158.865 736.767C158.105 737.678 157.498 738.59 157.042 739.577C156.586 740.565 156.207 741.552 155.979 742.615C155.751 743.603 155.599 744.59 155.523 745.653C155.447 746.64 155.371 747.552 155.371 748.387C155.371 751.501 155.751 754.008 156.51 755.906C157.27 757.805 158.105 759.248 159.017 760.311C160.384 761.83 161.979 762.818 163.574 763.273C165.245 763.729 166.688 763.957 167.979 763.957C171.093 763.957 173.675 763.121 175.574 761.527C177.548 759.932 178.612 757.729 178.915 755.071H168.207V745.501H189.32V773.071H180.283L179.675 768.286Z" fill="white"/>
<path d="M196.763 723.552H217.877C224.105 723.552 228.814 724.539 231.852 726.438C234.89 728.337 236.409 731.451 236.409 735.78C236.409 739.349 235.422 742.084 233.447 744.058C231.472 746.033 228.662 747.172 224.941 747.4C229.574 747.856 232.915 748.995 234.966 750.818C237.017 752.716 238.08 755.527 238.08 759.324C238.08 762.058 237.472 764.413 236.181 766.463C234.89 768.514 233.143 770.033 230.865 771.02C228.586 772.008 226.232 772.539 223.877 772.767C221.523 772.919 218.941 772.995 216.282 772.995H196.688V723.552H196.763ZM208.46 764.109H215.827C217.65 764.109 219.244 764.033 220.536 763.881C221.827 763.729 222.966 763.425 223.801 762.97C224.713 762.514 225.32 761.906 225.776 761.147C226.232 760.387 226.384 759.324 226.384 758.033C226.384 756.742 226.156 755.679 225.7 754.919C225.244 754.16 224.637 753.476 223.726 753.096C222.89 752.641 221.751 752.337 220.46 752.185C219.093 752.033 217.574 751.957 215.827 751.957H208.46V764.109ZM208.763 742.995H215.447C218.713 742.995 221.143 742.691 222.662 742.008C224.257 741.324 225.017 739.957 225.017 737.754C225.017 735.476 224.257 734.109 222.662 733.425C221.067 732.818 218.637 732.514 215.447 732.514H208.763V742.995Z" fill="white"/>
<path d="M178.271 737.855L188.071 724.095L178.831 711.135H183.311L190.311 720.935L197.311 711.135H201.831L192.591 724.095L202.391 737.855H197.871L190.311 727.255L182.791 737.855H178.271Z" fill="#0D034C"/>
<rect width="94.71" height="94.71" transform="translate(143.161 4.15991)" fill="#EAEDF7"/>
<path d="M179.676 92.946C177.701 95.0725 175.423 96.5915 172.992 97.5029C171.625 98.0346 170.258 98.4143 168.967 98.5662C167.6 98.7941 166.309 98.87 164.942 98.87C161.524 98.87 158.562 98.2624 156.056 97.1232C153.549 95.9839 151.347 94.389 149.524 92.4143C148.765 91.5789 148.005 90.5915 147.246 89.4523C146.486 88.3131 145.878 86.9459 145.271 85.4269C144.663 83.908 144.208 82.1612 143.904 80.1865C143.524 78.2877 143.372 76.0852 143.372 73.7308C143.372 69.6295 143.98 65.908 145.119 62.5662C146.258 59.2244 147.853 56.4143 149.98 54.1358C152.106 51.8574 154.613 50.1105 157.651 48.8194C160.613 47.6042 164.03 46.9966 167.752 46.9966C172.537 46.9966 176.714 48.0599 180.359 50.1105C184.005 52.1611 186.891 55.1232 189.018 58.9966L179.524 64.1611C178.992 63.2497 178.309 62.3383 177.549 61.5029C176.79 60.6675 176.03 59.9839 175.271 59.4523C174.587 58.9966 173.752 58.6168 172.613 58.1611C171.473 57.7055 170.106 57.4776 168.435 57.4776C166.157 57.4776 164.258 57.8574 162.739 58.5409C161.144 59.2244 159.853 60.2118 158.866 61.427C158.106 62.3384 157.499 63.2498 157.043 64.2371C156.587 65.2244 156.208 66.2118 155.98 67.2751C155.752 68.2624 155.6 69.2498 155.524 70.313C155.448 71.3004 155.372 72.2118 155.372 73.0472C155.372 76.1611 155.752 78.6675 156.511 80.5662C157.271 82.465 158.106 83.908 159.018 84.9713C160.385 86.4903 161.98 87.4776 163.575 87.9333C165.246 88.389 166.689 88.6168 167.98 88.6168C171.094 88.6168 173.676 87.7814 175.575 86.1864C177.549 84.5915 178.613 82.389 178.916 79.7307H168.208V70.1611H189.321V97.7308H180.283L179.676 92.946Z" fill="white"/>
<path d="M196.764 48.2119H217.878C224.106 48.2119 228.815 49.1993 231.853 51.098C234.891 52.9968 236.41 56.1107 236.41 60.4398C236.41 64.0094 235.423 66.7436 233.448 68.7183C231.473 70.6929 228.663 71.8322 224.942 72.06C229.575 72.5157 232.916 73.655 234.967 75.4778C237.018 77.3765 238.081 80.1866 238.081 83.9841C238.081 86.7183 237.473 89.0727 236.182 91.1233C234.891 93.174 233.144 94.6929 230.866 95.6803C228.587 96.6676 226.233 97.1993 223.878 97.4272C221.524 97.5791 218.942 97.655 216.283 97.655H196.688V48.2119H196.764ZM208.461 88.7689H215.828C217.651 88.7689 219.245 88.693 220.537 88.5411C221.828 88.3892 222.967 88.0854 223.802 87.6297C224.714 87.174 225.321 86.5664 225.777 85.8069C226.233 85.0474 226.385 83.9841 226.385 82.693C226.385 81.4018 226.157 80.3385 225.701 79.5791C225.245 78.8196 224.638 78.136 223.726 77.7562C222.891 77.3006 221.752 76.9967 220.461 76.8448C219.094 76.6929 217.575 76.617 215.828 76.617H208.461V88.7689ZM208.764 67.655H215.448C218.714 67.655 221.144 67.3512 222.663 66.6677C224.258 65.9841 225.018 64.617 225.018 62.4145C225.018 60.136 224.258 58.7689 222.663 58.0853C221.068 57.4777 218.638 57.174 215.448 57.174H208.764V67.655Z" fill="white"/>
<path d="M178.272 62.5149L188.072 48.7549L178.832 35.7949H183.312L190.312 45.5949L197.312 35.7949H201.832L192.592 48.7549L202.392 62.5149H197.872L190.312 51.9149L182.792 62.5149H178.272Z" fill="#0D034C"/>
<rect width="94.71" height="94.71" transform="translate(683.359 679.5)" fill="#EAEDF7"/>
<path d="M719.874 768.286C717.899 770.413 715.621 771.932 713.191 772.843C711.823 773.375 710.456 773.754 709.165 773.906C707.798 774.134 706.507 774.21 705.14 774.21C701.722 774.21 698.76 773.602 696.254 772.463C693.748 771.324 691.545 769.729 689.722 767.754C688.963 766.919 688.203 765.932 687.444 764.792C686.684 763.653 686.077 762.286 685.469 760.767C684.861 759.248 684.406 757.501 684.102 755.527C683.722 753.628 683.57 751.425 683.57 749.071C683.57 744.97 684.178 741.248 685.317 737.906C686.456 734.565 688.051 731.754 690.178 729.476C692.305 727.197 694.811 725.451 697.849 724.159C700.811 722.944 704.229 722.337 707.95 722.337C712.735 722.337 716.912 723.4 720.558 725.451C724.203 727.501 727.089 730.463 729.216 734.337L719.722 739.501C719.191 738.59 718.507 737.678 717.748 736.843C716.988 736.008 716.229 735.324 715.469 734.792C714.786 734.337 713.95 733.957 712.811 733.501C711.672 733.046 710.304 732.818 708.634 732.818C706.355 732.818 704.456 733.197 702.937 733.881C701.342 734.565 700.051 735.552 699.064 736.767C698.305 737.678 697.697 738.59 697.241 739.577C696.786 740.565 696.406 741.552 696.178 742.615C695.95 743.603 695.798 744.59 695.722 745.653C695.646 746.64 695.57 747.552 695.57 748.387C695.57 751.501 695.95 754.008 696.71 755.906C697.469 757.805 698.305 759.248 699.216 760.311C700.583 761.83 702.178 762.818 703.773 763.273C705.444 763.729 706.887 763.957 708.178 763.957C711.292 763.957 713.874 763.121 715.773 761.527C717.748 759.932 718.811 757.729 719.115 755.071H708.406V745.501H729.52V773.071H720.482L719.874 768.286Z" fill="white"/>
<path d="M736.963 723.552H758.077C764.304 723.552 769.013 724.539 772.051 726.438C775.089 728.337 776.608 731.451 776.608 735.78C776.608 739.349 775.621 742.084 773.646 744.058C771.672 746.033 768.861 747.172 765.14 747.4C769.773 747.856 773.115 748.995 775.165 750.818C777.216 752.716 778.279 755.527 778.279 759.324C778.279 762.058 777.672 764.413 776.38 766.463C775.089 768.514 773.342 770.033 771.064 771.02C768.785 772.008 766.431 772.539 764.077 772.767C761.722 772.919 759.14 772.995 756.482 772.995H736.887V723.552H736.963ZM748.659 764.109H756.026C757.849 764.109 759.444 764.033 760.735 763.881C762.026 763.729 763.165 763.425 764.001 762.97C764.912 762.514 765.52 761.906 765.975 761.147C766.431 760.387 766.583 759.324 766.583 758.033C766.583 756.742 766.355 755.679 765.899 754.919C765.444 754.16 764.836 753.476 763.925 753.096C763.089 752.641 761.95 752.337 760.659 752.185C759.292 752.033 757.773 751.957 756.026 751.957H748.659V764.109ZM748.963 742.995H755.646C758.912 742.995 761.342 742.691 762.861 742.008C764.456 741.324 765.216 739.957 765.216 737.754C765.216 735.476 764.456 734.109 762.861 733.425C761.266 732.818 758.836 732.514 755.646 732.514H748.963V742.995Z" fill="white"/>
<path d="M718.47 737.855L728.27 724.095L719.03 711.135H723.51L730.51 720.935L737.51 711.135H742.03L732.79 724.095L742.59 737.855H738.07L730.51 727.255L722.99 737.855H718.47Z" fill="#0D034C"/>
<defs>
<clipPath id="clip0_914_14090">
<rect width="445.823" height="600" fill="white" transform="translate(237.871 80.2649)"/>
</clipPath>
</defs>
</svg>
