<svg width="587" height="790" viewBox="0 0 587 790" fill="none" xmlns="http://www.w3.org/2000/svg">
<g clip-path="url(#clip0_302_84480)">
<path d="M394.2 53.8C418.9 38.1 420.9 31.7 426.5 24.6C369.9 67.9 229.4 18.2 259.8 170.3C270.7 176.3 286.9 185.1 292.1 188L326 169.8C316.8 85.2 369.3 71.2 394.2 53.8Z" fill="#DB0814"/>
<path d="M210.1 95C185.8 116.5 174.6 156.1 187.2 188C188.8 192 190.7 196.1 193.1 200.2L199.5 210C203.9 215.9 210.3 222.6 216.3 228.5L228.3 203.4C185.8 157.4 200.2 110.3 210.1 95Z" fill="#DB0814"/>
<path d="M201.9 258.2L210.5 240C194.1 224.5 182.7 209.2 176.7 193.3C173.8 185.6 172.2 179.1 172.2 170C165.4 201.5 168.5 230.7 183.8 261.7C198.4 291.2 221.5 314.8 238 329.5L237.7 301.1L201.9 258.2Z" fill="#004E82"/>
<path d="M212.1 140.2C214.8 162.9 225.7 181 233.8 192L245.9 166.6C245.9 166.6 242.8 145.6 242.2 135.7C240.2 104.3 251 79.6 273.8 63.9C253 69.1 205.1 81.9 212.1 140.2Z" fill="#004E82"/>
<path d="M457.1 0.599976C414.2 92.6 328.8 60.1 337.7 165.2L349.5 189.8C358.2 165.5 358 152.7 370.4 135.1C398.6 95.1 437.6 122.1 457.1 0.599976Z" fill="#004E82"/>
<path d="M451 68C441.5 101.7 413 116.2 405.4 120.7C371.6 140.5 367.6 168.2 357.3 206.2L367.4 227.2C395.3 163.7 390.9 163.9 425.7 142.1C435.1 136.3 451.4 118.9 451 68Z" fill="#DB0814"/>
<path d="M374 241.4L381.7 257.4L346.5 301.1C346.4 305.3 346.5 317.9 346.4 330.1C385.3 295.9 402 280.6 411.1 229.9C413.4 217.1 418.5 162.6 432.6 152.4C394.5 168.8 388.1 216.4 374 241.4Z" fill="#004E82"/>
<path d="M0.5 435.6H23.5C27.7 435.6 31.2 436.2 33.8 437.4C36.4 438.6 38.4 439.8 39.8 441.1C40.4 441.7 41.1 442.5 41.7 443.4C42.4 444.3 43 445.4 43.6 446.7C44.2 448 44.7 449.5 45 451.2C45.4 452.9 45.6 454.8 45.6 457C45.6 460.4 45.1 463.4 44 465.9C43 468.4 41.5 470.5 39.8 472.3C38.1 474 35.9 475.3 33.3 476.4C30.7 477.5 27.6 478 24.3 478H11.8V500.8H0.5V435.6ZM22.9 468C24.9 468 26.5 467.7 27.8 467.1C29.1 466.5 30.2 465.9 30.9 465.1C31.6 464.4 32.3 463.3 32.9 462C33.5 460.7 33.8 459 33.8 456.9C33.8 455 33.5 453.4 33 452C32.5 450.6 31.8 449.5 31 448.6C29.6 447.2 28.2 446.4 26.6 446.1C25 445.8 23.8 445.6 23 445.6H11.6V468H22.9Z" fill="#004E82"/>
<path d="M88 490C88 491.4 88 492.6 88 493.7C88 494.7 88.1 495.7 88.2 496.5C88.3 497.3 88.5 498 88.7 498.7C88.9 499.4 89.2 500.1 89.5 500.8H80.5C79.6 500.2 79.0001 499.5 78.6001 498.7C78.4001 498.2 78.2 497.7 78.2 497.3C78.2 496.9 78.2 496.6 78.2 496.5C77.1 497.5 76 498.4 74.9 499C73.8 499.6 72.7001 500.1 71.6001 500.5C70.5001 500.8 69.5 501.1 68.5 501.2C67.5 501.3 66.5001 501.4 65.6001 501.4C63.9001 501.4 62 501.1 59.8 500.6C57.7 500.1 55.7 499 53.9 497.3C52.7 496.1 51.6 494.7 50.7 493C49.8 491.3 49.3 489.2 49.3 486.6C49.3 484.3 49.7 482.3 50.4 480.7C51.1 479.1 52.1 477.9 53.3 476.9C54.2 476.1 55.3 475.4 56.5 474.9C57.7 474.3 58.9001 473.9 60.1001 473.5C61.3001 473.1 62.3 472.9 63.2 472.7C64.1 472.5 64.6 472.4 64.8 472.3L68.9 471.6C69.1 471.5 69.3 471.5 69.5 471.5C69.6 471.5 69.8 471.5 70 471.5C70.2 471.5 70.5 471.4 70.9 471.3C71.3 471.2 72 471.1 73 470.9C73.9 470.7 74.7 470.5 75.4 470.3C76.2 470.1 76.8 469.7 77.3 469.2C77.8 468.7 78.1 468.2 78.2 467.6C78.3 467 78.4 466.5 78.4 466C78.4 465.2 78.3 464.5 78 463.9C77.8 463.3 77.3 462.7 76.5 462.2C75.6 461.5 74.6 461.1 73.5 461C72.4 460.8 71.4 460.8 70.5 460.8C68.2 460.8 66.6 461 65.5 461.5C64.5 462 63.8 462.4 63.5 462.6C63 463 62.5 463.6 62 464.4C61.5 465.2 61.2 466.2 61.2 467.5H51.4C51.5 465.6 52 463.7 52.8 461.7C53.6 459.7 54.8 458 56.3 456.6C57.4 455.6 58.6 454.8 59.9 454.3C61.2 453.7 62.5 453.3 63.8 453.1C65.1 452.8 66.4001 452.7 67.6001 452.6C68.8001 452.5 69.8 452.5 70.7 452.5C71.4 452.5 72.4 452.5 73.7 452.6C74.9 452.7 76.2001 452.8 77.6001 453.1C79.0001 453.4 80.3001 453.8 81.6001 454.4C82.9001 455 84.1001 455.8 85.1001 456.9C86.6001 458.5 87.5 460.2 87.8 462.1C88.1 463.9 88.3 465.6 88.3 467V490H88ZM70.1001 478.8C68.5001 479.2 67 479.5 65.7 479.8C64.4 480.1 63.3 480.6 62.3 481.3C61.6 481.9 61.0001 482.5 60.6001 483.2C60.2001 483.9 60 484.9 60 486C60 486.7 60.1 487.5 60.4 488.4C60.6 489.3 61.2001 490 62.1001 490.7C63.0001 491.4 63.9 491.8 65 492C66 492.2 67 492.3 67.9 492.3C70.5 492.3 72.5 491.9 73.8 491C75.2 490.1 76.2 489.1 76.8 488.1C77.5 486.9 77.9 485.5 78 484C78.2 482.5 78.2 481 78.2 479.6V476.6C77.3 476.9 76.4 477.2 75.5 477.4C74.5 477.6 73.6001 477.9 72.6001 478.1L70.1001 478.8Z" fill="#004E82"/>
<path d="M97.3 453.8H107.4V460.6C107.8 459.9 108.4 459.1 109 458.2C109.6 457.4 110.3 456.6 111.1 455.9C113 454.3 115 453.4 117 453C119 452.7 120.7 452.6 122.2 452.7V463.9C117.7 463.4 114.1 464.3 111.3 466.5C109.8 467.7 108.8 469 108.3 470.4C107.7 471.8 107.5 473.3 107.5 474.9V500.5H97.4V453.8H97.3Z" fill="#004E82"/>
<path d="M163.6 490C163.6 491.4 163.6 492.6 163.6 493.7C163.6 494.7 163.7 495.7 163.8 496.5C163.9 497.3 164.1 498 164.3 498.7C164.5 499.4 164.8 500.1 165.1 500.8H156C155.1 500.2 154.5 499.5 154.1 498.7C153.9 498.2 153.7 497.7 153.7 497.3C153.7 496.9 153.7 496.6 153.7 496.5C152.6 497.5 151.5 498.4 150.4 499C149.3 499.6 148.2 500.1 147.1 500.5C146 500.8 145 501.1 144 501.2C143 501.3 142 501.4 141.1 501.4C139.4 501.4 137.5 501.1 135.3 500.6C133.2 500.1 131.2 499 129.4 497.3C128.2 496.1 127.1 494.7 126.2 493C125.3 491.3 124.8 489.2 124.8 486.6C124.8 484.3 125.2 482.3 125.9 480.7C126.6 479.1 127.6 477.9 128.8 476.9C129.7 476.1 130.8 475.4 132 474.9C133.2 474.3 134.4 473.9 135.6 473.5C136.8 473.1 137.8 472.9 138.7 472.7C139.6 472.5 140.1 472.4 140.3 472.3L144.4 471.6C144.6 471.5 144.8 471.5 145 471.5C145.1 471.5 145.3 471.5 145.5 471.5C145.7 471.5 146 471.4 146.4 471.3C146.8 471.2 147.5 471.1 148.5 470.9C149.4 470.7 150.2 470.5 150.9 470.3C151.7 470.1 152.3 469.7 152.8 469.2C153.3 468.7 153.6 468.2 153.7 467.6C153.8 467 153.9 466.5 153.9 466C153.9 465.2 153.8 464.5 153.5 463.9C153.3 463.3 152.8 462.7 152 462.2C151.1 461.5 150.1 461.1 149 461C147.9 460.8 146.9 460.8 146 460.8C143.7 460.8 142.1 461 141 461.5C140 462 139.3 462.4 139 462.6C138.5 463 138 463.6 137.5 464.4C137 465.2 136.7 466.2 136.7 467.5H126.9C127 465.6 127.5 463.7 128.3 461.7C129.1 459.7 130.3 458 131.8 456.6C132.9 455.6 134.1 454.8 135.4 454.3C136.7 453.7 138 453.3 139.3 453.1C140.6 452.8 141.9 452.7 143.1 452.6C144.3 452.5 145.3 452.5 146.2 452.5C146.9 452.5 147.9 452.5 149.2 452.6C150.4 452.7 151.7 452.8 153.1 453.1C154.5 453.4 155.8 453.8 157.1 454.4C158.4 455 159.6 455.8 160.6 456.9C162.1 458.5 163 460.2 163.3 462.1C163.6 463.9 163.8 465.6 163.8 467V490H163.6ZM145.7 478.8C144.1 479.2 142.6 479.5 141.3 479.8C140 480.1 138.9 480.6 137.9 481.3C137.2 481.9 136.6 482.5 136.2 483.2C135.8 483.9 135.6 484.9 135.6 486C135.6 486.7 135.7 487.5 136 488.4C136.2 489.3 136.8 490 137.7 490.7C138.6 491.4 139.5 491.8 140.6 492C141.6 492.2 142.6 492.3 143.5 492.3C146.1 492.3 148.1 491.9 149.4 491C150.8 490.1 151.8 489.1 152.4 488.1C153.1 486.9 153.5 485.5 153.6 484C153.8 482.5 153.8 481 153.8 479.6V476.6C152.9 476.9 152 477.2 151.1 477.4C150.1 477.6 149.2 477.9 148.2 478.1L145.7 478.8Z" fill="#004E82"/>
<path d="M172.8 435.6H182.8V500.7H172.8V435.6Z" fill="#004E82"/>
<path d="M197.9 504.7C198.5 504.7 199.1 504.6 199.7 504.5C200.3 504.4 200.8 504.2 201.3 503.9C201.6 503.7 201.9 503.3 202.1 502.9C202.3 502.5 202.5 501.9 202.5 501.2C202.5 500.8 202.5 500.3 202.4 499.9C202.3 499.4 202.2 499.1 202.1 498.7L187.6 453.8H198.2L206.2 480.3C206.3 480.7 206.5 481.3 206.6 481.9C206.8 482.5 206.9 483.2 207 483.8C207.1 484.4 207.2 485.1 207.4 485.7C207.5 486.3 207.6 486.8 207.7 487.2C207.9 485.6 208.2 484.2 208.5 483.1C208.8 481.9 209 481 209.2 480.3L216.6 453.8H227.2L212.7 500.7C211.8 503.5 211.1 505.6 210.3 507C209.6 508.4 208.8 509.5 208 510.3C206.6 511.7 205.2 512.5 203.5 512.8C201.9 513.1 200.3 513.3 198.7 513.3H192.1V504.6H197.9V504.7Z" fill="#004E82"/>
<path d="M232.1 453.8H242.1V458.2C245.5 454.7 249.5 452.9 254.2 452.9C257 452.9 259.4 453.5 261.6 454.7C263.8 455.9 265.5 457.6 266.8 459.8C268.8 457.5 271.1 455.8 273.5 454.7C275.9 453.6 278.5 453 281.2 453C285.7 453 289.3 454.4 291.9 457.3C294.6 460.2 295.9 464.2 295.9 469.4V500.8H285.9V471.3C285.9 465.2 283.4 462.1 278.5 462.1C275.9 462.1 273.6 463.1 271.7 465.1C269.8 467.1 268.8 469.7 268.8 473V500.8H259.1V471.3C259.1 465.2 256.7 462.1 251.8 462.1C250.5 462.1 249.3 462.4 248.1 462.9C246.9 463.4 245.9 464.2 245 465.1C244.1 466.1 243.4 467.2 242.9 468.6C242.4 470 242.1 471.4 242.1 473V500.8H232.1V453.8Z" fill="#004E82"/>
<path d="M304.9 453.8H314.9V458.2C315.3 457.8 315.8 457.3 316.4 456.7C317 456.1 317.9 455.5 318.8 455C319.8 454.4 321 454 322.3 453.6C323.7 453.2 325.2 453 327 453C328.1 453 329.3 453.1 330.6 453.3C331.9 453.5 333.1 453.8 334.4 454.4C335.7 454.9 337 455.6 338.2 456.5C339.4 457.4 340.6 458.5 341.7 460C342.3 460.8 342.9 461.7 343.6 462.8C344.2 463.9 344.8 465.1 345.3 466.6C345.8 468 346.2 469.7 346.5 471.5C346.8 473.3 347 475.3 347 477.5C347 481.1 346.5 484.3 345.6 487.3C344.7 490.3 343.4 492.9 341.6 495C339.9 497.2 337.8 498.9 335.3 500.1C332.8 501.3 330 501.9 326.9 501.9C326.1 501.9 325.2 501.8 324.2 501.7C323.2 501.6 322.2 501.3 321.1 501C320 500.6 318.9 500.1 317.8 499.4C316.7 498.7 315.6 497.8 314.7 496.6V513.2H304.7V453.8H304.9ZM314.9 477.5C314.9 478.4 314.9 479.3 315 480.3C315.1 481.3 315.2 482.3 315.4 483.3C315.6 484.3 315.8 485.4 316.2 486.3C316.5 487.3 317 488.2 317.6 489C318.7 490.5 320 491.4 321.4 491.8C322.8 492.2 324.1 492.4 325.3 492.4C328.9 492.4 331.7 491 333.7 488.3C334.4 487.3 335.1 485.9 335.7 484.2C336.3 482.5 336.6 480.2 336.6 477.5C336.6 474.5 336.3 472 335.6 470.1C334.9 468.2 334.1 466.7 333 465.7C332.3 464.9 331.2 464.2 330 463.5C328.7 462.9 327.1 462.5 325.1 462.5C323.7 462.5 322.6 462.7 321.6 463.1C320.6 463.5 319.8 463.9 319.2 464.4C318.2 465.2 317.4 466.2 316.8 467.4C316.2 468.6 315.8 469.8 315.6 471C315.3 472.2 315.2 473.4 315.1 474.6C314.9 475.7 314.9 476.7 314.9 477.5Z" fill="#004E82"/>
<path d="M354.1 435.6H364.1V446.8H354.1V435.6ZM354.1 453.8H364.1V500.7H354.1V453.8Z" fill="#004E82"/>
<path d="M403.8 470.4C403.5 469.5 403 468.6 402.5 467.6C401.9 466.6 401.3 465.7 400.6 465.1C399.9 464.4 399 463.8 397.7 463.1C396.4 462.5 394.9 462.1 393.1 462.1C391.5 462.1 390.1 462.4 388.9 463C387.7 463.6 386.6 464.4 385.7 465.4C384.7 466.4 383.8 467.9 382.9 469.7C382 471.5 381.6 473.9 381.6 476.9C381.6 478.6 381.8 480.3 382.1 481.9C382.4 483.5 382.9 484.9 383.6 486.2C384 486.9 384.4 487.6 384.9 488.2C385.4 488.9 386.1 489.5 386.9 490.1C387.7 490.7 388.6 491.2 389.6 491.5C390.6 491.8 391.8 492.1 393.2 492.1C395 492.1 396.5 491.8 397.7 491.1C398.9 490.5 399.9 489.8 400.7 489C401.4 488.3 402.1 487.5 402.6 486.6C403.2 485.7 403.6 484.8 403.9 483.9L412.8 488.7C411.9 490.5 410.9 492.3 409.6 494C408.3 495.7 406.8 497.2 405.2 498.3C403.5 499.5 401.6 500.4 399.5 501C397.4 501.6 395.3 501.9 393.1 501.9C391.1 501.9 389.2 501.7 387.6 501.3C386 500.9 384.5 500.3 383.3 499.7C382 499.1 381 498.4 380.1 497.7C379.2 497 378.6 496.4 378.1 495.9C376 493.7 374.3 491.1 373.1 487.8C371.8 484.6 371.2 480.9 371.2 476.9C371.2 473.2 371.8 469.8 373 466.7C374.2 463.7 375.8 461.1 377.8 458.9C379.8 456.9 382.1 455.3 384.8 454.1C387.5 452.9 390.4 452.3 393.5 452.3C396.1 452.3 398.4 452.7 400.5 453.4C402.6 454.1 404.4 455.1 405.9 456.3C407 457.2 408 458.1 408.9 459.1C409.8 460.1 410.5 461 411.1 462C411.7 462.9 412.1 463.7 412.5 464.4C412.8 465.1 413.1 465.6 413.2 465.9L403.8 470.4Z" fill="#004E82"/>
<path d="M423.5 487C424.3 487.9 425.2 488.7 426.3 489.5C427.3 490.3 428.5 490.9 429.7 491.4C430.7 491.8 431.8 492.1 433 492.3C434.2 492.5 435.5 492.7 436.9 492.7C437.6 492.7 438.7 492.6 440.1 492.4C441.6 492.2 442.9 491.6 444.1 490.7C444.8 490.1 445.4 489.5 445.7 488.8C446 488.1 446.2 487.4 446.2 486.7C446.2 485.3 445.9 484.4 445.3 483.8C444.7 483.2 444 482.8 443.2 482.5C442.3 482.2 441.4 481.9 440.2 481.8C439.1 481.6 437.6 481.4 435.8 481.1L432.9 480.6C431.5 480.4 430.1 480.1 428.6 479.8C427.2 479.5 425.8 479 424.4 478.3C422.4 477.4 420.8 476.1 419.6 474.5C418.4 472.9 417.8 470.6 417.8 467.6C417.8 466.2 418 465 418.3 464C418.6 462.9 419.1 461.9 419.5 461C420 460.1 420.5 459.3 421.1 458.7C421.7 458.1 422.3 457.5 422.8 457.1C424.7 455.5 426.9 454.4 429.4 453.7C431.9 453 434.4 452.7 437 452.7C439 452.7 440.9 452.9 442.6 453.3C444.3 453.7 445.8 454.1 447.1 454.6C448.5 455.2 449.9 456 451.3 456.9C452.7 457.8 453.9 458.8 455 459.9L449 466.4C448.3 465.7 447.4 465 446.4 464.4C445.4 463.7 444.2 463.1 442.8 462.6C441.8 462.2 440.8 462 439.8 461.8C438.9 461.6 437.8 461.5 436.7 461.5C436 461.5 435.2 461.5 434.1 461.6C433.1 461.7 432 462 431.1 462.4C429.7 463 428.9 463.6 428.5 464.4C428.1 465.2 427.9 465.9 427.9 466.6C427.9 467.8 428.2 468.6 428.9 469.1C429.5 469.6 430.2 470 430.9 470.3C431.9 470.7 432.9 470.9 433.8 471C434.8 471.1 435.9 471.3 437.4 471.6L443.4 472.6C444.5 472.8 446 473.2 447.7 473.7C449.5 474.3 451.1 475.2 452.7 476.6C455.3 478.8 456.6 481.9 456.6 486C456.6 488.6 456.2 490.7 455.3 492.4C454.4 494.1 453.4 495.5 452.3 496.6C450.9 498 449 499.3 446.5 500.4C444.1 501.5 441 502.1 437.1 502.1C435.1 502.1 433 501.9 430.6 501.5C428.3 501.1 426.1 500.5 424.1 499.7C421.9 498.8 420.2 497.7 418.9 496.6C417.6 495.4 416.6 494.5 416 493.8L423.5 487Z" fill="#004E82"/>
<path d="M509.4 494.5C506.8 497.3 503.8 499.3 500.6 500.5C498.8 501.2 497 501.7 495.3 501.9C493.5 502.2 491.8 502.3 490 502.3C485.5 502.3 481.6 501.5 478.3 500C475 498.5 472.1 496.4 469.7 493.8C468.7 492.7 467.7 491.4 466.7 489.9C465.7 488.4 464.9 486.6 464.1 484.6C463.3 482.6 462.7 480.3 462.3 477.7C461.8 475.2 461.6 472.3 461.6 469.2C461.6 463.8 462.4 458.9 463.9 454.5C465.4 450.1 467.5 446.4 470.3 443.4C473.1 440.4 476.4 438.1 480.4 436.4C484.3 434.8 488.8 434 493.7 434C500 434 505.5 435.4 510.3 438.1C515.1 440.8 518.9 444.7 521.7 449.8L509.2 456.6C508.5 455.4 507.6 454.2 506.6 453.1C505.6 452 504.6 451.1 503.6 450.4C502.7 449.8 501.6 449.3 500.1 448.7C498.6 448.1 496.8 447.8 494.6 447.8C491.6 447.8 489.1 448.3 487.1 449.2C485 450.1 483.3 451.4 482 453C481 454.2 480.2 455.4 479.6 456.7C479 458 478.5 459.3 478.2 460.7C477.9 462 477.7 463.3 477.6 464.7C477.5 466 477.4 467.2 477.4 468.3C477.4 472.4 477.9 475.7 478.9 478.2C479.9 480.7 481 482.6 482.2 484C484 486 486.1 487.3 488.2 487.9C490.4 488.5 492.3 488.8 494 488.8C498.1 488.8 501.5 487.7 504 485.6C506.6 483.5 508 480.6 508.4 477.1H494.3V464.5H522.1V500.8H510.2L509.4 494.5Z" fill="#004E82"/>
<path d="M531.9 435.6H559.7C567.9 435.6 574.1 436.9 578.1 439.4C582.1 441.9 584.1 446 584.1 451.7C584.1 456.4 582.8 460 580.2 462.6C577.6 465.2 573.9 466.7 569 467C575.1 467.6 579.5 469.1 582.2 471.5C584.9 474 586.3 477.7 586.3 482.7C586.3 486.3 585.5 489.4 583.8 492.1C582.1 494.8 579.8 496.8 576.8 498.1C573.8 499.4 570.7 500.1 567.6 500.4C564.5 500.6 561.1 500.7 557.6 500.7H531.8V435.6H531.9ZM547.3 489H557C559.4 489 561.5 488.9 563.2 488.7C564.9 488.5 566.4 488.1 567.5 487.5C568.7 486.9 569.5 486.1 570.1 485.1C570.7 484.1 570.9 482.7 570.9 481C570.9 479.3 570.6 477.9 570 476.9C569.4 475.9 568.6 475 567.4 474.5C566.3 473.9 564.8 473.5 563.1 473.3C561.3 473.1 559.3 473 557 473H547.3V489ZM547.7 461.2H556.5C560.8 461.2 564 460.8 566 459.9C568.1 459 569.1 457.2 569.1 454.3C569.1 451.3 568.1 449.5 566 448.6C563.9 447.8 560.7 447.4 556.5 447.4H547.7V461.2Z" fill="#004E82"/>
<path d="M272.6 356.6V368.3L293.5 373.7L314.1 367.6V356.7L293.5 345.2L272.6 356.6Z" fill="#DB0814"/>
<path d="M333.1 179.8L293.4 201.5L253.8 179.8L217.4 255.8L251 296.9V341.7L266.3 350.5L285.5 338.9L272.6 323.5L314.2 323.4L301.4 338.9L320.5 350.4L335.8 341.6V296.8L369.4 255.7L333.1 179.8ZM271 313.4L270.5 263.7L254.2 259.2L242.6 241.9L279.3 252.8L271 313.4ZM333 259.1L316.7 263.6L316.2 313.3L307.9 252.7L344.6 241.8L333 259.1Z" fill="#DB0814"/>
<path d="M287.4 555.4C264.4 550.1 233 555.9 203.3 573.1C156.9 599.9 132.2 644.2 148.3 672.1C158.6 689.9 183 696.7 211.4 692.3C198.4 689.3 188.1 682.8 182.3 672.7C166.2 644.8 190.8 600.5 237.3 573.7C254 564 271.4 557.9 287.4 555.4Z" fill="#E52322"/>
<path d="M287.8 665.4C294.7 688 315.5 712.3 345.2 729.4C391.6 756.2 442.3 755.4 458.4 727.5C468.7 709.7 462.3 685.2 444.3 662.8C448.2 675.5 447.7 687.7 441.9 697.8C425.8 725.7 375.1 726.5 328.7 699.7C311.9 690 298 678 287.8 665.4Z" fill="#009640"/>
<path d="M256.3 610.7C240.2 628 229.5 658.1 229.5 692.4C229.5 746 255.6 789.5 287.8 789.5C308.4 789.5 326.4 771.7 336.8 744.9C327.7 754.7 316.9 760.3 305.3 760.3C273.1 760.3 247 716.8 247 663.2C247.1 643.8 250.5 625.8 256.3 610.7Z" fill="#0075BF"/>
</g>
<defs>
<clipPath id="clip0_302_84480">
<rect width="587" height="790" fill="white"/>
</clipPath>
</defs>
</svg>
