<svg width="587" height="790" viewBox="0 0 587 790" fill="none" xmlns="http://www.w3.org/2000/svg">
<g clip-path="url(#clip0_302_84479)">
<path d="M394.3 53.8C419 38.1 421 31.7 426.6 24.6C370 67.9 229.5 18.2 259.9 170.3C270.8 176.3 287 185.1 292.2 188L326.1 169.8C316.9 85.2 369.4 71.2 394.3 53.8Z" fill="white"/>
<path d="M210.2 95C185.9 116.5 174.7 156.1 187.3 188C188.9 192 190.8 196.1 193.2 200.2L199.6 210C204 215.9 210.4 222.6 216.4 228.5L228.4 203.4C185.9 157.4 200.3 110.3 210.2 95Z" fill="white"/>
<path d="M202 258.2L210.6 240C194.2 224.5 182.8 209.2 176.8 193.3C173.9 185.6 172.3 179.1 172.3 170C165.5 201.5 168.6 230.7 183.9 261.7C198.5 291.2 221.6 314.8 238.1 329.5L237.8 301.1L202 258.2Z" fill="white"/>
<path d="M212.2 140.2C214.9 162.9 225.8 181 233.9 192L246 166.6C246 166.6 242.9 145.6 242.3 135.7C240.3 104.3 251.1 79.6 273.9 63.9C253.1 69.1 205.2 81.9 212.2 140.2Z" fill="white"/>
<path d="M457.2 0.599976C414.3 92.6 328.9 60.1 337.8 165.2L349.6 189.8C358.3 165.5 358.1 152.7 370.5 135.1C398.7 95.1 437.7 122.1 457.2 0.599976Z" fill="white"/>
<path d="M451.1 68C441.6 101.7 413.1 116.2 405.5 120.7C371.7 140.5 367.7 168.2 357.4 206.2L367.5 227.2C395.4 163.7 391 163.9 425.8 142.1C435.2 136.3 451.5 118.9 451.1 68Z" fill="white"/>
<path d="M374.1 241.4L381.8 257.4L346.6 301.1C346.5 305.3 346.6 317.9 346.5 330.1C385.4 295.9 402.1 280.6 411.2 229.9C413.5 217.1 418.6 162.6 432.7 152.4C394.6 168.8 388.2 216.4 374.1 241.4Z" fill="white"/>
<path d="M0.600098 435.6H23.6001C27.8001 435.6 31.3001 436.2 33.9001 437.4C36.5001 438.6 38.5001 439.8 39.9001 441.1C40.5001 441.7 41.2001 442.5 41.8001 443.4C42.5001 444.3 43.1001 445.4 43.7001 446.7C44.3001 448 44.8001 449.5 45.1001 451.2C45.5001 452.9 45.7001 454.8 45.7001 457C45.7001 460.4 45.2001 463.4 44.1001 465.9C43.1001 468.4 41.6001 470.5 39.9001 472.3C38.2001 474 36.0001 475.3 33.4001 476.4C30.8001 477.5 27.7001 478 24.4001 478H11.9001V500.8H0.600098V435.6ZM23.0001 468C25.0001 468 26.6001 467.7 27.9001 467.1C29.2001 466.5 30.3001 465.9 31.0001 465.1C31.7001 464.4 32.4001 463.3 33.0001 462C33.6001 460.7 33.9001 459 33.9001 456.9C33.9001 455 33.6001 453.4 33.1001 452C32.6001 450.6 31.9001 449.5 31.1001 448.6C29.7001 447.2 28.3001 446.4 26.7001 446.1C25.1001 445.8 23.9001 445.6 23.1001 445.6H11.7001V468H23.0001Z" fill="white"/>
<path d="M88.1001 490C88.1001 491.4 88.1001 492.6 88.1001 493.7C88.1001 494.7 88.2001 495.7 88.3001 496.5C88.4001 497.3 88.6001 498 88.8001 498.7C89.0001 499.4 89.3001 500.1 89.6001 500.8H80.6001C79.7001 500.2 79.1001 499.5 78.7001 498.7C78.5001 498.2 78.3001 497.7 78.3001 497.3C78.3001 496.9 78.3001 496.6 78.3001 496.5C77.2001 497.5 76.1001 498.4 75.0001 499C73.9001 499.6 72.8001 500.1 71.7001 500.5C70.6001 500.8 69.6001 501.1 68.6001 501.2C67.6001 501.3 66.6001 501.4 65.7001 501.4C64.0001 501.4 62.1001 501.1 59.9001 500.6C57.8001 500.1 55.8001 499 54.0001 497.3C52.8001 496.1 51.7001 494.7 50.8001 493C49.9001 491.3 49.4001 489.2 49.4001 486.6C49.4001 484.3 49.8001 482.3 50.5001 480.7C51.2001 479.1 52.2001 477.9 53.4001 476.9C54.3001 476.1 55.4001 475.4 56.6001 474.9C57.8001 474.3 59.0001 473.9 60.2001 473.5C61.4001 473.1 62.4001 472.9 63.3001 472.7C64.2001 472.5 64.7001 472.4 64.9001 472.3L69.0001 471.6C69.2001 471.5 69.4001 471.5 69.6001 471.5C69.7001 471.5 69.9001 471.5 70.1001 471.5C70.3001 471.5 70.6001 471.4 71.0001 471.3C71.4001 471.2 72.1001 471.1 73.1001 470.9C74.0001 470.7 74.8001 470.5 75.5001 470.3C76.3001 470.1 76.9001 469.7 77.4001 469.2C77.9001 468.7 78.2001 468.2 78.3001 467.6C78.4001 467 78.5001 466.5 78.5001 466C78.5001 465.2 78.4001 464.5 78.1001 463.9C77.9001 463.3 77.4001 462.7 76.6001 462.2C75.7001 461.5 74.7001 461.1 73.6001 461C72.5001 460.8 71.5001 460.8 70.6001 460.8C68.3001 460.8 66.7001 461 65.6001 461.5C64.6001 462 63.9001 462.4 63.6001 462.6C63.1001 463 62.6001 463.6 62.1001 464.4C61.6001 465.2 61.3001 466.2 61.3001 467.5H51.5001C51.6001 465.6 52.1001 463.7 52.9001 461.7C53.7001 459.7 54.9001 458 56.4001 456.6C57.5001 455.6 58.7001 454.8 60.0001 454.3C61.3001 453.7 62.6001 453.3 63.9001 453.1C65.2001 452.8 66.5001 452.7 67.7001 452.6C68.9001 452.5 69.9001 452.5 70.8001 452.5C71.5001 452.5 72.5001 452.5 73.8001 452.6C75.0001 452.7 76.3001 452.8 77.7001 453.1C79.1001 453.4 80.4001 453.8 81.7001 454.4C83.0001 455 84.2001 455.8 85.2001 456.9C86.7001 458.5 87.6001 460.2 87.9001 462.1C88.2001 463.9 88.4001 465.6 88.4001 467V490H88.1001ZM70.2001 478.8C68.6001 479.2 67.1001 479.5 65.8001 479.8C64.5001 480.1 63.4001 480.6 62.4001 481.3C61.7001 481.9 61.1001 482.5 60.7001 483.2C60.3001 483.9 60.1001 484.9 60.1001 486C60.1001 486.7 60.2001 487.5 60.5001 488.4C60.7001 489.3 61.3001 490 62.2001 490.7C63.1001 491.4 64.0001 491.8 65.1001 492C66.1001 492.2 67.1001 492.3 68.0001 492.3C70.6001 492.3 72.6001 491.9 73.9001 491C75.3001 490.1 76.3001 489.1 76.9001 488.1C77.6001 486.9 78.0001 485.5 78.1001 484C78.3001 482.5 78.3001 481 78.3001 479.6V476.6C77.4001 476.9 76.5001 477.2 75.6001 477.4C74.6001 477.6 73.7001 477.9 72.7001 478.1L70.2001 478.8Z" fill="white"/>
<path d="M97.4001 453.8H107.5V460.6C107.9 459.9 108.5 459.1 109.1 458.2C109.7 457.4 110.4 456.6 111.2 455.9C113.1 454.3 115.1 453.4 117.1 453C119.1 452.7 120.8 452.6 122.3 452.7V463.9C117.8 463.4 114.2 464.3 111.4 466.5C109.9 467.7 108.9 469 108.4 470.4C107.8 471.8 107.6 473.3 107.6 474.9V500.5H97.5001V453.8H97.4001Z" fill="white"/>
<path d="M163.7 490C163.7 491.4 163.7 492.6 163.7 493.7C163.7 494.7 163.8 495.7 163.9 496.5C164 497.3 164.2 498 164.4 498.7C164.6 499.4 164.9 500.1 165.2 500.8H156.1C155.2 500.2 154.6 499.5 154.2 498.7C154 498.2 153.8 497.7 153.8 497.3C153.8 496.9 153.8 496.6 153.8 496.5C152.7 497.5 151.6 498.4 150.5 499C149.4 499.6 148.3 500.1 147.2 500.5C146.1 500.8 145.1 501.1 144.1 501.2C143.1 501.3 142.1 501.4 141.2 501.4C139.5 501.4 137.6 501.1 135.4 500.6C133.3 500.1 131.3 499 129.5 497.3C128.3 496.1 127.2 494.7 126.3 493C125.4 491.3 124.9 489.2 124.9 486.6C124.9 484.3 125.3 482.3 126 480.7C126.7 479.1 127.7 477.9 128.9 476.9C129.8 476.1 130.9 475.4 132.1 474.9C133.3 474.3 134.5 473.9 135.7 473.5C136.9 473.1 137.9 472.9 138.8 472.7C139.7 472.5 140.2 472.4 140.4 472.3L144.5 471.6C144.7 471.5 144.9 471.5 145.1 471.5C145.2 471.5 145.4 471.5 145.6 471.5C145.8 471.5 146.1 471.4 146.5 471.3C146.9 471.2 147.6 471.1 148.6 470.9C149.5 470.7 150.3 470.5 151 470.3C151.8 470.1 152.4 469.7 152.9 469.2C153.4 468.7 153.7 468.2 153.8 467.6C153.9 467 154 466.5 154 466C154 465.2 153.9 464.5 153.6 463.9C153.4 463.3 152.9 462.7 152.1 462.2C151.2 461.5 150.2 461.1 149.1 461C148 460.8 147 460.8 146.1 460.8C143.8 460.8 142.2 461 141.1 461.5C140.1 462 139.4 462.4 139.1 462.6C138.6 463 138.1 463.6 137.6 464.4C137.1 465.2 136.8 466.2 136.8 467.5H127C127.1 465.6 127.6 463.7 128.4 461.7C129.2 459.7 130.4 458 131.9 456.6C133 455.6 134.2 454.8 135.5 454.3C136.8 453.7 138.1 453.3 139.4 453.1C140.7 452.8 142 452.7 143.2 452.6C144.4 452.5 145.4 452.5 146.3 452.5C147 452.5 148 452.5 149.3 452.6C150.5 452.7 151.8 452.8 153.2 453.1C154.6 453.4 155.9 453.8 157.2 454.4C158.5 455 159.7 455.8 160.7 456.9C162.2 458.5 163.1 460.2 163.4 462.1C163.7 463.9 163.9 465.6 163.9 467V490H163.7ZM145.8 478.8C144.2 479.2 142.7 479.5 141.4 479.8C140.1 480.1 139 480.6 138 481.3C137.3 481.9 136.7 482.5 136.3 483.2C135.9 483.9 135.7 484.9 135.7 486C135.7 486.7 135.8 487.5 136.1 488.4C136.3 489.3 136.9 490 137.8 490.7C138.7 491.4 139.6 491.8 140.7 492C141.7 492.2 142.7 492.3 143.6 492.3C146.2 492.3 148.2 491.9 149.5 491C150.9 490.1 151.9 489.1 152.5 488.1C153.2 486.9 153.6 485.5 153.7 484C153.9 482.5 153.9 481 153.9 479.6V476.6C153 476.9 152.1 477.2 151.2 477.4C150.2 477.6 149.3 477.9 148.3 478.1L145.8 478.8Z" fill="white"/>
<path d="M172.9 435.6H182.9V500.7H172.9V435.6Z" fill="white"/>
<path d="M198 504.7C198.6 504.7 199.2 504.6 199.8 504.5C200.4 504.4 200.9 504.2 201.4 503.9C201.7 503.7 202 503.3 202.2 502.9C202.4 502.5 202.6 501.9 202.6 501.2C202.6 500.8 202.6 500.3 202.5 499.9C202.4 499.4 202.3 499.1 202.2 498.7L187.7 453.8H198.3L206.3 480.3C206.4 480.7 206.6 481.3 206.7 481.9C206.9 482.5 207 483.2 207.1 483.8C207.2 484.4 207.3 485.1 207.5 485.7C207.6 486.3 207.7 486.8 207.8 487.2C208 485.6 208.3 484.2 208.6 483.1C208.9 481.9 209.1 481 209.3 480.3L216.7 453.8H227.3L212.8 500.7C211.9 503.5 211.2 505.6 210.4 507C209.7 508.4 208.9 509.5 208.1 510.3C206.7 511.7 205.3 512.5 203.6 512.8C202 513.1 200.4 513.3 198.8 513.3H192.2V504.6H198V504.7Z" fill="white"/>
<path d="M232.2 453.8H242.2V458.2C245.6 454.7 249.6 452.9 254.3 452.9C257.1 452.9 259.5 453.5 261.7 454.7C263.9 455.9 265.6 457.6 266.9 459.8C268.9 457.5 271.2 455.8 273.6 454.7C276 453.6 278.6 453 281.3 453C285.8 453 289.4 454.4 292 457.3C294.7 460.2 296 464.2 296 469.4V500.8H286V471.3C286 465.2 283.5 462.1 278.6 462.1C276 462.1 273.7 463.1 271.8 465.1C269.9 467.1 268.9 469.7 268.9 473V500.8H259.2V471.3C259.2 465.2 256.8 462.1 251.9 462.1C250.6 462.1 249.4 462.4 248.2 462.9C247 463.4 246 464.2 245.1 465.1C244.2 466.1 243.5 467.2 243 468.6C242.5 470 242.2 471.4 242.2 473V500.8H232.2V453.8Z" fill="white"/>
<path d="M305 453.8H315V458.2C315.4 457.8 315.9 457.3 316.5 456.7C317.1 456.1 318 455.5 318.9 455C319.9 454.4 321.1 454 322.4 453.6C323.8 453.2 325.3 453 327.1 453C328.2 453 329.4 453.1 330.7 453.3C332 453.5 333.2 453.8 334.5 454.4C335.8 454.9 337.1 455.6 338.3 456.5C339.5 457.4 340.7 458.5 341.8 460C342.4 460.8 343 461.7 343.7 462.8C344.3 463.9 344.9 465.1 345.4 466.6C345.9 468 346.3 469.7 346.6 471.5C346.9 473.3 347.1 475.3 347.1 477.5C347.1 481.1 346.6 484.3 345.7 487.3C344.8 490.3 343.5 492.9 341.7 495C340 497.2 337.9 498.9 335.4 500.1C332.9 501.3 330.1 501.9 327 501.9C326.2 501.9 325.3 501.8 324.3 501.7C323.3 501.6 322.3 501.3 321.2 501C320.1 500.6 319 500.1 317.9 499.4C316.8 498.7 315.7 497.8 314.8 496.6V513.2H304.8V453.8H305ZM315 477.5C315 478.4 315 479.3 315.1 480.3C315.2 481.3 315.3 482.3 315.5 483.3C315.7 484.3 315.9 485.4 316.3 486.3C316.6 487.3 317.1 488.2 317.7 489C318.8 490.5 320.1 491.4 321.5 491.8C322.9 492.2 324.2 492.4 325.4 492.4C329 492.4 331.8 491 333.8 488.3C334.5 487.3 335.2 485.9 335.8 484.2C336.4 482.5 336.7 480.2 336.7 477.5C336.7 474.5 336.4 472 335.7 470.1C335 468.2 334.2 466.7 333.1 465.7C332.4 464.9 331.3 464.2 330.1 463.5C328.8 462.9 327.2 462.5 325.2 462.5C323.8 462.5 322.7 462.7 321.7 463.1C320.7 463.5 319.9 463.9 319.3 464.4C318.3 465.2 317.5 466.2 316.9 467.4C316.3 468.6 315.9 469.8 315.7 471C315.4 472.2 315.3 473.4 315.2 474.6C315 475.7 315 476.7 315 477.5Z" fill="white"/>
<path d="M354.2 435.6H364.2V446.8H354.2V435.6ZM354.2 453.8H364.2V500.7H354.2V453.8Z" fill="white"/>
<path d="M403.9 470.4C403.6 469.5 403.1 468.6 402.6 467.6C402 466.6 401.4 465.7 400.7 465.1C400 464.4 399.1 463.8 397.8 463.1C396.5 462.5 395 462.1 393.2 462.1C391.6 462.1 390.2 462.4 389 463C387.8 463.6 386.7 464.4 385.8 465.4C384.8 466.4 383.9 467.9 383 469.7C382.1 471.5 381.7 473.9 381.7 476.9C381.7 478.6 381.9 480.3 382.2 481.9C382.5 483.5 383 484.9 383.7 486.2C384.1 486.9 384.5 487.6 385 488.2C385.5 488.9 386.2 489.5 387 490.1C387.8 490.7 388.7 491.2 389.7 491.5C390.7 491.8 391.9 492.1 393.3 492.1C395.1 492.1 396.6 491.8 397.8 491.1C399 490.5 400 489.8 400.8 489C401.5 488.3 402.2 487.5 402.7 486.6C403.3 485.7 403.7 484.8 404 483.9L412.9 488.7C412 490.5 411 492.3 409.7 494C408.4 495.7 406.9 497.2 405.3 498.3C403.6 499.5 401.7 500.4 399.6 501C397.5 501.6 395.4 501.9 393.2 501.9C391.2 501.9 389.3 501.7 387.7 501.3C386.1 500.9 384.6 500.3 383.4 499.7C382.1 499.1 381.1 498.4 380.2 497.7C379.3 497 378.7 496.4 378.2 495.9C376.1 493.7 374.4 491.1 373.2 487.8C371.9 484.6 371.3 480.9 371.3 476.9C371.3 473.2 371.9 469.8 373.1 466.7C374.3 463.7 375.9 461.1 377.9 458.9C379.9 456.9 382.2 455.3 384.9 454.1C387.6 452.9 390.5 452.3 393.6 452.3C396.2 452.3 398.5 452.7 400.6 453.4C402.7 454.1 404.5 455.1 406 456.3C407.1 457.2 408.1 458.1 409 459.1C409.9 460.1 410.6 461 411.2 462C411.8 462.9 412.2 463.7 412.6 464.4C412.9 465.1 413.2 465.6 413.3 465.9L403.9 470.4Z" fill="white"/>
<path d="M423.6 487C424.4 487.9 425.3 488.7 426.4 489.5C427.4 490.3 428.6 490.9 429.8 491.4C430.8 491.8 431.9 492.1 433.1 492.3C434.3 492.5 435.6 492.7 437 492.7C437.7 492.7 438.8 492.6 440.2 492.4C441.7 492.2 443 491.6 444.2 490.7C444.9 490.1 445.5 489.5 445.8 488.8C446.1 488.1 446.3 487.4 446.3 486.7C446.3 485.3 446 484.4 445.4 483.8C444.8 483.2 444.1 482.8 443.3 482.5C442.4 482.2 441.5 481.9 440.3 481.8C439.2 481.6 437.7 481.4 435.9 481.1L433 480.6C431.6 480.4 430.2 480.1 428.7 479.8C427.3 479.5 425.9 479 424.5 478.3C422.5 477.4 420.9 476.1 419.7 474.5C418.5 472.9 417.9 470.6 417.9 467.6C417.9 466.2 418.1 465 418.4 464C418.7 462.9 419.2 461.9 419.6 461C420.1 460.1 420.6 459.3 421.2 458.7C421.8 458.1 422.4 457.5 422.9 457.1C424.8 455.5 427 454.4 429.5 453.7C432 453 434.5 452.7 437.1 452.7C439.1 452.7 441 452.9 442.7 453.3C444.4 453.7 445.9 454.1 447.2 454.6C448.6 455.2 450 456 451.4 456.9C452.8 457.8 454 458.8 455.1 459.9L449.1 466.4C448.4 465.7 447.5 465 446.5 464.4C445.5 463.7 444.3 463.1 442.9 462.6C441.9 462.2 440.9 462 439.9 461.8C439 461.6 437.9 461.5 436.8 461.5C436.1 461.5 435.3 461.5 434.2 461.6C433.2 461.7 432.1 462 431.2 462.4C429.8 463 429 463.6 428.6 464.4C428.2 465.2 428 465.9 428 466.6C428 467.8 428.3 468.6 429 469.1C429.6 469.6 430.3 470 431 470.3C432 470.7 433 470.9 433.9 471C434.9 471.1 436 471.3 437.5 471.6L443.5 472.6C444.6 472.8 446.1 473.2 447.8 473.7C449.6 474.3 451.2 475.2 452.8 476.6C455.4 478.8 456.7 481.9 456.7 486C456.7 488.6 456.3 490.7 455.4 492.4C454.5 494.1 453.5 495.5 452.4 496.6C451 498 449.1 499.3 446.6 500.4C444.2 501.5 441.1 502.1 437.2 502.1C435.2 502.1 433.1 501.9 430.7 501.5C428.4 501.1 426.2 500.5 424.2 499.7C422 498.8 420.3 497.7 419 496.6C417.7 495.4 416.7 494.5 416.1 493.8L423.6 487Z" fill="white"/>
<path d="M509.5 494.5C506.9 497.3 503.9 499.3 500.7 500.5C498.9 501.2 497.1 501.7 495.4 501.9C493.6 502.2 491.9 502.3 490.1 502.3C485.6 502.3 481.7 501.5 478.4 500C475.1 498.5 472.2 496.4 469.8 493.8C468.8 492.7 467.8 491.4 466.8 489.9C465.8 488.4 465 486.6 464.2 484.6C463.4 482.6 462.8 480.3 462.4 477.7C461.9 475.2 461.7 472.3 461.7 469.2C461.7 463.8 462.5 458.9 464 454.5C465.5 450.1 467.6 446.4 470.4 443.4C473.2 440.4 476.5 438.1 480.5 436.4C484.4 434.8 488.9 434 493.8 434C500.1 434 505.6 435.4 510.4 438.1C515.2 440.8 519 444.7 521.8 449.8L509.3 456.6C508.6 455.4 507.7 454.2 506.7 453.1C505.7 452 504.7 451.1 503.7 450.4C502.8 449.8 501.7 449.3 500.2 448.7C498.7 448.1 496.9 447.8 494.7 447.8C491.7 447.8 489.2 448.3 487.2 449.2C485.1 450.1 483.4 451.4 482.1 453C481.1 454.2 480.3 455.4 479.7 456.7C479.1 458 478.6 459.3 478.3 460.7C478 462 477.8 463.3 477.7 464.7C477.6 466 477.5 467.2 477.5 468.3C477.5 472.4 478 475.7 479 478.2C480 480.7 481.1 482.6 482.3 484C484.1 486 486.2 487.3 488.3 487.9C490.5 488.5 492.4 488.8 494.1 488.8C498.2 488.8 501.6 487.7 504.1 485.6C506.7 483.5 508.1 480.6 508.5 477.1H494.4V464.5H522.2V500.8H510.3L509.5 494.5Z" fill="white"/>
<path d="M532 435.6H559.8C568 435.6 574.2 436.9 578.2 439.4C582.2 441.9 584.2 446 584.2 451.7C584.2 456.4 582.9 460 580.3 462.6C577.7 465.2 574 466.7 569.1 467C575.2 467.6 579.6 469.1 582.3 471.5C585 474 586.4 477.7 586.4 482.7C586.4 486.3 585.6 489.4 583.9 492.1C582.2 494.8 579.9 496.8 576.9 498.1C573.9 499.4 570.8 500.1 567.7 500.4C564.6 500.6 561.2 500.7 557.7 500.7H531.9V435.6H532ZM547.4 489H557.1C559.5 489 561.6 488.9 563.3 488.7C565 488.5 566.5 488.1 567.6 487.5C568.8 486.9 569.6 486.1 570.2 485.1C570.8 484.1 571 482.7 571 481C571 479.3 570.7 477.9 570.1 476.9C569.5 475.9 568.7 475 567.5 474.5C566.4 473.9 564.9 473.5 563.2 473.3C561.4 473.1 559.4 473 557.1 473H547.4V489ZM547.8 461.2H556.6C560.9 461.2 564.1 460.8 566.1 459.9C568.2 459 569.2 457.2 569.2 454.3C569.2 451.3 568.2 449.5 566.1 448.6C564 447.8 560.8 447.4 556.6 447.4H547.8V461.2Z" fill="white"/>
<path d="M272.7 356.6V368.3L293.6 373.7L314.2 367.6V356.7L293.6 345.2L272.7 356.6Z" fill="white"/>
<path d="M333.2 179.8L293.5 201.5L253.9 179.8L217.5 255.8L251.1 296.9V341.7L266.4 350.5L285.6 338.9L272.7 323.5L314.3 323.4L301.5 338.9L320.6 350.4L335.9 341.6V296.8L369.5 255.7L333.2 179.8ZM271.1 313.4L270.6 263.7L254.3 259.2L242.7 241.9L279.4 252.8L271.1 313.4ZM333.1 259.1L316.8 263.6L316.3 313.3L308 252.7L344.7 241.8L333.1 259.1Z" fill="white"/>
<path d="M287.5 555.4C264.5 550.1 233.1 555.9 203.4 573.1C157 599.9 132.3 644.2 148.4 672.1C158.7 689.9 183.1 696.7 211.5 692.3C198.5 689.3 188.2 682.8 182.4 672.7C166.3 644.8 190.9 600.5 237.4 573.7C254.1 564 271.5 557.9 287.5 555.4Z" fill="white"/>
<path d="M287.9 665.4C294.8 688 315.6 712.3 345.3 729.4C391.7 756.2 442.4 755.4 458.5 727.5C468.8 709.7 462.4 685.2 444.4 662.8C448.3 675.5 447.8 687.7 442 697.8C425.9 725.7 375.2 726.5 328.8 699.7C312 690 298.1 678 287.9 665.4Z" fill="white"/>
<path d="M256.4 610.7C240.3 628 229.6 658.1 229.6 692.4C229.6 746 255.7 789.5 287.9 789.5C308.5 789.5 326.5 771.7 336.9 744.9C327.8 754.7 317 760.3 305.4 760.3C273.2 760.3 247.1 716.8 247.1 663.2C247.2 643.8 250.6 625.8 256.4 610.7Z" fill="white"/>
</g>
<defs>
<clipPath id="clip0_302_84479">
<rect width="587" height="790" fill="white"/>
</clipPath>
</defs>
</svg>
