<svg width="986" height="187" viewBox="0 0 986 187" fill="none" xmlns="http://www.w3.org/2000/svg">
<g clip-path="url(#clip0_302_84592)">
<path d="M885.3 31.2C872.2 28.2 854.4 31.5 837.5 41.2C811.1 56.4 797.2 81.6 806.3 97.4C812.1 107.5 826 111.4 842.1 108.8C834.7 107.1 828.9 103.4 825.6 97.7C816.5 81.9 830.4 56.7 856.8 41.5C866.4 36.1 876.2 32.6 885.3 31.2Z" fill="#E52322"/>
<path d="M885.5 93.6C889.4 106.4 901.2 120.2 918.1 129.9C944.5 145.1 973.3 144.6 982.4 128.8C988.2 118.7 984.6 104.8 974.4 92.1C976.6 99.3 976.3 106.3 973 112C963.9 127.8 935.1 128.3 908.7 113.1C899.2 107.6 891.3 100.8 885.5 93.6Z" fill="#009640"/>
<path d="M867.6 62.6C858.5 72.4 852.4 89.5 852.4 109C852.4 139.4 867.2 164.1 885.5 164.1C897.2 164.1 907.4 154 913.3 138.8C908.1 144.3 902 147.6 895.4 147.6C877.1 147.6 862.3 122.9 862.3 92.5C862.4 81.4 864.3 71.2 867.6 62.6Z" fill="#0075BF"/>
<path d="M193.7 65.3H215.2C219.2 65.3 222.4 65.9 224.8 67C227.2 68.1 229.1 69.3 230.5 70.5C231.1 71.1 231.7 71.8 232.3 72.6C232.9 73.4 233.5 74.5 234.1 75.7C234.6 76.9 235.1 78.3 235.4 79.9C235.7 81.5 235.9 83.3 235.9 85.3C235.9 88.5 235.4 91.3 234.4 93.7C233.4 96.1 232.1 98.1 230.4 99.7C228.8 101.3 226.7 102.5 224.3 103.5C221.8 104.5 219 105 215.8 105H204.2V126.3H193.7V65.3ZM214.7 95.7C216.5 95.7 218.1 95.4 219.3 94.9C220.5 94.4 221.5 93.7 222.2 93C222.9 92.3 223.5 91.3 224.1 90.1C224.7 88.9 225 87.3 225 85.3C225 83.5 224.8 82 224.3 80.7C223.8 79.4 223.2 78.4 222.4 77.5C221.1 76.2 219.8 75.5 218.3 75.2C216.8 74.9 215.7 74.8 214.9 74.8H204.2V95.7H214.7Z" fill="#004E82"/>
<path d="M276.8 116.2C276.8 117.5 276.8 118.7 276.8 119.7C276.8 120.7 276.9 121.5 277 122.3C277.1 123.1 277.3 123.7 277.5 124.4C277.7 125 277.9 125.7 278.2 126.4H269.6C268.8 125.9 268.2 125.2 267.8 124.4C267.6 123.9 267.4 123.5 267.4 123.1C267.4 122.7 267.4 122.4 267.4 122.3C266.4 123.3 265.3 124.1 264.3 124.7C263.3 125.3 262.2 125.8 261.2 126.1C260.2 126.4 259.2 126.6 258.3 126.7C257.4 126.8 256.4 126.9 255.6 126.9C254 126.9 252.2 126.7 250.2 126.2C248.2 125.7 246.4 124.7 244.6 123.1C243.5 122 242.4 120.7 241.6 119C240.7 117.4 240.3 115.4 240.3 113C240.3 110.8 240.6 109 241.3 107.5C242 106 242.9 104.8 244 103.9C244.9 103.2 245.9 102.5 247 102C248.2 101.5 249.3 101 250.4 100.7C251.5 100.4 252.5 100.1 253.3 99.9C254.1 99.7 254.6 99.6 254.8 99.6L258.6 98.9C258.8 98.8 259 98.8 259.1 98.8C259.2 98.8 259.4 98.8 259.5 98.8C259.7 98.8 260 98.7 260.4 98.6C260.8 98.5 261.5 98.4 262.4 98.2C263.2 98 264 97.8 264.7 97.6C265.4 97.4 266 97.1 266.5 96.6C267 96.1 267.2 95.7 267.4 95.1C267.5 94.6 267.6 94.1 267.6 93.6C267.6 92.9 267.5 92.2 267.3 91.6C267.1 91 266.6 90.5 265.9 90C265.1 89.4 264.2 89 263.1 88.8C262 88.7 261.1 88.6 260.3 88.6C258.2 88.6 256.6 88.8 255.6 89.3C254.6 89.8 254 90.1 253.7 90.3C253.2 90.6 252.8 91.2 252.3 91.9C251.8 92.7 251.6 93.6 251.5 94.8H242.3C242.4 93 242.8 91.2 243.6 89.4C244.3 87.6 245.4 86 246.9 84.6C247.9 83.7 249.1 83 250.3 82.4C251.5 81.9 252.7 81.5 254 81.2C255.2 80.9 256.4 80.8 257.5 80.7C258.6 80.6 259.6 80.6 260.4 80.6C261.1 80.6 262 80.6 263.2 80.7C264.4 80.8 265.6 80.9 266.8 81.2C268.1 81.5 269.3 81.9 270.6 82.5C271.9 83.1 272.9 83.9 273.8 84.8C275.2 86.3 276 87.9 276.3 89.6C276.6 91.3 276.7 92.9 276.7 94.2V116.2H276.8ZM260 105.8C258.5 106.1 257.1 106.5 255.9 106.8C254.7 107.1 253.6 107.5 252.7 108.2C252 108.7 251.5 109.3 251.1 110C250.7 110.7 250.5 111.6 250.5 112.6C250.5 113.3 250.6 114 250.8 114.8C251 115.6 251.5 116.3 252.4 117C253.2 117.6 254.1 118.1 255.1 118.3C256.1 118.5 257 118.6 257.8 118.6C260.2 118.6 262.1 118.2 263.4 117.3C264.7 116.5 265.6 115.6 266.2 114.6C266.8 113.5 267.2 112.2 267.4 110.8C267.5 109.4 267.6 108 267.6 106.7V103.9C266.8 104.2 265.9 104.4 265.1 104.7C264.2 104.9 263.3 105.2 262.4 105.4L260 105.8Z" fill="#004E82"/>
<path d="M286.4 82.4H295.8V88.8C296.2 88.1 296.7 87.4 297.3 86.6C297.9 85.8 298.6 85.1 299.2 84.5C301 83 302.8 82.1 304.7 81.8C306.6 81.5 308.2 81.4 309.5 81.5V92C305.3 91.5 301.9 92.3 299.3 94.4C297.9 95.5 297 96.7 296.4 98C295.9 99.3 295.6 100.7 295.6 102.2V126.2H286.2V82.4H286.4Z" fill="#004E82"/>
<path d="M349.4 116.2C349.4 117.5 349.4 118.7 349.4 119.7C349.4 120.7 349.5 121.5 349.6 122.3C349.7 123.1 349.9 123.7 350.1 124.4C350.3 125 350.5 125.7 350.8 126.4H342.2C341.4 125.9 340.8 125.2 340.4 124.4C340.2 123.9 340 123.5 340 123.1C340 122.7 340 122.4 340 122.3C339 123.3 337.9 124.1 336.9 124.7C335.9 125.3 334.8 125.8 333.8 126.1C332.8 126.4 331.8 126.6 330.9 126.7C330 126.8 329 126.9 328.2 126.9C326.6 126.9 324.8 126.7 322.8 126.2C320.8 125.7 319 124.7 317.2 123.1C316.1 122 315 120.7 314.2 119C313.3 117.4 312.9 115.4 312.9 113C312.9 110.8 313.2 109 313.9 107.5C314.6 106 315.5 104.8 316.6 103.9C317.5 103.2 318.5 102.5 319.6 102C320.8 101.5 321.9 101 323 100.7C324.1 100.4 325.1 100.1 325.9 99.9C326.7 99.7 327.2 99.6 327.4 99.6L331.2 98.9C331.4 98.8 331.6 98.8 331.7 98.8C331.8 98.8 332 98.8 332.1 98.8C332.3 98.8 332.6 98.7 333 98.6C333.4 98.5 334.1 98.4 335 98.2C335.8 98 336.6 97.8 337.3 97.6C338 97.4 338.6 97.1 339.1 96.6C339.6 96.1 339.8 95.7 340 95.1C340.1 94.6 340.2 94.1 340.2 93.6C340.2 92.9 340.1 92.2 339.9 91.6C339.7 91 339.2 90.5 338.5 90C337.7 89.4 336.8 89 335.7 88.8C334.6 88.7 333.7 88.6 332.9 88.6C330.8 88.6 329.2 88.8 328.2 89.3C327.2 89.8 326.6 90.1 326.3 90.3C325.8 90.6 325.4 91.2 324.9 91.9C324.4 92.7 324.2 93.6 324.1 94.8H314.9C315 93 315.4 91.2 316.2 89.4C316.9 87.6 318 86 319.5 84.6C320.5 83.7 321.7 83 322.9 82.4C324.1 81.9 325.3 81.5 326.6 81.2C327.8 80.9 329 80.8 330.1 80.7C331.2 80.6 332.2 80.6 333 80.6C333.7 80.6 334.6 80.6 335.8 80.7C337 80.8 338.2 80.9 339.4 81.2C340.7 81.5 341.9 81.9 343.2 82.5C344.4 83.1 345.5 83.9 346.4 84.8C347.8 86.3 348.6 87.9 348.9 89.6C349.2 91.3 349.3 92.9 349.3 94.2V116.2H349.4ZM332.6 105.8C331.1 106.1 329.7 106.5 328.5 106.8C327.3 107.1 326.2 107.5 325.3 108.2C324.6 108.7 324.1 109.3 323.7 110C323.3 110.7 323.1 111.6 323.1 112.6C323.1 113.3 323.2 114 323.4 114.8C323.6 115.6 324.1 116.3 325 117C325.8 117.6 326.7 118.1 327.7 118.3C328.7 118.5 329.6 118.6 330.4 118.6C332.8 118.6 334.7 118.2 336 117.3C337.3 116.5 338.2 115.6 338.8 114.6C339.4 113.5 339.8 112.2 340 110.8C340.1 109.4 340.2 108 340.2 106.7V103.9C339.4 104.2 338.5 104.4 337.7 104.7C336.8 104.9 335.9 105.2 335 105.4L332.6 105.8Z" fill="#004E82"/>
<path d="M368.4 65.3H359V126.3H368.4V65.3Z" fill="#004E82"/>
<path d="M383.4 130.1C384 130.1 384.5 130 385.1 129.9C385.7 129.8 386.2 129.6 386.6 129.3C386.9 129.1 387.1 128.8 387.4 128.3C387.6 127.9 387.7 127.4 387.7 126.7C387.7 126.3 387.7 125.9 387.6 125.4C387.5 125 387.4 124.6 387.3 124.3L373.7 82.2H383.6L391.1 107C391.2 107.4 391.3 107.9 391.5 108.5C391.6 109.1 391.8 109.7 391.9 110.3C392 110.9 392.1 111.5 392.2 112.1C392.3 112.7 392.4 113.1 392.5 113.5C392.7 112 393 110.7 393.2 109.6C393.5 108.5 393.7 107.6 393.8 107L400.7 82.2H410.6L397 126.2C396.2 128.8 395.5 130.7 394.8 132.1C394.1 133.4 393.4 134.5 392.7 135.2C391.4 136.5 390 137.3 388.5 137.6C387 137.9 385.5 138.1 384 138.1H377.8V130H383.4V130.1Z" fill="#004E82"/>
<path d="M416.3 82.4H425.6V86.5C428.8 83.2 432.5 81.6 436.9 81.6C439.5 81.6 441.8 82.1 443.8 83.2C445.8 84.3 447.4 85.9 448.6 88C450.5 85.9 452.6 84.3 454.9 83.2C457.2 82.1 459.6 81.6 462.1 81.6C466.3 81.6 469.7 82.9 472.2 85.6C474.7 88.3 476 92.1 476 97V126.4H466.7V98.7C466.7 92.9 464.4 90.1 459.8 90.1C457.3 90.1 455.2 91 453.4 92.9C451.6 94.8 450.7 97.2 450.7 100.3V126.4H441.6V98.7C441.6 92.9 439.3 90.1 434.8 90.1C433.6 90.1 432.4 90.3 431.3 90.8C430.2 91.3 429.2 92 428.4 92.9C427.6 93.8 426.9 94.9 426.4 96.1C425.9 97.4 425.7 98.7 425.7 100.2V126.3H416.4V82.4H416.3Z" fill="#004E82"/>
<path d="M485.4 82.4H494.7V86.5C495 86.1 495.5 85.6 496.1 85.1C496.7 84.6 497.5 84 498.4 83.5C499.3 83 500.4 82.5 501.7 82.2C503 81.9 504.4 81.7 506.1 81.7C507.1 81.7 508.2 81.8 509.4 82C510.6 82.2 511.8 82.5 513 83C514.2 83.5 515.4 84.2 516.5 85C517.7 85.8 518.7 86.9 519.8 88.2C520.4 88.9 521 89.8 521.6 90.8C522.2 91.8 522.7 93 523.2 94.3C523.7 95.7 524 97.2 524.4 98.9C524.7 100.6 524.9 102.5 524.9 104.6C524.9 107.9 524.5 111 523.6 113.8C522.7 116.6 521.5 119 519.9 121.1C518.3 123.1 516.3 124.7 514 125.9C511.7 127.1 509.1 127.6 506.1 127.6C505.4 127.6 504.5 127.5 503.6 127.4C502.7 127.3 501.7 127.1 500.7 126.7C499.7 126.4 498.7 125.9 497.6 125.2C496.6 124.6 495.6 123.7 494.7 122.6V138.2H485.4V82.4ZM494.7 104.6C494.7 105.4 494.7 106.3 494.8 107.2C494.9 108.1 495 109.1 495.1 110.1C495.3 111.1 495.5 112 495.8 113C496.1 113.9 496.6 114.8 497.1 115.5C498.1 116.9 499.3 117.8 500.7 118.1C502.1 118.5 503.3 118.7 504.4 118.7C507.8 118.7 510.4 117.4 512.3 114.9C513 113.9 513.6 112.6 514.2 111C514.7 109.4 515 107.3 515 104.7C515 101.9 514.7 99.6 514 97.8C513.4 96 512.6 94.6 511.6 93.7C510.9 93 510 92.3 508.7 91.7C507.5 91.1 506 90.8 504.1 90.8C502.8 90.8 501.8 91 500.9 91.3C500 91.6 499.2 92.1 498.6 92.5C497.6 93.3 496.9 94.2 496.4 95.3C495.9 96.4 495.5 97.5 495.2 98.7C494.9 99.9 494.8 101 494.7 102.1C494.8 102.9 494.7 103.8 494.7 104.6Z" fill="#004E82"/>
<path d="M532.4 65.3H541.8V75.8H532.4V65.3ZM532.4 82.4H541.8V126.4H532.4V82.4Z" fill="#004E82"/>
<path d="M579.9 97.9C579.6 97.1 579.2 96.2 578.6 95.3C578.1 94.3 577.5 93.6 576.8 92.9C576.2 92.3 575.3 91.6 574.1 91C572.9 90.4 571.5 90.1 569.8 90.1C568.3 90.1 567 90.4 565.9 90.9C564.8 91.4 563.8 92.2 562.9 93.1C562 94.1 561.1 95.4 560.3 97.1C559.5 98.8 559.1 101.1 559.1 103.9C559.1 105.5 559.3 107.1 559.6 108.6C559.9 110.1 560.4 111.5 561 112.7C561.3 113.3 561.8 114 562.3 114.6C562.8 115.2 563.4 115.8 564.2 116.4C564.9 116.9 565.8 117.4 566.7 117.7C567.6 118 568.8 118.2 570 118.2C571.7 118.2 573.1 117.9 574.2 117.3C575.3 116.7 576.3 116 577 115.4C577.7 114.8 578.3 114 578.8 113.2C579.3 112.3 579.7 111.5 580 110.7L588.3 115.2C587.5 116.9 586.5 118.6 585.3 120.2C584.1 121.8 582.7 123.2 581.2 124.3C579.6 125.5 577.8 126.3 575.9 126.8C574 127.3 572 127.6 569.9 127.6C568 127.6 566.3 127.4 564.8 127C563.3 126.6 561.9 126.1 560.7 125.5C559.5 124.9 558.5 124.3 557.7 123.6C556.9 122.9 556.3 122.4 555.8 121.9C553.8 119.9 552.3 117.4 551.1 114.3C549.9 111.3 549.3 107.9 549.3 104.1C549.3 100.6 549.8 97.4 550.9 94.6C552 91.7 553.5 89.3 555.4 87.3C557.2 85.4 559.4 83.9 561.9 82.8C564.4 81.7 567.1 81.2 570.1 81.2C572.5 81.2 574.7 81.5 576.6 82.2C578.5 82.9 580.2 83.8 581.7 84.9C582.7 85.7 583.7 86.6 584.5 87.5C585.3 88.4 586 89.3 586.5 90.2C587 91.1 587.5 91.8 587.8 92.5C588.1 93.2 588.3 93.6 588.4 93.9L579.9 97.9Z" fill="#004E82"/>
<path d="M599.2 113.5C600 114.3 600.8 115.1 601.8 115.8C602.8 116.5 603.8 117.2 605 117.6C605.9 117.9 606.9 118.2 608.1 118.5C609.2 118.7 610.4 118.8 611.8 118.8C612.4 118.8 613.4 118.7 614.8 118.5C616.2 118.3 617.4 117.8 618.5 116.9C619.2 116.4 619.7 115.8 620 115.1C620.3 114.4 620.4 113.8 620.4 113.2C620.4 111.9 620.1 111 619.5 110.5C618.9 110 618.3 109.6 617.5 109.3C616.7 109 615.8 108.8 614.7 108.6C613.7 108.4 612.3 108.2 610.6 107.9L607.9 107.5C606.6 107.3 605.2 107 603.9 106.7C602.5 106.4 601.2 106 600 105.3C598.2 104.4 596.7 103.2 595.5 101.7C594.3 100.2 593.8 98 593.8 95.3C593.8 94 594 92.9 594.3 91.9C594.6 90.9 595 90 595.5 89.1C596 88.3 596.5 87.5 597 86.9C597.5 86.3 598.1 85.8 598.6 85.4C600.4 83.9 602.4 82.8 604.8 82.2C607.1 81.6 609.5 81.2 611.9 81.2C613.8 81.2 615.6 81.4 617.2 81.7C618.8 82 620.2 82.5 621.4 82.9C622.7 83.5 624 84.2 625.3 85.1C626.6 86 627.8 86.9 628.8 87.9L623.2 93.9C622.5 93.3 621.7 92.6 620.7 92C619.7 91.4 618.6 90.8 617.3 90.4C616.3 90.1 615.4 89.8 614.5 89.6C613.6 89.4 612.7 89.3 611.6 89.3C611 89.3 610.2 89.3 609.2 89.4C608.2 89.5 607.3 89.7 606.3 90.1C605 90.6 604.2 91.2 603.8 92C603.4 92.7 603.2 93.4 603.2 94C603.2 95.1 603.5 95.9 604.1 96.4C604.7 96.9 605.3 97.2 606 97.5C606.9 97.8 607.8 98.1 608.7 98.2C609.6 98.3 610.7 98.5 612 98.7L617.6 99.7C618.6 99.9 620 100.2 621.7 100.7C623.4 101.2 624.9 102.1 626.4 103.4C628.8 105.5 630 108.4 630 112.2C630 114.6 629.6 116.6 628.7 118.2C627.9 119.8 626.9 121.1 625.9 122.1C624.6 123.4 622.8 124.6 620.5 125.6C618.2 126.6 615.3 127.2 611.7 127.2C609.9 127.2 607.8 127 605.6 126.7C603.4 126.4 601.4 125.8 599.5 125C597.5 124.1 595.9 123.2 594.6 122.1C593.4 121 592.5 120.1 591.9 119.5L599.2 113.5Z" fill="#004E82"/>
<path d="M680.6 120.5C678.1 123.2 675.4 125 672.4 126.1C670.7 126.7 669.1 127.2 667.4 127.4C665.7 127.7 664.1 127.8 662.5 127.8C658.3 127.8 654.6 127.1 651.5 125.7C648.4 124.3 645.7 122.3 643.5 119.9C642.5 118.9 641.6 117.6 640.7 116.2C639.8 114.8 639 113.1 638.3 111.2C637.6 109.3 637 107.2 636.6 104.8C636.2 102.4 636 99.7 636 96.8C636 91.7 636.7 87.2 638.1 83.1C639.5 79 641.5 75.6 644.1 72.7C646.7 69.9 649.8 67.7 653.5 66.2C657.2 64.7 661.3 63.9 665.9 63.9C671.8 63.9 676.9 65.2 681.4 67.7C685.9 70.2 689.4 73.9 692.1 78.7L680.3 85.1C679.6 83.9 678.8 82.8 677.9 81.8C677 80.7 676.1 79.9 675.1 79.3C674.3 78.8 673.2 78.3 671.8 77.7C670.4 77.2 668.7 76.9 666.6 76.9C663.8 76.9 661.5 77.3 659.6 78.2C657.7 79.1 656.1 80.2 654.8 81.7C653.9 82.8 653.1 84 652.6 85.2C652 86.4 651.6 87.7 651.3 88.9C651 90.1 650.8 91.4 650.7 92.6C650.6 93.8 650.5 95 650.5 96C650.5 99.9 651 103 651.9 105.3C652.8 107.6 653.9 109.4 655 110.7C656.7 112.6 658.6 113.8 660.7 114.4C662.7 114.9 664.5 115.2 666.1 115.2C670 115.2 673.1 114.2 675.5 112.2C677.9 110.2 679.3 107.5 679.6 104.2H666.4V92.4H692.4V126.4H681.3L680.6 120.5Z" fill="#004E82"/>
<path d="M702.6 65.3H728.7C736.4 65.3 742.2 66.5 745.9 68.8C749.7 71.2 751.6 75 751.6 80.3C751.6 84.7 750.4 88.1 748 90.5C745.6 92.9 742.1 94.3 737.5 94.6C743.2 95.1 747.3 96.5 749.9 98.8C752.5 101.1 753.7 104.6 753.7 109.3C753.7 112.6 752.9 115.6 751.3 118.1C749.7 120.6 747.5 122.5 744.8 123.7C742 124.9 739.1 125.6 736.2 125.8C733.3 126 730.2 126.1 726.9 126.1H702.7V65.3H702.6ZM717 115.4H726.1C728.3 115.4 730.3 115.3 731.9 115.1C733.5 114.9 734.9 114.6 736 114C737.1 113.5 737.9 112.7 738.4 111.7C738.9 110.7 739.2 109.4 739.2 107.8C739.2 106.2 738.9 104.9 738.4 103.9C737.9 102.9 737 102.2 736 101.6C734.9 101.1 733.6 100.7 731.9 100.5C730.3 100.3 728.3 100.2 726.2 100.2H717.1V115.4H717ZM717.4 89.3H725.6C729.6 89.3 732.6 88.9 734.5 88.1C736.4 87.3 737.4 85.5 737.4 82.8C737.4 80 736.4 78.3 734.5 77.5C732.5 76.7 729.6 76.3 725.6 76.3H717.4V89.3Z" fill="#004E82"/>
<path d="M113 26.7C125.3 18.9 126.3 15.7 129.1 12.1C100.9 33.7 30.8002 8.89998 46.0002 84.7C51.4002 87.7 59.5002 92.1 62.1002 93.5L79.0002 84.4C74.5002 42.3 100.6 35.4 113 26.7Z" fill="#DB0814"/>
<path d="M21.3003 47.2C9.20025 57.9 3.60024 77.7 9.90024 93.6C10.7002 95.6 11.6003 97.6 12.8003 99.7L16.0002 104.6C18.2002 107.6 21.4002 110.9 24.4002 113.8L30.4002 101.3C9.20024 78.3 16.4003 54.8 21.3003 47.2Z" fill="#DB0814"/>
<path d="M17.2003 128.6L21.5003 119.5C13.3003 111.8 7.60027 104.2 4.70027 96.2C3.30027 92.4 2.50027 89.1 2.50027 84.6C-0.899727 100.3 0.600276 114.9 8.30028 130.3C15.6003 145 27.1003 156.8 35.3003 164.1L35.2003 150L17.2003 128.6Z" fill="#004E82"/>
<path d="M22.3002 69.8C23.7002 81.1 29.1002 90.1 33.1002 95.6L39.1002 82.9C39.1002 82.9 37.6002 72.4 37.3002 67.5C36.3002 51.9 41.7002 39.5 53.0002 31.7C42.7002 34.3 18.8002 40.7 22.3002 69.8Z" fill="#004E82"/>
<path d="M144.4 0.200012C123 46.1 80.5002 29.9 84.9002 82.2L90.8003 94.5C95.2003 82.4 95.0003 76 101.2 67.2C115.2 47.3 134.7 60.8 144.4 0.200012Z" fill="#004E82"/>
<path d="M141.4 33.8C136.7 50.6 122.5 57.8 118.7 60.1C101.9 70 99.8002 83.8 94.7002 102.7L99.7002 113.2C113.6 81.6 111.4 81.7 128.7 70.8C133.4 67.8 141.6 59.2 141.4 33.8Z" fill="#DB0814"/>
<path d="M103 120.2L106.9 128.2L89.3003 150C89.3003 152.1 89.3003 158.4 89.3003 164.4C108.7 147.3 117 139.7 121.5 114.4C122.6 108 125.2 80.8 132.2 75.8C113.2 84 110 107.8 103 120.2Z" fill="#004E82"/>
<path d="M51.9004 177.6V183.4L62.2004 186.1L72.5004 183.1V177.7L62.2004 171.9L51.9004 177.6Z" fill="#DB0814"/>
<path d="M82.0003 89.5L62.2003 100.3L42.4003 89.5L24.3003 127.4L41.1003 147.9V170.2L48.7003 174.6L58.2003 168.8L51.8003 161.1L72.5003 161L66.1003 168.7L75.6003 174.5L83.2003 170.1V147.8L100 127.3L82.0003 89.5ZM51.0003 156.1L50.8003 131.3L42.7003 129.1L36.9003 120.5L55.2003 126L51.0003 156.1ZM82.0003 129L73.9003 131.2L73.7003 156L69.5003 125.8L87.8003 120.3L82.0003 129Z" fill="#DB0814"/>
</g>
<defs>
<clipPath id="clip0_302_84592">
<rect width="986" height="187" fill="white"/>
</clipPath>
</defs>
</svg>
