<svg width="1206" height="949" viewBox="0 0 1206 949" fill="none" xmlns="http://www.w3.org/2000/svg">
<g clip-path="url(#clip0_339_76064)">
<path d="M781.392 215.861C800.152 203.937 801.671 199.076 805.924 193.684C762.936 226.57 656.227 188.823 679.316 304.342C687.595 308.899 699.898 315.582 703.848 317.785L729.595 303.962C722.607 239.709 762.481 229.076 781.392 215.861Z" fill="#DB0814"/>
<path d="M641.57 247.152C623.114 263.481 614.608 293.557 624.178 317.785C625.393 320.823 626.836 323.937 628.659 327.051L633.519 334.494C636.861 338.975 641.722 344.063 646.279 348.544L655.393 329.481C623.114 294.544 634.051 258.772 641.57 247.152Z" fill="#DB0814"/>
<path d="M635.342 371.101L641.874 357.279C629.418 345.506 620.76 333.886 616.203 321.81C614 315.962 612.785 311.025 612.785 304.114C607.621 328.038 609.975 350.215 621.595 373.76C632.684 396.165 650.228 414.089 662.76 425.253L662.532 403.684L635.342 371.101Z" fill="#004E82"/>
<path d="M643.088 281.481C645.139 298.722 653.417 312.468 659.569 320.823L668.759 301.532C668.759 301.532 666.405 285.582 665.949 278.063C664.43 254.215 672.633 235.456 689.949 223.532C674.152 227.481 637.772 237.203 643.088 281.481Z" fill="#004E82"/>
<path d="M829.165 175.456C796.582 245.329 731.722 220.646 738.481 300.468L747.443 319.152C754.051 300.696 753.899 290.975 763.317 277.608C784.734 247.228 814.355 267.734 829.165 175.456Z" fill="#004E82"/>
<path d="M824.532 226.646C817.317 252.24 795.671 263.253 789.899 266.671C764.228 281.709 761.19 302.747 753.367 331.608L761.038 347.557C782.228 299.329 778.886 299.481 805.317 282.924C812.456 278.519 824.836 265.304 824.532 226.646Z" fill="#DB0814"/>
<path d="M766.051 358.342L771.899 370.494L745.165 403.684C745.089 406.873 745.165 416.443 745.089 425.709C774.633 399.734 787.317 388.114 794.228 349.608C795.975 339.886 799.848 298.494 810.557 290.747C781.621 303.203 776.76 339.354 766.051 358.342Z" fill="#004E82"/>
<path d="M482.38 505.835H499.848C503.038 505.835 505.696 506.291 507.671 507.202C509.646 508.114 511.165 509.025 512.228 510.012C512.684 510.468 513.215 511.076 513.671 511.759C514.203 512.443 514.658 513.278 515.114 514.266C515.57 515.253 515.95 516.392 516.177 517.683C516.481 518.974 516.633 520.418 516.633 522.088C516.633 524.671 516.253 526.949 515.418 528.848C514.658 530.747 513.519 532.342 512.228 533.709C510.937 535 509.266 535.987 507.291 536.823C505.317 537.658 502.962 538.038 500.456 538.038H490.962V555.354H482.38V505.835ZM499.393 530.443C500.912 530.443 502.127 530.215 503.114 529.759C504.101 529.304 504.937 528.848 505.468 528.24C506 527.709 506.532 526.873 506.987 525.886C507.443 524.899 507.671 523.607 507.671 522.012C507.671 520.569 507.443 519.354 507.063 518.291C506.684 517.228 506.152 516.392 505.544 515.709C504.481 514.645 503.418 514.038 502.203 513.81C500.987 513.582 500.076 513.43 499.468 513.43H490.81V530.443H499.393Z" fill="#004E82"/>
<path d="M548.836 547.152C548.836 548.215 548.836 549.127 548.836 549.962C548.836 550.722 548.912 551.481 548.988 552.089C549.064 552.696 549.216 553.228 549.367 553.76C549.519 554.291 549.747 554.823 549.975 555.354H543.14C542.456 554.899 542 554.367 541.697 553.76C541.545 553.38 541.393 553 541.393 552.696C541.393 552.392 541.393 552.165 541.393 552.089C540.557 552.848 539.722 553.532 538.886 553.987C538.051 554.443 537.216 554.823 536.38 555.127C535.545 555.354 534.785 555.582 534.026 555.658C533.266 555.734 532.507 555.81 531.823 555.81C530.532 555.81 529.089 555.582 527.418 555.203C525.823 554.823 524.304 553.987 522.937 552.696C522.026 551.785 521.19 550.722 520.507 549.43C519.823 548.139 519.443 546.544 519.443 544.57C519.443 542.823 519.747 541.304 520.279 540.089C520.81 538.873 521.57 537.962 522.481 537.203C523.165 536.595 524 536.063 524.912 535.684C525.823 535.228 526.735 534.924 527.646 534.62C528.557 534.316 529.317 534.165 530 534.013C530.684 533.861 531.064 533.785 531.216 533.709L534.329 533.177C534.481 533.101 534.633 533.101 534.785 533.101C534.861 533.101 535.013 533.101 535.165 533.101C535.317 533.101 535.545 533.025 535.848 532.949C536.152 532.873 536.684 532.797 537.443 532.646C538.127 532.494 538.734 532.342 539.266 532.19C539.874 532.038 540.329 531.734 540.709 531.354C541.089 530.975 541.317 530.595 541.393 530.139C541.469 529.684 541.545 529.304 541.545 528.924C541.545 528.316 541.469 527.785 541.241 527.329C541.089 526.873 540.709 526.418 540.102 526.038C539.418 525.506 538.659 525.203 537.823 525.127C536.988 524.975 536.228 524.975 535.545 524.975C533.798 524.975 532.583 525.127 531.747 525.506C530.988 525.886 530.456 526.19 530.228 526.342C529.848 526.646 529.469 527.101 529.089 527.709C528.709 528.316 528.481 529.076 528.481 530.063H521.038C521.114 528.62 521.494 527.177 522.102 525.658C522.709 524.139 523.621 522.848 524.76 521.785C525.595 521.025 526.507 520.418 527.494 520.038C528.481 519.582 529.469 519.278 530.456 519.127C531.443 518.899 532.431 518.823 533.342 518.747C534.253 518.671 535.013 518.671 535.697 518.671C536.228 518.671 536.988 518.671 537.975 518.747C538.886 518.823 539.874 518.899 540.937 519.127C542 519.354 542.988 519.658 543.975 520.114C544.962 520.57 545.874 521.177 546.633 522.013C547.772 523.228 548.456 524.519 548.684 525.962C548.912 527.329 549.064 528.62 549.064 529.684V547.152H548.836ZM535.241 538.646C534.026 538.949 532.886 539.177 531.899 539.405C530.912 539.633 530.076 540.013 529.317 540.544C528.785 541 528.329 541.456 528.026 541.987C527.722 542.519 527.57 543.278 527.57 544.114C527.57 544.646 527.646 545.253 527.874 545.937C528.026 546.62 528.481 547.152 529.165 547.684C529.848 548.215 530.532 548.519 531.367 548.671C532.127 548.823 532.886 548.899 533.57 548.899C535.545 548.899 537.064 548.595 538.051 547.911C539.114 547.228 539.874 546.468 540.329 545.709C540.861 544.797 541.165 543.734 541.241 542.595C541.393 541.456 541.393 540.316 541.393 539.253V536.975C540.709 537.203 540.026 537.43 539.342 537.582C538.583 537.734 537.899 537.962 537.14 538.114L535.241 538.646Z" fill="#004E82"/>
<path d="M555.898 519.658H563.569V524.823C563.873 524.291 564.329 523.683 564.785 523C565.24 522.392 565.772 521.785 566.379 521.253C567.822 520.038 569.341 519.354 570.86 519.051C572.379 518.823 573.671 518.747 574.81 518.823V527.329C571.392 526.949 568.658 527.633 566.531 529.304C565.392 530.215 564.633 531.202 564.253 532.266C563.797 533.329 563.645 534.468 563.645 535.683V555.126H555.974V519.658H555.898Z" fill="#004E82"/>
<path d="M606.254 547.152C606.254 548.215 606.254 549.127 606.254 549.962C606.254 550.722 606.329 551.481 606.405 552.089C606.481 552.696 606.633 553.228 606.785 553.76C606.937 554.291 607.165 554.823 607.393 555.354H600.481C599.798 554.899 599.342 554.367 599.038 553.76C598.886 553.38 598.735 553 598.735 552.696C598.735 552.392 598.735 552.165 598.735 552.089C597.899 552.848 597.064 553.532 596.228 553.987C595.393 554.443 594.557 554.823 593.722 555.127C592.886 555.354 592.127 555.582 591.367 555.658C590.608 555.734 589.848 555.81 589.165 555.81C587.874 555.81 586.431 555.582 584.76 555.203C583.165 554.823 581.646 553.987 580.279 552.696C579.367 551.785 578.532 550.722 577.848 549.43C577.165 548.139 576.785 546.544 576.785 544.57C576.785 542.823 577.089 541.304 577.621 540.089C578.152 538.873 578.912 537.962 579.823 537.203C580.507 536.595 581.342 536.063 582.254 535.684C583.165 535.228 584.076 534.924 584.988 534.62C585.899 534.316 586.659 534.165 587.342 534.013C588.026 533.861 588.405 533.785 588.557 533.709L591.671 533.177C591.823 533.101 591.975 533.101 592.127 533.101C592.203 533.101 592.355 533.101 592.507 533.101C592.659 533.101 592.886 533.025 593.19 532.949C593.494 532.873 594.026 532.797 594.785 532.646C595.469 532.494 596.076 532.342 596.608 532.19C597.216 532.038 597.671 531.734 598.051 531.354C598.431 530.975 598.659 530.595 598.735 530.139C598.81 529.684 598.886 529.304 598.886 528.924C598.886 528.316 598.81 527.785 598.583 527.329C598.431 526.873 598.051 526.418 597.443 526.038C596.76 525.506 596 525.203 595.165 525.127C594.329 524.975 593.57 524.975 592.886 524.975C591.14 524.975 589.924 525.127 589.089 525.506C588.329 525.886 587.798 526.19 587.57 526.342C587.19 526.646 586.81 527.101 586.431 527.709C586.051 528.316 585.823 529.076 585.823 530.063H578.38C578.456 528.62 578.836 527.177 579.443 525.658C580.051 524.139 580.962 522.848 582.102 521.785C582.937 521.025 583.848 520.418 584.836 520.038C585.823 519.582 586.81 519.278 587.798 519.127C588.785 518.899 589.772 518.823 590.684 518.747C591.595 518.671 592.355 518.671 593.038 518.671C593.57 518.671 594.329 518.671 595.317 518.747C596.228 518.823 597.216 518.899 598.279 519.127C599.342 519.354 600.329 519.658 601.317 520.114C602.304 520.57 603.216 521.177 603.975 522.013C605.114 523.228 605.798 524.519 606.026 525.962C606.253 527.329 606.405 528.62 606.405 529.684V547.152H606.254ZM592.659 538.646C591.443 538.949 590.304 539.177 589.317 539.405C588.329 539.633 587.494 540.013 586.735 540.544C586.203 541 585.747 541.456 585.443 541.987C585.14 542.519 584.988 543.278 584.988 544.114C584.988 544.646 585.064 545.253 585.291 545.937C585.443 546.62 585.899 547.152 586.583 547.684C587.266 548.215 587.95 548.519 588.785 548.671C589.545 548.823 590.304 548.899 590.988 548.899C592.962 548.899 594.481 548.595 595.469 547.911C596.532 547.228 597.291 546.468 597.747 545.709C598.279 544.797 598.583 543.734 598.659 542.595C598.81 541.456 598.81 540.316 598.81 539.253V536.975C598.127 537.203 597.443 537.43 596.76 537.582C596 537.734 595.317 537.962 594.557 538.114L592.659 538.646Z" fill="#004E82"/>
<path d="M613.24 505.835H620.835V555.278H613.24V505.835Z" fill="#004E82"/>
<path d="M632.304 558.316C632.76 558.316 633.216 558.24 633.671 558.165C634.127 558.089 634.507 557.937 634.886 557.709C635.114 557.557 635.342 557.253 635.494 556.949C635.646 556.646 635.798 556.19 635.798 555.658C635.798 555.354 635.798 554.975 635.722 554.671C635.646 554.291 635.57 554.063 635.494 553.759L624.481 519.658H632.532L638.608 539.785C638.684 540.089 638.836 540.544 638.912 541C639.064 541.456 639.14 541.987 639.216 542.443C639.292 542.899 639.368 543.43 639.519 543.886C639.595 544.342 639.671 544.722 639.747 545.025C639.899 543.81 640.127 542.747 640.355 541.911C640.583 541 640.735 540.316 640.887 539.785L646.507 519.658H654.557L643.545 555.278C642.861 557.405 642.33 559 641.722 560.063C641.19 561.127 640.583 561.962 639.975 562.57C638.912 563.633 637.849 564.24 636.557 564.468C635.342 564.696 634.127 564.848 632.912 564.848H627.899V558.24H632.304V558.316Z" fill="#004E82"/>
<path d="M658.278 519.658H665.873V523C668.456 520.342 671.494 518.975 675.063 518.975C677.19 518.975 679.012 519.43 680.683 520.342C682.354 521.253 683.645 522.544 684.633 524.215C686.152 522.468 687.899 521.177 689.721 520.342C691.544 519.506 693.519 519.051 695.569 519.051C698.987 519.051 701.721 520.114 703.696 522.316C705.747 524.519 706.734 527.557 706.734 531.506V555.354H699.139V532.949C699.139 528.316 697.24 525.962 693.519 525.962C691.544 525.962 689.797 526.721 688.354 528.24C686.911 529.759 686.152 531.734 686.152 534.24V555.354H678.785V532.949C678.785 528.316 676.962 525.962 673.24 525.962C672.253 525.962 671.342 526.19 670.43 526.57C669.519 526.949 668.759 527.557 668.076 528.24C667.392 529 666.861 529.835 666.481 530.899C666.101 531.962 665.873 533.025 665.873 534.24V555.354H658.278V519.658Z" fill="#004E82"/>
<path d="M713.57 519.658H721.165V523C721.469 522.696 721.848 522.316 722.304 521.861C722.76 521.405 723.443 520.949 724.127 520.57C724.886 520.114 725.798 519.81 726.785 519.506C727.848 519.202 728.988 519.051 730.355 519.051C731.19 519.051 732.102 519.126 733.089 519.278C734.076 519.43 734.988 519.658 735.975 520.114C736.962 520.494 737.95 521.025 738.861 521.709C739.772 522.392 740.684 523.228 741.519 524.367C741.975 524.975 742.431 525.658 742.962 526.494C743.418 527.329 743.874 528.24 744.253 529.38C744.633 530.443 744.937 531.734 745.165 533.101C745.393 534.468 745.545 535.987 745.545 537.658C745.545 540.392 745.165 542.823 744.481 545.101C743.798 547.38 742.81 549.354 741.443 550.949C740.152 552.62 738.557 553.911 736.658 554.823C734.76 555.734 732.633 556.19 730.279 556.19C729.671 556.19 728.988 556.114 728.228 556.038C727.469 555.962 726.709 555.734 725.874 555.506C725.038 555.202 724.203 554.823 723.367 554.291C722.532 553.759 721.696 553.076 721.013 552.164V564.772H713.418V519.658H713.57ZM721.165 537.658C721.165 538.342 721.165 539.025 721.241 539.785C721.317 540.544 721.393 541.304 721.545 542.063C721.696 542.823 721.848 543.658 722.152 544.342C722.38 545.101 722.76 545.785 723.215 546.392C724.051 547.532 725.038 548.215 726.102 548.519C727.165 548.823 728.152 548.975 729.064 548.975C731.798 548.975 733.924 547.911 735.443 545.861C735.975 545.101 736.507 544.038 736.962 542.747C737.418 541.456 737.646 539.709 737.646 537.658C737.646 535.38 737.418 533.481 736.886 532.038C736.355 530.595 735.747 529.456 734.912 528.696C734.38 528.089 733.545 527.557 732.633 527.025C731.646 526.57 730.431 526.266 728.912 526.266C727.848 526.266 727.013 526.418 726.253 526.721C725.494 527.025 724.886 527.329 724.431 527.709C723.671 528.316 723.064 529.076 722.608 529.987C722.152 530.899 721.848 531.81 721.696 532.721C721.469 533.633 721.393 534.544 721.317 535.456C721.165 536.291 721.165 537.051 721.165 537.658Z" fill="#004E82"/>
<path d="M750.937 505.835H758.531V514.342H750.937V505.835ZM750.937 519.658H758.531V555.278H750.937V519.658Z" fill="#004E82"/>
<path d="M788.683 532.266C788.455 531.582 788.076 530.899 787.696 530.139C787.24 529.38 786.785 528.696 786.253 528.24C785.721 527.709 785.038 527.253 784.05 526.721C783.063 526.266 781.924 525.962 780.557 525.962C779.342 525.962 778.278 526.19 777.367 526.645C776.455 527.101 775.62 527.709 774.936 528.468C774.177 529.228 773.493 530.367 772.81 531.734C772.126 533.101 771.823 534.924 771.823 537.202C771.823 538.494 771.974 539.785 772.202 541C772.43 542.215 772.81 543.278 773.342 544.266C773.645 544.797 773.949 545.329 774.329 545.785C774.709 546.316 775.24 546.772 775.848 547.228C776.455 547.683 777.139 548.063 777.898 548.291C778.658 548.519 779.569 548.747 780.633 548.747C782 548.747 783.139 548.519 784.05 547.987C784.962 547.531 785.721 547 786.329 546.392C786.861 545.861 787.392 545.253 787.772 544.569C788.228 543.886 788.531 543.202 788.759 542.519L795.519 546.164C794.835 547.531 794.076 548.899 793.088 550.19C792.101 551.481 790.962 552.62 789.747 553.455C788.455 554.367 787.012 555.05 785.417 555.506C783.823 555.962 782.228 556.19 780.557 556.19C779.038 556.19 777.595 556.038 776.379 555.734C775.164 555.43 774.025 554.974 773.114 554.519C772.126 554.063 771.367 553.531 770.683 553C770 552.468 769.544 552.012 769.164 551.633C767.569 549.962 766.278 547.987 765.367 545.481C764.38 543.05 763.924 540.24 763.924 537.202C763.924 534.392 764.38 531.81 765.291 529.456C766.202 527.177 767.417 525.202 768.936 523.531C770.455 522.012 772.202 520.797 774.253 519.886C776.304 518.974 778.506 518.519 780.861 518.519C782.835 518.519 784.582 518.823 786.177 519.354C787.772 519.886 789.139 520.645 790.278 521.557C791.114 522.24 791.873 522.924 792.557 523.683C793.24 524.443 793.772 525.126 794.228 525.886C794.683 526.569 794.987 527.177 795.291 527.709C795.519 528.24 795.747 528.62 795.823 528.848L788.683 532.266Z" fill="#004E82"/>
<path d="M803.645 544.873C804.253 545.557 804.937 546.165 805.772 546.772C806.531 547.38 807.443 547.835 808.354 548.215C809.114 548.519 809.949 548.747 810.861 548.899C811.772 549.051 812.759 549.203 813.823 549.203C814.354 549.203 815.19 549.127 816.253 548.975C817.392 548.823 818.38 548.367 819.291 547.684C819.823 547.228 820.278 546.772 820.506 546.24C820.734 545.709 820.886 545.177 820.886 544.646C820.886 543.582 820.658 542.899 820.202 542.443C819.747 541.987 819.215 541.684 818.607 541.456C817.924 541.228 817.24 541 816.329 540.924C815.494 540.772 814.354 540.62 812.987 540.392L810.785 540.013C809.721 539.861 808.658 539.633 807.519 539.405C806.456 539.177 805.392 538.797 804.329 538.266C802.81 537.582 801.595 536.595 800.683 535.38C799.772 534.165 799.316 532.418 799.316 530.139C799.316 529.076 799.468 528.165 799.696 527.405C799.924 526.57 800.304 525.81 800.607 525.127C800.987 524.443 801.367 523.835 801.823 523.38C802.278 522.924 802.734 522.468 803.114 522.165C804.557 520.949 806.228 520.114 808.126 519.582C810.025 519.051 811.924 518.823 813.899 518.823C815.418 518.823 816.861 518.975 818.152 519.278C819.443 519.582 820.582 519.886 821.569 520.266C822.633 520.721 823.696 521.329 824.759 522.013C825.823 522.696 826.734 523.456 827.569 524.291L823.013 529.228C822.481 528.696 821.797 528.165 821.038 527.709C820.278 527.177 819.367 526.721 818.304 526.342C817.544 526.038 816.785 525.886 816.025 525.734C815.342 525.582 814.506 525.506 813.671 525.506C813.139 525.506 812.531 525.506 811.696 525.582C810.937 525.658 810.101 525.886 809.418 526.19C808.354 526.646 807.747 527.101 807.443 527.709C807.139 528.316 806.987 528.848 806.987 529.38C806.987 530.291 807.215 530.899 807.747 531.278C808.202 531.658 808.734 531.962 809.266 532.19C810.025 532.494 810.785 532.646 811.468 532.721C812.228 532.797 813.063 532.949 814.202 533.177L818.759 533.937C819.595 534.089 820.734 534.392 822.025 534.772C823.392 535.228 824.607 535.911 825.823 536.975C827.797 538.646 828.785 541 828.785 544.114C828.785 546.089 828.481 547.684 827.797 548.975C827.114 550.266 826.354 551.329 825.519 552.165C824.456 553.228 823.013 554.215 821.114 555.051C819.291 555.886 816.937 556.342 813.975 556.342C812.456 556.342 810.861 556.19 809.038 555.886C807.291 555.582 805.62 555.127 804.101 554.519C802.43 553.835 801.139 553 800.152 552.165C799.164 551.253 798.405 550.57 797.949 550.038L803.645 544.873Z" fill="#004E82"/>
<path d="M868.886 550.569C866.911 552.696 864.633 554.215 862.202 555.126C860.835 555.658 859.468 556.038 858.177 556.19C856.81 556.418 855.519 556.494 854.152 556.494C850.734 556.494 847.772 555.886 845.266 554.747C842.759 553.607 840.557 552.013 838.734 550.038C837.974 549.202 837.215 548.215 836.455 547.076C835.696 545.937 835.088 544.569 834.481 543.05C833.873 541.531 833.417 539.785 833.114 537.81C832.734 535.911 832.582 533.709 832.582 531.354C832.582 527.253 833.19 523.532 834.329 520.19C835.468 516.848 837.063 514.038 839.19 511.759C841.316 509.481 843.823 507.734 846.861 506.443C849.823 505.228 853.24 504.62 856.962 504.62C861.747 504.62 865.924 505.683 869.569 507.734C873.215 509.785 876.101 512.747 878.228 516.62L868.734 521.785C868.202 520.873 867.519 519.962 866.759 519.126C866 518.291 865.24 517.607 864.481 517.076C863.797 516.62 862.962 516.24 861.823 515.785C860.683 515.329 859.316 515.101 857.645 515.101C855.367 515.101 853.468 515.481 851.949 516.164C850.354 516.848 849.063 517.835 848.076 519.05C847.316 519.962 846.709 520.873 846.253 521.861C845.797 522.848 845.418 523.835 845.19 524.899C844.962 525.886 844.81 526.873 844.734 527.937C844.658 528.924 844.582 529.835 844.582 530.671C844.582 533.785 844.962 536.291 845.721 538.19C846.481 540.088 847.316 541.532 848.228 542.595C849.595 544.114 851.19 545.101 852.785 545.557C854.455 546.013 855.899 546.24 857.19 546.24C860.304 546.24 862.886 545.405 864.785 543.81C866.759 542.215 867.823 540.013 868.126 537.354H857.417V527.785H878.531V555.354H869.493L868.886 550.569Z" fill="#004E82"/>
<path d="M885.974 505.835H907.088C913.316 505.835 918.025 506.823 921.063 508.721C924.101 510.62 925.62 513.734 925.62 518.063C925.62 521.633 924.633 524.367 922.658 526.342C920.683 528.316 917.873 529.455 914.152 529.683C918.785 530.139 922.126 531.278 924.177 533.101C926.228 535 927.291 537.81 927.291 541.607C927.291 544.342 926.683 546.696 925.392 548.747C924.101 550.797 922.354 552.316 920.076 553.304C917.797 554.291 915.443 554.823 913.088 555.05C910.734 555.202 908.152 555.278 905.493 555.278H885.898V505.835H885.974ZM897.671 546.392H905.038C906.86 546.392 908.455 546.316 909.747 546.164C911.038 546.012 912.177 545.709 913.012 545.253C913.924 544.797 914.531 544.19 914.987 543.43C915.443 542.671 915.595 541.607 915.595 540.316C915.595 539.025 915.367 537.962 914.911 537.202C914.455 536.443 913.848 535.759 912.936 535.38C912.101 534.924 910.962 534.62 909.671 534.468C908.304 534.316 906.785 534.24 905.038 534.24H897.671V546.392ZM897.974 525.278H904.658C907.924 525.278 910.354 524.974 911.873 524.291C913.468 523.607 914.228 522.24 914.228 520.038C914.228 517.759 913.468 516.392 911.873 515.709C910.278 515.101 907.848 514.797 904.658 514.797H897.974V525.278Z" fill="#004E82"/>
<path d="M689.038 445.835V454.722L704.911 458.823L720.557 454.19V445.911L704.911 437.177L689.038 445.835Z" fill="#DB0814"/>
<path d="M734.988 311.557L704.836 328.038L674.76 311.557L647.114 369.278L672.633 400.494V434.519L684.253 441.202L698.836 432.392L689.038 420.696L720.633 420.62L710.912 432.392L725.418 441.127L737.038 434.443V400.418L762.557 369.202L734.988 311.557ZM687.823 413.025L687.443 375.278L675.064 371.861L666.254 358.721L694.127 367L687.823 413.025ZM734.912 371.785L722.532 375.202L722.152 412.949L715.848 366.924L743.722 358.645L734.912 371.785Z" fill="#DB0814"/>
<path d="M700.279 596.823C682.811 592.797 658.962 597.202 636.406 610.266C601.165 630.62 582.406 664.266 594.633 685.456C602.456 698.975 620.988 704.139 642.557 700.797C632.684 698.519 624.861 693.582 620.456 685.911C608.228 664.721 626.912 631.076 662.228 610.721C674.912 603.354 688.127 598.721 700.279 596.823Z" fill="#F0252D"/>
<path d="M700.583 680.367C705.824 697.532 721.621 715.987 744.178 728.975C779.418 749.329 817.925 748.721 830.153 727.532C837.975 714.013 833.115 695.405 819.444 678.392C822.406 688.038 822.026 697.304 817.621 704.975C805.393 726.164 766.887 726.772 731.646 706.418C718.887 699.051 708.33 689.937 700.583 680.367Z" fill="#00A651"/>
<path d="M676.659 638.823C664.431 651.962 656.305 674.823 656.305 700.873C656.305 741.582 676.127 774.62 700.583 774.62C716.229 774.62 729.9 761.101 737.798 740.747C730.887 748.19 722.684 752.443 713.874 752.443C689.419 752.443 669.596 719.405 669.596 678.696C669.672 663.962 672.254 650.291 676.659 638.823Z" fill="#0078D0"/>
</g>
<rect x="318.742" y="311.515" width="260.762" height="4" fill="#EAEDF7"/>
<rect x="318.742" y="526.48" width="122.922" height="4" fill="#EAEDF7"/>
<rect x="318.742" y="676.064" width="225.824" height="4" fill="#EAEDF7"/>
<rect x="232" y="268.701" width="88" height="88" rx="44" fill="#EAEDF7"/>
<path d="M262.391 323.701H269.271L270.871 318.941H281.111L282.711 323.701H289.591L279.471 296.981H272.511L262.391 323.701ZM275.951 303.661L279.391 313.821H272.591L275.951 303.661Z" fill="#193C66"/>
<rect x="232" y="482.965" width="88" height="88" rx="44" fill="#EAEDF7"/>
<path d="M264.811 511.245V537.965H276.931C283.411 537.965 287.731 535.725 287.731 529.725C287.731 526.485 285.971 524.605 283.491 523.765C285.491 522.525 286.651 520.645 286.651 518.205C286.651 512.605 282.291 511.245 276.491 511.245H264.811ZM276.971 526.685C279.691 526.685 281.051 527.805 281.051 529.685C281.051 531.565 279.691 532.725 276.971 532.725H271.131V526.685H276.971ZM276.691 516.405C278.811 516.405 280.091 517.405 280.091 519.085C280.091 520.725 278.811 521.805 276.691 521.805H271.131V516.405H276.691Z" fill="#193C66"/>
<rect x="232" y="634.326" width="88" height="88" rx="44" fill="#EAEDF7"/>
<path d="M277.147 689.806C282.187 689.806 286.267 687.446 288.427 683.646L282.867 681.606C281.627 683.926 279.187 684.606 277.187 684.606C273.387 684.606 270.467 681.566 270.467 675.966C270.467 670.526 273.387 667.326 277.107 667.326C279.267 667.326 281.467 668.206 282.667 670.366L288.267 668.326C286.227 664.566 282.347 662.126 277.307 662.126C269.027 662.126 263.787 667.526 263.787 675.966C263.787 684.486 268.827 689.806 277.147 689.806Z" fill="#193C66"/>
<defs>
<clipPath id="clip0_339_76064">
<rect width="445.823" height="600" fill="white" transform="translate(482 175)"/>
</clipPath>
</defs>
</svg>
