<svg xmlns="http://www.w3.org/2000/svg" version="1.1" xmlns:xlink="http://www.w3.org/1999/xlink" xmlns:svgjs="http://svgjs.com/svgjs" width="414" height="414"><svg width="414" height="414" viewBox="0 0 414 414" fill="none" xmlns="http://www.w3.org/2000/svg">
<rect width="414" height="414" fill="white"></rect>
<path d="M302.8 73.8C327.5 58.1 329.5 51.7 335.1 44.6C278.5 87.9 138 38.2 168.4 190.3C179.3 196.3 195.5 205.1 200.7 208L234.6 189.8C225.4 105.2 277.9 91.2 302.8 73.8Z" fill="#DB0814"></path>
<path d="M118.7 115C94.4001 136.5 83.2001 176.1 95.8001 208C97.4001 212 99.3001 216.1 101.7 220.2L108.1 230C112.5 235.9 118.9 242.6 124.9 248.5L136.9 223.4C94.4 177.4 108.8 130.3 118.7 115Z" fill="#DB0814"></path>
<path d="M110.5 278.2L119.1 260C102.7 244.5 91.3 229.2 85.3 213.3C82.4 205.6 80.8 199.1 80.8 190C74 221.5 77.1 250.7 92.4 281.7C107 311.2 130.1 334.8 146.6 349.5L146.3 321.1L110.5 278.2Z" fill="#004E82"></path>
<path d="M120.7 160.2C123.4 182.9 134.3 201 142.4 212L154.5 186.6C154.5 186.6 151.4 165.6 150.8 155.7C148.8 124.3 159.6 99.6 182.4 83.9C161.6 89.1 113.7 101.9 120.7 160.2Z" fill="#004E82"></path>
<path d="M365.7 20.6C322.8 112.6 237.4 80.1 246.3 185.2L258.1 209.8C266.8 185.5 266.6 172.7 279 155.1C307.2 115.1 346.2 142.1 365.7 20.6Z" fill="#004E82"></path>
<path d="M359.6 88C350.1 121.7 321.6 136.2 314 140.7C280.2 160.5 276.2 188.2 265.9 226.2L276 247.2C303.9 183.7 299.5 183.9 334.3 162.1C343.7 156.3 360 138.9 359.6 88Z" fill="#DB0814"></path>
<path d="M282.6 261.4L290.3 277.4L255.1 321.1C255 325.3 255.1 337.9 255 350.1C293.9 315.9 310.6 300.6 319.7 249.9C322 237.1 327.1 182.6 341.2 172.4C303.1 188.8 296.7 236.4 282.6 261.4Z" fill="#004E82"></path>
<path d="M181.2 376.6V388.3L202.1 393.7L222.7 387.6V376.7L202.1 365.2L181.2 376.6Z" fill="#DB0814"></path>
<path d="M241.7 199.8L202 221.5L162.4 199.8L126 275.8L159.6 316.9V361.7L174.9 370.5L194.1 358.9L181.2 343.5L222.8 343.4L210 358.9L229.1 370.4L244.4 361.6V316.8L278 275.7L241.7 199.8ZM179.6 333.4L179.1 283.7L162.8 279.2L151.2 261.9L187.9 272.8L179.6 333.4ZM241.6 279.1L225.3 283.6L224.8 333.3L216.5 272.7L253.2 261.8L241.6 279.1Z" fill="#DB0814"></path>
</svg><style>@media (prefers-color-scheme: light) { :root { filter: none; } }
@media (prefers-color-scheme: dark) { :root { filter: none; } }
</style></svg>