<svg width="699" height="517" viewBox="0 0 699 517" fill="none" xmlns="http://www.w3.org/2000/svg">
<path d="M314.594 4.82722C264.41 -6.80969 195.592 5.93554 130.833 43.4323C29.3589 101.986 -24.3302 198.961 10.7246 259.916C33.2334 298.89 86.5535 313.667 148.545 304.062C120.132 297.597 97.6235 283.189 84.893 261.209C49.8383 200.253 103.527 103.279 205.002 44.7253C241.717 23.4833 279.539 10.3686 314.594 4.82722Z" fill="#F0252D"/>
<path d="M315.516 245.323C330.645 294.642 376.031 347.839 440.79 385.336C542.264 443.89 652.964 442.043 688.203 381.087C710.712 342.113 696.874 288.546 657.392 239.597C665.879 267.489 664.772 294.088 652.226 316.068C617.171 377.024 506.287 378.871 404.813 320.317C368.098 299.075 337.655 273.03 315.516 245.323Z" fill="#00A651"/>
<path d="M246.699 125.629C211.46 163.496 188.213 229.253 188.213 304.247C188.213 421.539 245.223 516.667 315.517 516.667C360.35 516.667 399.833 477.877 422.526 419.138C402.6 440.38 378.985 452.941 353.708 452.941C283.414 452.941 226.404 357.814 226.404 240.521C226.404 198.222 233.969 158.878 246.699 125.629Z" fill="#0078D0"/>
</svg>
