<svg width="353" height="452" viewBox="0 0 353 452" fill="none" xmlns="http://www.w3.org/2000/svg">
<g clip-path="url(#clip0_302_88223)">
<path d="M18.52 10.1733C18.52 10.1733 -114.059 391.534 352.038 450.852" stroke="#45A6EB" stroke-width="1.65" stroke-miterlimit="10"/>
<path d="M18.5206 10.1733C18.5206 10.1733 -24.5038 189.221 104.662 333.113C157.783 392.286 234.71 435.917 352.038 450.852" stroke="#45A6EB" stroke-width="1.65" stroke-miterlimit="10"/>
<path d="M18.5194 10.1733C18.5194 10.1733 1.80529 167.708 118.923 320.603C172.202 390.163 243.738 437.077 352.037 450.852" stroke="#45A6EB" stroke-width="1.65" stroke-miterlimit="10"/>
<path d="M18.5195 10.1733C18.5195 10.1733 27.0084 147.659 133.185 308.094C186.438 388.555 252.754 438.224 352.037 450.865" stroke="#45A6EB" stroke-width="1.65" stroke-miterlimit="10"/>
<path d="M18.5195 10.1733C18.5195 10.1733 51.1964 128.585 147.448 295.571C200.345 387.329 261.784 439.358 352.037 450.852" stroke="#45A6EB" stroke-width="1.65" stroke-miterlimit="10"/>
<path d="M18.5195 10.1733C18.5195 10.1733 74.5013 110.13 161.71 283.062C213.843 386.433 270.813 440.518 352.037 450.852" stroke="#45A6EB" stroke-width="1.65" stroke-miterlimit="10"/>
<path d="M18.5195 10.1733C18.5195 10.1733 97.068 92.0583 175.985 270.552C226.906 385.747 279.842 441.664 352.05 450.852" stroke="#45A6EB" stroke-width="1.65" stroke-miterlimit="10"/>
<path d="M18.5195 10.1733C18.5195 10.1733 119.015 74.1707 190.248 258.043C239.507 385.207 288.872 442.811 352.05 450.852" stroke="#45A6EB" stroke-width="1.65" stroke-miterlimit="10"/>
<path d="M18.5195 10.1733C18.5195 10.1733 140.461 56.349 204.51 245.533C251.647 384.772 297.888 443.971 352.05 450.865" stroke="#45A6EB" stroke-width="1.65" stroke-miterlimit="10"/>
<path d="M18.5195 10.1733C18.5195 10.1733 161.486 38.4877 218.773 233.011C263.339 384.377 306.917 445.105 352.037 450.852" stroke="#45A6EB" stroke-width="1.65" stroke-miterlimit="10"/>
<path d="M18.5195 10.1733C18.5195 10.1733 182.181 20.5474 233.035 220.501C274.622 384.007 315.946 446.265 352.037 450.852" stroke="#45A6EB" stroke-width="1.65" stroke-miterlimit="10"/>
<path d="M18.5195 10.1734C18.5195 10.1734 202.573 2.48851 247.297 207.992C285.51 383.612 324.963 447.412 352.037 450.852" stroke="#45A6EB" stroke-width="1.65" stroke-miterlimit="10"/>
<path d="M18.5195 10.1734C18.5195 10.1734 222.753 -15.7287 261.56 195.469C296.042 383.164 333.992 448.545 352.037 450.852" stroke="#45A6EB" stroke-width="1.65" stroke-miterlimit="10"/>
<path d="M18.5195 10.1735C18.5195 10.1735 242.736 -34.1039 275.822 182.96C306.258 382.663 343.008 449.705 352.037 450.852" stroke="#45A6EB" stroke-width="1.65" stroke-miterlimit="10"/>
<path d="M18.5195 10.1735C18.5195 10.1735 262.588 -52.6375 290.084 170.45C316.184 382.096 352.037 450.852 352.037 450.852" stroke="#45A6EB" stroke-width="1.65" stroke-miterlimit="10"/>
</g>
<defs>
<clipPath id="clip0_302_88223">
<rect width="353" height="451" fill="white" transform="translate(0 0.933105)"/>
</clipPath>
</defs>
</svg>
