<svg width="302" height="293" viewBox="0 0 302 293" fill="none" xmlns="http://www.w3.org/2000/svg">
<g clip-path="url(#clip0_302_87925)">
<path d="M35.0626 45.2844C86.5519 -11.7698 192.307 -15.343 261.991 47.5338C319.045 99.0231 309.825 189.572 258.335 246.626C206.846 303.68 121.253 305.414 61.7972 256.713C-0.38836 205.798 -23.8075 110.528 35.0626 45.2844Z" stroke="#00A2EA" stroke-width="1.17154" stroke-miterlimit="10"/>
<path d="M40.3349 50.0407C89.0828 -4.45949 190.058 -10.5867 257.024 48.7169C313.527 98.6247 307.224 189.22 256.719 245.197C206.202 301.173 122.238 301.946 63.5432 254.78C2.59941 205.774 -17.27 114.546 40.3349 50.0407Z" stroke="#00A2EA" stroke-width="1.17154" stroke-miterlimit="10"/>
<path d="M45.606 54.7971C91.6243 2.85088 187.808 -5.84198 252.067 49.9118C308.009 98.2263 304.646 188.869 255.102 243.767C205.557 298.666 123.233 298.49 65.2997 252.847C5.58609 205.762 -10.7452 118.553 45.606 54.7971Z" stroke="#00A2EA" stroke-width="1.17154" stroke-miterlimit="10"/>
<path d="M50.8666 59.554C94.1551 10.1616 185.547 -1.0969 247.1 51.0954C302.479 97.8283 302.046 188.506 253.473 242.338C204.901 296.159 124.205 295.034 67.0339 250.914C8.57382 205.739 -4.20773 122.571 50.8666 59.554Z" stroke="#00A2EA" stroke-width="1.17154" stroke-miterlimit="10"/>
<path d="M56.1386 64.3101C96.6857 17.4718 183.298 3.64758 242.145 52.2784C296.973 97.4297 299.457 188.154 251.869 240.897C204.28 293.64 125.201 291.555 68.7913 248.969C11.5613 205.727 2.31785 126.589 56.1386 64.3101Z" stroke="#00A2EA" stroke-width="1.17154" stroke-miterlimit="10"/>
<path d="M61.4109 69.0669C99.2283 24.7825 181.061 8.39258 237.189 53.4736C291.455 97.0433 296.88 187.803 250.252 239.468C203.636 291.133 126.186 288.099 70.5489 247.036C14.5491 205.716 8.85543 130.596 61.4109 69.0669Z" stroke="#00A2EA" stroke-width="1.17154" stroke-miterlimit="10"/>
</g>
<defs>
<clipPath id="clip0_302_87925">
<rect width="301.04" height="291.199" fill="white" transform="translate(0.548828 0.847656)"/>
</clipPath>
</defs>
</svg>
