<svg width="396" height="748" viewBox="0 0 396 748" fill="none" xmlns="http://www.w3.org/2000/svg">
<g clip-path="url(#clip0_302_88224)">
<path d="M0.613281 1.51855C0.613281 1.51855 286.74 213.568 286.74 446.888C286.74 583.346 201.577 747.026 201.577 747.026" stroke="#45A6EB" stroke-width="2.57535" stroke-miterlimit="10"/>
<path d="M14.959 1.51855C18.7604 6.52937 297.877 213.568 292.707 449.485C289.805 581.669 207.911 739.929 201.575 747.005" stroke="#45A6EB" stroke-width="2.57535" stroke-miterlimit="10"/>
<path d="M29.3281 1.51855C36.9309 11.5606 309.201 213.486 298.696 452.103C293.056 579.992 214.268 732.852 201.597 747.026" stroke="#45A6EB" stroke-width="2.57535" stroke-miterlimit="10"/>
<path d="M43.6758 1.51855C55.08 16.5715 320.688 213.343 304.665 454.701C296.449 578.294 220.584 725.776 201.598 747.005" stroke="#45A6EB" stroke-width="2.57535" stroke-miterlimit="10"/>
<path d="M58.0234 1.51855C73.2291 21.6027 332.358 213.139 310.612 457.319C299.985 576.576 226.9 718.699 201.578 747.005" stroke="#45A6EB" stroke-width="2.57535" stroke-miterlimit="10"/>
<path d="M72.3906 1.51855C91.3976 26.6135 344.273 212.934 316.6 459.937C303.724 574.858 233.255 711.623 201.597 747.026" stroke="#45A6EB" stroke-width="2.57535" stroke-miterlimit="10"/>
<path d="M86.7363 1.51855C109.545 31.6243 356.432 212.709 322.566 462.534C307.565 573.14 239.59 704.526 201.575 747.005" stroke="#45A6EB" stroke-width="2.57535" stroke-miterlimit="10"/>
<path d="M101.084 1.51855C127.694 36.6556 368.858 212.484 328.514 465.152C311.551 571.422 245.905 697.449 201.556 747.005" stroke="#45A6EB" stroke-width="2.57535" stroke-miterlimit="10"/>
<path d="M115.453 1.51855C145.864 41.6664 381.592 212.32 334.504 467.77C315.701 569.745 252.263 690.393 201.577 747.026" stroke="#45A6EB" stroke-width="2.57535" stroke-miterlimit="10"/>
<path d="M129.799 1.51855C164.011 46.6977 394.65 212.218 340.47 470.367C319.971 568.068 258.576 683.296 201.576 747.005" stroke="#45A6EB" stroke-width="2.57535" stroke-miterlimit="10"/>
<path d="M144.168 1.51855C182.182 51.7085 408.1 212.218 346.46 472.985C324.367 566.452 264.934 676.22 201.598 747.026" stroke="#45A6EB" stroke-width="2.57535" stroke-miterlimit="10"/>
<path d="M158.514 1.51855C200.329 56.7193 421.935 212.361 352.406 475.603C328.821 564.877 271.248 669.143 201.576 747.026" stroke="#45A6EB" stroke-width="2.57535" stroke-miterlimit="10"/>
<path d="M172.861 1.51855C218.478 61.7506 436.221 212.689 358.374 478.2C333.42 563.323 277.584 662.067 201.576 747.005" stroke="#45A6EB" stroke-width="2.57535" stroke-miterlimit="10"/>
<path d="M187.229 1.51855C236.647 66.7614 450.997 213.261 364.362 480.818C338.12 561.871 283.94 654.99 201.596 747.026" stroke="#45A6EB" stroke-width="2.57535" stroke-miterlimit="10"/>
<path d="M201.576 1.51855C270.022 91.8768 600.233 301.431 201.576 747.026" stroke="#45A6EB" stroke-width="2.57535" stroke-miterlimit="10"/>
</g>
<defs>
<clipPath id="clip0_302_88224">
<rect width="396" height="747" fill="white" transform="translate(0 0.700195)"/>
</clipPath>
</defs>
</svg>
