<svg width="556" height="261" viewBox="0 0 556 261" fill="none" xmlns="http://www.w3.org/2000/svg">
<g clip-path="url(#clip0_302_87927)">
<path d="M341.49 259.697C341.49 259.697 357.84 212.877 443.05 212.877C528.26 212.877 554.27 259.697 554.27 259.697" stroke="#45A6EB" stroke-width="1.65" stroke-miterlimit="10"/>
<path d="M327.859 259.697C327.859 259.697 349.789 202.987 440.189 204.557C530.199 206.047 554.269 259.697 554.269 259.697" stroke="#45A6EB" stroke-width="1.65" stroke-miterlimit="10"/>
<path d="M314.23 259.697C314.23 259.697 341.75 193.107 437.32 196.227C532.12 199.207 554.27 259.697 554.27 259.697" stroke="#45A6EB" stroke-width="1.65" stroke-miterlimit="10"/>
<path d="M300.6 259.697C300.6 259.697 333.7 183.217 434.46 187.897C534.06 192.367 554.27 259.697 554.27 259.697" stroke="#45A6EB" stroke-width="1.65" stroke-miterlimit="10"/>
<path d="M286.971 259.697C286.971 259.697 325.651 173.327 431.591 179.577C535.981 185.547 554.271 259.697 554.271 259.697" stroke="#45A6EB" stroke-width="1.65" stroke-miterlimit="10"/>
<path d="M273.34 259.697C273.34 259.697 317.6 163.447 428.73 171.247C537.92 178.707 554.27 259.697 554.27 259.697" stroke="#45A6EB" stroke-width="1.65" stroke-miterlimit="10"/>
<path d="M259.711 259.697C259.711 259.697 309.561 153.557 425.861 162.927C539.841 171.877 554.271 259.697 554.271 259.697" stroke="#45A6EB" stroke-width="1.65" stroke-miterlimit="10"/>
<path d="M246.08 259.697C246.08 259.697 301.51 143.667 423 154.597C541.78 165.037 554.27 259.697 554.27 259.697" stroke="#45A6EB" stroke-width="1.65" stroke-miterlimit="10"/>
<path d="M232.449 259.697C232.449 259.697 293.459 133.777 420.129 146.277C543.699 158.207 554.269 259.697 554.269 259.697" stroke="#45A6EB" stroke-width="1.65" stroke-miterlimit="10"/>
<path d="M218.82 259.697C218.82 259.697 285.41 123.897 417.27 137.947C545.64 151.367 554.27 259.697 554.27 259.697" stroke="#45A6EB" stroke-width="1.65" stroke-miterlimit="10"/>
<path d="M205.18 259.697C205.18 259.697 277.35 114.007 414.39 129.627C547.56 144.537 554.26 259.697 554.26 259.697" stroke="#45A6EB" stroke-width="1.65" stroke-miterlimit="10"/>
<path d="M191.551 259.697C191.551 259.697 269.311 104.117 411.531 121.297C549.491 137.697 554.261 259.697 554.261 259.697" stroke="#45A6EB" stroke-width="1.65" stroke-miterlimit="10"/>
<path d="M177.92 259.697C177.92 259.697 261.26 94.2273 408.66 112.967C551.42 130.867 554.26 259.697 554.26 259.697" stroke="#45A6EB" stroke-width="1.65" stroke-miterlimit="10"/>
<path d="M164.289 259.697C164.289 259.697 253.209 84.347 405.799 104.647C553.349 124.037 554.259 259.697 554.259 259.697" stroke="#45A6EB" stroke-width="1.65" stroke-miterlimit="10"/>
<path d="M150.66 259.697C150.66 259.697 245.16 74.457 402.93 96.317C555.28 117.197 554.26 259.697 554.26 259.697" stroke="#45A6EB" stroke-width="1.65" stroke-miterlimit="10"/>
<path d="M137.029 259.697C137.029 259.697 237.119 64.5673 400.069 87.9973C557.209 110.367 554.269 259.697 554.269 259.697" stroke="#45A6EB" stroke-width="1.65" stroke-miterlimit="10"/>
<path d="M123.4 259.697C123.4 259.697 229.07 54.6872 397.21 79.6672C559.15 103.527 554.27 259.697 554.27 259.697" stroke="#45A6EB" stroke-width="1.65" stroke-miterlimit="10"/>
<path d="M109.77 259.697C109.77 259.697 221.02 44.7972 394.34 71.3472C561.08 96.6972 554.27 259.697 554.27 259.697" stroke="#45A6EB" stroke-width="1.65" stroke-miterlimit="10"/>
<path d="M96.1406 259.697C96.1406 259.697 212.971 34.907 391.481 63.017C563.011 89.857 554.271 259.697 554.271 259.697" stroke="#45A6EB" stroke-width="1.65" stroke-miterlimit="10"/>
<path d="M82.5098 259.697C82.5098 259.697 204.92 25.0272 388.61 54.6972C564.94 83.0272 554.27 259.707 554.27 259.707" stroke="#45A6EB" stroke-width="1.65" stroke-miterlimit="10"/>
<path d="M68.8809 259.697C68.8809 259.697 196.881 15.1371 385.751 46.3671C566.871 76.1971 554.271 259.697 554.271 259.697" stroke="#45A6EB" stroke-width="1.65" stroke-miterlimit="10"/>
<path d="M55.25 259.697C55.25 259.697 188.83 5.24736 382.88 38.0474C568.8 69.3674 554.27 259.707 554.27 259.707" stroke="#45A6EB" stroke-width="1.65" stroke-miterlimit="10"/>
<path d="M41.6191 259.697C41.6191 259.697 180.779 -4.64297 380.009 29.717C570.719 62.527 554.259 259.697 554.259 259.697" stroke="#45A6EB" stroke-width="1.65" stroke-miterlimit="10"/>
<path d="M27.9902 259.697C27.9902 259.697 172.73 -14.5226 377.15 21.3974C572.66 55.6974 554.27 259.707 554.27 259.707" stroke="#45A6EB" stroke-width="1.65" stroke-miterlimit="10"/>
<path d="M14.3594 259.697C14.3594 259.697 164.679 -24.4128 374.279 13.0672C574.589 48.8572 554.259 259.697 554.259 259.697" stroke="#45A6EB" stroke-width="1.65" stroke-miterlimit="10"/>
<path d="M0.730469 259.697C0.730469 259.697 156.63 -34.3027 371.42 4.73732C576.52 42.0173 554.271 259.697 554.271 259.697" stroke="#45A6EB" stroke-width="1.65" stroke-miterlimit="10"/>
</g>
<defs>
<clipPath id="clip0_302_87927">
<rect width="555.8" height="259.75" fill="white" transform="translate(0 0.347168)"/>
</clipPath>
</defs>
</svg>
