<svg width="321" height="293" viewBox="0 0 321 293" fill="none" xmlns="http://www.w3.org/2000/svg">
<path d="M320.024 147.699C320.024 228.803 245.003 292.152 145.948 292.152C64.8443 292.152 1 228.803 1 147.699C1 66.5958 66.8348 4.72966 147.852 0.847573C228.869 -3.03451 320.024 54.9619 320.024 147.699Z" stroke="#00A2EA" stroke-width="1.23633" stroke-miterlimit="10"/>
<path d="M312.185 147.674C312.185 227.245 240.737 288.53 146.331 289.395C66.7849 290.248 3.27441 227.257 3.27441 147.674C3.27441 68.0917 68.5157 8.14188 147.851 3.60454C230.253 -1.08116 312.185 55.1967 312.185 147.674Z" stroke="#00A2EA" stroke-width="1.23633" stroke-miterlimit="10"/>
<path d="M304.346 147.662C304.346 225.699 236.484 284.907 146.714 286.651C68.7258 288.344 5.56152 225.699 5.56152 147.662C5.56152 69.6246 70.197 11.5541 147.851 6.36146C227.916 1.04522 304.346 55.4192 304.346 147.662Z" stroke="#00A2EA" stroke-width="1.23633" stroke-miterlimit="10"/>
<path d="M296.509 147.637C296.509 224.142 232.219 281.273 147.098 283.906C70.6677 286.441 7.84961 224.142 7.84961 147.637C7.84961 71.1331 71.867 14.9664 147.852 9.11857C225.593 3.1718 296.509 55.6542 296.509 147.65V147.637Z" stroke="#00A2EA" stroke-width="1.23633" stroke-miterlimit="10"/>
<path d="M288.67 147.613C288.67 222.584 227.954 277.65 147.481 281.149C72.6087 284.524 10.1367 222.584 10.1367 147.613C10.1367 72.6414 73.5483 18.3787 147.852 11.8632C223.268 5.28594 288.67 55.8643 288.67 147.613Z" stroke="#00A2EA" stroke-width="1.23633" stroke-miterlimit="10"/>
<path d="M280.832 147.601C280.832 221.039 223.701 274.028 147.852 278.405C74.5375 282.633 12.3994 221.039 12.3994 147.601C12.3994 74.1624 75.2299 21.7913 147.852 14.6206C220.932 7.41275 280.832 56.0996 280.832 147.601Z" stroke="#00A2EA" stroke-width="1.23633" stroke-miterlimit="10"/>
</svg>
