<svg width="721" height="346" viewBox="0 0 721 346" fill="none" xmlns="http://www.w3.org/2000/svg">
<path d="M1 191.902C1 191.902 167.161 75.0295 354.805 175.809C441.37 222.308 527.508 304.95 720 344.564" stroke="#45A6EB" stroke-width="1.65465" stroke-miterlimit="10"/>
<path d="M1 191.226C1 191.226 166.557 50.2579 355.439 162.864C456.812 223.294 535.244 305.436 720 344.609" stroke="#45A6EB" stroke-width="1.65465" stroke-miterlimit="10"/>
<path d="M1 190.534C1 190.534 165.319 26.8247 356.072 149.905C472.077 224.75 542.98 305.906 720 344.638" stroke="#45A6EB" stroke-width="1.65465" stroke-miterlimit="10"/>
<path d="M1 189.858C1 189.858 163.625 4.22967 356.706 136.96C487.136 226.618 550.715 306.392 720 344.668" stroke="#45A6EB" stroke-width="1.65465" stroke-miterlimit="10"/>
<path d="M1 189.166C1 189.166 161.577 -17.8504 357.339 124C501.959 228.795 558.466 306.862 720 344.697" stroke="#45A6EB" stroke-width="1.65465" stroke-miterlimit="10"/>
<path d="M1 188.49C1 188.49 159.249 -39.6066 357.973 111.055C516.546 231.282 566.201 307.348 720 344.741" stroke="#45A6EB" stroke-width="1.65465" stroke-miterlimit="10"/>
<path d="M1 187.798C1 187.798 156.729 -61.1426 358.607 98.0952C530.927 234.017 573.937 307.818 720 344.77" stroke="#45A6EB" stroke-width="1.65465" stroke-miterlimit="10"/>
<path d="M1 187.121C1 187.121 154.018 -82.5164 359.225 85.1503C545.072 236.989 581.672 308.319 719.985 344.815" stroke="#45A6EB" stroke-width="1.65465" stroke-miterlimit="10"/>
<path d="M1 186.444C1 186.444 151.159 -103.788 359.859 72.1904C559.025 240.137 589.408 308.789 719.985 344.829" stroke="#45A6EB" stroke-width="1.65465" stroke-miterlimit="10"/>
<path d="M1 185.753C1 185.753 148.183 -124.985 360.493 59.2457C572.802 243.476 597.144 309.275 719.985 344.874" stroke="#45A6EB" stroke-width="1.65465" stroke-miterlimit="10"/>
</svg>
