<svg width="382" height="372" viewBox="0 0 382 372" fill="none" xmlns="http://www.w3.org/2000/svg">
<g clip-path="url(#clip0_302_87926)">
<path d="M90.1831 371.2C90.1831 371.2 185.793 285.36 161.833 175.67C137.873 65.9803 0.373047 1.61035 0.373047 1.61035" stroke="#45A6EB" stroke-width="1.65" stroke-miterlimit="10"/>
<path d="M21.4834 1.61035C21.4834 1.61035 150.193 70.5503 169.293 180.03C187.923 286.77 95.6234 370.03 90.1834 371.2" stroke="#45A6EB" stroke-width="1.65" stroke-miterlimit="10"/>
<path d="M42.583 1.61035C42.583 1.61035 162.553 74.9404 176.743 184.38C190.183 288.02 101.043 368.85 90.183 371.2" stroke="#45A6EB" stroke-width="1.65" stroke-miterlimit="10"/>
<path d="M63.6934 1.61035C63.6934 1.61035 175.003 79.1504 184.203 188.74C192.633 289.16 106.483 367.69 90.1834 371.21" stroke="#45A6EB" stroke-width="1.65" stroke-miterlimit="10"/>
<path d="M84.8037 1.61035C84.8037 1.61035 187.564 83.2003 191.664 193.09C195.284 290.16 111.924 366.51 90.1837 371.2" stroke="#45A6EB" stroke-width="1.65" stroke-miterlimit="10"/>
<path d="M105.904 1.61035C105.904 1.61035 200.264 87.1004 199.114 197.44C198.144 291.06 117.354 365.33 90.1836 371.2" stroke="#45A6EB" stroke-width="1.65" stroke-miterlimit="10"/>
<path d="M127.014 1.61035C127.014 1.61035 213.144 90.8804 206.574 201.8C201.234 291.88 122.784 364.17 90.1836 371.21" stroke="#45A6EB" stroke-width="1.65" stroke-miterlimit="10"/>
<path d="M148.123 1.61035C148.123 1.61035 226.243 94.5703 214.033 206.15C204.573 292.64 128.223 362.99 90.1934 371.2" stroke="#45A6EB" stroke-width="1.65" stroke-miterlimit="10"/>
<path d="M169.233 1.61035C169.233 1.61035 239.573 98.2103 221.493 210.51C208.153 293.39 133.663 361.82 90.1934 371.21" stroke="#45A6EB" stroke-width="1.65" stroke-miterlimit="10"/>
<path d="M190.334 1.61035C190.334 1.61035 253.174 101.84 228.944 214.86C211.954 294.12 139.084 360.65 90.1836 371.21" stroke="#45A6EB" stroke-width="1.65" stroke-miterlimit="10"/>
<path d="M211.443 1.61035C211.443 1.61035 267.073 105.52 236.403 219.21C215.983 294.89 144.523 359.47 90.1934 371.2" stroke="#45A6EB" stroke-width="1.65" stroke-miterlimit="10"/>
<path d="M232.553 1.61035C232.553 1.61035 281.303 109.3 243.863 223.57C220.223 295.74 149.963 358.3 90.1934 371.21" stroke="#45A6EB" stroke-width="1.65" stroke-miterlimit="10"/>
<path d="M253.654 1.61035C253.654 1.61035 295.844 113.23 251.314 227.92C224.624 296.66 155.394 357.13 90.1836 371.21" stroke="#45A6EB" stroke-width="1.65" stroke-miterlimit="10"/>
<path d="M274.763 1.61035C274.763 1.61035 310.723 117.39 258.773 232.27C229.183 297.71 160.823 355.95 90.1934 371.2" stroke="#45A6EB" stroke-width="1.65" stroke-miterlimit="10"/>
<path d="M295.873 1.61035C295.873 1.61035 325.923 121.82 266.233 236.63C233.853 298.91 166.263 354.78 90.1934 371.21" stroke="#45A6EB" stroke-width="1.65" stroke-miterlimit="10"/>
<path d="M316.983 1.61035C316.983 1.61035 341.413 126.58 273.693 240.98C238.603 300.25 171.703 353.6 90.1934 371.2" stroke="#45A6EB" stroke-width="1.65" stroke-miterlimit="10"/>
<path d="M338.084 1.61035C338.084 1.61035 357.154 131.71 281.134 245.33C243.374 301.77 177.114 352.43 90.1836 371.2" stroke="#45A6EB" stroke-width="1.65" stroke-miterlimit="10"/>
<path d="M359.194 1.61035C359.194 1.61035 373.114 137.23 288.594 249.69C248.174 303.47 182.554 351.26 90.1836 371.21" stroke="#45A6EB" stroke-width="1.65" stroke-miterlimit="10"/>
<path d="M380.303 1.61035C380.303 1.61035 399.383 304.44 90.1934 371.2" stroke="#45A6EB" stroke-width="1.65" stroke-miterlimit="10"/>
</g>
<defs>
<clipPath id="clip0_302_87926">
<rect width="381.33" height="371.14" fill="white" transform="translate(0.0234375 0.860352)"/>
</clipPath>
</defs>
</svg>
