<svg width="264" height="310" viewBox="0 0 264 310" fill="none" xmlns="http://www.w3.org/2000/svg">
<path d="M1 5.47412C1 5.47412 92.02 51.3841 98.38 163.304C102.95 243.754 40.2 308.954 40.2 308.954" stroke="#00A2EA" stroke-width="2" stroke-miterlimit="10"/>
<path d="M4.67969 5.47412C4.67969 5.47412 99.6097 46.8441 107.37 160.824C112.97 242.854 44.2697 308.944 44.2697 308.944" stroke="#00A2EA" stroke-width="2" stroke-miterlimit="10"/>
<path d="M8.36035 5.47412C8.36035 5.47412 107.2 42.2941 116.36 158.344C122.99 241.964 48.3503 308.944 48.3503 308.944" stroke="#00A2EA" stroke-width="2" stroke-miterlimit="10"/>
<path d="M12.0303 5.48389C12.0303 5.48389 114.77 37.7539 125.34 155.874C133 241.084 52.4103 308.954 52.4103 308.954" stroke="#00A2EA" stroke-width="2" stroke-miterlimit="10"/>
<path d="M15.71 5.48389C15.71 5.48389 122.36 33.2039 134.34 153.394C143.03 240.184 56.49 308.954 56.49 308.954" stroke="#00A2EA" stroke-width="2" stroke-miterlimit="10"/>
<path d="M19.3896 5.48389C19.3896 5.48389 129.95 28.6539 143.33 150.914C153.05 239.294 60.5696 308.954 60.5696 308.954" stroke="#00A2EA" stroke-width="2" stroke-miterlimit="10"/>
<path d="M23.0703 5.48389C23.0703 5.48389 137.53 24.1139 152.32 148.434C163.07 238.404 64.6403 308.954 64.6403 308.954" stroke="#00A2EA" stroke-width="2" stroke-miterlimit="10"/>
<path d="M26.7402 5.48389C26.7402 5.48389 145.11 19.5639 161.3 145.954C173.08 237.504 68.7102 308.944 68.7102 308.944" stroke="#00A2EA" stroke-width="2" stroke-miterlimit="10"/>
<path d="M30.4199 5.49414C30.4199 5.49414 152.7 15.0241 170.29 143.484C183.1 236.624 72.7799 308.954 72.7799 308.954" stroke="#00A2EA" stroke-width="2" stroke-miterlimit="10"/>
<path d="M34.0996 5.49414C34.0996 5.49414 160.28 10.4742 179.28 141.004C193.13 235.734 76.8496 308.954 76.8496 308.954" stroke="#00A2EA" stroke-width="2" stroke-miterlimit="10"/>
<path d="M37.7803 5.49414C37.7803 5.49414 167.87 5.92415 188.27 138.524C203.15 234.834 80.9303 308.954 80.9303 308.954" stroke="#00A2EA" stroke-width="2" stroke-miterlimit="10"/>
<path d="M41.4502 5.49407C41.4502 5.49407 175.45 1.38406 197.25 136.044C213.16 233.944 84.9902 308.954 84.9902 308.954" stroke="#00A2EA" stroke-width="2" stroke-miterlimit="10"/>
<path d="M45.1299 5.49423C45.1299 5.49423 183.03 -3.16576 206.24 133.564C223.18 233.054 89.0699 308.944 89.0699 308.944" stroke="#00A2EA" stroke-width="2" stroke-miterlimit="10"/>
<path d="M48.8096 5.49404C48.8096 5.49404 190.62 -7.71596 215.23 131.084C233.2 232.154 93.1396 308.944 93.1396 308.944" stroke="#00A2EA" stroke-width="2" stroke-miterlimit="10"/>
<path d="M52.4902 5.50387C52.4902 5.50387 198.2 -12.2561 224.22 128.614C243.22 231.274 97.2102 308.954 97.2102 308.954" stroke="#00A2EA" stroke-width="2" stroke-miterlimit="10"/>
<path d="M56.1602 5.50385C56.1602 5.50385 205.78 -16.8062 233.2 126.134C253.23 230.384 101.28 308.954 101.28 308.954" stroke="#00A2EA" stroke-width="2" stroke-miterlimit="10"/>
<path d="M59.8398 5.50419C59.8398 5.50419 213.37 -21.3558 242.19 123.654C263.25 229.484 105.35 308.954 105.35 308.954" stroke="#00A2EA" stroke-width="2" stroke-miterlimit="10"/>
<path d="M63.5195 5.50395C63.5195 5.50395 220.96 -25.8961 251.18 121.174C273.27 228.594 109.42 308.954 109.42 308.954" stroke="#00A2EA" stroke-width="2" stroke-miterlimit="10"/>
<path d="M67.2002 5.50397C67.2002 5.50397 228.54 -30.446 260.18 118.694C283.3 227.704 113.51 308.944 113.51 308.944" stroke="#00A2EA" stroke-width="2" stroke-miterlimit="10"/>
</svg>
