<svg width="247" height="338" viewBox="0 0 247 338" fill="none" xmlns="http://www.w3.org/2000/svg">
<path d="M243.632 1.7002C243.632 1.7002 193.682 24.0902 193.682 67.1502C193.682 110.21 276.742 148.69 232.672 208.97C178.482 283.11 185.052 303.27 185.052 337.55" stroke="#00A2EA" stroke-width="2" stroke-miterlimit="10"/>
<path d="M237.051 1.7002C237.051 1.7002 187.281 24.6702 187.281 67.7302C187.281 110.79 270.461 148.59 226.961 209.14C203.901 241.15 190.731 261.56 183.991 280.09C175.801 302.6 177.991 317.78 177.991 337.54" stroke="#00A2EA" stroke-width="2" stroke-miterlimit="10"/>
<path d="M230.462 1.7002C230.462 1.7002 180.862 25.2602 180.862 68.3102C180.862 111.36 264.162 148.48 221.232 209.31C198.582 241.21 184.332 260.05 176.992 279.72C168.672 301.99 170.922 317.46 170.922 337.54" stroke="#00A2EA" stroke-width="2" stroke-miterlimit="10"/>
<path d="M223.882 1.7002C223.882 1.7002 174.452 25.8402 174.452 68.9002C174.452 111.96 257.992 148.48 215.512 209.49C193.342 241.32 177.952 258.55 169.992 279.35C161.562 301.39 163.852 317.14 163.852 337.54" stroke="#00A2EA" stroke-width="2" stroke-miterlimit="10"/>
<path d="M217.292 1.7002C217.292 1.7002 168.032 26.4202 168.032 69.4802C168.032 112.54 251.732 148.4 209.782 209.66C188.042 241.4 171.562 257.04 162.992 278.98C154.462 300.8 156.782 316.81 156.782 337.55" stroke="#00A2EA" stroke-width="2" stroke-miterlimit="10"/>
<path d="M210.711 1.7002C210.711 1.7002 161.621 27.0102 161.621 70.0602C161.621 113.11 245.481 148.32 204.062 209.83C182.752 241.47 165.191 255.53 155.991 278.6C147.381 300.19 149.702 316.48 149.702 337.54" stroke="#00A2EA" stroke-width="2" stroke-miterlimit="10"/>
<path d="M204.122 1.7002C204.122 1.7002 155.202 27.5902 155.202 70.6502C155.202 113.71 239.212 148.25 198.332 210.01C177.452 241.55 158.822 254.03 148.992 278.24C140.312 299.62 142.632 316.16 142.632 337.55" stroke="#00A2EA" stroke-width="2" stroke-miterlimit="10"/>
<path d="M197.532 1.7002C197.532 1.7002 148.792 28.1702 148.792 71.2302C148.792 114.29 232.952 148.16 192.612 210.18C172.162 241.62 152.462 252.53 141.992 277.86C133.242 299.02 135.562 315.83 135.562 337.54" stroke="#00A2EA" stroke-width="2" stroke-miterlimit="10"/>
<path d="M190.952 1.7002C190.952 1.7002 142.381 28.7602 142.381 71.8102C142.381 114.86 226.692 148.07 186.892 210.35C166.872 241.68 146.112 251.03 135.002 277.48C126.202 298.43 128.502 315.49 128.502 337.54" stroke="#00A2EA" stroke-width="2" stroke-miterlimit="10"/>
<path d="M184.362 1.7002C184.362 1.7002 135.962 29.3402 135.962 72.4002C135.962 115.46 220.412 147.99 181.162 210.53C161.562 241.76 139.762 249.54 127.992 277.12C119.142 297.86 121.422 315.18 121.422 337.55" stroke="#00A2EA" stroke-width="2" stroke-miterlimit="10"/>
<path d="M177.782 1.7002C177.782 1.7002 129.552 29.9202 129.552 72.9802C129.552 116.04 214.142 147.9 175.442 210.7C156.262 241.82 133.432 248.04 121.002 276.74C112.112 297.27 114.352 314.84 114.352 337.54" stroke="#00A2EA" stroke-width="2" stroke-miterlimit="10"/>
<path d="M171.192 1.7002C171.192 1.7002 123.132 30.5102 123.132 73.5602C123.132 116.61 207.852 147.8 169.712 210.87C150.952 241.88 127.092 246.55 113.992 276.37C105.062 296.7 107.272 314.52 107.272 337.54" stroke="#00A2EA" stroke-width="2" stroke-miterlimit="10"/>
<path d="M164.611 1.7002C164.611 1.7002 116.731 31.0902 116.731 74.1502C116.731 117.21 201.581 147.71 164.001 211.05C145.661 241.95 120.781 245.07 107.011 276C98.0513 296.13 100.221 314.2 100.221 337.55" stroke="#00A2EA" stroke-width="2" stroke-miterlimit="10"/>
<path d="M158.022 1.7002C158.022 1.7002 110.312 31.6702 110.312 74.7302C110.312 117.79 195.292 147.61 158.272 211.22C140.352 242.01 114.462 243.58 100.002 275.63C91.0121 295.56 93.142 313.87 93.142 337.55" stroke="#00A2EA" stroke-width="2" stroke-miterlimit="10"/>
<path d="M151.432 1.7002C151.432 1.7002 103.892 32.2602 103.892 75.3102C103.892 118.36 188.992 147.51 152.542 211.39C135.032 242.07 108.142 242.1 93.0018 275.25C83.9918 294.98 86.0718 313.54 86.0718 337.54" stroke="#00A2EA" stroke-width="2" stroke-miterlimit="10"/>
<path d="M144.852 1.7002C144.852 1.7002 97.4818 32.8402 97.4818 75.9002C97.4818 118.96 182.702 147.41 146.822 211.57C129.722 242.14 101.842 240.63 86.0018 274.88C76.9718 294.41 78.9918 313.21 78.9918 337.54" stroke="#00A2EA" stroke-width="2" stroke-miterlimit="10"/>
<path d="M138.261 1.7002C138.261 1.7002 91.0615 33.4202 91.0615 76.4802C91.0615 119.54 176.401 147.3 141.091 211.74C124.401 242.19 95.5415 239.15 79.0015 274.51C69.9515 293.85 71.9215 312.89 71.9215 337.54" stroke="#00A2EA" stroke-width="2" stroke-miterlimit="10"/>
<path d="M131.682 1.7002C131.682 1.7002 84.6516 34.0102 84.6516 77.0602C84.6516 120.11 170.102 147.19 135.372 211.91C119.092 242.25 89.2616 237.68 72.0016 274.13C62.9416 293.27 64.8516 312.55 64.8516 337.54" stroke="#00A2EA" stroke-width="2" stroke-miterlimit="10"/>
<path d="M125.092 1.7002C125.092 1.7002 78.2419 34.5902 78.2419 77.6502C78.2419 120.71 163.792 147.08 129.652 212.09C113.782 242.31 82.9919 236.23 65.0119 273.77C55.9319 292.72 57.7919 312.24 57.7919 337.55" stroke="#00A2EA" stroke-width="2" stroke-miterlimit="10"/>
<path d="M118.512 1.7002C118.512 1.7002 71.8322 35.1702 71.8322 78.2302C71.8322 121.29 157.482 146.97 123.932 212.26C108.462 242.36 76.7222 234.76 58.0122 273.39C48.9222 292.15 50.7122 311.9 50.7122 337.54" stroke="#00A2EA" stroke-width="2" stroke-miterlimit="10"/>
<path d="M111.922 1.7002C111.922 1.7002 65.412 35.7602 65.412 78.8102C65.412 121.86 151.162 146.85 118.202 212.43C103.132 242.42 70.462 233.31 51.012 273.02C41.912 291.59 43.642 311.58 43.642 337.54" stroke="#00A2EA" stroke-width="2" stroke-miterlimit="10"/>
<path d="M105.342 1.7002C105.342 1.7002 59.0015 36.3402 59.0015 79.4002C59.0015 122.46 144.832 146.74 112.482 212.61C97.8115 242.48 64.2115 231.86 44.0215 272.65C34.9215 291.03 36.5815 311.26 36.5815 337.55" stroke="#00A2EA" stroke-width="2" stroke-miterlimit="10"/>
<path d="M98.7517 1.7002C98.7517 1.7002 52.5817 36.9202 52.5817 79.9802C52.5817 123.04 138.502 146.62 106.752 212.78C92.4717 242.53 57.9617 230.42 37.0117 272.27C27.9017 290.47 29.5017 310.92 29.5017 337.54" stroke="#00A2EA" stroke-width="2" stroke-miterlimit="10"/>
<path d="M92.1615 1.7002C92.1615 1.7002 46.1715 37.5102 46.1715 80.5602C46.1715 123.61 132.161 146.49 101.031 212.95C87.1514 242.58 51.7315 228.98 30.0215 271.9C20.9115 289.91 22.4415 310.6 22.4415 337.54" stroke="#00A2EA" stroke-width="2" stroke-miterlimit="10"/>
<path d="M85.5822 1.7002C85.5822 1.7002 39.7622 38.0902 39.7622 81.1502C39.7622 124.21 125.712 146.32 95.3122 213.13C81.7722 242.61 45.5122 227.55 23.0222 271.53C13.9022 289.36 15.3622 310.27 15.3622 337.54" stroke="#00A2EA" stroke-width="2" stroke-miterlimit="10"/>
<path d="M78.9917 1.7002C78.9917 1.7002 33.3417 38.6702 33.3417 81.7302C33.3417 124.79 119.412 146.22 89.5817 213.3C76.4517 242.67 39.2917 226.12 16.0217 271.16C6.90168 288.8 8.29168 309.95 8.29168 337.55" stroke="#00A2EA" stroke-width="2" stroke-miterlimit="10"/>
<path d="M72.4118 1.7002C72.4118 1.7002 26.9318 39.2602 26.9318 82.3202C26.9318 125.38 113.122 146.13 83.8618 213.48C71.1518 242.74 33.0918 224.7 9.0218 270.79C-0.0982041 288.25 1.2218 309.62 1.2218 337.55" stroke="#00A2EA" stroke-width="2" stroke-miterlimit="10"/>
</svg>
