<svg width="385" height="237" viewBox="0 0 385 237" fill="none" xmlns="http://www.w3.org/2000/svg">
<path d="M2 233.678C2 233.678 53.24 169.718 120.19 172.888C188.41 176.118 220.34 245.068 383.75 233.678" stroke="#00A2EA" stroke-width="2.41" stroke-miterlimit="10"/>
<path d="M2 227.019C2 227.019 51.67 159.859 120.34 162.839C157.8 164.489 182.91 187.559 224.84 206.499C260.15 222.349 309.83 233.419 383.76 224.639" stroke="#00A2EA" stroke-width="2.41" stroke-miterlimit="10"/>
<path d="M2 220.358C2 220.358 50.11 149.988 120.48 152.788C158.41 154.328 182.27 179.498 223.8 200.188C258.58 217.518 310.72 227.948 383.76 215.598" stroke="#00A2EA" stroke-width="2.41" stroke-miterlimit="10"/>
<path d="M2 213.699C2 213.699 48.55 140.129 120.62 142.739C159.03 144.179 181.66 171.379 222.75 193.869C257.02 212.619 311.61 222.469 383.75 206.559" stroke="#00A2EA" stroke-width="2.41" stroke-miterlimit="10"/>
<path d="M2 207.029C2 207.029 46.99 130.249 120.77 132.679C159.65 134.019 181.05 163.249 221.71 187.549C255.47 207.719 312.5 216.999 383.76 197.509" stroke="#00A2EA" stroke-width="2.41" stroke-miterlimit="10"/>
<path d="M2 200.369C2 200.369 45.43 120.389 120.91 122.619C160.27 123.849 180.44 155.109 220.67 181.229C253.92 202.819 313.4 211.519 383.76 188.459" stroke="#00A2EA" stroke-width="2.41" stroke-miterlimit="10"/>
<path d="M2 193.709C2 193.709 43.86 110.529 121.05 112.569C160.88 113.699 179.83 146.969 219.62 174.909C252.36 197.909 314.28 206.039 383.75 179.419" stroke="#00A2EA" stroke-width="2.41" stroke-miterlimit="10"/>
<path d="M2 187.048C2 187.048 42.3 100.658 121.2 102.518C161.5 103.548 179.24 138.818 218.59 168.598C250.83 192.998 315.19 200.568 383.76 170.378" stroke="#00A2EA" stroke-width="2.41" stroke-miterlimit="10"/>
<path d="M2 180.388C2 180.388 40.74 90.7984 121.34 92.4684C162.12 93.3984 178.64 130.668 217.54 162.278C249.28 188.068 316.07 195.088 383.76 161.338" stroke="#00A2EA" stroke-width="2.41" stroke-miterlimit="10"/>
<path d="M2 173.728C2 173.728 39.18 80.9384 121.48 82.4184C162.73 83.2384 178.04 122.508 216.49 155.968C247.74 183.158 316.96 189.618 383.75 152.298" stroke="#00A2EA" stroke-width="2.41" stroke-miterlimit="10"/>
<path d="M2 167.059C2 167.059 37.62 71.0588 121.63 72.3588C163.36 73.0788 177.46 114.339 215.46 149.639C246.22 178.219 317.86 184.129 383.76 143.239" stroke="#00A2EA" stroke-width="2.41" stroke-miterlimit="10"/>
<path d="M2 160.398C2 160.398 36.05 61.1985 121.77 62.3185C163.97 62.9385 176.88 106.188 214.41 143.338C244.68 173.298 318.75 178.668 383.76 134.218" stroke="#00A2EA" stroke-width="2.41" stroke-miterlimit="10"/>
<path d="M2 153.739C2 153.739 34.49 51.3386 121.91 52.2586C164.59 52.7686 176.29 98.0086 213.37 137.019C243.16 168.369 319.64 173.199 383.76 125.169" stroke="#00A2EA" stroke-width="2.41" stroke-miterlimit="10"/>
<path d="M2 147.078C2 147.078 32.93 41.4685 122.05 42.2085C165.2 42.6185 175.72 89.8385 212.32 130.698C241.63 163.428 320.53 167.718 383.75 116.118" stroke="#00A2EA" stroke-width="2.41" stroke-miterlimit="10"/>
<path d="M2 140.418C2 140.418 31.37 31.6083 122.2 32.1583C165.82 32.4683 175.16 81.6583 211.28 124.388C240.12 158.498 321.42 162.248 383.75 107.088" stroke="#00A2EA" stroke-width="2.41" stroke-miterlimit="10"/>
<path d="M2 133.748C2 133.748 29.8 21.7383 122.34 22.1083C166.44 22.3083 174.66 73.4283 210.24 118.068C238.66 153.508 322.32 156.768 383.76 98.0383" stroke="#00A2EA" stroke-width="2.41" stroke-miterlimit="10"/>
<path d="M2 127.088C2 127.088 28.24 11.8683 122.48 12.0583C167.05 12.1583 174.07 65.2783 209.19 111.758C237.12 148.598 323.2 151.298 383.75 89.0083" stroke="#00A2EA" stroke-width="2.41" stroke-miterlimit="10"/>
<path d="M2 120.429C2 120.429 26.68 2.00854 122.63 1.99854C167.68 1.99854 173.49 57.1185 208.16 105.429C235.6 143.669 324.11 145.809 383.76 79.9485" stroke="#00A2EA" stroke-width="2.41" stroke-miterlimit="10"/>
</svg>
