<svg width="809" height="359" viewBox="0 0 809 359" fill="none" xmlns="http://www.w3.org/2000/svg">
<path d="M2 314.822C2 314.822 106.998 236.098 296.341 218.896C534.723 197.24 663.148 356.7 808 356.7" stroke="#45A6EB" stroke-width="2.88" stroke-miterlimit="10"/>
<path d="M2 307.526C2 307.526 106.169 227.145 293.282 209.952C531.744 187.939 652.893 351.016 808 348.861" stroke="#45A6EB" stroke-width="2.88" stroke-miterlimit="10"/>
<path d="M2 300.239C2 300.239 105.331 218.21 290.223 201.017C528.757 178.657 642.637 345.342 808 341.03" stroke="#45A6EB" stroke-width="2.88" stroke-miterlimit="10"/>
<path d="M2 292.943C2 292.943 104.501 209.257 287.165 192.073C525.778 169.357 632.382 339.659 808 333.191" stroke="#45A6EB" stroke-width="2.88" stroke-miterlimit="10"/>
<path d="M2 285.647C2 285.647 103.663 200.304 284.106 183.129C522.8 160.065 622.135 333.975 808 325.352" stroke="#45A6EB" stroke-width="2.88" stroke-miterlimit="10"/>
<path d="M2 278.351C2 278.351 102.834 191.36 281.047 174.185C519.812 150.765 611.88 328.291 808 317.512" stroke="#45A6EB" stroke-width="2.88" stroke-miterlimit="10"/>
<path d="M2 271.055C2 271.055 101.995 182.407 277.988 165.241C516.834 141.464 601.624 322.608 808 309.673" stroke="#45A6EB" stroke-width="2.88" stroke-miterlimit="10"/>
<path d="M2 263.759C2 263.759 101.157 173.454 274.929 156.296C513.846 132.173 591.369 316.924 808 301.833" stroke="#45A6EB" stroke-width="2.88" stroke-miterlimit="10"/>
<path d="M2 256.463C2 256.463 100.328 164.501 271.871 147.353C510.868 122.872 581.113 311.241 808 293.994" stroke="#45A6EB" stroke-width="2.88" stroke-miterlimit="10"/>
<path d="M2 249.167C2 249.167 99.4894 155.557 268.812 138.408C507.889 113.572 570.858 305.557 808 286.154" stroke="#45A6EB" stroke-width="2.88" stroke-miterlimit="10"/>
<path d="M2 241.871C2 241.871 98.6601 146.604 265.753 129.464C504.902 104.28 560.602 299.873 808 278.315" stroke="#45A6EB" stroke-width="2.88" stroke-miterlimit="10"/>
<path d="M2 234.584C2 234.584 97.8218 137.66 262.694 120.529C501.923 94.9891 550.356 294.199 808 270.485" stroke="#45A6EB" stroke-width="2.88" stroke-miterlimit="10"/>
<path d="M2 227.288C2 227.288 96.9924 128.716 259.635 111.585C498.945 85.6887 540.1 288.515 808 262.645" stroke="#45A6EB" stroke-width="2.88" stroke-miterlimit="10"/>
<path d="M2 219.992C2 219.992 96.1542 119.763 256.577 102.642C495.957 76.3974 529.845 282.832 808 254.815" stroke="#45A6EB" stroke-width="2.88" stroke-miterlimit="10"/>
<path d="M2 212.696C2 212.696 95.3248 110.811 253.518 93.6976C492.979 67.0971 519.589 277.148 807.991 246.976" stroke="#45A6EB" stroke-width="2.88" stroke-miterlimit="10"/>
<path d="M2 205.4C2 205.4 94.4865 101.857 250.459 84.7533C490 57.8054 509.334 271.465 807.991 239.136" stroke="#45A6EB" stroke-width="2.88" stroke-miterlimit="10"/>
<path d="M2 198.104C2 198.104 93.6572 92.9136 247.4 75.8095C487.013 48.5052 499.078 265.781 807.991 231.297" stroke="#45A6EB" stroke-width="2.88" stroke-miterlimit="10"/>
<path d="M2 190.808C2 190.808 92.8189 83.9604 244.341 66.8652C484.034 39.2046 488.832 260.097 807.991 223.457" stroke="#45A6EB" stroke-width="2.88" stroke-miterlimit="10"/>
<path d="M2 183.512C2 183.512 91.9895 75.0167 241.282 57.9214C481.055 29.9134 478.576 254.423 807.991 215.618" stroke="#45A6EB" stroke-width="2.88" stroke-miterlimit="10"/>
<path d="M2 176.216C2 176.216 91.1513 66.0636 238.224 48.9773C478.068 20.6129 468.321 248.739 807.991 207.778" stroke="#45A6EB" stroke-width="2.88" stroke-miterlimit="10"/>
<path d="M2 168.92C2 168.92 90.3219 57.1104 235.165 40.0419C475.089 11.3212 458.065 243.064 807.991 199.948" stroke="#45A6EB" stroke-width="2.88" stroke-miterlimit="10"/>
<path d="M2 161.633C2 161.633 89.4837 48.1664 232.106 31.0979C472.111 2.02087 447.81 237.372 808 192.108" stroke="#45A6EB" stroke-width="2.88" stroke-miterlimit="10"/>
<path d="M2 154.337C2 154.337 88.6543 39.2134 229.047 22.1538C469.123 -7.27062 437.554 231.697 807.991 184.269" stroke="#45A6EB" stroke-width="2.88" stroke-miterlimit="10"/>
<path d="M2 147.041C2 147.041 87.816 30.2695 225.988 13.2099C466.145 -16.562 427.308 226.014 807.991 176.43" stroke="#45A6EB" stroke-width="2.88" stroke-miterlimit="10"/>
<path d="M2 139.745C2 139.745 86.9867 21.3166 222.93 4.26592C463.166 -25.8623 417.052 220.33 807.991 168.59" stroke="#45A6EB" stroke-width="2.88" stroke-miterlimit="10"/>
</svg>
