<svg width="352" height="237" viewBox="0 0 352 237" fill="none" xmlns="http://www.w3.org/2000/svg">
<path d="M1.06055 236.822C1.06055 207.362 15.0406 163.142 85.7105 154.872C156.391 146.602 102.721 58.4416 174.431 55.3616C258.041 51.7616 262.901 33.9616 262.901 0.371582" stroke="#45A6EB" stroke-width="2" stroke-miterlimit="10"/>
<path d="M9.9209 236.822C9.9209 209.332 22.3809 162.662 93.1909 154.872C163.901 147.082 110.271 59.0916 181.911 55.3616C264.221 51.2216 268.741 31.9416 268.741 0.601562" stroke="#45A6EB" stroke-width="2" stroke-miterlimit="10"/>
<path d="M18.7803 236.822C18.7803 211.292 29.7303 162.172 100.67 154.872C171.41 147.562 117.83 59.7418 189.39 55.3618C270.4 50.6918 274.59 29.9318 274.59 0.821777" stroke="#45A6EB" stroke-width="2" stroke-miterlimit="10"/>
<path d="M27.6406 236.822C27.6406 213.262 37.0706 161.692 108.151 154.872C178.921 148.052 125.371 60.2118 196.871 55.3618C276.561 49.9518 280.431 27.9118 280.431 1.05176" stroke="#45A6EB" stroke-width="2" stroke-miterlimit="10"/>
<path d="M36.501 236.821C36.501 215.221 44.421 161.211 115.631 154.871C186.431 148.531 132.921 60.8215 204.351 55.3615C282.741 49.3615 286.271 25.9015 286.271 1.27148" stroke="#45A6EB" stroke-width="2" stroke-miterlimit="10"/>
<path d="M45.3701 236.821C45.3701 217.181 51.7801 160.731 123.11 154.871C193.94 149.011 140.46 61.4315 211.83 55.3615C288.91 48.7915 292.11 23.8915 292.11 1.50146" stroke="#45A6EB" stroke-width="2" stroke-miterlimit="10"/>
<path d="M54.2305 236.822C54.2305 219.152 59.1205 160.252 130.59 154.872C201.46 149.492 148.01 62.0617 219.31 55.3617C295.08 48.2317 297.96 21.8717 297.96 1.72168" stroke="#45A6EB" stroke-width="2" stroke-miterlimit="10"/>
<path d="M63.0908 236.821C63.0908 221.111 66.4708 159.771 138.071 154.871C208.971 149.981 155.561 62.7014 226.791 55.3614C298.021 48.0214 303.801 19.8514 303.801 1.94141" stroke="#45A6EB" stroke-width="2" stroke-miterlimit="10"/>
<path d="M71.9502 236.822C71.9502 223.072 73.8102 159.292 145.55 154.872C216.48 150.462 163.11 63.3416 234.27 55.3616C305.43 47.3816 309.64 17.8316 309.64 2.16162" stroke="#45A6EB" stroke-width="2" stroke-miterlimit="10"/>
<path d="M80.8105 236.822C80.8105 225.042 81.1605 158.812 153.031 154.872C223.991 150.942 170.661 64.0016 241.751 55.3616C312.841 46.7216 315.481 15.8216 315.481 2.3916" stroke="#45A6EB" stroke-width="2" stroke-miterlimit="10"/>
<path d="M89.6701 236.822C89.6701 227.002 88.5001 158.332 160.5 154.872C231.49 151.422 178.2 64.6718 249.22 55.3618C320.24 46.0518 321.32 13.8018 321.32 2.61182" stroke="#45A6EB" stroke-width="2" stroke-miterlimit="10"/>
<path d="M98.5304 236.822C98.5304 228.972 95.8504 157.852 167.98 154.872C239 151.912 185.76 65.3518 256.7 55.3618C327.64 45.3718 327.16 11.7918 327.16 2.8418" stroke="#45A6EB" stroke-width="2" stroke-miterlimit="10"/>
<path d="M107.391 236.822C107.391 230.932 103.201 157.372 175.461 154.872C246.521 152.392 193.311 66.0418 264.181 55.3618C332.141 45.1118 333.001 9.79178 333.001 3.07178" stroke="#45A6EB" stroke-width="2" stroke-miterlimit="10"/>
<path d="M116.26 236.822C116.26 232.892 110.55 156.882 182.95 154.872C254.04 152.872 200.88 66.7518 271.67 55.3618C338.33 44.6318 338.85 7.78176 338.85 3.30176" stroke="#45A6EB" stroke-width="2" stroke-miterlimit="10"/>
<path d="M125.121 236.821C125.121 234.861 117.901 156.401 190.431 154.871C261.551 153.351 208.461 67.5515 279.151 55.3615C344.541 44.2415 344.701 5.76148 344.701 3.52148" stroke="#45A6EB" stroke-width="2" stroke-miterlimit="10"/>
<path d="M133.981 236.821C133.981 236.821 125.241 155.921 197.901 154.871C269.051 153.841 216.001 68.2015 286.621 55.3615C350.701 43.7015 350.531 3.75146 350.531 3.75146" stroke="#45A6EB" stroke-width="2" stroke-miterlimit="10"/>
</svg>
