<svg width="354" height="248" viewBox="0 0 354 248" fill="none" xmlns="http://www.w3.org/2000/svg">
<path d="M1.79004 245.972C1.79004 245.972 113.28 211.542 180.24 214.702C248.46 217.932 249.66 245.972 353 245.972" stroke="#00A2EA" stroke-width="2.41" stroke-miterlimit="10"/>
<path d="M1.79004 240.581C1.79004 240.581 108.53 202.081 176.84 204.611C246.77 207.151 247.44 241.531 352.99 242.941" stroke="#00A2EA" stroke-width="2.41" stroke-miterlimit="10"/>
<path d="M1.79004 235.181C1.79004 235.181 103.79 192.621 173.45 194.501C245.09 196.351 245.23 237.081 352.99 239.891" stroke="#00A2EA" stroke-width="2.41" stroke-miterlimit="10"/>
<path d="M1.79004 229.791C1.79004 229.791 99.04 183.161 170.06 184.411C243.4 185.571 243.02 232.641 353 236.861" stroke="#00A2EA" stroke-width="2.41" stroke-miterlimit="10"/>
<path d="M1.79004 224.401C1.79004 224.401 94.29 173.711 166.67 174.311C241.72 174.781 240.81 228.201 353 233.821" stroke="#00A2EA" stroke-width="2.41" stroke-miterlimit="10"/>
<path d="M1.79004 219.011C1.79004 219.011 89.55 164.261 163.27 164.221C240.03 164.001 238.59 223.761 352.99 230.791" stroke="#00A2EA" stroke-width="2.41" stroke-miterlimit="10"/>
<path d="M1.79004 213.611C1.79004 213.611 84.8 154.791 159.88 154.111C238.35 153.201 236.38 219.311 352.99 227.751" stroke="#00A2EA" stroke-width="2.41" stroke-miterlimit="10"/>
<path d="M1.79004 208.221C1.79004 208.221 80.06 145.341 156.49 144.011C236.67 142.411 234.17 214.861 353 224.711" stroke="#00A2EA" stroke-width="2.41" stroke-miterlimit="10"/>
<path d="M1.79004 202.831C1.79004 202.831 75.31 135.891 153.1 133.921C234.99 131.631 231.96 210.431 353 221.681" stroke="#00A2EA" stroke-width="2.41" stroke-miterlimit="10"/>
<path d="M1.79004 197.431C1.79004 197.431 70.56 126.421 149.71 123.811C233.3 120.831 229.74 205.971 353 218.631" stroke="#00A2EA" stroke-width="2.41" stroke-miterlimit="10"/>
<path d="M1.79004 192.041C1.79004 192.041 65.82 116.971 146.31 113.721C231.61 110.051 227.52 201.531 352.99 215.601" stroke="#00A2EA" stroke-width="2.41" stroke-miterlimit="10"/>
<path d="M1.79004 186.651C1.79004 186.651 61.07 107.511 142.92 103.621C229.93 99.2613 225.31 197.091 352.99 212.561" stroke="#00A2EA" stroke-width="2.41" stroke-miterlimit="10"/>
<path d="M1.79004 181.261C1.79004 181.261 56.32 98.0611 139.53 93.5311C228.25 88.4811 223.1 192.651 353 209.531" stroke="#00A2EA" stroke-width="2.41" stroke-miterlimit="10"/>
<path d="M1.79004 175.861C1.79004 175.861 51.58 88.6014 136.14 83.4214C226.57 77.6814 220.89 188.201 353 206.491" stroke="#00A2EA" stroke-width="2.41" stroke-miterlimit="10"/>
<path d="M1.79004 170.471C1.79004 170.471 46.83 79.1415 132.74 73.3215C224.87 66.8915 218.67 183.751 352.99 203.451" stroke="#00A2EA" stroke-width="2.41" stroke-miterlimit="10"/>
<path d="M1.79004 165.081C1.79004 165.081 42.09 69.6912 129.35 63.2312C223.19 56.1112 216.46 179.321 352.99 200.421" stroke="#00A2EA" stroke-width="2.41" stroke-miterlimit="10"/>
<path d="M1.79004 159.681C1.79004 159.681 37.34 60.2314 125.96 53.1314C221.51 45.3214 214.25 174.871 353 197.381" stroke="#00A2EA" stroke-width="2.41" stroke-miterlimit="10"/>
<path d="M1.79004 154.291C1.79004 154.291 32.59 50.7711 122.57 43.0311C219.83 34.5411 212.04 170.431 353 194.341" stroke="#00A2EA" stroke-width="2.41" stroke-miterlimit="10"/>
<path d="M1.79004 148.901C1.79004 148.901 27.85 41.3211 119.17 32.9311C218.14 23.7511 209.82 165.981 352.99 191.301" stroke="#00A2EA" stroke-width="2.41" stroke-miterlimit="10"/>
<path d="M1.79004 143.511C1.79004 143.511 23.1 31.8613 115.78 22.8313C216.45 12.9613 207.61 161.541 352.99 188.261" stroke="#00A2EA" stroke-width="2.41" stroke-miterlimit="10"/>
<path d="M1.79004 138.111C1.79004 138.111 18.35 22.4011 112.39 12.7311C214.77 2.17115 205.4 157.091 352.99 185.231" stroke="#00A2EA" stroke-width="2.41" stroke-miterlimit="10"/>
<path d="M1.79004 132.721C1.79004 132.721 13.61 12.9513 109 2.64131C213.09 -8.60869 203.19 152.661 353 182.201" stroke="#00A2EA" stroke-width="2.41" stroke-miterlimit="10"/>
</svg>
