<svg width="376" height="230" viewBox="0 0 376 230" fill="none" xmlns="http://www.w3.org/2000/svg">
<path d="M224.33 1.75146C224.33 1.75146 140.36 5.31146 121.84 98.4315C96.99 223.421 1 228.251 1 228.251" stroke="#00A2EA" stroke-width="2.41" stroke-miterlimit="10"/>
<path d="M235.15 1.75146C235.15 1.75146 151.18 5.31146 132.66 98.4315C107.8 223.421 11.8096 228.251 11.8096 228.251" stroke="#00A2EA" stroke-width="2.41" stroke-miterlimit="10"/>
<path d="M245.96 1.75146C245.96 1.75146 161.99 5.31146 143.47 98.4315C118.61 223.421 22.6201 228.251 22.6201 228.251" stroke="#00A2EA" stroke-width="2.41" stroke-miterlimit="10"/>
<path d="M256.77 1.75146C256.77 1.75146 172.8 5.31146 154.28 98.4315C129.42 223.421 33.4297 228.251 33.4297 228.251" stroke="#00A2EA" stroke-width="2.41" stroke-miterlimit="10"/>
<path d="M267.58 1.75146C267.58 1.75146 183.61 5.31146 165.09 98.4315C140.23 223.421 44.2402 228.251 44.2402 228.251" stroke="#00A2EA" stroke-width="2.41" stroke-miterlimit="10"/>
<path d="M278.39 1.75146C278.39 1.75146 194.42 5.31146 175.9 98.4315C151.04 223.421 55.0498 228.251 55.0498 228.251" stroke="#00A2EA" stroke-width="2.41" stroke-miterlimit="10"/>
<path d="M289.2 1.75146C289.2 1.75146 205.23 5.31146 186.71 98.4315C161.85 223.421 65.8604 228.251 65.8604 228.251" stroke="#00A2EA" stroke-width="2.41" stroke-miterlimit="10"/>
<path d="M300.01 1.75146C300.01 1.75146 216.04 5.31146 197.52 98.4315C172.66 223.421 76.6699 228.251 76.6699 228.251" stroke="#00A2EA" stroke-width="2.41" stroke-miterlimit="10"/>
<path d="M310.82 1.75146C310.82 1.75146 226.85 5.31146 208.33 98.4315C183.47 223.421 87.4805 228.251 87.4805 228.251" stroke="#00A2EA" stroke-width="2.41" stroke-miterlimit="10"/>
<path d="M321.63 1.75146C321.63 1.75146 237.66 5.31146 219.14 98.4315C194.28 223.421 98.29 228.251 98.29 228.251" stroke="#00A2EA" stroke-width="2.41" stroke-miterlimit="10"/>
<path d="M332.44 1.75146C332.44 1.75146 248.47 5.31146 229.95 98.4315C205.09 223.421 109.1 228.251 109.1 228.251" stroke="#00A2EA" stroke-width="2.41" stroke-miterlimit="10"/>
<path d="M343.25 1.75146C343.25 1.75146 259.28 5.31146 240.76 98.4315C215.9 223.421 119.91 228.251 119.91 228.251" stroke="#00A2EA" stroke-width="2.41" stroke-miterlimit="10"/>
<path d="M354.06 1.75146C354.06 1.75146 270.09 5.31146 251.57 98.4315C226.71 223.421 130.72 228.251 130.72 228.251" stroke="#00A2EA" stroke-width="2.41" stroke-miterlimit="10"/>
<path d="M364.87 1.75146C364.87 1.75146 280.9 5.31146 262.38 98.4315C237.52 223.421 141.53 228.251 141.53 228.251" stroke="#00A2EA" stroke-width="2.41" stroke-miterlimit="10"/>
<path d="M375.69 1.75146C375.69 1.75146 291.72 5.31146 273.2 98.4315C248.34 223.421 152.35 228.251 152.35 228.251" stroke="#00A2EA" stroke-width="2.41" stroke-miterlimit="10"/>
</svg>
