<svg width="256" height="327" viewBox="0 0 256 327" fill="none" xmlns="http://www.w3.org/2000/svg">
<path d="M1.53125 1.7002C1.53125 1.7002 11.5513 149.22 139.631 164.8C278.021 181.64 225.371 326.04 225.371 326.04" stroke="#00A2EA" stroke-width="2" stroke-miterlimit="10"/>
<path d="M12.0908 1.7002C12.0908 1.7002 19.1708 145.24 139.911 164.8C270.701 185.99 217.051 326.04 217.051 326.04" stroke="#00A2EA" stroke-width="2" stroke-miterlimit="10"/>
<path d="M22.6416 1.7002C22.6416 1.7002 26.7116 141.27 140.172 164.8C263.312 190.34 208.712 326.04 208.712 326.04" stroke="#00A2EA" stroke-width="2" stroke-miterlimit="10"/>
<path d="M33.2012 1.7002C33.2012 1.7002 34.1812 137.29 140.441 164.8C255.841 194.68 200.381 326.04 200.381 326.04" stroke="#00A2EA" stroke-width="2" stroke-miterlimit="10"/>
<path d="M43.7609 1.7002C43.7609 1.7002 41.5508 133.28 140.711 164.8C248.291 199 192.051 326.04 192.051 326.04" stroke="#00A2EA" stroke-width="2" stroke-miterlimit="10"/>
<path d="M54.3213 1.7002C54.3213 1.7002 48.8213 129.22 140.981 164.8C240.641 203.28 183.721 326.04 183.721 326.04" stroke="#00A2EA" stroke-width="2" stroke-miterlimit="10"/>
<path d="M64.8816 1.7002C64.8816 1.7002 55.9817 125.1 141.252 164.8C232.892 207.47 175.392 326.04 175.392 326.04" stroke="#00A2EA" stroke-width="2" stroke-miterlimit="10"/>
<path d="M75.4315 1.7002C75.4315 1.7002 63.0115 120.87 141.511 164.8C225.041 211.55 167.051 326.04 167.051 326.04" stroke="#00A2EA" stroke-width="2" stroke-miterlimit="10"/>
<path d="M85.9917 1.7002C85.9917 1.7002 69.9517 116.49 141.782 164.8C217.122 215.46 158.722 326.04 158.722 326.04" stroke="#00A2EA" stroke-width="2" stroke-miterlimit="10"/>
<path d="M96.5515 1.7002C96.5515 1.7002 76.8215 111.94 142.062 164.8C209.162 219.17 150.402 326.04 150.402 326.04" stroke="#00A2EA" stroke-width="2" stroke-miterlimit="10"/>
<path d="M107.111 1.7002C107.111 1.7002 83.6712 107.18 142.331 164.8C201.211 222.65 142.071 326.04 142.071 326.04" stroke="#00A2EA" stroke-width="2" stroke-miterlimit="10"/>
<path d="M117.672 1.7002C117.672 1.7002 90.5718 102.18 142.602 164.8C193.342 225.87 133.742 326.04 133.742 326.04" stroke="#00A2EA" stroke-width="2" stroke-miterlimit="10"/>
<path d="M128.222 1.7002C128.222 1.7002 97.5916 96.9702 142.862 164.8C185.612 228.87 125.402 326.04 125.402 326.04" stroke="#00A2EA" stroke-width="2" stroke-miterlimit="10"/>
<path d="M138.781 1.7002C138.781 1.7002 104.841 91.5702 143.131 164.8C178.111 231.69 117.071 326.04 117.071 326.04" stroke="#00A2EA" stroke-width="2" stroke-miterlimit="10"/>
<path d="M149.341 1.7002C149.341 1.7002 112.371 86.0602 143.401 164.8C170.841 234.42 108.741 326.04 108.741 326.04" stroke="#00A2EA" stroke-width="2" stroke-miterlimit="10"/>
<path d="M159.901 1.7002C159.901 1.7002 120.191 80.5302 143.671 164.8C163.831 237.14 100.411 326.04 100.411 326.04" stroke="#00A2EA" stroke-width="2" stroke-miterlimit="10"/>
<path d="M170.461 1.7002C170.461 1.7002 128.311 75.0602 143.941 164.8C157.031 239.93 92.0811 326.04 92.0811 326.04" stroke="#00A2EA" stroke-width="2" stroke-miterlimit="10"/>
<path d="M181.011 1.7002C181.011 1.7002 136.661 69.7102 144.201 164.8C150.391 242.84 83.7412 326.04 83.7412 326.04" stroke="#00A2EA" stroke-width="2" stroke-miterlimit="10"/>
<path d="M191.571 1.7002C191.571 1.7002 145.201 64.5302 144.481 164.8C143.901 245.9 75.4209 326.04 75.4209 326.04" stroke="#00A2EA" stroke-width="2" stroke-miterlimit="10"/>
<path d="M202.131 1.7002C202.131 1.7002 153.851 59.5202 144.751 164.8C137.461 249.13 67.0908 326.04 67.0908 326.04" stroke="#00A2EA" stroke-width="2" stroke-miterlimit="10"/>
<path d="M212.692 1.7002C212.692 1.7002 162.552 54.6802 145.022 164.8C131.052 252.51 58.7617 326.04 58.7617 326.04" stroke="#00A2EA" stroke-width="2" stroke-miterlimit="10"/>
<path d="M223.252 1.7002C223.252 1.7002 171.272 49.9902 145.292 164.8C124.652 256.03 50.4316 326.04 50.4316 326.04" stroke="#00A2EA" stroke-width="2" stroke-miterlimit="10"/>
<path d="M233.812 1.7002C233.812 1.7002 179.972 45.4202 145.562 164.8C118.222 259.67 42.1016 326.04 42.1016 326.04" stroke="#00A2EA" stroke-width="2" stroke-miterlimit="10"/>
<path d="M244.362 1.7002C244.362 1.7002 188.622 40.9502 145.822 164.8C111.752 263.39 33.7617 326.04 33.7617 326.04" stroke="#00A2EA" stroke-width="2" stroke-miterlimit="10"/>
<path d="M254.922 1.7002C254.922 1.7002 197.242 36.5702 146.092 164.8C105.252 267.2 25.4316 326.04 25.4316 326.04" stroke="#00A2EA" stroke-width="2" stroke-miterlimit="10"/>
</svg>
